<?xml version="1.0" encoding="UTF-8" standalone="no"?>
<!-- Created with Inkscape (http://www.inkscape.org/) -->

<svg
   xmlns:dc="http://purl.org/dc/elements/1.1/"
   xmlns:cc="http://creativecommons.org/ns#"
   xmlns:rdf="http://www.w3.org/1999/02/22-rdf-syntax-ns#"
   xmlns:svg="http://www.w3.org/2000/svg"
   xmlns="http://www.w3.org/2000/svg"
   xmlns:sodipodi="http://sodipodi.sourceforge.net/DTD/sodipodi-0.dtd"
   xmlns:inkscape="http://www.inkscape.org/namespaces/inkscape"
   width="32px"
   height="32px"
   viewBox="0 0 32 32"
   version="1.1"
   id="SVGRoot"
   sodipodi:docname="face_latin_eye.svg"
   inkscape:version="0.92.4 (5da689c313, 2019-01-14)">
  <defs
     id="defs863" />
  <sodipodi:namedview
     id="base"
     pagecolor="#ffffff"
     bordercolor="#666666"
     borderopacity="1.0"
     inkscape:pageopacity="0.0"
     inkscape:pageshadow="2"
     inkscape:zoom="22.627416"
     inkscape:cx="8.2599172"
     inkscape:cy="13.887633"
     inkscape:document-units="px"
     inkscape:current-layer="layer1"
     showgrid="true"
     inkscape:window-width="1920"
     inkscape:window-height="1017"
     inkscape:window-x="-8"
     inkscape:window-y="-8"
     inkscape:window-maximized="1"
     inkscape:grid-bbox="true">
    <inkscape:grid
       type="xygrid"
       id="grid1706" />
  </sodipodi:namedview>
  <metadata
     id="metadata866">
    <rdf:RDF>
      <cc:Work
         rdf:about="">
        <dc:format>image/svg+xml</dc:format>
        <dc:type
           rdf:resource="http://purl.org/dc/dcmitype/StillImage" />
        <dc:title></dc:title>
      </cc:Work>
    </rdf:RDF>
  </metadata>
  <g
     inkscape:label="Layer 1"
     inkscape:groupmode="layer"
     id="layer1">
    <path
       style="opacity:1;fill:#ffca64;fill-opacity:1;stroke:#2c2c2c;stroke-width:0.10552152;stroke-miterlimit:4;stroke-dasharray:none;stroke-opacity:1"
       d="M 16.656554,7.1487882 A 9.9972391,11.137864 0 0 0 6.6585071,18.28746 9.9972391,11.137864 0 0 0 13.656554,28.900741 v 3.009766 h 6 v -3 A 9.9972391,11.137864 0 0 0 26.654601,18.28746 9.9972391,11.137864 0 0 0 16.656554,7.1487882 Z"
       id="path1710"
       inkscape:connector-curvature="0" />
    <path
       style="fill:none;stroke:#000000;stroke-width:1px;stroke-linecap:butt;stroke-linejoin:miter;stroke-opacity:1"
       d="m 13.656554,22.910507 c 1.899773,1.31698 4.850078,1.074961 7,0"
       id="path7119"
       inkscape:connector-curvature="0" />
    <path
       style="opacity:1;fill:#14110d;fill-opacity:1;fill-rule:nonzero;stroke:#000000;stroke-width:0.13377701;stroke-miterlimit:4;stroke-dasharray:none;stroke-dashoffset:0;stroke-opacity:1"
       d="M 13.81913,14.910507 A 1.3656896,2.6208426 0 0 0 12.454316,17.531601 1.3656896,2.6208426 0 0 0 13.81913,20.152694 1.3656896,2.6208426 0 0 0 15.162576,18 l -1.207232,-0.633431 1.16717,-0.611588 A 1.3656896,2.6208426 0 0 0 13.81913,14.910507 Z m 6.837424,0 A 1.3656896,2.6208426 0 0 0 19.29174,17.531601 1.3656896,2.6208426 0 0 0 20.656554,20.152694 1.3656896,2.6208426 0 0 0 22,18 l -1.207232,-0.633431 1.16717,-0.611588 a 1.3656896,2.6208426 0 0 0 -1.303384,-1.844474 z"
       id="path4407"
       inkscape:connector-curvature="0" />
    <circle
       style="opacity:1;fill:#ffca64;fill-opacity:1;stroke:#2c2c2c;stroke-width:0.1;stroke-miterlimit:4;stroke-dasharray:none;stroke-opacity:1"
       id="path1710-8"
       cx="16"
       cy="16"
       r="0" />
    <circle
       style="opacity:1;fill:#ffca64;fill-opacity:1;stroke:#2c2c2c;stroke-width:0.1;stroke-miterlimit:4;stroke-dasharray:none;stroke-opacity:1"
       id="path1710-87"
       cx="16"
       cy="16"
       r="0" />
  </g>
</svg>
