<?xml version="1.0" encoding="UTF-8" standalone="no"?>
<!-- Created with Inkscape (http://www.inkscape.org/) -->

<svg
   xmlns:dc="http://purl.org/dc/elements/1.1/"
   xmlns:cc="http://creativecommons.org/ns#"
   xmlns:rdf="http://www.w3.org/1999/02/22-rdf-syntax-ns#"
   xmlns:svg="http://www.w3.org/2000/svg"
   xmlns="http://www.w3.org/2000/svg"
   xmlns:sodipodi="http://sodipodi.sourceforge.net/DTD/sodipodi-0.dtd"
   xmlns:inkscape="http://www.inkscape.org/namespaces/inkscape"
   width="32px"
   height="32px"
   viewBox="0 0 32 32"
   version="1.1"
   id="SVGRoot"
   sodipodi:docname="simple_open_mouth.svg"
   inkscape:version="0.92.4 (5da689c313, 2019-01-14)">
  <defs
     id="defs863" />
  <sodipodi:namedview
     id="base"
     pagecolor="#ffffff"
     bordercolor="#666666"
     borderopacity="1.0"
     inkscape:pageopacity="0.0"
     inkscape:pageshadow="2"
     inkscape:zoom="90.509664"
     inkscape:cx="15.467325"
     inkscape:cy="14.223432"
     inkscape:document-units="px"
     inkscape:current-layer="layer1"
     showgrid="false"
     inkscape:window-width="1920"
     inkscape:window-height="1017"
     inkscape:window-x="-8"
     inkscape:window-y="-8"
     inkscape:window-maximized="1"
     inkscape:grid-bbox="true">
    <inkscape:grid
       type="xygrid"
       id="grid1706" />
  </sodipodi:namedview>
  <metadata
     id="metadata866">
    <rdf:RDF>
      <cc:Work
         rdf:about="">
        <dc:format>image/svg+xml</dc:format>
        <dc:type
           rdf:resource="http://purl.org/dc/dcmitype/StillImage" />
        <dc:title></dc:title>
      </cc:Work>
    </rdf:RDF>
  </metadata>
  <g
     inkscape:label="Layer 1"
     inkscape:groupmode="layer"
     id="layer1">
    <circle
       style="opacity:1;fill:#ffca64;fill-opacity:1;stroke:#2c2c2c;stroke-width:0.1;stroke-miterlimit:4;stroke-dasharray:none;stroke-opacity:1"
       id="path1710-8"
       cx="16"
       cy="16"
       r="0" />
    <circle
       style="opacity:1;fill:#ffca64;fill-opacity:1;stroke:#2c2c2c;stroke-width:0.1;stroke-miterlimit:4;stroke-dasharray:none;stroke-opacity:1"
       id="path1710-87"
       cx="16"
       cy="16"
       r="0" />
    <path
       style="opacity:1;fill:#000000;fill-opacity:1;fill-rule:nonzero;stroke:none;stroke-width:0.0015625;stroke-miterlimit:4;stroke-dasharray:none;stroke-dashoffset:0;stroke-opacity:1"
       d="m 14.527748,20.335836 c -1.388785,-0.06163 -2.650189,-0.482073 -3.554688,-1.184832 -0.185949,-0.144475 -0.511513,-0.464692 -0.660958,-0.650102 -0.5448452,-0.67597 -0.8215744,-1.458693 -0.864071,-2.444007 -0.00937,-0.217181 -0.0077,-0.255133 0.010889,-0.247546 1.499863,0.612282 4.072669,1.058938 6.82664,1.185151 0.512635,0.02349 1.694745,0.02353 2.117188,6.6e-5 0.794343,-0.04412 1.414531,-0.120073 1.912102,-0.234163 0.104203,-0.02389 0.189419,-0.03932 0.189368,-0.03428 -4.7e-5,0.005 -0.01035,0.07723 -0.0229,0.160441 -0.157715,1.046286 -0.828814,1.928442 -1.953574,2.567966 -0.764369,0.434609 -1.731126,0.731746 -2.742188,0.842822 -0.202245,0.02222 -0.852398,0.05798 -0.953125,0.05243 -0.02148,-0.0012 -0.158594,-0.0075 -0.304687,-0.01394 z"
       id="path3150"
       inkscape:connector-curvature="0" />
  </g>
</svg>
