<?xml version="1.0" encoding="UTF-8" standalone="no"?>
<!-- Created with Inkscape (http://www.inkscape.org/) -->

<svg
   xmlns:dc="http://purl.org/dc/elements/1.1/"
   xmlns:cc="http://creativecommons.org/ns#"
   xmlns:rdf="http://www.w3.org/1999/02/22-rdf-syntax-ns#"
   xmlns:svg="http://www.w3.org/2000/svg"
   xmlns="http://www.w3.org/2000/svg"
   xmlns:sodipodi="http://sodipodi.sourceforge.net/DTD/sodipodi-0.dtd"
   xmlns:inkscape="http://www.inkscape.org/namespaces/inkscape"
   width="32px"
   height="32px"
   viewBox="0 0 32 32"
   version="1.1"
   id="SVGRoot"
   sodipodi:docname="simple_tongue_mouth_open.svg"
   inkscape:version="0.92.4 (5da689c313, 2019-01-14)">
  <defs
     id="defs863" />
  <sodipodi:namedview
     id="base"
     pagecolor="#ffffff"
     bordercolor="#666666"
     borderopacity="1.0"
     inkscape:pageopacity="0.0"
     inkscape:pageshadow="2"
     inkscape:zoom="45.254832"
     inkscape:cx="20.132125"
     inkscape:cy="16.201675"
     inkscape:document-units="px"
     inkscape:current-layer="layer1"
     showgrid="false"
     inkscape:window-width="1920"
     inkscape:window-height="1017"
     inkscape:window-x="-8"
     inkscape:window-y="-8"
     inkscape:window-maximized="1"
     inkscape:grid-bbox="true">
    <inkscape:grid
       type="xygrid"
       id="grid1706" />
  </sodipodi:namedview>
  <metadata
     id="metadata866">
    <rdf:RDF>
      <cc:Work
         rdf:about="">
        <dc:format>image/svg+xml</dc:format>
        <dc:type
           rdf:resource="http://purl.org/dc/dcmitype/StillImage" />
        <dc:title></dc:title>
      </cc:Work>
    </rdf:RDF>
  </metadata>
  <g
     inkscape:label="Layer 1"
     inkscape:groupmode="layer"
     id="layer1">
    <path
       style="opacity:1;fill:#b52520;fill-opacity:1;fill-rule:nonzero;stroke:none;stroke-width:1.99275017;stroke-miterlimit:4;stroke-dasharray:none;stroke-dashoffset:0;stroke-opacity:1"
       d="m 16,18 a 6.0156335,4.5027037 0 0 1 -6.015633,-4.502432 6.0156335,4.5027037 0 0 1 0.0058,-0.113989 14.176378,10.611024 0 0 1 5.97483,-1.005145 14.176378,10.611024 0 0 1 6.044779,1.025871 6.0156335,4.5027037 0 0 1 0.0058,0.09327 A 6.0156335,4.5027037 0 0 1 16,18 Z"
       id="path1539-4-4"
       inkscape:connector-curvature="0" />
    <circle
       style="opacity:1;fill:#ffca64;fill-opacity:1;stroke:#2c2c2c;stroke-width:0.1;stroke-miterlimit:4;stroke-dasharray:none;stroke-opacity:1"
       id="path1710-8"
       cx="16"
       cy="16"
       r="0" />
    <circle
       style="opacity:1;fill:#ffca64;fill-opacity:1;stroke:#2c2c2c;stroke-width:0.1;stroke-miterlimit:4;stroke-dasharray:none;stroke-opacity:1"
       id="path1710-87"
       cx="16"
       cy="16"
       r="0" />
    <ellipse
       style="opacity:1;fill:#280c0b;fill-opacity:1;fill-rule:nonzero;stroke:none;stroke-width:1.01710391;stroke-miterlimit:4;stroke-dasharray:none;stroke-dashoffset:0;stroke-opacity:1"
       id="path1539"
       cx="15.944757"
       cy="16.137159"
       rx="9.5"
       ry="4.125" />
    <path
       style="opacity:1;fill:#b52520;fill-opacity:1;fill-rule:nonzero;stroke:none;stroke-width:1.39638996;stroke-miterlimit:4;stroke-dasharray:none;stroke-dashoffset:0;stroke-opacity:1"
       d="m 16.000006,16 a 4.0312495,3.2993075 0 0 0 -4.031249,3.299109 4.0312495,3.2993075 0 0 0 0.0039,0.08352 9.5,7.7751128 0 0 0 4.003906,0.736509 9.5,7.7751128 0 0 0 4.050781,-0.751696 4.0312495,3.2993075 0 0 0 0.0039,-0.06834 A 4.0312495,3.2993075 0 0 0 16.000006,16 Z"
       id="path1539-4"
       inkscape:connector-curvature="0" />
    <path
       style="opacity:1;fill:#e0e0e0;fill-opacity:1;fill-rule:nonzero;stroke:none;stroke-width:1.00157475;stroke-miterlimit:4;stroke-dasharray:none;stroke-dashoffset:0;stroke-opacity:1"
       d="M 16,12 A 9.5,4 0 0 0 8.361328,13.628906 9.5,1.1562499 0 0 0 15.875,14.078125 9.5,1.1562499 0 0 0 23.582031,13.595703 9.5,4 0 0 0 16,12 Z"
       id="path1539-6"
       inkscape:connector-curvature="0" />
    <path
       style="opacity:1;fill:#e0e0e0;fill-opacity:1;fill-rule:nonzero;stroke:none;stroke-width:0.98027492;stroke-miterlimit:4;stroke-dasharray:none;stroke-dashoffset:0;stroke-opacity:1"
       d="m 15.956407,20.298311 a 9.2979695,3.9149345 0 0 0 7.476225,-1.594265 9.2979695,1.1316607 0 0 0 -7.353883,-0.439666 9.2979695,1.1316607 0 0 0 -7.5431296,0.472163 9.2979695,3.9149345 0 0 0 7.4207876,1.561768 z"
       id="path1539-6-7"
       inkscape:connector-curvature="0" />
  </g>
</svg>
