<?xml version="1.0" encoding="UTF-8" standalone="no"?>
<!-- Created with Inkscape (http://www.inkscape.org/) -->

<svg
   xmlns:dc="http://purl.org/dc/elements/1.1/"
   xmlns:cc="http://creativecommons.org/ns#"
   xmlns:rdf="http://www.w3.org/1999/02/22-rdf-syntax-ns#"
   xmlns:svg="http://www.w3.org/2000/svg"
   xmlns="http://www.w3.org/2000/svg"
   xmlns:sodipodi="http://sodipodi.sourceforge.net/DTD/sodipodi-0.dtd"
   xmlns:inkscape="http://www.inkscape.org/namespaces/inkscape"
   width="109.95933mm"
   height="129.95193mm"
   viewBox="0 0 109.95933 129.95193"
   version="1.1"
   id="svg8"
   inkscape:version="0.92.4 (5da689c313, 2019-01-14)"
   sodipodi:docname="anxious_face.svg">
  <defs
     id="defs2" />
  <sodipodi:namedview
     id="base"
     pagecolor="#ffffff"
     bordercolor="#666666"
     borderopacity="1.0"
     inkscape:pageopacity="0.0"
     inkscape:pageshadow="2"
     inkscape:zoom="1.4142136"
     inkscape:cx="273.5469"
     inkscape:cy="254.72338"
     inkscape:document-units="mm"
     inkscape:current-layer="layer3"
     showgrid="false"
     inkscape:window-width="1920"
     inkscape:window-height="1017"
     inkscape:window-x="-8"
     inkscape:window-y="-8"
     inkscape:window-maximized="1">
    <inkscape:grid
       type="xygrid"
       id="grid1587"
       originx="-93.894516"
       originy="-20.56681" />
  </sodipodi:namedview>
  <metadata
     id="metadata5">
    <rdf:RDF>
      <cc:Work
         rdf:about="">
        <dc:format>image/svg+xml</dc:format>
        <dc:type
           rdf:resource="http://purl.org/dc/dcmitype/StillImage" />
        <dc:title />
      </cc:Work>
    </rdf:RDF>
  </metadata>
  <g
     inkscape:label="Layer 1"
     inkscape:groupmode="layer"
     id="layer1"
     transform="translate(-93.894512,-146.48125)"
     style="display:inline;opacity:1" />
  <g
     inkscape:groupmode="layer"
     id="layer2"
     inkscape:label="Layer 2"
     style="display:inline"
     transform="translate(-93.894512,-59.481255)" />
  <g
     inkscape:groupmode="layer"
     id="layer3"
     inkscape:label="Layer 3"
     style="display:inline"
     transform="translate(-93.894512,-59.481255)">
    <ellipse
       style="display:inline;opacity:1;fill:#ffca64;fill-opacity:1;fill-rule:nonzero;stroke:none;stroke-width:0.09996301;stroke-miterlimit:4;stroke-dasharray:none;stroke-dashoffset:0;stroke-opacity:1"
       id="path1566"
       cx="148.87418"
       cy="124.45722"
       rx="54.979664"
       ry="64.975967" />
    <g
       style="display:inline;opacity:1"
       id="layer1-5"
       inkscape:label="Layer 1"
       transform="matrix(6.2309369,0,0,6.2309369,43.31626,2.0740156)">
      <path
         inkscape:connector-curvature="0"
         id="path4407"
         d="M 13.81913,14.910507 A 1.3656896,2.6208426 0 0 0 12.454316,17.531601 1.3656896,2.6208426 0 0 0 13.81913,20.152694 1.3656896,2.6208426 0 0 0 15.162576,18 l -1.207232,-0.633431 1.16717,-0.611588 A 1.3656896,2.6208426 0 0 0 13.81913,14.910507 Z m 6.837424,0 A 1.3656896,2.6208426 0 0 0 19.29174,17.531601 1.3656896,2.6208426 0 0 0 20.656554,20.152694 1.3656896,2.6208426 0 0 0 22,18 l -1.207232,-0.633431 1.16717,-0.611588 a 1.3656896,2.6208426 0 0 0 -1.303384,-1.844474 z"
         style="opacity:1;fill:#14110d;fill-opacity:1;fill-rule:nonzero;stroke:#000000;stroke-width:0.13377701;stroke-miterlimit:4;stroke-dasharray:none;stroke-dashoffset:0;stroke-opacity:1" />
      <circle
         r="0"
         cy="16"
         cx="16"
         id="path1710-8"
         style="opacity:1;fill:#ffca64;fill-opacity:1;stroke:#2c2c2c;stroke-width:0.1;stroke-miterlimit:4;stroke-dasharray:none;stroke-opacity:1" />
      <circle
         r="0"
         cy="16"
         cx="16"
         id="path1710-87"
         style="opacity:1;fill:#ffca64;fill-opacity:1;stroke:#2c2c2c;stroke-width:0.1;stroke-miterlimit:4;stroke-dasharray:none;stroke-opacity:1" />
    </g>
    <path
       style="color:#000000;font-style:normal;font-variant:normal;font-weight:normal;font-stretch:normal;font-size:medium;line-height:normal;font-family:sans-serif;font-variant-ligatures:normal;font-variant-position:normal;font-variant-caps:normal;font-variant-numeric:normal;font-variant-alternates:normal;font-feature-settings:normal;text-indent:0;text-align:start;text-decoration:none;text-decoration-line:none;text-decoration-style:solid;text-decoration-color:#000000;letter-spacing:normal;word-spacing:normal;text-transform:none;writing-mode:lr-tb;direction:ltr;text-orientation:mixed;dominant-baseline:auto;baseline-shift:baseline;text-anchor:start;white-space:normal;shape-padding:0;clip-rule:nonzero;display:inline;overflow:visible;visibility:visible;opacity:1;isolation:auto;mix-blend-mode:normal;color-interpolation:sRGB;color-interpolation-filters:linearRGB;solid-color:#000000;solid-opacity:1;vector-effect:none;fill:#14110d;fill-opacity:1;fill-rule:nonzero;stroke:none;stroke-width:1.48728466;stroke-linecap:butt;stroke-linejoin:miter;stroke-miterlimit:4;stroke-dasharray:none;stroke-dashoffset:0;stroke-opacity:1;color-rendering:auto;image-rendering:auto;shape-rendering:auto;text-rendering:auto;enable-background:accumulate"
       d="m 144.78186,148.04137 c -3.8515,-0.0208 -7.01287,3.09955 -7.05948,7.03203 v 0.003 0.004 c -0.004,3.15548 -2.41154,5.42352 -5.48812,5.44008 -3.05176,0.0164 -5.52821,-2.42002 -5.56084,-5.47165 l -1.48628,0.0164 c 0.0412,3.85258 3.20263,6.96353 7.05536,6.94283 3.82538,-0.0206 6.96207,-2.99477 6.96753,-6.92499 v 0.007 c 0.0374,-3.1531 2.51285,-5.57731 5.5636,-5.56085 3.05163,0.0164 5.50051,2.45695 5.50046,5.73651 v 0.003 0.004 c 0.0408,4.03572 3.20263,7.16939 7.05537,7.14868 3.82537,-0.0206 6.96207,-2.99476 6.96752,-6.92498 v 0.008 c 0.0374,-3.15309 2.51285,-5.57868 5.5636,-5.56222 3.05162,0.0164 5.50188,2.48035 5.50184,5.53203 h 1.48765 c 6e-5,-3.85265 -3.12868,-6.99758 -6.98126,-7.01831 -3.85151,-0.0208 -7.0115,3.09818 -7.0581,7.03066 v 0.004 l -0.001,0.004 c -0.004,3.15549 -2.41154,5.42352 -5.48811,5.44008 -3.05177,0.0164 -5.52639,-2.39821 -5.55948,-5.6775 v 0.008 c 6e-5,-4.03555 -3.1273,-7.20343 -6.97988,-7.22416 z"
       id="path838-9"
       inkscape:connector-curvature="0" />
  </g>
  <g
     inkscape:groupmode="layer"
     id="layer4"
     inkscape:label="Layer 4"
     style="display:inline"
     transform="translate(-93.894512,-59.481255)" />
</svg>
