<?xml version="1.0" encoding="UTF-8" standalone="no"?>
<!-- Created with Inkscape (http://www.inkscape.org/) -->

<svg
   xmlns:dc="http://purl.org/dc/elements/1.1/"
   xmlns:cc="http://creativecommons.org/ns#"
   xmlns:rdf="http://www.w3.org/1999/02/22-rdf-syntax-ns#"
   xmlns:svg="http://www.w3.org/2000/svg"
   xmlns="http://www.w3.org/2000/svg"
   xmlns:sodipodi="http://sodipodi.sourceforge.net/DTD/sodipodi-0.dtd"
   xmlns:inkscape="http://www.inkscape.org/namespaces/inkscape"
   width="137.65263mm"
   height="158.74255mm"
   viewBox="0 0 137.65263 158.74255"
   version="1.1"
   id="svg8"
   inkscape:version="0.92.4 (5da689c313, 2019-01-14)"
   sodipodi:docname="bag_of_money.svg">
  <defs
     id="defs2" />
  <sodipodi:namedview
     id="base"
     pagecolor="#ffffff"
     bordercolor="#666666"
     borderopacity="1.0"
     inkscape:pageopacity="0.0"
     inkscape:pageshadow="2"
     inkscape:zoom="1"
     inkscape:cx="118.63717"
     inkscape:cy="302.54203"
     inkscape:document-units="mm"
     inkscape:current-layer="layer3"
     showgrid="true"
     inkscape:window-width="1920"
     inkscape:window-height="1017"
     inkscape:window-x="-8"
     inkscape:window-y="-8"
     inkscape:window-maximized="1">
    <inkscape:grid
       type="xygrid"
       id="grid1587"
       originx="-80.208769"
       originy="-25.628719" />
  </sodipodi:namedview>
  <metadata
     id="metadata5">
    <rdf:RDF>
      <cc:Work
         rdf:about="">
        <dc:format>image/svg+xml</dc:format>
        <dc:type
           rdf:resource="http://purl.org/dc/dcmitype/StillImage" />
        <dc:title />
      </cc:Work>
    </rdf:RDF>
  </metadata>
  <g
     inkscape:label="Layer 1"
     inkscape:groupmode="layer"
     id="layer1"
     transform="translate(-80.208768,-112.62872)"
     style="display:inline;opacity:1" />
  <g
     inkscape:groupmode="layer"
     id="layer2"
     inkscape:label="Layer 2"
     style="display:inline"
     transform="translate(-80.208768,-25.628723)" />
  <g
     inkscape:groupmode="layer"
     id="layer3"
     inkscape:label="Layer 3"
     style="display:inline"
     transform="translate(-80.208768,-25.628723)">
    <path
       style="opacity:1;fill:#a88367;fill-opacity:1;fill-rule:nonzero;stroke:none;stroke-width:0.29394445;stroke-miterlimit:4;stroke-dasharray:none;stroke-dashoffset:0;stroke-opacity:1"
       d="M 114.82603,31.854502 C 108.07462,35.968335 93.252046,27.786508 86.319786,30.097259 93.259833,44.32952 104.21291,53.795095 116.41667,61.775558 94.459448,71.819757 84.666667,120.04167 80.208768,145.8903 c 0,35.26954 26.699042,38.46107 59.633792,38.46078 2.89916,-0.0265 5.63246,0.0202 8.65744,0.0202 3.02498,0 5.75829,-0.0469 8.65744,-0.0202 32.93475,2.9e-4 67.2401,-4.0212 59.63379,-38.46078 -5.12456,-23.2028 -14.25068,-74.070543 -36.2079,-84.114742 12.20376,-7.980463 23.15684,-17.446038 30.09689,-31.678299 -8.48689,-2.828957 -17.2256,0.335982 -26.57445,-3.489258 C 172.83531,21.996505 158.7184,35.167014 148.5,35.201919 135.05563,35.138771 125.87234,25.123653 114.82603,31.854502 Z"
       id="path2340"
       inkscape:connector-curvature="0"
       sodipodi:nodetypes="sccccccsccscs" />
    <g
       aria-label="€"
       transform="matrix(0.26458333,0,0,0.26458333,121.8887,29.87759)"
       style="font-style:normal;font-variant:normal;font-weight:normal;font-stretch:normal;font-size:192px;line-height:1.25;font-family:Arial;-inkscape-font-specification:Arial;letter-spacing:0px;word-spacing:0px;fill:#6e3f1b;fill-opacity:1;stroke:none"
       id="flowRoot2364">
      <path
         d="m 124.0625,312.42727 q -15.75,0 -26.4375,7.59375 -6.375,4.5 -11.53125,12.75 -5.25,8.53125 -6.1875,16.21875 h 63.9375 l -2.53125,12.5625 H 78.40625 q -0.09375,1.96875 -0.09375,3.75 0,7.21875 0.09375,8.625 h 60.375 l -2.625,12.5625 H 80.375 q 3.9375,21.46875 18.9375,30.46875 10.78125,6.46875 23.34375,6.46875 17.53125,0 27.375,-9.1875 v 19.3125 q -11.71875,5.4375 -25.875,5.4375 -42.375,0 -57.28125,-35.25 -3,-7.125 -5.15625,-17.25 H 47.375 L 50,373.92727 h 9.84375 q -0.28125,-3.9375 -0.28125,-8.53125 0,-1.875 0.09375,-3.84375 H 47.375 L 50,348.98977 h 10.875 q 5.8125,-30.5625 30.28125,-43.875 15.09375,-8.25 33.28125,-8.25 17.4375,0 29.34375,7.59375 l -3.75,17.4375 q -11.4375,-9.46875 -25.96875,-9.46875 z"
         id="path2374"
         inkscape:connector-curvature="0" />
    </g>
    <rect
       style="opacity:1;fill:#6e3f1b;fill-opacity:1;fill-rule:nonzero;stroke:none;stroke-width:0.226483;stroke-miterlimit:4;stroke-dasharray:none;stroke-dashoffset:0;stroke-opacity:1"
       id="rect2372"
       width="66.812492"
       height="2.2648301"
       x="115.09375"
       y="60.70092" />
  </g>
  <g
     inkscape:groupmode="layer"
     id="layer4"
     inkscape:label="Layer 4"
     style="display:inline"
     transform="translate(-80.208768,-25.628723)" />
</svg>
