<?xml version="1.0" encoding="UTF-8" standalone="no"?>
<!-- Created with Inkscape (http://www.inkscape.org/) -->

<svg
   xmlns:dc="http://purl.org/dc/elements/1.1/"
   xmlns:cc="http://creativecommons.org/ns#"
   xmlns:rdf="http://www.w3.org/1999/02/22-rdf-syntax-ns#"
   xmlns:svg="http://www.w3.org/2000/svg"
   xmlns="http://www.w3.org/2000/svg"
   xmlns:sodipodi="http://sodipodi.sourceforge.net/DTD/sodipodi-0.dtd"
   xmlns:inkscape="http://www.inkscape.org/namespaces/inkscape"
   width="297mm"
   height="210mm"
   viewBox="0 0 297 210"
   version="1.1"
   id="svg8"
   inkscape:version="0.92.4 (5da689c313, 2019-01-14)"
   sodipodi:docname="book.svg">
  <defs
     id="defs2" />
  <sodipodi:namedview
     id="base"
     pagecolor="#ffffff"
     bordercolor="#666666"
     borderopacity="1.0"
     inkscape:pageopacity="0.0"
     inkscape:pageshadow="2"
     inkscape:zoom="0.37774093"
     inkscape:cx="-226.48251"
     inkscape:cy="228.77305"
     inkscape:document-units="mm"
     inkscape:current-layer="layer2"
     showgrid="false"
     inkscape:window-width="1920"
     inkscape:window-height="1017"
     inkscape:window-x="-8"
     inkscape:window-y="-8"
     inkscape:window-maximized="1">
    <inkscape:grid
       type="xygrid"
       id="grid1587" />
  </sodipodi:namedview>
  <metadata
     id="metadata5">
    <rdf:RDF>
      <cc:Work
         rdf:about="">
        <dc:format>image/svg+xml</dc:format>
        <dc:type
           rdf:resource="http://purl.org/dc/dcmitype/StillImage" />
        <dc:title />
      </cc:Work>
    </rdf:RDF>
  </metadata>
  <g
     inkscape:label="Layer 1"
     inkscape:groupmode="layer"
     id="layer1"
     transform="translate(0,-87)"
     style="display:inline;opacity:0.28800001" />
  <g
     inkscape:groupmode="layer"
     id="layer2"
     inkscape:label="Layer 2"
     style="display:inline" />
  <g
     inkscape:groupmode="layer"
     id="layer3"
     inkscape:label="Layer 3"
     style="display:inline" />
  <g
     inkscape:groupmode="layer"
     id="layer4"
     inkscape:label="Layer 4"
     style="display:inline">
    <path
       style="opacity:1;fill:#0d317d;fill-opacity:1;fill-rule:nonzero;stroke:#000000;stroke-width:0.02645833;stroke-miterlimit:4;stroke-dasharray:none;stroke-dashoffset:0;stroke-opacity:1"
       d="m 76.729168,38.020832 h 15.874996 c 2.931584,0 5.291668,2.360084 5.291668,5.291668 v 129.64584 c 0,2.93158 -2.360084,5.29166 -5.291668,5.29166 H 76.729168 c -2.931584,0 -5.291668,-2.36008 -5.291668,-5.29166 V 43.3125 c 0,-2.931584 2.360084,-5.291668 5.291668,-5.291668 z"
       id="rect818" />
    <path
       style="display:inline;opacity:1;fill:#3459a8;fill-opacity:1;fill-rule:nonzero;stroke:#000000;stroke-width:0.02645833;stroke-miterlimit:4;stroke-dasharray:none;stroke-dashoffset:0;stroke-opacity:1"
       d="m 103.1875,38.020832 h 15.875 c 2.93159,0 5.29167,2.360084 5.29167,5.291668 v 129.64584 c 0,2.93158 -2.36008,5.29166 -5.29167,5.29166 h -15.875 c -2.93158,0 -5.291664,-2.36008 -5.291664,-5.29166 V 43.3125 c 0,-2.931584 2.360084,-5.291668 5.291664,-5.291668 z"
       id="rect818-8" />
    <path
       transform="rotate(-17.071973)"
       style="display:inline;opacity:1;fill:#bc7c00;fill-opacity:1;fill-rule:nonzero;stroke:#000000;stroke-width:0.02645833;stroke-miterlimit:4;stroke-dasharray:none;stroke-dashoffset:0;stroke-opacity:1"
       d="m 109.37746,79.796967 h 15.875 c 2.93158,0 5.29167,2.360084 5.29167,5.291668 V 214.73447 c 0,2.93158 -2.36009,5.29167 -5.29167,5.29167 h -15.875 c -2.93158,0 -5.29167,-2.36009 -5.29167,-5.29167 V 85.088635 c 0,-2.931584 2.36009,-5.291668 5.29167,-5.291668 z"
       id="rect818-8-5" />
    <path
       transform="rotate(-90)"
       style="display:inline;opacity:1;fill:#8b5a2b;fill-opacity:1;fill-rule:nonzero;stroke:#000000;stroke-width:0.02645833;stroke-miterlimit:4;stroke-dasharray:none;stroke-dashoffset:0;stroke-opacity:1"
       d="m -199.41666,66.145828 h 15.875 c 2.93158,0 5.29167,2.360085 5.29167,5.291669 V 201.08333 c 0,2.93159 -2.36009,5.29167 -5.29167,5.29167 h -15.875 c -2.93158,0 -5.29167,-2.36008 -5.29167,-5.29167 V 71.437497 c 0,-2.931584 2.36009,-5.291669 5.29167,-5.291669 z"
       id="rect818-8-7" />
    <path
       style="opacity:1;fill:#000000;fill-opacity:1;fill-rule:nonzero;stroke:#000000;stroke-width:0.02681425;stroke-miterlimit:4;stroke-dasharray:none;stroke-dashoffset:0;stroke-opacity:1"
       d="m 71.427841,51.633362 h 26.454096 v 3.21912 H 71.427841 Z"
       id="rect865" />
    <path
       style="display:inline;opacity:1;fill:#000000;fill-opacity:1;fill-rule:nonzero;stroke:#000000;stroke-width:0.02681425;stroke-miterlimit:4;stroke-dasharray:none;stroke-dashoffset:0;stroke-opacity:1"
       d="m 71.404442,57.050518 h 26.454096 v 3.21912 H 71.404442 Z"
       id="rect865-3" />
    <path
       transform="rotate(-17.16936)"
       style="display:inline;opacity:1;fill:#000000;fill-opacity:1;fill-rule:nonzero;stroke:#000000;stroke-width:0.02681425;stroke-miterlimit:4;stroke-dasharray:none;stroke-dashoffset:0;stroke-opacity:1"
       d="m 103.91972,91.715286 h 26.4541 v 3.21912 h -26.4541 z"
       id="rect865-1" />
    <path
       style="display:inline;opacity:1;fill:#000000;fill-opacity:1;fill-rule:nonzero;stroke:#000000;stroke-width:0.02681425;stroke-miterlimit:4;stroke-dasharray:none;stroke-dashoffset:0;stroke-opacity:1"
       d="m 97.820442,158.0177 h 26.454098 v 3.21912 H 97.820442 Z"
       id="rect865-3-0" />
    <path
       transform="rotate(-17.16936)"
       style="display:inline;opacity:1;fill:#000000;fill-opacity:1;fill-rule:nonzero;stroke:#000000;stroke-width:0.02681425;stroke-miterlimit:4;stroke-dasharray:none;stroke-dashoffset:0;stroke-opacity:1"
       d="m 104.00862,107.18603 h 26.4541 v 3.21912 h -26.4541 z"
       id="rect865-1-0" />
  </g>
</svg>
