<?xml version="1.0" encoding="UTF-8" standalone="no"?>
<!-- Created with Inkscape (http://www.inkscape.org/) -->

<svg
   xmlns:dc="http://purl.org/dc/elements/1.1/"
   xmlns:cc="http://creativecommons.org/ns#"
   xmlns:rdf="http://www.w3.org/1999/02/22-rdf-syntax-ns#"
   xmlns:svg="http://www.w3.org/2000/svg"
   xmlns="http://www.w3.org/2000/svg"
   xmlns:sodipodi="http://sodipodi.sourceforge.net/DTD/sodipodi-0.dtd"
   xmlns:inkscape="http://www.inkscape.org/namespaces/inkscape"
   width="297mm"
   height="210mm"
   viewBox="0 0 297 210"
   version="1.1"
   id="svg8"
   inkscape:version="0.92.4 (5da689c313, 2019-01-14)"
   sodipodi:docname="Brain.svg">
  <defs
     id="defs2" />
  <sodipodi:namedview
     id="base"
     pagecolor="#ffffff"
     bordercolor="#666666"
     borderopacity="1.0"
     inkscape:pageopacity="0.0"
     inkscape:pageshadow="2"
     inkscape:zoom="1.4142136"
     inkscape:cx="679.09487"
     inkscape:cy="366.5336"
     inkscape:document-units="mm"
     inkscape:current-layer="layer2"
     showgrid="false"
     inkscape:window-width="1920"
     inkscape:window-height="1017"
     inkscape:window-x="-8"
     inkscape:window-y="-8"
     inkscape:window-maximized="1">
    <inkscape:grid
       type="xygrid"
       id="grid1587" />
  </sodipodi:namedview>
  <metadata
     id="metadata5">
    <rdf:RDF>
      <cc:Work
         rdf:about="">
        <dc:format>image/svg+xml</dc:format>
        <dc:type
           rdf:resource="http://purl.org/dc/dcmitype/StillImage" />
        <dc:title />
      </cc:Work>
    </rdf:RDF>
  </metadata>
  <g
     inkscape:label="Layer 1"
     inkscape:groupmode="layer"
     id="layer1"
     transform="translate(0,-87)"
     style="display:inline;opacity:1" />
  <g
     inkscape:groupmode="layer"
     id="layer2"
     inkscape:label="Layer 2"
     style="display:inline" />
  <g
     inkscape:groupmode="layer"
     id="layer3"
     inkscape:label="Layer 3"
     style="display:inline">
    <path
       style="opacity:1;fill:#ff9390;fill-opacity:1;fill-rule:nonzero;stroke:#1b1b1b;stroke-width:0.02708294;stroke-miterlimit:4;stroke-dasharray:none;stroke-dashoffset:0;stroke-opacity:1"
       d="m 120.45417,65.246353 27.97708,-6.852603 28.37917,5.066665 4.63594,16.324112 -0.17159,0.78585 0.54043,57.714523 -0.63847,0.73956 -3.89658,0.86036 -28.78275,13.33725 -0.33414,0.19346 -14.61222,-9.82595 -17.90345,-4.74939 -0.47332,-0.61815 0.55388,-58.502277 z"
       id="rect818"
       inkscape:connector-curvature="0"
       sodipodi:nodetypes="ccccccccccccccc" />
  </g>
  <g
     inkscape:groupmode="layer"
     id="layer4"
     inkscape:label="Layer 4"
     style="display:inline">
    <path
       style="display:inline;opacity:1;fill:#ffb8b8;fill-opacity:1;fill-rule:nonzero;stroke:#090909;stroke-width:0.02645833;stroke-miterlimit:4;stroke-dasharray:none;stroke-dashoffset:0;stroke-opacity:1"
       d="m 138.48462,53.373554 c -0.80371,0 -4.06054,1.135241 -6.10307,2.126724 -1.45867,0.708061 -2.42774,1.311165 -3.55413,2.212647 -1.41506,1.13254 -2.38408,1.462498 -5.82917,1.986777 -1.755,0.267078 -2.70987,0.649398 -3.23185,1.293218 -0.18402,0.226969 -0.56309,0.991813 -0.84175,1.699789 -0.89824,2.282251 -1.50384,2.984925 -4.70899,5.462523 -1.83654,1.419658 -1.99572,1.665153 -1.99572,3.068294 0,1.248915 0.27277,1.903171 2.22029,5.315491 0.45172,0.79146 0.90231,1.765741 1.00153,2.164809 l 0.18076,0.72544 1.52098,0.0301 c 1.03355,0.0206 2.05143,0.16611 3.17431,0.4544 0.90895,0.23335 1.94986,0.49778 2.31342,0.58726 0.84023,0.2068 3.49496,0.0532 4.79208,-0.27724 3.29038,-0.83829 6.26725,-3.278589 7.2899,-5.976273 0.35359,-0.932699 0.42226,-1.012708 0.71667,-0.836164 0.19847,0.119007 0.16483,0.316039 -0.20907,1.235646 -1.40146,3.446946 -5.05498,5.925881 -9.5604,6.486471 l -1.46437,0.18247 1.31282,0.71924 c 2.99021,1.63855 7.27646,5.24202 10.24969,8.61763 1.99225,2.26186 2.2051,2.56964 1.93454,2.78751 -0.18467,0.14869 -0.41794,-0.043 -1.19597,-0.98055 -2.41683,-2.91231 -5.77807,-6.13252 -8.32518,-7.97633 -0.99271,-0.71861 -1.16125,-0.77139 -1.16219,-0.36405 -10e-4,0.46568 -1.36342,3.24701 -2.21847,4.52981 -1.10933,1.6643 -2.59783,3.3756 -3.70567,4.26054 -1.03154,0.82399 -2.75795,1.73569 -3.00544,1.58729 -0.353,-0.21167 -0.0933,-0.49972 0.83719,-0.92739 1.28378,-0.59004 3.28301,-2.42344 4.60766,-4.22688 1.22123,-1.66264 2.84614,-4.78231 2.88218,-5.53339 0.0237,-0.49319 -0.0553,-0.57251 -1.27722,-1.28613 -2.57113,-1.50164 -6.05438,-2.53241 -8.55708,-2.53241 -0.91225,0 -0.98431,0.0272 -1.13938,0.44023 -0.6152,1.63855 -1.80629,2.85857 -4.54831,4.65559 -3.13469,2.05436 -4.18796,3.31353 -4.53553,5.42443 -0.21695,1.31756 -0.13021,2.29109 0.53956,6.07459 0.61642,3.482604 0.69021,5.643764 0.22275,6.493564 -0.16977,0.30865 -0.56455,0.83865 -0.87734,1.17718 -2.53176,2.74007 -4.09194,7.20808 -3.53586,10.12698 0.29184,1.53191 1.01495,2.71804 2.9324,4.81059 2.16178,2.35923 5.5202,6.40682 6.36051,7.66632 0.78585,1.17785 1.06615,2.01155 1.38495,4.11881 0.14009,0.92597 0.60176,2.93459 1.02617,4.46338 l 0.77145,2.77955 0.58153,-0.69535 c 1.76981,-2.11623 4.63053,-4.13219 7.34013,-5.17198 1.26541,-0.48559 3.43707,-1.05495 4.02337,-1.05495 0.32776,0 0.3871,-0.0814 0.3871,-0.53234 0,-1.46218 -0.89888,-2.87268 -2.25134,-3.53245 -0.74442,-0.36314 -2.62532,-0.61802 -3.64632,-0.49425 -0.81868,0.0993 -0.87827,0.0831 -0.87827,-0.23295 0,-0.32125 0.0823,-0.33925 1.55294,-0.33925 3.51105,0 5.49507,1.40879 5.82827,4.1383 l 0.1014,0.83262 1.01064,0.003 c 0.93043,0.002 3.18359,0.36948 3.36787,0.54828 0.0435,0.0422 0.038,0.17954 -0.0124,0.3056 -0.0781,0.19732 -0.22473,0.19893 -1.05353,0.0103 -3.82888,-0.87405 -9.2499,0.66511 -12.9502,3.67771 -1.17309,0.95508 -2.968,2.85039 -2.968,3.13384 0,0.19349 1.31412,0.70363 2.9397,1.14087 1.83776,0.49433 2.61631,1.01182 3.80517,2.52709 1.51976,1.937 1.70784,2.05516 3.44182,2.16925 2.1129,0.13901 2.92288,0.45932 4.10828,1.62449 0.54537,0.53605 1.23907,1.40716 1.54198,1.93629 1.69674,2.96389 2.17459,3.69914 2.968,4.56789 1.45204,1.58999 3.88566,3.08726 5.85475,3.60154 1.15973,0.30289 3.0109,0.30617 4.04894,0.007 1.13458,-0.32691 2.2837,-1.10665 3.13871,-2.12938 l 0.70845,-0.84768 V 105.90308 58.392306 l -1.0791,-0.283446 c -1.21486,-0.31905 -2.29197,-0.953641 -4.45703,-2.626295 -1.83803,-1.420004 -3.19041,-2.109011 -4.14296,-2.109011 z m 20.04109,0 c -0.98767,0 -2.00469,0.53675 -4.24705,2.240987 -2.16127,1.642615 -3.3772,2.324466 -4.60218,2.579354 l -0.85179,0.177155 v 3.934577 3.934574 l 0.37249,-0.264841 c 4.03395,-2.870354 7.11793,-3.780868 12.80778,-3.782227 2.78547,-6.31e-4 2.85022,0.0069 2.85022,0.335708 0,0.328298 -0.0449,0.334107 -1.85876,0.227639 -5.0739,-0.297817 -9.70091,0.937281 -13.05062,3.482837 l -1.11107,0.844137 -0.005,36.146376 -0.005,36.14637 0.45465,-0.41276 c 0.99584,-0.90544 3.06988,-1.56571 4.91715,-1.56604 1.25841,-2.4e-4 1.73506,0.1241 1.73552,0.4544 3.3e-4,0.22569 -0.19268,0.25529 -1.3959,0.21081 -2.37714,-0.0879 -4.45548,0.66763 -5.33894,1.94072 -0.36997,0.53321 -0.37248,0.56696 -0.37248,6.87355 v 6.33677 l 0.65093,0.88223 c 0.7315,0.99109 2.07657,1.96632 3.16611,2.2959 1.20077,0.36323 3.08584,0.29924 4.56201,-0.15495 1.77997,-0.54773 3.19569,-1.39129 4.75557,-2.83446 1.30507,-1.20742 1.76571,-1.85251 3.57146,-4.99838 1.49129,-2.59808 2.98708,-3.59138 5.64202,-3.74502 0.85291,-0.0494 1.69334,-0.18591 1.8953,-0.30824 0.19955,-0.12085 0.81005,-0.78969 1.35664,-1.48632 1.55221,-1.97837 1.97505,-2.26075 4.55288,-3.04084 1.23112,-0.37256 2.23856,-0.7314 2.23856,-0.79719 0,-0.0658 -0.50209,-0.24672 -1.11563,-0.40214 -1.33488,-0.33816 -3.46071,-1.36653 -4.83042,-2.33666 -2.22357,-1.57488 -4.55818,-4.3685 -6.02457,-7.20748 -0.68163,-1.31969 -1.67043,-4.07123 -1.84415,-5.13213 -0.10105,-0.61674 -0.0799,-0.69106 0.18259,-0.6413 0.22097,0.0418 0.39741,0.42267 0.68928,1.48986 1.68337,6.1551 6.11979,11.28516 11.24024,12.99775 1.5876,0.53098 2.34527,0.6491 2.42388,0.37733 0.0346,-0.11981 0.32703,-1.15567 0.65003,-2.30211 0.55426,-1.96731 0.69442,-2.59987 1.34751,-6.06927 0.14681,-0.78036 0.44364,-1.75572 0.65916,-2.16836 0.61982,-1.18673 3.74484,-5.0191 7.26981,-8.91435 0.79585,-0.87947 1.58243,-1.85552 1.7474,-2.16925 1.73576,-3.30108 0.57642,-8.5228 -2.72516,-12.2723 -0.41458,-0.47082 -0.86386,-1.11051 -0.99786,-1.42166 -0.39019,-0.90602 -0.29014,-2.75853 0.35149,-6.491774 0.9566,-5.56593 0.72425,-7.19623 -1.31464,-9.21729 -0.4678,-0.46369 -1.66726,-1.3748 -2.66583,-2.02399 -2.15806,-1.40299 -3.24385,-2.34823 -3.99415,-3.47929 -0.30431,-0.45874 -0.89265,-1.06068 -1.30736,-1.3375 -3.47459,-2.319414 -8.38431,-2.690347 -13.37562,-1.00978 -2.22279,0.74841 -2.33131,0.7701 -2.44671,0.47832 -0.18905,-0.47802 3.63187,-1.662376 6.57597,-2.038152 3.08347,-0.393568 6.71599,0.290143 9.01175,1.696242 0.35848,0.21957 0.68123,0.39948 0.71667,0.39948 0.0353,0 0.10388,-0.343 0.15246,-0.76176 0.0565,-0.48646 0.40407,-1.340398 0.96227,-2.364997 2.32993,-4.276796 2.38007,-4.392274 2.37913,-5.435952 -0.001,-1.334011 -0.38575,-1.879824 -2.35906,-3.351743 -2.72768,-2.034621 -3.50293,-2.955637 -4.48076,-5.322571 -0.29145,-0.705498 -0.63341,-1.43704 -0.76048,-1.625384 -0.3981,-0.590051 -1.56833,-0.992748 -4.11284,-1.416338 -1.35288,-0.225219 -2.77091,-0.543014 -3.1506,-0.705961 -0.37968,-0.162939 -1.39159,-0.814413 -2.24952,-1.44734 -2.41195,-1.779407 -7.5979,-4.024925 -9.29473,-4.024925 z m 0.0913,38.324472 c 4.55761,0.008 7.62468,2.39627 9.28835,7.23318 0.32235,0.93713 0.58613,1.815404 0.58613,1.952224 0,0.37743 1.66475,0.91095 3.29117,1.05406 2.61161,0.22981 5.7237,-0.23359 7.40403,-1.10189 0.73259,-0.37856 0.89284,-0.41111 1.05811,-0.21789 0.1537,0.17969 0.12809,0.27562 -0.1196,0.45882 -0.52876,0.391 -2.05246,0.89893 -3.7011,1.233 -2.06682,0.4188 -5.37116,0.35001 -6.82065,-0.14176 -0.83325,-0.28268 -0.94367,-0.29084 -0.87551,-0.0665 0.162,0.53302 0.40829,2.87894 0.45647,4.34114 0.0417,1.26316 0.007,1.52742 -0.20359,1.56869 -0.21246,0.0415 -0.28608,-0.34956 -0.45647,-2.40131 -0.45389,-5.46566 -1.61641,-8.723664 -3.91017,-10.961374 -1.7647,-1.72158 -3.24973,-2.30021 -5.91501,-2.30742 -1.33452,-0.004 -1.4461,-0.0291 -1.4461,-0.32508 0,-0.29496 0.10988,-0.32025 1.36394,-0.31799 z m -12.96297,13.864024 c 0.12455,4.4e-4 0.19627,0.0725 0.19627,0.22233 0,0.45258 -3.75784,3.32945 -6.24822,4.78315 -1.62,0.94563 -4.00802,1.97259 -4.58667,1.97259 -0.19391,0 -0.0867,0.21104 0.38527,0.76087 0.78124,0.91014 2.03962,2.72879 2.9963,4.33141 1.27068,2.12863 2.92564,5.84437 2.73611,6.1419 -0.22189,0.34835 -0.51302,0.0958 -0.79701,-0.69178 -0.48797,-1.35329 -2.11587,-4.56741 -3.13232,-6.18353 -3.39783,-5.40244 -7.31057,-8.37226 -11.3918,-8.64775 -1.10576,-0.0746 -1.27995,-0.12735 -1.27995,-0.38443 0,-0.24872 0.12843,-0.29722 0.78422,-0.29495 2.7098,0.0103 5.75776,1.41664 8.41101,3.88321 l 0.68471,0.63597 0.95677,-0.26928 c 2.46579,-0.69547 6.53614,-3.18262 9.3121,-5.69016 0.41151,-0.37173 0.76552,-0.57029 0.97321,-0.56955 z"
       id="path1044"
       inkscape:connector-curvature="0" />
  </g>
</svg>
