<?xml version="1.0" encoding="UTF-8" standalone="no"?>
<!-- Created with Inkscape (http://www.inkscape.org/) -->

<svg
   xmlns:dc="http://purl.org/dc/elements/1.1/"
   xmlns:cc="http://creativecommons.org/ns#"
   xmlns:rdf="http://www.w3.org/1999/02/22-rdf-syntax-ns#"
   xmlns:svg="http://www.w3.org/2000/svg"
   xmlns="http://www.w3.org/2000/svg"
   xmlns:sodipodi="http://sodipodi.sourceforge.net/DTD/sodipodi-0.dtd"
   xmlns:inkscape="http://www.inkscape.org/namespaces/inkscape"
   width="32px"
   height="32px"
   viewBox="0 0 32 32"
   version="1.1"
   id="SVGRoot"
   sodipodi:docname="deal.svg"
   inkscape:version="0.92.4 (5da689c313, 2019-01-14)">
  <defs
     id="defs863" />
  <sodipodi:namedview
     id="base"
     pagecolor="#ffffff"
     bordercolor="#666666"
     borderopacity="1.0"
     inkscape:pageopacity="0.0"
     inkscape:pageshadow="2"
     inkscape:zoom="22.627416"
     inkscape:cx="15.579484"
     inkscape:cy="18.397619"
     inkscape:document-units="px"
     inkscape:current-layer="layer2"
     showgrid="false"
     inkscape:window-width="1920"
     inkscape:window-height="1017"
     inkscape:window-x="-8"
     inkscape:window-y="-8"
     inkscape:window-maximized="1"
     inkscape:grid-bbox="true"
     showguides="false">
    <inkscape:grid
       type="xygrid"
       id="grid1706" />
  </sodipodi:namedview>
  <metadata
     id="metadata866">
    <rdf:RDF>
      <cc:Work
         rdf:about="">
        <dc:format>image/svg+xml</dc:format>
        <dc:type
           rdf:resource="http://purl.org/dc/dcmitype/StillImage" />
        <dc:title />
      </cc:Work>
    </rdf:RDF>
  </metadata>
  <g
     inkscape:label="Layer 1"
     inkscape:groupmode="layer"
     id="layer1"
     style="display:inline;opacity:1">
    <circle
       style="opacity:1;fill:#ffca64;fill-opacity:1;stroke:#2c2c2c;stroke-width:0.1;stroke-miterlimit:4;stroke-dasharray:none;stroke-opacity:1"
       id="path1710-8"
       cx="16"
       cy="16"
       r="0" />
    <circle
       style="opacity:1;fill:#ffca64;fill-opacity:1;stroke:#2c2c2c;stroke-width:0.1;stroke-miterlimit:4;stroke-dasharray:none;stroke-opacity:1"
       id="path1710-87"
       cx="16"
       cy="16"
       r="0" />
    <path
       style="opacity:1;fill:#553213;fill-opacity:1;fill-rule:nonzero;stroke:#1b1b1b;stroke-width:0.074;stroke-miterlimit:4;stroke-dasharray:none;stroke-dashoffset:0;stroke-opacity:0.12093023"
       d="m 12.61592,10.141772 0.160798,-0.03961 0.247316,0.01871 11.012186,1.608096 3.079615,8.037109 -2.158625,1.140192 v 0 l -2.219985,1.541092 -2.422944,1.002458 -0.334763,0.157109 -1.657675,0.953096 -0.539356,-0.555173 -0.791544,0.410816 -6.647347,-3.163072 -1.3173472,-6.251623 z"
       id="rect4693"
       inkscape:connector-curvature="0"
       sodipodi:nodetypes="cccccccccccccccc" />
  </g>
  <g
     inkscape:groupmode="layer"
     id="layer2"
     inkscape:label="Layer 2"
     style="display:inline">
    <path
       style="opacity:1;fill:#8d5524;fill-opacity:1;fill-rule:nonzero;stroke:#1b1b1b;stroke-width:0.00220971;stroke-miterlimit:4;stroke-dasharray:none;stroke-dashoffset:0;stroke-opacity:1"
       d="m 24.450959,20.259934 c -1.955092,-2.496091 -3.49319,-4.148173 -4.845947,-5.205065 -0.510353,-0.398732 -1.197564,-0.81303 -1.599635,-0.964369 -0.102031,-0.0384 -0.280389,-0.07286 -0.570171,-0.110148 -0.475369,-0.06117 -0.375064,-0.01943 -0.948735,-0.394736 -0.409062,-0.267611 -0.55092,-0.333781 -0.718156,-0.334981 -0.124515,-8.95e-4 -0.148717,0.0084 -0.397747,0.152149 -0.346974,0.200335 -0.895076,0.463919 -1.281632,0.616339 -1.001316,0.394822 -1.824045,0.492497 -2.265235,0.268929 -0.251957,-0.127676 -0.42186,-0.358234 -0.488408,-0.662769 -0.03951,-0.180802 -0.03402,-0.618096 0.01096,-0.872835 0.130912,-0.741398 0.313938,-1.092863 0.993583,-1.907969 0.2011,-0.241181 0.428323,-0.529548 0.50494,-0.640815 0.319619,-0.4641667 0.569926,-0.6119031 1.244157,-0.7343274 0.269612,-0.048955 1.177533,-0.067306 1.650325,-0.033357 1.095763,0.078682 2.193658,0.2473734 4.752857,0.7302734 2.05087,0.386983 2.504184,0.465738 3.539266,0.614882 l 0.109244,0.01574 1.487605,4.484603 1.487605,4.484602 -0.0611,0.05102 c -0.727739,0.607687 -1.602207,1.089172 -1.978142,1.089172 H 24.95721 Z"
       id="path978"
       inkscape:connector-curvature="0" />
    <path
       style="opacity:1;fill:#ffdbac;fill-opacity:1;fill-rule:nonzero;stroke:#1b1b1b;stroke-width:0.003125;stroke-miterlimit:4;stroke-dasharray:none;stroke-dashoffset:0;stroke-opacity:1"
       d="m 18.002852,24.624093 c -0.722298,-0.202312 -1.651001,-0.832917 -2.802981,-1.903272 -0.228673,-0.21247 -0.475642,-0.428682 -0.54882,-0.480472 -0.135644,-0.096 -0.194526,-0.217481 -0.1949,-0.402108 -1.25e-4,-0.06691 -0.01497,-0.08594 -0.06702,-0.08594 -0.06266,0 -0.06579,0.01159 -0.05004,0.185233 0.0178,0.196327 0.07843,0.308015 0.210634,0.388021 0.04297,0.026 0.246875,0.204119 0.453125,0.395812 0.756947,0.703522 1.360976,1.192751 1.873469,1.517402 0.216746,0.137303 0.234579,0.155966 0.184219,0.19279 -0.171071,0.12509 -0.682391,0.12811 -1.101589,0.0065 C 15.419424,24.28155 14.579779,23.891421 13.69035,23.383989 12.806034,22.879481 11.905275,22.300688 9.4247263,20.643075 6.9768047,19.007265 6.3625603,18.611851 5.696485,18.243058 5.4657041,18.115279 5.3641109,18.042466 5.3754345,18.012957 c 0.00911,-0.02374 0.5399505,-1.623801 1.1796432,-3.555685 l 1.1630777,-3.512515 0.2985979,-0.141941 c 0.6029755,-0.286628 1.1339668,-0.380946 2.9235977,-0.519309 0.810109,-0.06263 1.450422,-0.134165 1.6875,-0.188519 0.06875,-0.01576 0.1434,-0.029 0.165889,-0.02942 0.04676,-8.73e-4 -0.128318,0.233308 -0.533193,0.713189 -0.634689,0.752271 -0.825534,1.113841 -0.963918,1.826218 -0.03341,0.171994 -0.0594,0.439174 -0.0594,0.610622 0,0.64693 0.204355,1.015613 0.667751,1.204708 0.137506,0.05611 0.224983,0.0654 0.613499,0.06512 0.394808,-2.81e-4 0.497363,-0.0117 0.796875,-0.0887 0.189062,-0.04861 0.498437,-0.144672 0.6875,-0.213481 0.365938,-0.133183 1.21622,-0.53154 1.541592,-0.722236 0.209154,-0.122582 0.294193,-0.137636 0.4335,-0.07674 0.115901,0.05066 0.408752,0.227994 0.753183,0.456076 l 0.280241,0.185575 0.425838,0.05131 c 0.466933,0.05626 0.60625,0.100993 1.050021,0.337122 1.478058,0.786471 3.476741,2.779342 5.885137,5.868024 0.588901,0.755245 0.585004,0.751182 0.72055,0.751182 0.08105,0 0.12577,0.02176 0.176632,0.08594 0.05802,0.07321 0.0658,0.11371 0.05255,0.273437 -0.05066,0.610724 -0.441244,0.981299 -1.163867,1.104232 -0.248703,0.04231 -0.336375,0.04394 -0.596479,0.01109 -0.743575,-0.09392 -1.508507,-0.474406 -2.326704,-1.157342 -1.07999,-0.901451 -2.030813,-2.330906 -2.170211,-3.262666 -0.01747,-0.116778 -0.03478,-0.148437 -0.08116,-0.148437 -0.07278,0 -0.07494,0.06768 -0.01095,0.34375 0.235481,1.016014 1.181097,2.362233 2.2959,3.268543 0.358513,0.291464 0.729936,0.531591 1.117035,0.722172 l 0.351563,0.173085 v 0.120053 c 0,0.344708 -0.290541,0.73872 -0.641593,0.870087 -0.30185,0.112953 -0.496204,0.135277 -1.030282,0.118339 -0.371522,-0.01178 -0.568254,-0.03344 -0.765625,-0.08427 -0.324384,-0.08355 -0.887029,-0.348501 -1.140625,-0.537123 -0.436567,-0.324713 -0.873218,-0.79951 -1.239084,-1.347328 -0.105762,-0.158361 -0.285463,-0.400429 -0.399334,-0.537929 -0.476561,-0.575452 -0.55206,-0.713308 -0.523362,-0.955622 0.01325,-0.111889 0.0066,-0.152653 -0.02703,-0.165557 -0.06332,-0.0243 -0.108064,0.07715 -0.108064,0.245016 0,0.204131 0.130973,0.443532 0.46931,0.857834 0.156636,0.191803 0.363167,0.464237 0.458958,0.605406 0.606702,0.894114 1.275114,1.498289 1.981523,1.791091 0.31394,0.130127 0.323596,0.147934 0.208794,0.385083 -0.148681,0.307135 -0.65978,0.72065 -1.022695,0.827432 -0.235532,0.0693 -0.677599,0.062 -0.955265,-0.01577 z"
       id="path974"
       inkscape:connector-curvature="0" />
  </g>
  <g
     inkscape:groupmode="layer"
     id="layer3"
     inkscape:label="Layer 3"
     style="display:inline">
    <path
       style="opacity:1;fill:#0d317d;fill-opacity:1;fill-rule:nonzero;stroke:#1b1b1b;stroke-width:0.1;stroke-miterlimit:4;stroke-dasharray:none;stroke-dashoffset:0;stroke-opacity:0.04651166"
       d="M 0.68586374,6.9285047 8,10 4.6633397,20.054174 0.48698995,20.253048 Z"
       id="rect869"
       inkscape:connector-curvature="0"
       sodipodi:nodetypes="ccccc" />
    <path
       style="opacity:1;fill:#0d317d;fill-opacity:1;fill-rule:nonzero;stroke:#1b1b1b;stroke-width:0.1;stroke-miterlimit:4;stroke-dasharray:none;stroke-dashoffset:0;stroke-opacity:0"
       d="m 31.454761,7.7253797 -7.314136,3.0714953 3.33666,10.054174 4.17635,0.198874 z"
       id="rect869-7"
       inkscape:connector-curvature="0"
       sodipodi:nodetypes="ccccc" />
  </g>
</svg>
