<?xml version="1.0" encoding="UTF-8" standalone="no"?>
<!-- Created with Inkscape (http://www.inkscape.org/) -->

<svg
   xmlns:dc="http://purl.org/dc/elements/1.1/"
   xmlns:cc="http://creativecommons.org/ns#"
   xmlns:rdf="http://www.w3.org/1999/02/22-rdf-syntax-ns#"
   xmlns:svg="http://www.w3.org/2000/svg"
   xmlns="http://www.w3.org/2000/svg"
   xmlns:sodipodi="http://sodipodi.sourceforge.net/DTD/sodipodi-0.dtd"
   xmlns:inkscape="http://www.inkscape.org/namespaces/inkscape"
   width="297mm"
   height="210mm"
   viewBox="0 0 297 210"
   version="1.1"
   id="svg8"
   inkscape:version="0.92.4 (5da689c313, 2019-01-14)"
   sodipodi:docname="Eye_landscape.svg">
  <defs
     id="defs2" />
  <sodipodi:namedview
     id="base"
     pagecolor="#ffffff"
     bordercolor="#666666"
     borderopacity="1.0"
     inkscape:pageopacity="0.0"
     inkscape:pageshadow="2"
     inkscape:zoom="0.50000001"
     inkscape:cx="-184.77697"
     inkscape:cy="633.36797"
     inkscape:document-units="mm"
     inkscape:current-layer="layer3"
     showgrid="false"
     inkscape:window-width="1920"
     inkscape:window-height="1017"
     inkscape:window-x="-8"
     inkscape:window-y="-8"
     inkscape:window-maximized="1">
    <inkscape:grid
       type="xygrid"
       id="grid1587" />
  </sodipodi:namedview>
  <metadata
     id="metadata5">
    <rdf:RDF>
      <cc:Work
         rdf:about="">
        <dc:format>image/svg+xml</dc:format>
        <dc:type
           rdf:resource="http://purl.org/dc/dcmitype/StillImage" />
        <dc:title />
      </cc:Work>
    </rdf:RDF>
  </metadata>
  <g
     inkscape:label="Layer 1"
     inkscape:groupmode="layer"
     id="layer1"
     transform="translate(0,-87)"
     style="display:inline;opacity:1">
    <rect
       style="display:inline;opacity:1;fill:#ebe6e2;fill-opacity:1;fill-rule:nonzero;stroke:#000000;stroke-width:0.26499999;stroke-miterlimit:4;stroke-dasharray:none;stroke-dashoffset:0;stroke-opacity:1"
       id="rect4668"
       width="279.76559"
       height="168.2822"
       x="5.984375"
       y="19.5"
       transform="translate(0,87)" />
  </g>
  <g
     inkscape:groupmode="layer"
     id="layer2"
     inkscape:label="Layer 2"
     style="display:inline;opacity:1">
    <path
       style="opacity:1;fill:#ebf3f5;fill-opacity:1;fill-rule:nonzero;stroke:none;stroke-width:0.37476656;stroke-miterlimit:4;stroke-dasharray:none;stroke-dashoffset:0;stroke-opacity:1"
       d="m 119.05373,137.37235 c -16.25106,-3.71721 -32.022189,-8.42109 -49.952671,-14.89882 -6.977899,-2.52091 -20.15155,-7.57507 -21.039291,-8.07187 -0.381669,-0.2136 0.108186,-1.15414 1.986778,-3.81472 12.45639,-17.641528 29.525687,-29.03914 51.541724,-34.415751 5.35321,-1.307325 12.9786,-2.502858 18.10778,-2.838993 l 3.78171,-0.24783 -2.14053,2.249477 c -4.91062,5.160553 -7.65164,13.693479 -8.14665,25.360847 -0.63141,14.88223 3.543,28.98842 10.57737,35.74318 2.78393,2.67327 2.83836,2.66249 -4.71622,0.93448 z"
       id="path4701"
       inkscape:connector-curvature="0" />
    <path
       style="opacity:1;fill:#ebf3f5;fill-opacity:1;fill-rule:nonzero;stroke:none;stroke-width:0.37476656;stroke-miterlimit:4;stroke-dasharray:none;stroke-dashoffset:0;stroke-opacity:1"
       d="m 184.05359,140.98669 c 4.8569,-3.43255 8.10686,-8.8311 10.19289,-16.93157 0.91135,-3.53898 1.14457,-5.34175 1.31346,-10.15277 0.45052,-12.83326 -2.44813,-23.042551 -8.24575,-29.042308 -0.84517,-0.874639 -1.33168,-1.590255 -1.08112,-1.590255 0.25056,0 3.27436,1.029621 6.71956,2.288043 20.35763,7.436014 40.01476,17.77424 55.13769,28.99844 4.82963,3.58454 9.37515,7.31424 9.16736,7.52202 -0.0862,0.0862 -1.89922,0.31931 -4.02899,0.51807 -8.63455,0.80583 -16.57062,2.88964 -38.29663,10.05573 -18.41374,6.07359 -24.77055,7.91088 -30.30836,8.75998 l -1.49671,0.22948 z"
       id="path4703"
       inkscape:connector-curvature="0" />
    <path
       style="opacity:1;fill:#beb0b0;fill-opacity:1;fill-rule:nonzero;stroke:none;stroke-width:0.7082203;stroke-miterlimit:4;stroke-dasharray:none;stroke-dashoffset:0;stroke-opacity:1"
       d="m 958.73688,449.72379 c -19.06389,-15.75238 -52.92058,-39.23962 -78.48886,-54.44976 -20.3242,-12.09051 -31.35051,-18.12678 -53.38656,-29.22608 -34.55929,-17.4071 -64.92829,-30.48088 -101.88515,-43.86131 -9.25428,-3.35056 -17.6401,-6.66581 -18.63514,-7.36722 -5.88853,-4.15082 -16.3433,-7.73361 -40.21378,-13.78103 -58.55361,-14.83414 -101.58911,-21.42041 -154.9891,-23.71996 -27.79619,-1.19697 -45.0413,-1.14035 -60.10407,0.19734 -81.64515,7.25073 -148.2461,32.43927 -202.48744,76.58095 -4.72116,3.84209 -14.50443,12.87456 -21.74059,20.07216 -13.69883,13.62582 -22.74421,24.06742 -33.50248,38.67386 -3.49064,4.73922 -6.46858,8.4948 -6.61765,8.34572 -0.14907,-0.14906 2.43244,-5.4585 5.73669,-11.79874 38.02245,-72.95803 85.9437,-122.2703 148.65637,-152.97146 37.6096,-18.41187 75.04153,-28.3896 123.74368,-32.98469 15.24715,-1.43858 63.55966,-1.22147 80.96373,0.36383 36.04696,3.28346 69.88724,8.78074 107.57315,17.47504 91.77089,21.17191 148.47993,48.87176 209.21068,102.19011 12.36064,10.85198 39.87813,38.33387 53.95521,53.88546 18.33394,20.2543 49.98114,57.49204 48.77319,57.38912 -0.30328,-0.0258 -3.25616,-2.28185 -6.56188,-5.01334 z"
       id="path4735"
       inkscape:connector-curvature="0"
       transform="scale(0.26458333)" />
  </g>
  <g
     inkscape:groupmode="layer"
     id="layer3"
     inkscape:label="Layer 3"
     style="display:inline">
    <path
       style="display:inline;opacity:1;fill:#8da6bc;fill-opacity:1;fill-rule:nonzero;stroke:none;stroke-width:0.3788802;stroke-miterlimit:4;stroke-dasharray:none;stroke-dashoffset:0;stroke-opacity:1"
       d="m 157.20198,143.09098 c -7.58338,-0.25477 -11.99071,-0.65168 -20.46036,-1.84263 -9.67299,-1.36014 -10.47385,-1.59816 -13.53039,-4.02127 -4.62504,-3.66655 -8.4639,-11.25958 -10.42355,-20.61717 -1.11192,-5.30954 -1.3932,-16.46587 -0.55535,-22.026775 1.49576,-9.927598 4.96738,-17.180681 9.72812,-20.324447 l 1.77832,-1.174322 8.22239,0.223248 c 14.78192,0.401346 26.61125,2.049983 42.25926,5.889609 6.26036,1.536134 9.67661,2.55194 11.36686,3.37988 5.00274,2.45051 9.01576,9.260038 11.04788,18.746687 1.06817,4.98661 1.16604,14.12915 0.206,19.24351 -1.40225,7.47011 -3.94993,13.00588 -7.8456,17.04749 -3.57357,3.70744 -5.75277,4.62978 -12.09808,5.1205 -7.05247,0.5454 -11.60284,0.62758 -19.6955,0.35569 z m 8.98727,-25.90508 c 3.0025,-1.34092 5.96002,-4.21322 7.33464,-7.1233 0.96742,-2.04805 1.07897,-2.6913 1.07897,-6.22192 0,-3.69255 -0.078,-4.092601 -1.25214,-6.425257 -2.58043,-5.126334 -7.14865,-7.897508 -13.08924,-7.940183 -2.86535,-0.02058 -3.5454,0.113247 -5.73655,1.128903 -4.28829,1.987733 -6.54276,4.432395 -8.00558,8.68095 -2.66586,7.742557 1.66317,16.045727 9.72654,18.655777 2.5215,0.81618 7.22497,0.45907 9.94336,-0.75497 z"
       id="path4699"
       inkscape:connector-curvature="0" />
    <ellipse
       style="display:inline;opacity:1;fill:#000000;fill-opacity:1;fill-rule:nonzero;stroke:none;stroke-width:0.29249257;stroke-miterlimit:4;stroke-dasharray:none;stroke-dashoffset:0;stroke-opacity:1"
       id="path4651"
       cx="159.70245"
       cy="103.71499"
       rx="16.562883"
       ry="15.013341" />
    <ellipse
       style="display:inline;opacity:1;fill:#ebf3f5;fill-opacity:1;fill-rule:nonzero;stroke:none;stroke-width:0.09858736;stroke-miterlimit:4;stroke-dasharray:none;stroke-dashoffset:0;stroke-opacity:1"
       id="path4651-4"
       cx="166.48906"
       cy="100.2699"
       rx="5.5826755"
       ry="5.0603876" />
  </g>
  <g
     inkscape:groupmode="layer"
     id="layer4"
     inkscape:label="Layer 4"
     style="display:inline" />
</svg>
