<?xml version="1.0" encoding="UTF-8" standalone="no"?>
<!-- Created with Inkscape (http://www.inkscape.org/) -->

<svg
   xmlns:dc="http://purl.org/dc/elements/1.1/"
   xmlns:cc="http://creativecommons.org/ns#"
   xmlns:rdf="http://www.w3.org/1999/02/22-rdf-syntax-ns#"
   xmlns:svg="http://www.w3.org/2000/svg"
   xmlns="http://www.w3.org/2000/svg"
   xmlns:sodipodi="http://sodipodi.sourceforge.net/DTD/sodipodi-0.dtd"
   xmlns:inkscape="http://www.inkscape.org/namespaces/inkscape"
   width="123.47878mm"
   height="121.04377mm"
   viewBox="0 0 123.47878 121.04377"
   version="1.1"
   id="svg8"
   inkscape:version="0.92.4 (5da689c313, 2019-01-14)"
   sodipodi:docname="fire.svg">
  <defs
     id="defs2" />
  <sodipodi:namedview
     id="base"
     pagecolor="#ffffff"
     bordercolor="#666666"
     borderopacity="1.0"
     inkscape:pageopacity="0.0"
     inkscape:pageshadow="2"
     inkscape:zoom="1.4142136"
     inkscape:cx="149.69128"
     inkscape:cy="194.43651"
     inkscape:document-units="mm"
     inkscape:current-layer="layer3"
     showgrid="false"
     inkscape:window-width="1920"
     inkscape:window-height="1017"
     inkscape:window-x="-8"
     inkscape:window-y="-8"
     inkscape:window-maximized="1">
    <inkscape:grid
       type="xygrid"
       id="grid1587"
       originx="-86.760612"
       originy="-37.041669" />
  </sodipodi:namedview>
  <metadata
     id="metadata5">
    <rdf:RDF>
      <cc:Work
         rdf:about="">
        <dc:format>image/svg+xml</dc:format>
        <dc:type
           rdf:resource="http://purl.org/dc/dcmitype/StillImage" />
        <dc:title></dc:title>
      </cc:Work>
    </rdf:RDF>
  </metadata>
  <g
     inkscape:label="Layer 1"
     inkscape:groupmode="layer"
     id="layer1"
     transform="translate(-86.760615,-138.91456)"
     style="display:inline;opacity:1" />
  <g
     inkscape:groupmode="layer"
     id="layer2"
     inkscape:label="Layer 2"
     style="display:inline"
     transform="translate(-86.760615,-51.914559)" />
  <g
     inkscape:groupmode="layer"
     id="layer3"
     inkscape:label="Layer 3"
     style="display:inline"
     transform="translate(-86.760615,-51.914559)">
    <text
       xml:space="preserve"
       style="font-style:normal;font-weight:normal;font-size:63.81978607px;line-height:1.25;font-family:sans-serif;letter-spacing:0px;word-spacing:0px;fill:#000000;fill-opacity:1;stroke:none;stroke-width:1.59549463"
       x="88.389153"
       y="138.4644"
       id="text831"><tspan
         sodipodi:role="line"
         id="tspan829"
         x="88.389153"
         y="196.68913"
         style="stroke-width:1.59549463" /></text>
    <path
       style="opacity:1;fill:#800000;fill-opacity:1;fill-rule:nonzero;stroke:none;stroke-width:0.13648988;stroke-miterlimit:4;stroke-dasharray:none;stroke-dashoffset:0;stroke-opacity:1"
       d="m 153.86541,54.521387 c -0.088,3e-6 0.18864,0.46382 0.61485,1.03062 1.66735,2.217403 2.91957,4.892954 3.55612,7.597793 0.503,2.13745 0.5813,5.563548 0.1807,7.926888 -1.62,9.557518 -9.27454,18.220881 -19.01836,21.524752 -1.44405,0.489635 -3.71001,1.071359 -3.8044,0.976996 -0.0296,-0.02957 0.25499,-0.586262 0.63247,-1.237769 2.18913,-3.778371 3.70444,-8.069803 4.45672,-12.620877 0.37351,-2.259674 0.34316,-6.676798 -0.0596,-8.673221 -0.34759,-1.723364 -1.03858,-3.793819 -1.71745,-5.145753 -0.5467,-1.08869 -1.87313,-3.070063 -2.36315,-3.530409 l -0.33571,-0.31587 -0.001,1.851883 c -0.003,6.031982 -1.78719,12.48532 -5.45134,19.722825 -1.5376,3.03708 -3.05675,5.677975 -6.0897,10.585342 -5.88057,9.514933 -7.18224,11.764283 -9.06696,15.668663 -2.21176,4.58183 -3.52719,8.43545 -4.2525,12.46146 -0.65725,5.36064 -0.43837,9.92093 0.0448,14.88193 0.73835,7.29624 3.5476,13.67846 8.45138,19.202 5.62269,6.33329 13.65211,10.46128 22.33574,11.483 v 7.6e-4 c 2.03248,0.23898 5.963,0.23941 8.06718,7.4e-4 7.88083,-0.89392 14.99783,-4.21059 20.62563,-9.61202 5.46489,-5.91218 7.82934,-11.15792 9.94037,-17.61751 2.98317,-9.14018 4.87578,-18.62715 5.52114,-27.67836 0.17429,-2.43815 0.17847,-9.08418 0.007,-11.21121 -0.54732,-6.802845 -2.12923,-13.22248 -4.27528,-17.353049 -0.48877,-0.940727 -0.51413,-0.967446 -0.4503,-0.465724 0.51812,4.076029 0.55525,8.901374 0.0888,11.568943 -0.33037,1.889763 -1.0877,4.341561 -1.75125,5.66878 -0.77949,1.55918 -1.90199,3.09599 -3.21674,4.40384 -0.71682,0.71306 -1.3477,1.29654 -1.40157,1.29654 -0.0545,0 -0.0762,-2.41703 -0.0499,-5.37129 0.0778,-8.752 -0.32519,-14.315443 -1.45374,-20.093046 -2.20024,-11.263989 -6.8685,-19.117981 -14.31335,-24.080369 -1.2355,-0.823538 -5.10936,-2.847262 -5.45062,-2.847244 z"
       id="path869"
       inkscape:connector-curvature="0"
       sodipodi:nodetypes="ccsccccsscccccsccccccccccccccccsccccc" />
    <path
       style="display:inline;opacity:1;fill:#ffd42a;fill-opacity:1;fill-rule:nonzero;stroke:none;stroke-width:0.08127926;stroke-miterlimit:4;stroke-dasharray:none;stroke-dashoffset:0;stroke-opacity:1"
       d="m 160.52339,96.660874 c 0,-0.04364 -1.36898,0.409862 -2.48972,0.824828 -16.7456,6.200558 -28.17681,19.385418 -30.55573,35.244558 -0.32288,2.15257 -0.38811,3.09019 -0.41245,5.91991 -0.0456,3.47644 0,0 0.11699,4.2999 0.44897,4.25484 2.15734,7.97688 5.13934,11.19795 3.41916,3.69327 8.30216,6.1009 13.5827,6.69672 1.23591,0.13917 3.62528,0.13917 4.90483,0 4.79233,-0.52132 9.12019,-2.45525 12.54246,-5.60512 3.28857,-3.02682 5.38819,-6.8707 6.12202,-11.20818 0.14375,-2.37524 0.32787,-4.42424 0.27493,-6.68953 0.11699,-1.70779 0.11585,-10.97495 -0.001,-13.04999 -0.16232,-2.87859 -0.33748,-5.07411 -0.56489,-7.06464 -0.15964,-1.39747 -0.53187,-3.9541 -0.60218,-4.13638 -0.0303,-0.0787 -0.0928,0.14536 -0.17057,0.61223 -0.16231,0.97622 -0.58316,2.59875 -0.97094,3.74286 -1.53881,4.54001 -3.32667,6.63121 -4.77589,5.58569 -0.32236,-0.23253 -1.16831,-1.14055 -1.68187,-1.80397 -1.89583,-2.44914 -2.9854,-5.3906 -3.32851,-8.98923 -0.11813,-1.24002 -0.0452,-4.25104 0.13533,-5.58569 0.40554,-2.99768 1.1626,-5.90677 2.29894,-8.833873 0.24025,-0.618838 0.43699,-1.139663 0.43699,-1.158043 z"
       id="path869-3"
       inkscape:connector-curvature="0"
       sodipodi:nodetypes="ccccccccccccccccccccccc" />
  </g>
  <g
     inkscape:groupmode="layer"
     id="layer4"
     inkscape:label="Layer 4"
     style="display:inline"
     transform="translate(-86.760615,-51.914559)" />
</svg>
