<?xml version="1.0" encoding="UTF-8" standalone="no"?>
<!-- Created with Inkscape (http://www.inkscape.org/) -->

<svg
   xmlns:dc="http://purl.org/dc/elements/1.1/"
   xmlns:cc="http://creativecommons.org/ns#"
   xmlns:rdf="http://www.w3.org/1999/02/22-rdf-syntax-ns#"
   xmlns:svg="http://www.w3.org/2000/svg"
   xmlns="http://www.w3.org/2000/svg"
   xmlns:sodipodi="http://sodipodi.sourceforge.net/DTD/sodipodi-0.dtd"
   xmlns:inkscape="http://www.inkscape.org/namespaces/inkscape"
   width="297mm"
   height="210mm"
   viewBox="0 0 297 210"
   version="1.1"
   id="svg8"
   inkscape:version="0.92.4 (5da689c313, 2019-01-14)"
   sodipodi:docname="gear.svg">
  <defs
     id="defs2">
    <inkscape:perspective
       sodipodi:type="inkscape:persp3d"
       inkscape:vp_x="0 : 105 : 1"
       inkscape:vp_y="0 : 1000 : 0"
       inkscape:vp_z="297 : 105 : 1"
       inkscape:persp3d-origin="148.5 : 70 : 1"
       id="perspective871" />
  </defs>
  <sodipodi:namedview
     id="base"
     pagecolor="#ffffff"
     bordercolor="#666666"
     borderopacity="1.0"
     inkscape:pageopacity="0.0"
     inkscape:pageshadow="2"
     inkscape:zoom="0.53420635"
     inkscape:cx="798.59279"
     inkscape:cy="202.44699"
     inkscape:document-units="mm"
     inkscape:current-layer="layer2"
     showgrid="true"
     inkscape:window-width="1920"
     inkscape:window-height="1017"
     inkscape:window-x="-8"
     inkscape:window-y="-8"
     inkscape:window-maximized="1">
    <inkscape:grid
       type="xygrid"
       id="grid1587" />
  </sodipodi:namedview>
  <metadata
     id="metadata5">
    <rdf:RDF>
      <cc:Work
         rdf:about="">
        <dc:format>image/svg+xml</dc:format>
        <dc:type
           rdf:resource="http://purl.org/dc/dcmitype/StillImage" />
        <dc:title />
      </cc:Work>
    </rdf:RDF>
  </metadata>
  <g
     inkscape:label="Layer 1"
     inkscape:groupmode="layer"
     id="layer1"
     transform="translate(0,-87)"
     style="display:inline;opacity:1">
    <g
       id="g888"
       inkscape:label="Gear24"
       transform="matrix(4.516128,0,0,4.5557314,148.5,192)"
       style="fill:#9c9c9c;fill-opacity:0.95348835;stroke:#363636;stroke-opacity:0">
      <path
         id="path884"
         style="fill:#9c9c9c;stroke:#363636;stroke-width:0.26458332;fill-opacity:0.95348835;stroke-opacity:0"
         d="m 18.4685,-1.48722 0.46392,-0.03736 1.23698,0.20261 1.71938,0.71941 V 0.60256 L 20.1694,1.32197 18.93242,1.52458 18.4685,1.48722 18.22413,3.34345 18.6819,3.42744 19.8243,3.9433 21.29889,5.08321 20.98698,6.24726 19.13999,6.49715 17.89272,6.3727 17.45428,6.21655 l -0.71647,1.72973 0.42044,0.1996 0.96995,0.79396 1.12931,1.48272 -0.60255,1.04366 -1.84873,-0.23666 -1.17257,-0.44302 -0.38308,-0.26431 -1.13975,1.48535 0.35445,0.30162 0.73142,1.01794 0.70707,1.72449 -0.85214,0.85214 -1.72449,-0.70707 -1.01794,-0.73142 -0.30162,-0.35445 -1.48535,1.13975 0.26431,0.38308 0.44302,1.17257 0.23666,1.84873 -1.04366,0.60255 L 8.93984,18.1282 8.14588,17.15825 7.94628,16.73781 6.21655,17.45428 6.3727,17.89272 6.49715,19.13999 6.24726,20.98698 5.08321,21.29889 3.9433,19.8243 3.42744,18.6819 3.34345,18.22413 1.48722,18.4685 1.52458,18.93242 1.32197,20.1694 0.60256,21.88878 h -1.20512 l -0.71941,-1.71938 -0.20261,-1.23698 0.03736,-0.46392 -1.85623,-0.24437 -0.08399,0.45777 -0.51586,1.1424 -1.13991,1.47459 -1.16405,-0.31191 -0.24989,-1.84699 0.12445,-1.24727 0.15615,-0.43844 -1.72973,-0.71647 -0.1996,0.42044 -0.79396,0.96995 -1.48272,1.12931 -1.04366,-0.60255 0.23666,-1.84873 0.44302,-1.17257 0.26431,-0.38308 -1.48535,-1.13975 -0.30162,0.35445 -1.01794,0.73142 -1.72449,0.70707 -0.85214,-0.85214 0.70707,-1.72449 0.73142,-1.01794 0.35445,-0.30162 -1.13975,-1.48535 -0.38308,0.26431 -1.17257,0.44302 -1.84873,0.23666 -0.60255,-1.04366 1.12931,-1.48272 0.96995,-0.79396 0.42044,-0.1996 -0.71647,-1.72973 -0.43844,0.15615 -1.24727,0.12445 -1.84699,-0.24989 -0.31191,-1.16405 1.47459,-1.13991 1.1424,-0.51586 0.45777,-0.08399 -0.24437,-1.85623 -0.46392,0.03736 -1.23698,-0.20261 -1.71938,-0.71941 v -1.20512 l 1.71938,-0.71941 1.23698,-0.20261 0.46392,0.03736 0.24437,-1.85623 -0.45777,-0.08399 -1.1424,-0.51586 -1.47459,-1.13991 0.31191,-1.16405 1.84699,-0.24989 1.24727,0.12445 0.43844,0.15615 0.71647,-1.72973 -0.42044,-0.1996 -0.96995,-0.79396 -1.12931,-1.48272 0.60255,-1.04366 1.84873,0.23666 1.17257,0.44302 0.38308,0.26431 1.13975,-1.48535 -0.35445,-0.30162 -0.73142,-1.01794 -0.70707,-1.72449 0.85214,-0.85214 1.72449,0.70707 1.01794,0.73142 0.30162,0.35445 1.48535,-1.13975 -0.26431,-0.38308 -0.44302,-1.17257 -0.23666,-1.84873 1.04366,-0.60255 1.48272,1.12931 0.79396,0.96995 0.1996,0.42044 1.72973,-0.71647 -0.15615,-0.43844 -0.12445,-1.24727 0.24989,-1.84699 1.16405,-0.31191 1.13991,1.47459 0.51586,1.1424 0.08399,0.45777 1.85623,-0.24437 -0.03736,-0.46392 0.20261,-1.23698 0.71941,-1.71938 h 1.20512 l 0.71941,1.71938 0.20261,1.23698 -0.03736,0.46392 1.85623,0.24437 0.08399,-0.45777 0.51586,-1.1424 1.13991,-1.47459 1.16405,0.31191 0.24989,1.84699 -0.12445,1.24727 -0.15615,0.43844 1.72973,0.71647 0.1996,-0.42044 0.79396,-0.96995 1.48272,-1.12931 1.04366,0.60255 -0.23666,1.84873 -0.44302,1.17257 -0.26431,0.38308 1.48535,1.13975 0.30162,-0.35445 1.01794,-0.73142 1.72449,-0.70707 0.85214,0.85214 -0.70707,1.72449 -0.73142,1.01794 -0.35445,0.30162 1.13975,1.48535 0.38308,-0.26431 1.17257,-0.44302 1.84873,-0.23666 0.60255,1.04366 -1.12931,1.48272 -0.96995,0.79396 -0.42044,0.1996 0.71647,1.72973 0.43844,-0.15615 1.24727,-0.12445 1.84699,0.24989 0.31191,1.16405 -1.47459,1.13991 -1.1424,0.51586 -0.45777,0.08399 z"
         inkscape:connector-curvature="0" />
      <circle
         id="path886"
         style="fill:#666666;stroke:#363636;stroke-width:0.26458332;fill-opacity:1;stroke-opacity:0"
         cx="0"
         cy="0"
         r="2.6458333" />
    </g>
  </g>
  <g
     inkscape:groupmode="layer"
     id="layer2"
     inkscape:label="Layer 2"
     style="display:inline" />
  <g
     inkscape:groupmode="layer"
     id="layer3"
     inkscape:label="Layer 3"
     style="display:inline" />
  <g
     inkscape:groupmode="layer"
     id="layer4"
     inkscape:label="Layer 4"
     style="display:inline" />
</svg>
