<?xml version="1.0" encoding="UTF-8" standalone="no"?>
<!-- Created with Inkscape (http://www.inkscape.org/) -->

<svg
   xmlns:dc="http://purl.org/dc/elements/1.1/"
   xmlns:cc="http://creativecommons.org/ns#"
   xmlns:rdf="http://www.w3.org/1999/02/22-rdf-syntax-ns#"
   xmlns:svg="http://www.w3.org/2000/svg"
   xmlns="http://www.w3.org/2000/svg"
   xmlns:sodipodi="http://sodipodi.sourceforge.net/DTD/sodipodi-0.dtd"
   xmlns:inkscape="http://www.inkscape.org/namespaces/inkscape"
   width="297mm"
   height="210mm"
   viewBox="0 0 297 210"
   version="1.1"
   id="svg8"
   inkscape:version="0.92.4 (5da689c313, 2019-01-14)"
   sodipodi:docname="hand-counting_2.svg">
  <defs
     id="defs2" />
  <sodipodi:namedview
     id="base"
     pagecolor="#ffffff"
     bordercolor="#666666"
     borderopacity="1.0"
     inkscape:pageopacity="0.0"
     inkscape:pageshadow="2"
     inkscape:zoom="2.1368254"
     inkscape:cx="366.44799"
     inkscape:cy="358.37587"
     inkscape:document-units="mm"
     inkscape:current-layer="layer1"
     showgrid="true"
     inkscape:window-width="1920"
     inkscape:window-height="1017"
     inkscape:window-x="-8"
     inkscape:window-y="-8"
     inkscape:window-maximized="1">
    <inkscape:grid
       type="xygrid"
       id="grid1587" />
  </sodipodi:namedview>
  <metadata
     id="metadata5">
    <rdf:RDF>
      <cc:Work
         rdf:about="">
        <dc:format>image/svg+xml</dc:format>
        <dc:type
           rdf:resource="http://purl.org/dc/dcmitype/StillImage" />
        <dc:title />
      </cc:Work>
    </rdf:RDF>
  </metadata>
  <g
     inkscape:label="Layer 1"
     inkscape:groupmode="layer"
     id="layer1"
     transform="translate(0,-87)"
     style="display:inline;opacity:0.92000002" />
  <g
     inkscape:groupmode="layer"
     id="layer3"
     inkscape:label="Layer 3"
     style="display:inline" />
  <g
     inkscape:groupmode="layer"
     id="layer4"
     inkscape:label="Layer 4"
     style="display:inline">
    <path
       style="opacity:1;fill:#8d5524;fill-opacity:1;fill-rule:nonzero;stroke:#684646;stroke-width:0.02645833;stroke-miterlimit:4;stroke-dasharray:none;stroke-dashoffset:0;stroke-opacity:1"
       d="m 145.16493,147.57376 c -2.67209,-0.37174 -7.41202,-2.34173 -7.32374,-3.04386 0.017,-0.13487 0.23078,-0.72285 0.47517,-1.30663 1.72134,-4.11178 1.72248,-8.67011 0.005,-19.16367 -0.33895,-2.07066 -0.62422,-3.9812 -0.63394,-4.24564 -0.0134,-0.36374 -0.2438,-0.65525 -0.94653,-1.19741 -2.19741,-1.69529 -4.464,-4.49666 -5.66548,-7.00223 -1.56846,-3.27085 -1.59714,-6.23089 -0.10763,-11.10687 0.37229,-1.218704 0.68663,-2.675182 0.74837,-3.467583 0.10319,-1.324179 0.12786,-1.384578 0.80066,-1.960472 0.76863,-0.657911 1.98162,-1.138534 2.87342,-1.138534 h 0.58169 l -5.3e-4,1.006874 c -8e-4,1.714117 -0.35944,4.102315 -0.80853,5.384605 -0.68263,1.94916 -0.67039,1.89384 -0.39952,1.80531 0.37724,-0.12329 0.99517,-1.84864 1.31349,-3.667467 0.24696,-1.411078 0.27188,-2.581171 0.17851,-8.381722 -0.13473,-8.370837 0.10876,-18.503495 0.48504,-20.184779 0.40141,-1.79357 1.57867,-3.806049 2.52167,-4.310732 1.02518,-0.548661 1.69162,-0.01244 2.1518,1.731344 0.84428,3.199304 1.02725,7.527602 0.6753,15.975168 -0.20366,4.888405 -0.03,8.663845 0.44034,9.573392 0.42581,0.823426 1.37068,0.978281 1.97565,0.323792 0.50649,-0.547936 1.39982,-5.216255 2.40427,-12.56407 0.24357,-1.781733 0.48278,-3.397115 0.53158,-3.589734 0.0488,-0.19262 0.2449,-2.013434 0.43577,-4.046257 0.44403,-4.729123 0.89194,-6.81967 1.80205,-8.410808 0.38606,-0.674942 1.71628,-2.003272 2.18433,-2.181225 0.58573,-0.222695 1.33152,0.06716 1.58086,0.6144 0.37445,0.82183 0.61658,3.827618 0.50818,6.308669 -0.12217,2.796439 -0.36894,4.823272 -1.34441,11.042293 -0.37766,2.407748 -0.77836,5.379328 -0.89046,6.60351 -0.19525,2.132285 -0.16963,4.215156 0.0546,4.439393 0.0583,0.05828 0.41609,0.147561 0.79514,0.198401 l 0.68917,0.09244 0.21486,-0.851376 c 0.11817,-0.468254 0.25822,-1.718162 0.31122,-2.777569 0.10636,-2.126068 0.20372,-2.341647 1.31326,-2.907932 0.70398,-0.359299 1.78124,-0.430612 2.48172,-0.164291 0.66626,0.253312 1.84138,1.387705 2.23327,2.155875 0.31236,0.612273 0.32929,0.808686 0.16243,1.884133 -0.23578,1.519637 -0.23769,2.72402 -0.005,3.158786 0.18687,0.349157 0.9369,0.457264 1.35046,0.194651 0.27128,-0.172257 0.9101,-2.524326 0.91568,-3.371379 0.006,-0.915609 0.64489,-1.471538 1.52664,-1.328449 0.96896,0.157239 2.00254,0.951225 2.47441,1.900812 1.34202,2.700708 1.15797,9.258744 -0.49157,17.515711 -0.69026,3.45516 -1.86621,7.78494 -2.26968,8.35682 -1.05428,1.49434 -2.36099,4.96327 -3.04565,8.08528 -0.76877,3.50554 -0.90269,4.91225 -0.89824,9.43543 0.004,4.48736 0.22122,6.69845 0.95836,9.77342 0.19194,0.80066 0.34898,1.51925 0.34898,1.59687 0,0.16092 -1.54843,0.85949 -3.55769,1.60503 -1.62482,0.60291 -4.26775,1.28103 -6.01929,1.54445 -1.19804,0.18017 -4.97471,0.21972 -6.09528,0.0638 z"
       id="path5222"
       inkscape:connector-curvature="0" />
  </g>
</svg>
