<?xml version="1.0" encoding="UTF-8" standalone="no"?>
<!-- Created with Inkscape (http://www.inkscape.org/) -->

<svg
   xmlns:dc="http://purl.org/dc/elements/1.1/"
   xmlns:cc="http://creativecommons.org/ns#"
   xmlns:rdf="http://www.w3.org/1999/02/22-rdf-syntax-ns#"
   xmlns:svg="http://www.w3.org/2000/svg"
   xmlns="http://www.w3.org/2000/svg"
   xmlns:sodipodi="http://sodipodi.sourceforge.net/DTD/sodipodi-0.dtd"
   xmlns:inkscape="http://www.inkscape.org/namespaces/inkscape"
   width="297mm"
   height="210mm"
   viewBox="0 0 297 210"
   version="1.1"
   id="svg8"
   inkscape:version="0.92.4 (5da689c313, 2019-01-14)"
   sodipodi:docname="hand-counting.svg">
  <defs
     id="defs2" />
  <sodipodi:namedview
     id="base"
     pagecolor="#ffffff"
     bordercolor="#666666"
     borderopacity="1.0"
     inkscape:pageopacity="0.0"
     inkscape:pageshadow="2"
     inkscape:zoom="0.75548187"
     inkscape:cx="650.18075"
     inkscape:cy="427.18154"
     inkscape:document-units="mm"
     inkscape:current-layer="layer1"
     showgrid="true"
     inkscape:window-width="1920"
     inkscape:window-height="1017"
     inkscape:window-x="-8"
     inkscape:window-y="-8"
     inkscape:window-maximized="1">
    <inkscape:grid
       type="xygrid"
       id="grid1587" />
  </sodipodi:namedview>
  <metadata
     id="metadata5">
    <rdf:RDF>
      <cc:Work
         rdf:about="">
        <dc:format>image/svg+xml</dc:format>
        <dc:type
           rdf:resource="http://purl.org/dc/dcmitype/StillImage" />
        <dc:title />
      </cc:Work>
    </rdf:RDF>
  </metadata>
  <g
     inkscape:label="Layer 1"
     inkscape:groupmode="layer"
     id="layer1"
     transform="translate(0,-87)"
     style="display:inline;opacity:0.92000002" />
  <g
     inkscape:groupmode="layer"
     id="layer3"
     inkscape:label="Layer 3"
     style="display:inline">
    <path
       style="fill:none;stroke:#000000;stroke-width:0.26458332px;stroke-linecap:butt;stroke-linejoin:miter;stroke-opacity:1"
       d="m 12.964577,105.225 c 1.14394,7.95244 4.01628,19.01525 0,25.4 7.48265,5.17006 16.33003,3.46822 23.8125,-0.13229 -2.65415,-9.20098 -1.91067,-22.06954 2.64583,-29.23646"
       id="path4596"
       inkscape:connector-curvature="0"
       sodipodi:nodetypes="cccc" />
    <path
       style="display:inline;fill:none;stroke:#000000;stroke-width:0.26458332px;stroke-linecap:butt;stroke-linejoin:miter;stroke-opacity:1"
       d="m 60.854167,105.225 c 1.14394,7.95244 4.01628,19.01525 0,25.4 7.48265,5.17006 16.33003,3.46822 23.8125,-0.13229 -2.65415,-9.20098 -1.91067,-22.06954 2.64583,-29.23646"
       id="path4596-8"
       inkscape:connector-curvature="0"
       sodipodi:nodetypes="cccc" />
    <path
       style="display:inline;fill:none;stroke:#000000;stroke-width:0.26458332px;stroke-linecap:butt;stroke-linejoin:miter;stroke-opacity:1"
       d="m 111.125,104.16666 c 1.14394,7.95244 4.01628,19.27984 0,25.66459 7.48265,5.17006 16.33003,3.46822 23.8125,-0.13229 -2.65415,-9.20098 -1.91067,-22.06954 2.64583,-29.23646"
       id="path4596-8-5"
       inkscape:connector-curvature="0"
       sodipodi:nodetypes="cccc" />
  </g>
  <g
     inkscape:groupmode="layer"
     id="layer4"
     inkscape:label="Layer 4"
     style="display:inline">
    <path
       style="fill:none;stroke:#000000;stroke-width:0.26458332px;stroke-linecap:butt;stroke-linejoin:miter;stroke-opacity:1"
       d="m 39.422907,101.25625 c 2.29184,-7.037084 5.05926,-21.197494 2.64584,-26.193751"
       id="path4616"
       inkscape:connector-curvature="0"
       sodipodi:nodetypes="cc" />
    <path
       id="path4628"
       style="fill:none;stroke:#000000;stroke-width:0.26458332px;stroke-linecap:butt;stroke-linejoin:miter;stroke-opacity:1"
       d="m 6.8791667,81.412499 c 1.37318,-1.758561 2.79082,-2.048528 4.7625003,-2.116666 M 5.0270767,92.260415 c 0,-5.291666 2.11667,-6.879166 1.85209,-10.847916 M 12.964577,105.225 C 9.2604167,102.57917 4.7412267,97.275756 5.0270767,92.260416"
       inkscape:connector-curvature="0" />
    <path
       style="fill:none;stroke:#000000;stroke-width:0.26458332px;stroke-linecap:butt;stroke-linejoin:miter;stroke-opacity:1"
       d="m 11.641667,64.214582 c -0.77193,6.242696 1.55862,16.318897 -1.32292,21.166667"
       id="path4647"
       inkscape:connector-curvature="0" />
    <path
       id="path4673"
       style="fill:none;stroke:#000000;stroke-width:0.26458332px;stroke-linecap:butt;stroke-linejoin:miter;stroke-opacity:1"
       d="m 14.022917,49.397916 c 0.39336,-1.038863 2.02711,-1.278826 2.70036,-0.381159 0.26282,0.350428 0.29979,0.803069 0.47464,1.174909 m -0.26459,-0.79375 c 2.64584,8.202083 -0.10381,19.97963 1.32292,26.722917 m -6.61458,-11.906251 c 0.40923,-5.062505 -0.85948,-12.172523 2.64583,-15.081249"
       inkscape:connector-curvature="0" />
    <path
       style="fill:none;stroke:#000000;stroke-width:0.26458332px;stroke-linecap:butt;stroke-linejoin:miter;stroke-opacity:1"
       d="m 18.256247,75.856249 c 0.36643,1.180663 0.95565,1.047851 1.85208,1.058333"
       id="path4679"
       inkscape:connector-curvature="0" />
    <path
       style="fill:none;stroke:#000000;stroke-width:0.26458332px;stroke-linecap:butt;stroke-linejoin:miter;stroke-opacity:1"
       d="m 19.843747,76.914582 c 1.35821,-1.785884 0.57138,-4.378978 0.79375,-6.35"
       id="path4685"
       inkscape:connector-curvature="0" />
    <path
       style="fill:none;stroke:#000000;stroke-width:0.26458332px;stroke-linecap:butt;stroke-linejoin:miter;stroke-opacity:1"
       d="m 20.637497,70.564582 c 1.89467,-2.575835 5.58334,-1.610905 6.61458,0.79375"
       id="path4687"
       inkscape:connector-curvature="0" />
    <path
       style="fill:none;stroke:#000000;stroke-width:0.26458332px;stroke-linecap:butt;stroke-linejoin:miter;stroke-opacity:1"
       d="m 27.516657,71.358332 c -0.26458,1.852084 1e-5,4.762501 1e-5,5.820834"
       id="path4689"
       inkscape:connector-curvature="0"
       sodipodi:nodetypes="cc" />
    <path
       id="path4717"
       style="fill:none;stroke:#000000;stroke-width:0.26458332px;stroke-linecap:butt;stroke-linejoin:miter;stroke-opacity:1"
       d="m 35.983327,73.474999 c -0.1814,1.314738 -0.52916,3.175 -0.26458,4.233334 0.25832,0.771401 1.24839,0.04685 1.32292,0 m -7.93751,-5.820834 c 2.38127,-3.102747 5.78952,-1.512906 6.87917,1.5875 m -7.40833,3.704167 c 0.92806,-1.611466 0.44113,-4.398357 0.79375,-5.820834 m -1.85209,5.55625 c 0.21194,0.107032 1.22106,0.26448 1.32292,0.264584"
       inkscape:connector-curvature="0" />
    <path
       id="path4735"
       style="fill:none;stroke:#000000;stroke-width:0.26458332px;stroke-linecap:butt;stroke-linejoin:miter;stroke-opacity:1"
       d="m 37.570827,74.533332 c 0.66387,-3.059361 4.28457,-0.674907 4.7625,1.058334 m -5.29167,2.116666 c -0.0251,-0.925629 1.07055,-3.095387 0.52917,-3.704166"
       inkscape:connector-curvature="0" />
    <path
       style="display:inline;fill:none;stroke:#000000;stroke-width:0.26458332px;stroke-linecap:butt;stroke-linejoin:miter;stroke-opacity:1"
       d="m 87.312497,101.52083 c 2.29184,-7.037074 5.05926,-21.197487 2.64584,-26.193744"
       id="path4616-5"
       inkscape:connector-curvature="0"
       sodipodi:nodetypes="cc" />
    <path
       inkscape:connector-curvature="0"
       id="path4735-9"
       style="display:inline;fill:none;stroke:#000000;stroke-width:0.26458332px;stroke-linecap:butt;stroke-linejoin:miter;stroke-opacity:1"
       d="m 85.460417,74.797916 c 0.66387,-3.059361 4.28457,-0.674907 4.7625,1.058334 m -5.29167,2.116666 c -0.0251,-0.925629 1.07055,-3.095387 0.52917,-3.704166" />
    <path
       inkscape:connector-curvature="0"
       id="path4717-2"
       style="display:inline;fill:none;stroke:#000000;stroke-width:0.26458332px;stroke-linecap:butt;stroke-linejoin:miter;stroke-opacity:1"
       d="m 83.872917,73.739583 c -0.1814,1.314737 -0.52916,3.175 -0.26458,4.233333 0.25832,0.771402 1.24839,0.04685 1.32292,0 m -7.93751,-5.820834 c 2.38127,-3.102747 5.78952,-1.512906 6.87917,1.587501 m -7.40833,3.704167 c 0.92806,-1.611466 0.44113,-4.398358 0.79375,-5.820835 m -1.85209,5.55625 c 0.21194,0.107033 1.22106,0.264481 1.32292,0.264585" />
    <path
       id="path5068"
       style="fill:none;stroke:#000000;stroke-width:0.26458332px;stroke-linecap:butt;stroke-linejoin:miter;stroke-opacity:1"
       d="m 70.64375,63.15625 c -0.529166,4.497917 -1.525,11.216124 -2.38125,15.08125 m -2.116663,0.264583 c 0.36643,1.180663 1.85208,1.058334 2.116663,-0.264583 m 6.096764,-29.426547 c 0.483448,-1.000124 2.131996,-1.095067 2.723452,-0.141547 0.230891,0.372241 0.227798,0.826379 0.369172,1.21219 M 77.258334,49.06763 c 1.912163,8.403468 -2.678543,21.268699 -1.852084,28.111537 M 70.680567,63.359876 c 0.854113,-5.006688 0.2174,-12.200892 3.965581,-14.789142 M 59.531247,66.860416 c -0.77193,6.242696 1.55862,16.318897 -1.32292,21.166667 m 3.70417,-35.983333 c 0.39336,-1.038863 2.02711,-1.278826 2.70036,-0.381159 0.26282,0.350428 0.29979,0.803069 0.47464,1.174909 m -0.26459,-0.79375 c 2.64584,8.202083 -0.10381,19.97963 1.32292,26.722917 m -6.61458,-11.906251 c 0.40923,-5.062505 -0.85948,-12.172523 2.64583,-15.081249 m -7.14374,29.897916 c 1.37318,-1.758561 2.79082,-2.048528 4.7625,-2.116666 m -6.61459,12.964582 c 0,-5.291666 2.11667,-6.879166 1.85209,-10.847916 m 6.08541,23.812507 c -3.70416,-2.64583 -8.22335,-7.94925 -7.9375,-12.96459"
       inkscape:connector-curvature="0" />
    <path
       inkscape:connector-curvature="0"
       id="path5068-7"
       style="display:inline;fill:none;stroke:#000000;stroke-width:0.26458332px;stroke-linecap:butt;stroke-linejoin:miter;stroke-opacity:1"
       d="m 120.08402,61.894284 c -0.52917,4.497917 -1.2236,9.0385 -2.07985,12.903626 m -1.85208,-0.529169 c 0.36643,1.180663 1.5875,1.852089 1.85208,0.529169 m 4.94946,-25.787619 c 0.48345,-1.000124 2.132,-1.095067 2.72345,-0.141547 0.23089,0.372241 0.2278,0.826379 0.36917,1.21219 m -0.19355,-0.813966 c 1.22538,9.773437 -2.29228,21.033029 -0.4402,26.060109 M 120.12083,62.09791 c 0.85412,-5.006688 0.79375,-9.525 3.11968,-13.327838 m -14.73814,16.238254 c -0.77193,6.242696 2.59375,16.848062 -0.28779,21.695832 m 1.34613,-36.512498 c 0.39336,-1.038863 2.02711,-1.278826 2.70036,-0.381159 0.26282,0.350428 0.29979,0.803069 0.47464,1.174909 m -0.26459,-0.79375 c 2.64584,8.202083 2.25423,17.598378 3.68096,24.341667 m -7.67291,-9.525 c 0.39487,-4.884874 -2.32399,-12.010001 1.05833,-14.816667 m -4.49791,30.162498 c 1.37318,-1.758562 2.26165,-0.990196 4.23333,-1.058331 m -6.08542,11.906247 c 0,-5.291666 2.11667,-6.879166 1.85209,-10.847916 m 6.08541,23.812512 c -3.70416,-2.64583 -8.22335,-7.949258 -7.9375,-12.964596"
       sodipodi:nodetypes="cccccccccccccccccccccccccc" />
    <path
       id="path4673-1"
       style="display:inline;fill:none;stroke:#000000;stroke-width:0.26458332px;stroke-linecap:butt;stroke-linejoin:miter;stroke-opacity:1"
       d="m 133.80959,51.791151 c 0.62258,-0.919977 2.2676,-0.77626 2.71541,0.252593 0.17481,0.401639 0.10628,0.850587 0.19055,1.25275 m -0.0742,-0.833393 c 0.68068,8.591351 -2.85807,16.767224 -3.02677,23.657726 m -4.23333,-11.1125 c 1.32292,-5.027083 1.85208,-10.054167 4.74684,-13.413525"
       inkscape:connector-curvature="0"
       sodipodi:nodetypes="ccccccc" />
    <path
       style="display:inline;fill:none;stroke:#000000;stroke-width:0.26458332px;stroke-linecap:butt;stroke-linejoin:miter;stroke-opacity:1"
       d="m 137.5997,100.43423 c 3.67598,-6.423419 4.24018,-19.988882 2.89405,-25.371736"
       id="path4616-5-5"
       inkscape:connector-curvature="0"
       sodipodi:nodetypes="cc" />
    <path
       inkscape:connector-curvature="0"
       id="path4735-9-9"
       style="display:inline;fill:none;stroke:#000000;stroke-width:0.26458332px;stroke-linecap:butt;stroke-linejoin:miter;stroke-opacity:1"
       d="m 135.73125,75.062494 c 1.3809,-3.05673 4.44538,-0.931293 4.7625,0"
       sodipodi:nodetypes="cc" />
    <path
       style="fill:none;stroke:#000000;stroke-width:0.26458332px;stroke-linecap:butt;stroke-linejoin:miter;stroke-opacity:1"
       d="m 133.61458,76.120827 c 1.32292,1.852083 1.85208,10e-7 2.11667,-1.058333"
       id="path5154"
       inkscape:connector-curvature="0"
       sodipodi:nodetypes="cc" />
    <path
       style="fill:none;stroke:#000000;stroke-width:0.26458332px;stroke-linecap:butt;stroke-linejoin:miter;stroke-opacity:1"
       d="M 129.38125,65.008327 C 128.85208,68.44791 127.8416,72.268289 127,75.327077"
       id="path5162"
       inkscape:connector-curvature="0"
       sodipodi:nodetypes="cc" />
    <path
       style="fill:none;stroke:#000000;stroke-width:0.26458332px;stroke-linecap:butt;stroke-linejoin:miter;stroke-opacity:1"
       d="m 125.4125,75.327077 c 0.16521,2.279785 0.55528,1.614403 1.5875,0"
       id="path5176"
       inkscape:connector-curvature="0"
       sodipodi:nodetypes="cc" />
    <path
       style="opacity:0.34299999;fill:#ffc1b2;fill-opacity:1;fill-rule:nonzero;stroke:#020000;stroke-width:0.13236585;stroke-miterlimit:4;stroke-dasharray:none;stroke-dashoffset:0;stroke-opacity:1"
       d="m 73.35199,503.01743 c -9.239628,-2.23353 -22.847608,-8.73657 -22.061308,-10.54275 0.33501,-0.76954 1.908942,-5.47072 3.497625,-10.44706 2.576808,-8.07152 2.818084,-11.07114 2.235857,-27.79683 -0.358961,-10.31192 -1.995015,-27.08798 -3.635675,-37.28015 l -2.983018,-18.53122 -8.340275,-8.21953 C 21.392299,369.82629 16.380273,353.99547 23.077005,330.2244 c 1.534082,-5.44545 3.17211,-12.85596 3.64006,-16.4678 0.718204,-5.54339 1.551861,-7.03919 5.348457,-9.59653 2.4737,-1.66625 5.898667,-3.02955 7.611036,-3.02955 3.836836,0 4.127476,4.0467 1.037861,14.45056 -2.212264,7.4495 -1.614514,10.96658 0.789292,4.64409 3.521239,-9.26156 4.277902,-17.9255 3.632844,-41.59684 -0.989056,-36.29497 0.68742,-76.13469 3.480506,-82.7106 4.191763,-9.86888 11.018736,-14.28732 13.832995,-8.95276 3.55264,6.7342 4.584942,19.76083 4.703919,59.35878 0.132379,44.05868 0.352452,45.54116 6.760538,45.54116 3.754666,0 4.908881,-3.93854 4.743836,-16.18744 -0.110632,-8.21055 0.151064,-9.08495 3.345396,-11.17795 5.173769,-3.38999 11.935296,-2.70412 16.50532,1.67424 3.632475,3.48013 3.845525,4.2853 3.845525,14.53339 0,10.51168 0.1026,10.86876 3.29819,11.47963 2.85904,0.54654 3.47491,-0.006 4.62542,-4.14758 0.72998,-2.62794 1.33056,-7.57361 1.33462,-10.99039 0.006,-4.9141 0.62215,-6.64293 2.94922,-8.27287 5.44071,-3.81082 13.73189,-1.78343 17.74322,4.33864 1.61104,2.45874 2.1231,5.90839 1.93453,13.03257 -0.23507,8.88153 -0.0366,9.68874 2.38228,9.68874 3.29237,0 4.24554,-1.52774 6.10537,-9.7856 1.80641,-8.02065 4.3706,-10.04102 9.35688,-7.37244 5.26304,2.81669 6.96013,6.22125 8.49469,17.0413 3.02166,21.30544 -5.24587,69.38491 -15.97416,92.89708 -2.85473,6.25645 -6.41285,16.08461 -7.90693,21.84037 -5.07645,19.55637 -5.46279,54.452 -0.8251,74.52659 l 1.81488,7.85588 -10.71735,4.11113 c -20.13492,7.7237 -38.274715,9.77632 -53.61836,6.06723 z"
       id="path5184"
       inkscape:connector-curvature="0"
       transform="scale(0.26458333)" />
    <path
       style="opacity:0.34299999;fill:#ffc1b2;fill-opacity:1;fill-rule:nonzero;stroke:#020000;stroke-width:0.13236585;stroke-miterlimit:4;stroke-dasharray:none;stroke-dashoffset:0;stroke-opacity:1"
       d="m 256.56081,503.70935 c -6.79838,-1.47784 -19.19073,-6.22719 -22.14331,-8.48641 -2.15527,-1.64915 -2.117,-2.20587 0.65759,-9.56753 2.60366,-6.90812 2.93464,-10.20074 2.84812,-28.33319 -0.0711,-14.89834 -0.88549,-24.90667 -2.97399,-36.54765 -1.58185,-8.81702 -2.8761,-17.50957 -2.8761,-19.31677 0,-2.3198 -1.96075,-4.93914 -6.66943,-8.90956 -9.45808,-7.97516 -19.03229,-22.14723 -21.75352,-32.20028 -2.53133,-9.35146 -1.71907,-18.5735 3.2259,-36.62573 1.48217,-5.41086 2.69486,-11.22716 2.69486,-12.92512 0,-3.56223 6.73106,-8.33011 11.77115,-8.33798 3.12968,-0.005 3.15899,0.11742 2.46265,10.27682 -0.3876,5.65498 -1.65279,12.55081 -2.81154,15.32407 -1.36843,3.27512 -1.5733,4.86446 -0.58456,4.53488 0.83723,-0.27908 2.39876,-2.85647 3.47006,-5.72755 1.5705,-4.20893 2.01385,-15.38487 2.2887,-57.69388 0.37543,-57.79153 0.92548,-62.46009 8.39932,-71.28831 3.27971,-3.87405 4.31803,-4.39487 6.33978,-3.18 5.5786,3.35217 6.29102,9.40452 6.57684,55.87323 0.23294,37.87158 0.56978,44.54516 2.38844,47.32079 2.64084,4.03042 5.39841,4.11909 7.87093,0.25311 2.04343,-3.19509 7.41355,-34.496 10.73012,-62.54287 3.42039,-28.92484 4.8239,-36.86195 7.41944,-41.95824 2.62347,-5.15115 8.43419,-11.64993 10.41648,-11.64993 5.30709,0 7.68963,15.48799 5.49776,35.73878 -0.74857,6.91612 -2.90652,22.91186 -4.79544,35.5461 -1.88892,12.63424 -3.25868,26.63193 -3.04391,31.10598 0.3425,7.13499 0.73577,8.1839 3.20024,8.53553 3.4154,0.48731 4.29748,-1.52385 5.35277,-12.20438 0.97372,-9.85502 3.16186,-12.6842 9.8102,-12.6842 3.84221,0 5.95666,0.969 9.20701,4.21935 4.11112,4.11112 4.19844,4.44216 3.40388,12.90567 -0.88795,9.45835 0.14519,12.51068 3.99012,11.7885 1.84634,-0.3468 3.03651,-2.68658 4.61103,-9.06494 1.83603,-7.43768 2.56004,-8.65062 5.36699,-8.99137 4.86673,-0.5908 9.82876,4.08532 11.53794,10.87313 5.06224,20.10396 -2.95295,74.11168 -14.55301,98.06075 -12.34035,25.47744 -15.92207,60.46585 -9.60097,93.78799 2.27054,11.96934 2.73052,11.15441 -8.75217,15.50568 -17.03039,6.45351 -38.70659,9.25359 -50.98037,6.58553 z"
       id="path5186"
       inkscape:connector-curvature="0"
       transform="scale(0.26458333)" />
    <path
       style="opacity:0.34299999;fill:#ffc1b2;fill-opacity:1;fill-rule:nonzero;stroke:#020000;stroke-width:0.13236585;stroke-miterlimit:4;stroke-dasharray:none;stroke-dashoffset:0;stroke-opacity:1"
       d="m 448.52872,500.99112 c -7.83499,-1.40051 -16.97398,-4.67153 -22.77459,-8.15148 l -4.20593,-2.52327 2.54238,-5.74748 c 3.55572,-8.03829 5.58876,-24.57419 4.56612,-37.13899 -0.47558,-5.84341 -2.32973,-20.24844 -4.12033,-32.01117 l -3.25563,-21.38677 -10.54109,-10.54109 c -18.78699,-18.78699 -22.84639,-32.70709 -16.71276,-57.3097 1.89218,-7.58975 3.60347,-15.87073 3.80286,-18.40217 0.42355,-5.37749 4.07114,-7.84355 10.25836,-6.93546 3.88253,0.56983 4.00257,0.7999 4.00257,7.67108 0,3.896 -0.93626,9.84133 -2.08059,13.21185 -2.51754,7.41525 -1.41558,9.55577 1.42253,2.76323 3.34372,-8.00265 3.73621,-18.97046 1.5488,-43.28021 -1.81597,-20.18173 -3.85871,-57.48479 -4.01927,-73.39689 -0.0754,-7.47702 1.28524,-11.75409 5.2313,-16.44372 4.29853,-5.10851 8.08207,-5.27268 9.97796,-0.43293 2.90197,7.40801 6.42277,28.1795 9.03058,53.27725 1.47507,14.19624 3.04435,28.19393 3.48728,31.10598 1.44416,9.4947 6.76553,14.45744 9.58035,8.93469 1.66232,-3.26152 3.48682,-13.56087 8.85167,-49.9681 4.84119,-32.85354 5.87857,-37.55661 10.1641,-46.08013 2.99509,-5.95695 7.63876,-6.41805 9.16195,-0.90975 1.54881,5.60096 1.26816,23.75458 -0.69759,45.1227 -1.03209,11.21912 -2.2141,24.86574 -2.62668,30.32583 -0.9246,12.23617 1.56227,26.91474 4.66106,27.51152 3.98173,0.76681 6.87445,-8.28737 15.767,-49.3506 4.88986,-22.57996 7.77353,-31.70763 12.64156,-40.0143 2.84989,-4.86297 3.98105,-5.7428 6.94304,-5.4004 l 3.53849,0.40903 -0.0588,15.22207 c -0.0457,11.82771 -1.13178,20.83016 -4.87044,40.37159 -6.61902,34.59664 -6.74862,35.78472 -4.18315,38.35019 2.92605,2.92604 4.67913,2.05116 7.80945,-3.89733 1.4674,-2.78847 3.63064,-5.67716 4.8072,-6.41932 3.08795,-1.94783 10.31922,1.37925 11.87149,5.46202 2.19207,5.76559 2.88858,30.81108 1.27713,45.92395 -2.31096,21.67309 -5.76659,34.38797 -13.90299,51.15565 -4.01054,8.26501 -8.54204,20.09027 -10.07001,26.27837 -5.17528,20.95938 -4.79967,61.42333 0.73764,79.4652 0.45702,1.48908 -1.76078,2.95831 -8.30997,5.5051 -18.51177,7.19868 -37.77583,10.08302 -51.25301,7.67396 z"
       id="path5188"
       inkscape:connector-curvature="0"
       transform="scale(0.26458333)" />
  </g>
</svg>
