<?xml version="1.0" encoding="UTF-8" standalone="no"?>
<!-- Created with Inkscape (http://www.inkscape.org/) -->

<svg
   xmlns:dc="http://purl.org/dc/elements/1.1/"
   xmlns:cc="http://creativecommons.org/ns#"
   xmlns:rdf="http://www.w3.org/1999/02/22-rdf-syntax-ns#"
   xmlns:svg="http://www.w3.org/2000/svg"
   xmlns="http://www.w3.org/2000/svg"
   xmlns:sodipodi="http://sodipodi.sourceforge.net/DTD/sodipodi-0.dtd"
   xmlns:inkscape="http://www.inkscape.org/namespaces/inkscape"
   width="297mm"
   height="210mm"
   viewBox="0 0 297 210"
   version="1.1"
   id="svg8"
   inkscape:version="0.92.4 (5da689c313, 2019-01-14)"
   sodipodi:docname="hand-counting_1.svg">
  <defs
     id="defs2" />
  <sodipodi:namedview
     id="base"
     pagecolor="#ffffff"
     bordercolor="#666666"
     borderopacity="1.0"
     inkscape:pageopacity="0.0"
     inkscape:pageshadow="2"
     inkscape:zoom="1.0684127"
     inkscape:cx="235.67963"
     inkscape:cy="361.38452"
     inkscape:document-units="mm"
     inkscape:current-layer="layer1"
     showgrid="true"
     inkscape:window-width="1920"
     inkscape:window-height="1017"
     inkscape:window-x="-8"
     inkscape:window-y="-8"
     inkscape:window-maximized="1">
    <inkscape:grid
       type="xygrid"
       id="grid1587" />
  </sodipodi:namedview>
  <metadata
     id="metadata5">
    <rdf:RDF>
      <cc:Work
         rdf:about="">
        <dc:format>image/svg+xml</dc:format>
        <dc:type
           rdf:resource="http://purl.org/dc/dcmitype/StillImage" />
        <dc:title />
      </cc:Work>
    </rdf:RDF>
  </metadata>
  <g
     inkscape:label="Layer 1"
     inkscape:groupmode="layer"
     id="layer1"
     transform="translate(0,-87)"
     style="display:inline;opacity:0.92000002" />
  <g
     inkscape:groupmode="layer"
     id="layer3"
     inkscape:label="Layer 3"
     style="display:inline" />
  <g
     inkscape:groupmode="layer"
     id="layer4"
     inkscape:label="Layer 4"
     style="display:inline">
    <path
       style="opacity:1;fill:#8d5524;fill-opacity:1;fill-rule:nonzero;stroke:#000000;stroke-width:0.02645833;stroke-miterlimit:4;stroke-dasharray:none;stroke-dashoffset:0;stroke-opacity:1"
       d="m 148.85911,144.7795 c -2.21787,-0.46192 -4.01969,-1.15466 -6.00612,-2.30916 l -0.73088,-0.42478 0.50799,-1.08561 c 1.11877,-2.39089 1.28501,-3.44905 1.28472,-8.17751 -3e-4,-4.57734 -0.0666,-5.19029 -1.44607,-13.36125 -0.42299,-2.50557 -0.55339,-2.98196 -0.87858,-3.20973 -2.08299,-1.45898 -4.70071,-4.45181 -6.0296,-6.89363 -1.13793,-2.09092 -1.43492,-3.3041 -1.41462,-5.77859 0.0185,-2.25871 0.2033,-3.27146 1.21311,-6.649271 0.24393,-0.815957 0.49249,-2.063049 0.55236,-2.77132 0.0957,-1.132372 0.17406,-1.352968 0.64918,-1.828083 0.67554,-0.67554 1.66757,-1.112896 2.89067,-1.2744 l 0.94556,-0.124857 -0.12179,1.202026 c -0.15063,1.486789 -0.55056,3.07182 -0.99475,3.942514 -0.40143,0.786855 -0.40846,0.849246 -0.0957,0.849246 0.3218,0 0.88098,-1.343255 1.27567,-3.064407 0.28412,-1.238948 0.31246,-2.008084 0.2452,-6.654141 -0.15681,-10.830745 0.018,-19.684201 0.43531,-22.044567 0.43124,-2.439294 2.04647,-5.009772 3.14803,-5.009772 0.80272,0 1.1064,0.307338 1.47143,1.489147 0.7647,2.475809 0.96347,4.853083 0.88575,10.593374 -0.11521,8.508759 -0.0962,13.31962 0.057,14.388872 0.18538,1.294583 0.71003,1.896264 1.65349,1.896264 0.65004,0 0.68545,-0.03128 0.98805,-0.872763 0.24682,-0.686408 0.31044,-1.37492 0.29794,-3.22453 l -0.0159,-2.35177 0.55854,-0.469982 c 0.74593,-0.62766 1.2774,-0.810564 2.35561,-0.810675 1.15494,-1.19e-4 2.11905,0.48709 2.93548,1.483447 L 156.10417,83 v 2.827486 c 0,2.814759 0.002,2.827498 0.39399,2.829877 0.2167,0.0013 0.55242,0.04497 0.74604,0.09701 0.53661,0.144222 0.78708,-0.722299 0.95563,-3.30612 0.11314,-1.734351 0.21514,-2.319623 0.44936,-2.578441 0.41794,-0.461819 1.66928,-1.044085 2.24383,-1.044085 1.03752,0 2.26748,0.78609 3.15083,2.013751 0.34537,0.479991 0.37799,0.742633 0.37799,3.043254 0,2.834192 0.0992,3.078183 1.08491,2.669868 0.46563,-0.192871 0.54933,-0.362749 0.89907,-1.824689 0.2121,-0.886608 0.38437,-1.7771 0.38282,-1.978871 -0.003,-0.390634 0.39441,-0.816198 0.94633,-1.013352 0.47841,-0.170897 2.11442,0.672092 2.62003,1.350021 2.05302,2.752759 1.52931,12.063941 -1.29685,23.057011 -0.50083,1.94809 -0.92451,3.1534 -1.50105,4.27023 -2.13572,4.13718 -3.17042,8.22433 -3.57365,14.11622 -0.28561,4.17329 0.10105,8.96902 1.03765,12.86975 0.1849,0.77006 0.3227,1.4105 0.30624,1.42319 -0.19342,0.1491 -2.99839,1.2855 -4.14501,1.67931 -3.05382,1.04883 -4.92275,1.38373 -8.14257,1.45911 -2.14344,0.0502 -3.31387,-5.3e-4 -4.18064,-0.18103 z"
       id="path5220"
       inkscape:connector-curvature="0" />
  </g>
</svg>
