<?xml version="1.0" encoding="UTF-8" standalone="no"?>
<!-- Created with Inkscape (http://www.inkscape.org/) -->

<svg
   xmlns:dc="http://purl.org/dc/elements/1.1/"
   xmlns:cc="http://creativecommons.org/ns#"
   xmlns:rdf="http://www.w3.org/1999/02/22-rdf-syntax-ns#"
   xmlns:svg="http://www.w3.org/2000/svg"
   xmlns="http://www.w3.org/2000/svg"
   xmlns:sodipodi="http://sodipodi.sourceforge.net/DTD/sodipodi-0.dtd"
   xmlns:inkscape="http://www.inkscape.org/namespaces/inkscape"
   width="297mm"
   height="210mm"
   viewBox="0 0 297 210"
   version="1.1"
   id="svg8"
   inkscape:version="0.92.4 (5da689c313, 2019-01-14)"
   sodipodi:docname="hand-counting_3.svg">
  <defs
     id="defs2" />
  <sodipodi:namedview
     id="base"
     pagecolor="#ffffff"
     bordercolor="#666666"
     borderopacity="1.0"
     inkscape:pageopacity="0.0"
     inkscape:pageshadow="2"
     inkscape:zoom="1.5109637"
     inkscape:cx="307.05659"
     inkscape:cy="430.18952"
     inkscape:document-units="mm"
     inkscape:current-layer="layer1"
     showgrid="true"
     inkscape:window-width="1920"
     inkscape:window-height="1017"
     inkscape:window-x="-8"
     inkscape:window-y="-8"
     inkscape:window-maximized="1">
    <inkscape:grid
       type="xygrid"
       id="grid1587" />
  </sodipodi:namedview>
  <metadata
     id="metadata5">
    <rdf:RDF>
      <cc:Work
         rdf:about="">
        <dc:format>image/svg+xml</dc:format>
        <dc:type
           rdf:resource="http://purl.org/dc/dcmitype/StillImage" />
        <dc:title />
      </cc:Work>
    </rdf:RDF>
  </metadata>
  <g
     inkscape:label="Layer 1"
     inkscape:groupmode="layer"
     id="layer1"
     transform="translate(0,-87)"
     style="display:inline;opacity:0.92000002" />
  <g
     inkscape:groupmode="layer"
     id="layer3"
     inkscape:label="Layer 3"
     style="display:inline" />
  <g
     inkscape:groupmode="layer"
     id="layer4"
     inkscape:label="Layer 4"
     style="display:inline">
    <path
       style="opacity:1;fill:#8d5524;fill-opacity:1;fill-rule:nonzero;stroke:#000000;stroke-width:0.02645833;stroke-miterlimit:4;stroke-dasharray:none;stroke-dashoffset:0;stroke-opacity:1"
       d="m 145.6465,147.05324 c -1.88696,-0.25464 -4.1297,-0.95526 -5.82012,-1.81818 -2.22027,-1.13339 -2.0876,-0.95856 -1.56527,-2.06266 1.12453,-2.37707 1.6298,-5.68415 1.45625,-9.53142 -0.13001,-2.88198 -0.41411,-5.20457 -1.34619,-11.00544 l -0.67527,-4.20262 -0.75264,-0.59997 c -1.50098,-1.19651 -3.83442,-3.74039 -4.86268,-5.30123 -1.56988,-2.38296 -2.13906,-3.98683 -2.24292,-6.32022 -0.10127,-2.27507 0.13731,-3.90221 0.95472,-6.511227 0.39625,-1.26479 0.63874,-2.443332 0.70339,-3.418636 0.14351,-2.164869 0.73355,-2.673284 2.89998,-2.498784 l 1.18199,0.09521 v 1.189117 c 0,1.756072 -0.32261,3.794013 -0.78158,4.93732 -0.23666,0.58952 -0.33548,1.0516 -0.2378,1.11197 0.24289,0.15011 0.29528,0.0605 0.79455,-1.358587 0.69974,-1.9889 0.7433,-5.379318 0.14479,-11.268594 -0.34235,-3.36869 -0.45966,-5.463712 -0.45106,-8.055012 0.008,-2.404641 -0.10782,-4.682034 -0.36949,-7.267024 -0.5352,-5.287058 -0.30284,-6.709455 1.39452,-8.536562 0.55374,-0.596064 0.81074,-0.744214 1.29101,-0.744214 0.95556,0 1.1689,0.291883 1.73112,2.368558 0.94755,3.499892 1.38875,6.472033 2.17603,14.658755 0.60091,6.248783 0.89026,7.899386 1.49898,8.551018 0.51681,0.553254 1.2129,0.673751 1.54945,0.268227 0.11169,-0.134578 0.43347,-1.416243 0.71506,-2.848145 0.48942,-2.488697 0.84058,-4.759298 2.18919,-14.155409 0.33176,-2.311437 0.75871,-4.809246 0.94877,-5.550686 0.37083,-1.446564 1.46488,-3.979759 1.81485,-4.202133 0.11726,-0.07451 0.50689,-0.136681 0.86583,-0.138158 0.51781,-0.0021 0.71675,0.09522 0.9631,0.471276 0.27823,0.424728 0.30997,0.965846 0.30558,5.209493 -0.004,4.014099 -0.0821,5.442479 -0.51155,9.375923 -0.62262,5.702538 -0.69018,9.392221 -0.21001,11.469639 0.51676,2.235735 0.71115,2.382078 1.60589,1.208987 0.59736,-0.783193 1.56118,-4.151778 2.45019,-8.563565 1.8545,-9.202996 3.03133,-13.014266 4.73522,-15.335427 0.56355,-0.767712 0.705,-0.862152 1.29126,-0.862152 0.44753,0 0.76521,0.118268 0.99196,0.369295 0.30142,0.333689 0.33201,0.650237 0.31726,3.283291 -0.0192,3.432487 -0.239,5.024707 -1.64701,11.932113 -0.55951,2.744832 -1.11615,5.917805 -1.23697,7.051048 -0.21947,2.058423 -0.21928,2.060866 0.18885,2.495301 0.83837,0.892408 1.66854,0.455924 2.08674,-1.097177 0.25963,-0.964195 1.20923,-1.795031 2.05161,-1.795031 0.71263,0 1.87462,0.589282 2.22925,1.130519 0.51921,0.792414 0.72159,2.908401 0.7209,7.537376 -8e-4,4.801747 -0.15719,6.609867 -0.90162,10.418977 -0.59292,3.03382 -1.42865,5.41264 -2.85057,8.11382 -1.46396,2.78105 -1.97477,4.10189 -2.64823,6.84778 -0.89277,3.64011 -1.11448,5.69739 -1.11448,10.34165 0,4.39893 0.21971,6.63849 0.95024,9.68587 0.19193,0.80065 0.34897,1.53449 0.34897,1.63073 0,0.46531 -5.23279,2.35133 -8.1741,2.94615 -2.08606,0.42186 -5.40618,0.5839 -7.14794,0.34885 z"
       id="path5224"
       inkscape:connector-curvature="0" />
  </g>
</svg>
