<?xml version="1.0" encoding="UTF-8" standalone="no"?>
<!-- Created with Inkscape (http://www.inkscape.org/) -->

<svg
   xmlns:dc="http://purl.org/dc/elements/1.1/"
   xmlns:cc="http://creativecommons.org/ns#"
   xmlns:rdf="http://www.w3.org/1999/02/22-rdf-syntax-ns#"
   xmlns:svg="http://www.w3.org/2000/svg"
   xmlns="http://www.w3.org/2000/svg"
   xmlns:sodipodi="http://sodipodi.sourceforge.net/DTD/sodipodi-0.dtd"
   xmlns:inkscape="http://www.inkscape.org/namespaces/inkscape"
   width="297mm"
   height="210mm"
   viewBox="0 0 297 210"
   version="1.1"
   id="svg8"
   inkscape:version="0.92.4 (5da689c313, 2019-01-14)"
   sodipodi:docname="jester_hat.svg">
  <defs
     id="defs2" />
  <sodipodi:namedview
     id="base"
     pagecolor="#ffffff"
     bordercolor="#666666"
     borderopacity="1.0"
     inkscape:pageopacity="0.0"
     inkscape:pageshadow="2"
     inkscape:zoom="0.25000001"
     inkscape:cx="-1183.6413"
     inkscape:cy="117.99889"
     inkscape:document-units="mm"
     inkscape:current-layer="layer4"
     showgrid="true"
     inkscape:window-width="1920"
     inkscape:window-height="1017"
     inkscape:window-x="-8"
     inkscape:window-y="-8"
     inkscape:window-maximized="1">
    <inkscape:grid
       type="xygrid"
       id="grid1587" />
  </sodipodi:namedview>
  <metadata
     id="metadata5">
    <rdf:RDF>
      <cc:Work
         rdf:about="">
        <dc:format>image/svg+xml</dc:format>
        <dc:type
           rdf:resource="http://purl.org/dc/dcmitype/StillImage" />
        <dc:title></dc:title>
      </cc:Work>
    </rdf:RDF>
  </metadata>
  <g
     inkscape:label="Layer 1"
     inkscape:groupmode="layer"
     id="layer1"
     transform="translate(0,-87)"
     style="display:inline;opacity:1" />
  <g
     inkscape:groupmode="layer"
     id="layer2"
     inkscape:label="Layer 2"
     style="display:inline" />
  <g
     inkscape:groupmode="layer"
     id="layer3"
     inkscape:label="Layer 3"
     style="display:inline" />
  <g
     inkscape:groupmode="layer"
     id="layer4"
     inkscape:label="Layer 4"
     style="display:inline">
    <g
       id="g1598">
      <path
         inkscape:connector-curvature="0"
         id="path1548"
         d="m 129.64583,211.01042 c -3.66239,-0.72612 -7.18057,-3.24983 -8.69957,-6.2405 -2.37417,-4.67436 -1.87748,-10.59465 1.59013,-18.95355 3.2932,-7.93847 2.54885,-17.03801 -1.78622,-21.83642 -1.43445,-1.58776 -4.87337,-3.59895 -6.87857,-4.02279 -2.06729,-0.43697 -1.35352,-0.86763 1.87089,-1.1288 9.28907,-0.7524 16.49943,3.42567 22.91654,13.27907 1.40729,2.16087 3.51913,5.36009 4.69298,7.10936 6.13338,9.13997 7.64484,16.67513 4.62519,23.05814 -2.908,6.14701 -11.27552,10.1344 -18.33137,8.73549 z"
         style="display:inline;opacity:1;fill:#62000a;fill-opacity:1;fill-rule:nonzero;stroke:none;stroke-width:2.99341869;stroke-miterlimit:4;stroke-dasharray:none;stroke-dashoffset:0;stroke-opacity:1"
         transform="translate(0,-87.000001)" />
      <path
         inkscape:connector-curvature="0"
         id="path1548-5"
         d="m 177.27083,211.01042 c 2.54417,-0.72614 4.98814,-3.24991 6.04335,-6.24066 1.64928,-4.67446 1.30424,-10.59489 -1.10462,-18.95399 -2.28769,-7.93867 -1.77061,-17.03843 1.24084,-21.83694 0.99648,-1.5878 3.3854,-3.59905 4.77836,-4.02289 1.43609,-0.43699 0.94025,-0.86765 -1.29966,-1.12882 -6.45286,-0.75242 -11.4617,3.42575 -15.91948,13.27937 -0.9776,2.16093 -2.44464,5.36023 -3.26008,7.10954 -4.2607,9.14019 -5.31066,16.67553 -3.213,23.05868 2.02011,6.14717 7.83279,10.13464 12.73429,8.73571 z"
         style="display:inline;opacity:1;fill:#62000a;fill-opacity:1;fill-rule:nonzero;stroke:none;stroke-width:2.49495411;stroke-miterlimit:4;stroke-dasharray:none;stroke-dashoffset:0;stroke-opacity:1"
         transform="translate(0,-87.000001)" />
      <ellipse
         ry="5.2917924"
         rx="3.6759737"
         transform="matrix(-1,0,0,1,0,-87.000001)"
         cy="158.09247"
         cx="-191.05574"
         id="path1407-7-0"
         style="display:inline;opacity:1;fill:#573e10;fill-opacity:1;fill-rule:nonzero;stroke:none;stroke-width:1.7641989;stroke-miterlimit:4;stroke-dasharray:none;stroke-dashoffset:0;stroke-opacity:1" />
      <g
         transform="translate(23.179081)"
         id="g1455">
        <circle
           style="display:inline;opacity:1;fill:#d09833;fill-opacity:1;fill-rule:nonzero;stroke:none;stroke-width:2.11666656;stroke-miterlimit:4;stroke-dasharray:none;stroke-dashoffset:0;stroke-opacity:1"
           id="path1407-1"
           cx="147.1837"
           cy="53.307976"
           r="5.2916665" />
        <g
           id="g1447">
          <path
             sodipodi:nodetypes="cccccccccccc"
             inkscape:connector-curvature="0"
             id="path966"
             d="m 146.84375,55.395159 c -22.48958,5.291666 -32.24826,35.500088 -31.75,56.885411 l -6.61458,-7.93749 C 99.11769,90.93288 82.065365,77.490952 68.791667,76.561825 83.492881,91.157525 82.380383,102.25321 85.725,116.51391 c 3.404771,13.32425 2.241006,22.78865 14.81667,38.1 h 71.4375 c 12.07703,-13.08422 7.87926,-27.16947 7.65346,-41.01042 h -0.0515 c -3.78344,-16.092918 -10.32576,-32.566351 2.98137,-46.302081 -15.91755,1.582453 -18.25625,42.068741 -34.39583,48.947911 -23.02158,-12.89473 -8.08882,-41.071313 -1.32292,-60.854161 z"
             style="display:inline;opacity:1;fill:#ff001a;fill-opacity:1;fill-rule:nonzero;stroke:#541d1d;stroke-width:0.04679751;stroke-miterlimit:4;stroke-dasharray:none;stroke-dashoffset:0;stroke-opacity:1" />
          <circle
             r="5.2916665"
             cy="76.480377"
             cx="67.430748"
             id="path1407"
             style="opacity:1;fill:#d09833;fill-opacity:1;fill-rule:nonzero;stroke:none;stroke-width:2.11666656;stroke-miterlimit:4;stroke-dasharray:none;stroke-dashoffset:0;stroke-opacity:1" />
          <circle
             r="5.2916665"
             cy="66.002472"
             cx="183.21109"
             id="path1407-1-9"
             style="display:inline;opacity:1;fill:#d09833;fill-opacity:1;fill-rule:nonzero;stroke:none;stroke-width:2.11666656;stroke-miterlimit:4;stroke-dasharray:none;stroke-dashoffset:0;stroke-opacity:1" />
          <rect
             ry="4.630208"
             y="150.46875"
             x="92.604164"
             height="9.260416"
             width="88.635414"
             id="rect1439"
             style="display:inline;opacity:1;fill:#d09833;fill-opacity:1;fill-rule:nonzero;stroke:none;stroke-width:1.8409543;stroke-miterlimit:4;stroke-dasharray:none;stroke-dashoffset:0;stroke-opacity:1" />
        </g>
        <circle
           r="5.2916665"
           cy="71.09375"
           cx="86.623001"
           id="path1407-7"
           style="display:inline;opacity:1;fill:#573e10;fill-opacity:1;fill-rule:nonzero;stroke:none;stroke-width:2.11666656;stroke-miterlimit:4;stroke-dasharray:none;stroke-dashoffset:0;stroke-opacity:1" />
      </g>
    </g>
  </g>
</svg>
