<?xml version="1.0" encoding="UTF-8" standalone="no"?>
<!-- Created with Inkscape (http://www.inkscape.org/) -->

<svg
   xmlns:dc="http://purl.org/dc/elements/1.1/"
   xmlns:cc="http://creativecommons.org/ns#"
   xmlns:rdf="http://www.w3.org/1999/02/22-rdf-syntax-ns#"
   xmlns:svg="http://www.w3.org/2000/svg"
   xmlns="http://www.w3.org/2000/svg"
   xmlns:sodipodi="http://sodipodi.sourceforge.net/DTD/sodipodi-0.dtd"
   xmlns:inkscape="http://www.inkscape.org/namespaces/inkscape"
   width="297mm"
   height="210mm"
   viewBox="0 0 297 210"
   version="1.1"
   id="svg8"
   inkscape:version="0.92.4 (5da689c313, 2019-01-14)"
   sodipodi:docname="landscape.svg">
  <defs
     id="defs2">
    <inkscape:path-effect
       effect="skeletal"
       id="path-effect4959"
       is_visible="true"
       pattern="m 49.837743,140.89584 v 23.74225 h 1.452986 v -23.74225 z m 11.016424,0 v 30.21718 h 1.63895 v -30.21718 z m 11.202388,0 v 23.74225 h 1.452988 v -23.74225 z m 10.881292,0 v 40.78701 h 1.906733 v -40.78701 z m -44.435141,0.22343 v 40.78699 h 1.907976 v -40.78699 z"
       copytype="repeated_stretched"
       prop_scale="1"
       scale_y_rel="false"
       spacing="0"
       normal_offset="0"
       tang_offset="0"
       prop_units="false"
       vertical_pattern="false"
       fuse_tolerance="0" />
    <inkscape:path-effect
       effect="skeletal"
       id="path-effect4821"
       is_visible="true"
       pattern="M 0,0 H 1"
       copytype="repeated_stretched"
       prop_scale="1"
       scale_y_rel="false"
       spacing="0"
       normal_offset="0"
       tang_offset="0"
       prop_units="false"
       vertical_pattern="false"
       fuse_tolerance="0" />
    <inkscape:path-effect
       effect="skeletal"
       id="path-effect1032"
       is_visible="true"
       pattern="m 214,186.20126 c 0,0.33344 -0.003,0.66683 -0.009,1.00013 -0.006,0.33329 -0.0157,0.66649 -0.0282,0.99955 -0.0125,0.33305 -0.0281,0.66596 -0.0468,0.99867 -0.0187,0.33272 -0.0405,0.66523 -0.0653,0.99751 -0.0248,0.33228 -0.0528,0.66431 -0.0837,0.99605 -0.0309,0.33174 -0.065,0.66318 -0.10198,0.99429 -0.037,0.3311 -0.0771,0.66186 -0.12012,0.99223 -0.0431,0.33037 -0.0891,0.66035 -0.13815,0.98989 -0.049,0.32954 -0.10107,0.65864 -0.15605,0.98725 -0.055,0.32861 -0.11294,0.65673 -0.17383,0.98431 -0.0609,0.32758 -0.12473,0.65462 -0.19149,0.98108 -0.0668,0.32645 -0.13644,0.65232 -0.20902,0.97755 -0.0726,0.32523 -0.14807,0.64982 -0.22643,0.97373 -0.0784,0.3239 -0.15962,0.64712 -0.24373,0.96961 -0.0841,0.32248 -0.17108,0.64423 -0.26089,0.9652 -0.0898,0.32096 -0.18247,0.64115 -0.27794,0.96049 -0.0955,0.31935 -0.19377,0.63786 -0.29486,0.9555 -0.1011,0.31763 -0.20499,0.63437 -0.31167,0.95019 -0.10667,0.31582 -0.21613,0.6307 -0.32834,0.9446 -0.11222,0.31391 -0.22719,0.62683 -0.34491,0.93872 -0.11771,0.31189 -0.23816,0.62275 -0.36133,0.93254 -0.12317,0.30978 -0.24906,0.61848 -0.37765,0.92606 -0.12859,0.30757 -0.25988,0.61402 -0.39385,0.91928 -0.13396,0.30527 -0.2706,0.60936 -0.40991,0.91223 -0.1393,0.30286 -0.28126,0.6045 -0.42585,0.90486 -0.1446,0.30036 -0.29183,0.59944 -0.44168,0.8972 -0.14986,0.29776 -0.30232,0.59419 -0.45739,0.88925 -0.15506,0.29506 -0.31272,0.58875 -0.47296,0.88101 -0.16024,0.29226 -0.32305,0.5831 -0.48842,0.87247 -0.16537,0.28936 -0.3333,0.57726 -0.50376,0.86363 -0.17046,0.28637 -0.34346,0.57122 -0.51897,0.8545 -0.17552,0.28328 -0.35354,0.56498 -0.53407,0.84507 -0.18052,0.28009 -0.36354,0.55856 -0.54903,0.83535 -0.18549,0.2768 -0.37346,0.55193 -0.56388,0.82534 -0.19042,0.27341 -0.38329,0.5451 -0.5786,0.81503 -0.19531,0.26992 -0.39305,0.53808 -0.59321,0.80442 -0.20016,0.26634 -0.40273,0.53086 -0.60769,0.79352 -0.20496,0.26266 -0.41232,0.52345 -0.62204,0.78233 -0.20973,0.25887 -0.42183,0.51583 -0.63629,0.77083 -0.21445,0.255 -0.43126,0.50803 -0.65039,0.75905 -0.21914,0.25102 -0.44061,0.50003 -0.66439,0.74697 -0.22378,0.24695 -0.44988,0.49183 -0.67826,0.7346 -0.22839,0.24277 -0.45906,0.48342 -0.69201,0.72192 -0.14558,0.14905 -0.29205,0.29726 -0.4394,0.44461 -0.0884,0.0884 -0.17716,0.17653 -0.2662,0.26432 -0.23741,0.23408 -0.477,0.4659 -0.71871,0.69543 -0.24171,0.22953 -0.48555,0.45677 -0.73146,0.6817 -0.24591,0.22494 -0.49389,0.44757 -0.7439,0.66787 -0.25001,0.2203 -0.50205,0.43828 -0.75606,0.6539 -0.25401,0.21563 -0.51,0.42891 -0.76792,0.63983 -0.25791,0.21091 -0.51776,0.41945 -0.77948,0.62561 -0.26172,0.20616 -0.52532,0.40993 -0.79075,0.61129 -0.26543,0.20136 -0.53269,0.40031 -0.80173,0.59684 -0.26903,0.19652 -0.53985,0.39062 -0.8124,0.58226 -0.27255,0.19165 -0.54683,0.38085 -0.82279,0.56757 -0.27596,0.18673 -0.5536,0.37099 -0.83288,0.55276 -0.27927,0.18177 -0.56018,0.36105 -0.84267,0.53781 -0.28249,0.17677 -0.56656,0.35103 -0.85217,0.52276 -0.28561,0.17173 -0.57275,0.34092 -0.86138,0.50757 -0.28862,0.16665 -0.57873,0.33074 -0.87028,0.49227 -0.29155,0.16152 -0.58453,0.32047 -0.8789,0.47683 -0.29437,0.15637 -0.59013,0.31014 -0.88722,0.46129 -0.2971,0.15116 -0.59553,0.29971 -0.89525,0.44562 -0.29972,0.14591 -0.60072,0.2892 -0.90297,0.42982 -0.30225,0.14063 -0.60573,0.27861 -0.91041,0.41391 -0.30468,0.1353 -0.61054,0.26793 -0.91755,0.39787 -0.30701,0.12994 -0.61516,0.25718 -0.92439,0.38171 -0.30924,0.12453 -0.61958,0.24634 -0.93095,0.36542 -0.31137,0.11909 -0.62379,0.23543 -0.9372,0.34903 -0.31341,0.11359 -0.62781,0.22443 -0.94316,0.33249 -0.31535,0.10806 -0.63164,0.21335 -0.94883,0.31584 -0.31718,0.1025 -0.63526,0.2022 -0.95419,0.29908 -0.31893,0.0969 -0.6387,0.19095 -0.95927,0.28218 -0.32057,0.0912 -0.64194,0.17962 -0.96405,0.26516 -0.32212,0.0855 -0.64498,0.16822 -0.96854,0.24803 -0.32356,0.0798 -0.64782,0.15673 -0.97273,0.23077 -0.32491,0.074 -0.65046,0.14516 -0.97662,0.21338 -0.32616,0.0682 -0.65292,0.13352 -0.98023,0.19588 -0.32731,0.0624 -0.65516,0.12179 -0.98353,0.17826 -0.32836,0.0565 -0.65722,0.10997 -0.98654,0.1605 -0.32931,0.0505 -0.65908,0.0981 -0.98925,0.14263 -0.33018,0.0446 -0.66075,0.0861 -0.99168,0.12465 -0.33093,0.0385 -0.66222,0.074 -0.99381,0.10652 -0.33158,0.0325 -0.66348,0.0619 -0.99563,0.0883 -0.33215,0.0264 -0.66456,0.0497 -0.99717,0.0699 -0.33261,0.0202 -0.66543,0.0374 -0.99841,0.0514 -0.33298,0.014 -0.66612,0.025 -0.99936,0.0328 -0.33325,0.008 -0.6666,0.0125 -1.00001,0.0141 -0.0833,3.9e-4 -0.16666,5.9e-4 -0.24999,5.9e-4 -0.25011,0 -0.50019,-0.002 -0.75022,-0.005 -0.33334,-0.005 -0.6666,-0.0126 -0.99972,-0.0235 -0.33312,-0.011 -0.66611,-0.025 -0.99892,-0.0422 -0.33281,-0.0172 -0.66544,-0.0374 -0.99783,-0.0607 -0.33239,-0.0233 -0.66456,-0.0497 -0.99644,-0.0791 -0.33188,-0.0294 -0.66348,-0.0619 -0.99475,-0.0974 -0.33128,-0.0355 -0.66222,-0.074 -0.99278,-0.1156 -0.33057,-0.0416 -0.66075,-0.0861 -0.99051,-0.13365 -0.32975,-0.0476 -0.65908,-0.0981 -0.98793,-0.15159 -0.32885,-0.0535 -0.65723,-0.10998 -0.98507,-0.1694 -0.32785,-0.0594 -0.65517,-0.12179 -0.98192,-0.18708 -0.32674,-0.0653 -0.65291,-0.13352 -0.97846,-0.20466 -0.32554,-0.0711 -0.65046,-0.14516 -0.97471,-0.22209 -0.32424,-0.0769 -0.64782,-0.15674 -0.97067,-0.23941 -0.32285,-0.0827 -0.64497,-0.16823 -0.96633,-0.25662 -0.32135,-0.0884 -0.64193,-0.17963 -0.96169,-0.27369 -0.31977,-0.0941 -0.63871,-0.19095 -0.95677,-0.29064 -0.31807,-0.0997 -0.63527,-0.2022 -0.95155,-0.30748 -0.31628,-0.10528 -0.63164,-0.21335 -0.94603,-0.32419 -0.31439,-0.11083 -0.62781,-0.22443 -0.94022,-0.34077 -0.3124,-0.11635 -0.62379,-0.23543 -0.9341,-0.35724 -0.31032,-0.12182 -0.61957,-0.24635 -0.92771,-0.37359 -0.30813,-0.12724 -0.61515,-0.25718 -0.92101,-0.38981 -0.30585,-0.13262 -0.61054,-0.26793 -0.91401,-0.4059 -0.30348,-0.13797 -0.60574,-0.27861 -0.90673,-0.42188 -0.301,-0.14328 -0.60073,-0.2892 -0.89915,-0.43774 -0.29841,-0.14854 -0.59552,-0.29971 -0.89126,-0.45347 -0.29575,-0.15377 -0.59013,-0.31014 -0.8831,-0.46909 -0.29297,-0.15894 -0.58453,-0.32047 -0.87463,-0.48457 -0.2901,-0.16409 -0.57874,-0.33074 -0.86586,-0.49993 -0.28713,-0.1692 -0.57275,-0.34093 -0.85681,-0.51518 -0.28406,-0.17426 -0.56657,-0.35103 -0.84746,-0.53031 -0.2809,-0.17927 -0.56018,-0.36104 -0.83781,-0.5453 -0.27763,-0.18425 -0.5536,-0.37099 -0.82787,-0.56018 -0.27427,-0.18919 -0.54683,-0.38084 -0.81763,-0.57493 -0.27081,-0.1941 -0.53986,-0.39063 -0.8071,-0.58957 -0.26725,-0.19895 -0.53269,-0.40032 -0.79627,-0.60408 -0.26359,-0.20377 -0.52532,-0.40993 -0.78515,-0.61847 -0.25984,-0.20855 -0.51776,-0.41946 -0.77374,-0.63274 -0.25597,-0.21328 -0.51,-0.42891 -0.76202,-0.64688 -0.25202,-0.21797 -0.50205,-0.43828 -0.75002,-0.6609 -0.24797,-0.22263 -0.49389,-0.44757 -0.73771,-0.67481 -0.24383,-0.22724 -0.48555,-0.45677 -0.72512,-0.68858 -0.2096,-0.20281 -0.41755,-0.40735 -0.62383,-0.61363 -0.0295,-0.0295 -0.059,-0.059 -0.0884,-0.0886 -0.23521,-0.23632 -0.46816,-0.47483 -0.69883,-0.71548 -0.23067,-0.24064 -0.45906,-0.48342 -0.68514,-0.72829 -0.22609,-0.24487 -0.44988,-0.49183 -0.67134,-0.74083 -0.22146,-0.24899 -0.44061,-0.50002 -0.65741,-0.75304 -0.2168,-0.25303 -0.43125,-0.50804 -0.64335,-0.76499 -0.21209,-0.25695 -0.42183,-0.51583 -0.62918,-0.77661 -0.20735,-0.26078 -0.41231,-0.52345 -0.61488,-0.78797 -0.20256,-0.26451 -0.40272,-0.53086 -0.60046,-0.79901 -0.19773,-0.26814 -0.39305,-0.53808 -0.58592,-0.80976 -0.19287,-0.27168 -0.38329,-0.5451 -0.57125,-0.82022 -0.18796,-0.27512 -0.37346,-0.55193 -0.55647,-0.83038 -0.18301,-0.27846 -0.36354,-0.55856 -0.54156,-0.84026 -0.17802,-0.28169 -0.35354,-0.56498 -0.52653,-0.84982 -0.17299,-0.28484 -0.34346,-0.57122 -0.51138,-0.8591 -0.16792,-0.28789 -0.33329,-0.57726 -0.4961,-0.86809 -0.16281,-0.29083 -0.32305,-0.5831 -0.48071,-0.87678 -0.15765,-0.29367 -0.31272,-0.58874 -0.46518,-0.88516 -0.15247,-0.29643 -0.30232,-0.5942 -0.44955,-0.89327 -0.14723,-0.29907 -0.29183,-0.59945 -0.43378,-0.90107 -0.14195,-0.30163 -0.28126,-0.6045 -0.4179,-0.90858 -0.13663,-0.30408 -0.2706,-0.60936 -0.40189,-0.91579 -0.13128,-0.30644 -0.25987,-0.61402 -0.38575,-0.92272 -0.12589,-0.30869 -0.24906,-0.61848 -0.36951,-0.92933 -0.12045,-0.31085 -0.23816,-0.62276 -0.35313,-0.93567 -0.11497,-0.31291 -0.22719,-0.62682 -0.33664,-0.94169 -0.10945,-0.31488 -0.21613,-0.6307 -0.32002,-0.94744 -0.10389,-0.31674 -0.20498,-0.63438 -0.30327,-0.95288 -0.0983,-0.3185 -0.19377,-0.63786 -0.28642,-0.95803 -0.0926,-0.32017 -0.18246,-0.64115 -0.26942,-0.96289 -0.087,-0.32173 -0.17108,-0.64423 -0.25233,-0.96744 -0.0812,-0.32321 -0.15961,-0.64713 -0.23509,-0.97171 -0.0755,-0.32458 -0.14806,-0.64982 -0.21774,-0.97568 -0.0697,-0.32585 -0.13643,-0.65232 -0.20026,-0.97935 -0.0638,-0.32703 -0.12473,-0.65462 -0.18267,-0.98273 -0.0579,-0.32811 -0.11294,-0.65673 -0.16496,-0.98582 -0.052,-0.32908 -0.10106,-0.65863 -0.14711,-0.9886 -0.0461,-0.32997 -0.0891,-0.66035 -0.12915,-0.9911 -0.04,-0.33075 -0.0771,-0.66187 -0.11106,-0.9933 -0.034,-0.33144 -0.065,-0.66319 -0.0929,-0.99521 -0.0279,-0.33202 -0.0528,-0.6643 -0.0745,-0.99681 -0.0218,-0.33251 -0.0405,-0.66523 -0.0561,-0.99813 -0.0156,-0.3329 -0.0281,-0.66596 -0.0375,-0.99915 -0.009,-0.33319 -0.0157,-0.6665 -0.0188,-0.99987 -0.002,-0.16664 -0.002,-0.33329 -0.002,-0.49996 0,-0.16677 7.9e-4,-0.33354 0.002,-0.50028 0.003,-0.33338 0.009,-0.66669 0.0188,-0.99987 0.009,-0.33319 0.0219,-0.66626 0.0375,-0.99915 0.0156,-0.3329 0.0343,-0.66563 0.0561,-0.99813 0.0218,-0.33251 0.0466,-0.6648 0.0745,-0.99682 0.0279,-0.33202 0.0589,-0.66377 0.0929,-0.9952 0.034,-0.33143 0.071,-0.66255 0.11107,-0.9933 0.04,-0.33075 0.0831,-0.66113 0.12916,-0.9911 0.046,-0.32997 0.0951,-0.65952 0.14711,-0.9886 0.052,-0.32909 0.10702,-0.65771 0.16496,-0.98582 0.058,-0.32811 0.11885,-0.6557 0.18268,-0.98273 0.0638,-0.32703 0.13059,-0.6535 0.20027,-0.97935 0.0697,-0.32585 0.14226,-0.6511 0.21775,-0.97568 0.0755,-0.32458 0.15385,-0.6485 0.23509,-0.9717 0.0812,-0.32321 0.16536,-0.64571 0.25233,-0.96745 0.087,-0.32173 0.17678,-0.64271 0.26943,-0.96288 0.0927,-0.32017 0.18813,-0.63953 0.28642,-0.95803 0.0983,-0.3185 0.19939,-0.63614 0.30328,-0.95288 0.1039,-0.31673 0.21058,-0.63256 0.32003,-0.94743 0.10945,-0.31487 0.22167,-0.62879 0.33664,-0.9417 0.11497,-0.31291 0.23269,-0.62481 0.35314,-0.93566 0.12044,-0.31085 0.24362,-0.62064 0.36951,-0.92933 0.12588,-0.30869 0.25448,-0.61628 0.38576,-0.92271 0.13129,-0.30644 0.26526,-0.61172 0.4019,-0.91579 0.13664,-0.30408 0.27594,-0.60696 0.4179,-0.90858 0.14195,-0.30163 0.28655,-0.602 0.43378,-0.90107 0.14723,-0.29907 0.29709,-0.59684 0.44956,-0.89326 0.15246,-0.29643 0.30753,-0.5915 0.46519,-0.88517 0.15765,-0.29367 0.3179,-0.58595 0.48071,-0.87677 0.16281,-0.29083 0.32818,-0.58021 0.49611,-0.86809 0.16792,-0.28788 0.33838,-0.57426 0.51138,-0.8591 0.17299,-0.28483 0.34851,-0.56812 0.52653,-0.84982 0.17803,-0.28169 0.35855,-0.56179 0.54157,-0.84025 0.18301,-0.27845 0.36851,-0.55526 0.55647,-0.83038 0.18796,-0.27511 0.37839,-0.54854 0.57126,-0.82021 0.19287,-0.27168 0.38819,-0.54162 0.58592,-0.80976 0.19774,-0.26815 0.3979,-0.5345 0.60047,-0.79901 0.20257,-0.26451 0.40753,-0.52718 0.61488,-0.78796 0.20736,-0.26078 0.41709,-0.51967 0.62919,-0.77661 0.21209,-0.25695 0.42655,-0.51196 0.64335,-0.76498 0.21681,-0.25302 0.43595,-0.50405 0.65741,-0.75305 0.22147,-0.24899 0.44526,-0.49595 0.67135,-0.74081 0.22608,-0.24487 0.45447,-0.48765 0.68515,-0.7283 0.23067,-0.24064 0.46362,-0.47915 0.69883,-0.71547 0.0294,-0.0295 0.0588,-0.059 0.0882,-0.0884 0.20635,-0.20635 0.41438,-0.41098 0.62406,-0.61385 0.23958,-0.23181 0.4813,-0.46135 0.72512,-0.68858 0.24383,-0.22724 0.48975,-0.45218 0.73772,-0.6748 0.24798,-0.22262 0.498,-0.44293 0.75002,-0.6609 0.25203,-0.21797 0.50605,-0.4336 0.76203,-0.64688 0.25598,-0.21327 0.51391,-0.42419 0.77374,-0.63273 0.25983,-0.20854 0.52156,-0.4147 0.78515,-0.61846 0.26359,-0.20377 0.52903,-0.40513 0.79628,-0.60408 0.26725,-0.19895 0.5363,-0.39547 0.8071,-0.58956 0.27081,-0.19409 0.54337,-0.38574 0.81764,-0.57493 0.27426,-0.1892 0.55024,-0.37593 0.82787,-0.56018 0.27763,-0.18425 0.55692,-0.36603 0.83781,-0.5453 0.2809,-0.17927 0.5634,-0.35604 0.84746,-0.5303 0.28406,-0.17425 0.56968,-0.34598 0.85681,-0.51517 0.28713,-0.16919 0.57577,-0.33584 0.86587,-0.49993 0.2901,-0.16409 0.58166,-0.32562 0.87463,-0.48457 0.29298,-0.15895 0.58736,-0.31531 0.8831,-0.46908 0.29575,-0.15376 0.59285,-0.30492 0.89127,-0.45346 0.29842,-0.14854 0.59816,-0.29446 0.89915,-0.43773 0.301,-0.14328 0.60326,-0.28391 0.90673,-0.42188 0.30348,-0.13797 0.60817,-0.27328 0.91402,-0.4059 0.30585,-0.13263 0.61287,-0.26257 0.92101,-0.3898 0.30814,-0.12724 0.61739,-0.25177 0.92771,-0.37358 0.31032,-0.12181 0.6217,-0.2409 0.93411,-0.35724 0.3124,-0.11634 0.62582,-0.22994 0.94022,-0.34077 0.31439,-0.11083 0.62975,-0.2189 0.94603,-0.32418 0.31628,-0.10528 0.63348,-0.20778 0.95154,-0.30747 0.31807,-0.0997 0.63701,-0.19658 0.95678,-0.29064 0.31976,-0.0941 0.64034,-0.1853 0.96169,-0.27369 0.32136,-0.0884 0.64349,-0.17393 0.96634,-0.25661 0.32285,-0.0827 0.64642,-0.16248 0.97067,-0.23941 0.32424,-0.0769 0.64916,-0.15095 0.97471,-0.22208 0.32555,-0.0711 0.65172,-0.13935 0.97846,-0.20465 0.32675,-0.0653 0.65407,-0.12766 0.98192,-0.18708 0.32784,-0.0594 0.65622,-0.11589 0.98507,-0.16939 0.32885,-0.0535 0.65818,-0.10404 0.98793,-0.15158 0.32976,-0.0476 0.65995,-0.0921 0.99051,-0.13365 0.33056,-0.0416 0.6615,-0.0801 0.99278,-0.1156 0.33127,-0.0355 0.66287,-0.068 0.99475,-0.0974 0.33189,-0.0294 0.66405,-0.0558 0.99644,-0.0791 0.3324,-0.0233 0.66502,-0.0436 0.99783,-0.0607 0.33281,-0.0172 0.6658,-0.0312 0.99892,-0.0422 0.33313,-0.011 0.66638,-0.0188 0.99973,-0.0235 0.24992,-0.004 0.49989,-0.005 0.74989,-0.005 0.0834,0 0.16688,2e-4 0.25031,5.9e-4 0.33341,0.002 0.66677,0.006 1.00001,0.0141 0.33325,0.008 0.66638,0.0188 0.99936,0.0328 0.33298,0.0141 0.6658,0.0312 0.99841,0.0515 0.33262,0.0202 0.66502,0.0436 0.99717,0.0699 0.33215,0.0264 0.66405,0.0558 0.99564,0.0883 0.33159,0.0325 0.66287,0.068 0.9938,0.10653 0.33093,0.0385 0.66151,0.0801 0.99168,0.12465 0.33017,0.0445 0.65994,0.0921 0.98925,0.14264 0.32932,0.0505 0.65818,0.10404 0.98654,0.16051 0.32836,0.0565 0.65622,0.11589 0.98353,0.17826 0.32731,0.0624 0.65407,0.12767 0.98022,0.19589 0.32616,0.0682 0.65172,0.13935 0.97663,0.21339 0.3249,0.074 0.64916,0.15096 0.97272,0.23077 0.32356,0.0798 0.64643,0.16249 0.96854,0.24803 0.32211,0.0855 0.64348,0.17394 0.96405,0.26517 0.32057,0.0912 0.64034,0.1853 0.95927,0.28219 0.31893,0.0969 0.63701,0.19658 0.95419,0.29907 0.31719,0.1025 0.63348,0.20779 0.94883,0.31586 0.31534,0.10806 0.62975,0.2189 0.94316,0.33249 0.3134,0.1136 0.62582,0.22995 0.93719,0.34903 0.31138,0.11908 0.62171,0.2409 0.93095,0.36543 0.30923,0.12453 0.61738,0.25178 0.92439,0.38172 0.307,0.12993 0.61287,0.26257 0.91755,0.39787 0.30467,0.1353 0.60816,0.27328 0.9104,0.41391 0.30225,0.14063 0.60326,0.28392 0.90298,0.42983 0.29971,0.14592 0.59814,0.29446 0.89524,0.44562 0.29709,0.15116 0.59285,0.30493 0.88721,0.4613 0.29437,0.15636 0.58736,0.31532 0.8789,0.47684 0.29155,0.16153 0.58166,0.32562 0.87029,0.49227 0.28862,0.16665 0.57576,0.33585 0.86137,0.50758 0.28561,0.17173 0.56968,0.34599 0.85217,0.52276 0.28249,0.17677 0.56339,0.35605 0.84267,0.53782 0.27927,0.18177 0.55691,0.36603 0.83287,0.55276 0.27596,0.18673 0.55024,0.37593 0.82279,0.56757 0.27254,0.19165 0.54336,0.38575 0.8124,0.58227 0.26903,0.19653 0.53629,0.39548 0.80172,0.59685 0.26543,0.20136 0.52902,0.40513 0.79074,0.61129 0.26173,0.20616 0.52157,0.4147 0.77948,0.62562 0.25792,0.21091 0.51391,0.4242 0.76792,0.63982 0.25401,0.21563 0.50604,0.43361 0.75605,0.65391 0.25001,0.22031 0.49799,0.44294 0.7439,0.66788 0.24591,0.22493 0.48974,0.45218 0.73145,0.68171 0.24171,0.22953 0.4813,0.46134 0.71871,0.69542 0.089,0.0877 0.17762,0.17575 0.26597,0.2641 0.14743,0.14743 0.29397,0.29571 0.43963,0.44484 0.23294,0.2385 0.46362,0.47916 0.692,0.72193 0.22838,0.24277 0.45447,0.48765 0.67825,0.7346 0.22378,0.24694 0.44525,0.49595 0.66439,0.74697 0.21914,0.25102 0.43594,0.50406 0.65039,0.75906 0.21445,0.25499 0.42655,0.51196 0.63628,0.77083 0.20973,0.25888 0.41708,0.51968 0.62204,0.78233 0.20496,0.26266 0.40753,0.52719 0.60768,0.79353 0.20016,0.26634 0.3979,0.5345 0.59321,0.80442 0.1953,0.26993 0.38818,0.54162 0.5786,0.81503 0.19042,0.27342 0.37838,0.54855 0.56387,0.82534 0.18549,0.2768 0.36851,0.55527 0.54903,0.83536 0.18052,0.28009 0.35855,0.5618 0.53406,0.84508 0.17551,0.28328 0.3485,0.56813 0.51896,0.8545 0.17046,0.28637 0.33839,0.57427 0.50376,0.86363 0.16536,0.28937 0.32818,0.58021 0.48841,0.87247 0.16024,0.29227 0.3179,0.58595 0.47296,0.88101 0.15507,0.29506 0.30753,0.5915 0.45738,0.88926 0.14985,0.29776 0.29708,0.59684 0.44168,0.89721 0.14459,0.30036 0.28655,0.60199 0.42585,0.90486 0.1393,0.30286 0.27594,0.60695 0.4099,0.91222 0.13397,0.30527 0.26525,0.61172 0.39384,0.91929 0.12859,0.30758 0.25448,0.61628 0.37765,0.92606 0.12317,0.30979 0.24362,0.62065 0.36133,0.93254 0.11771,0.31189 0.23268,0.62482 0.3449,0.93872 0.11221,0.3139 0.22166,0.62879 0.32833,0.94461 0.10668,0.31581 0.21057,0.63256 0.31166,0.95019 0.1011,0.31764 0.19939,0.63615 0.29486,0.9555 0.0955,0.31935 0.18812,0.63953 0.27794,0.96049 0.0898,0.32097 0.17677,0.64272 0.26088,0.9652 0.0841,0.32249 0.16536,0.64571 0.24372,0.96962 0.0784,0.3239 0.15385,0.6485 0.22643,0.97373 0.0726,0.32523 0.14226,0.6511 0.20902,0.97755 0.0668,0.32646 0.13059,0.6535 0.19148,0.98108 0.0609,0.32758 0.11884,0.6557 0.17382,0.98431 0.055,0.32861 0.10701,0.65771 0.15604,0.98725 0.049,0.32954 0.0951,0.65952 0.13815,0.98989 0.043,0.33037 0.0831,0.66113 0.12012,0.99224 0.037,0.3311 0.071,0.66255 0.10197,0.99429 0.031,0.33173 0.0589,0.66377 0.0837,0.99604 0.0248,0.33228 0.0466,0.6648 0.0653,0.99751 0.0187,0.33272 0.0343,0.66562 0.0468,0.99868 0.0125,0.33305 0.0219,0.66625 0.0282,0.99955 0.006,0.33329 0.009,0.66669 0.009,1.00012"
       copytype="repeated"
       prop_scale="1"
       scale_y_rel="false"
       spacing="0"
       normal_offset="0"
       tang_offset="0"
       prop_units="false"
       vertical_pattern="false"
       fuse_tolerance="0" />
    <inkscape:perspective
       sodipodi:type="inkscape:persp3d"
       inkscape:vp_x="0 : 105 : 1"
       inkscape:vp_y="0 : 1000 : 0"
       inkscape:vp_z="297 : 105 : 1"
       inkscape:persp3d-origin="148.5 : 70 : 1"
       id="perspective871" />
  </defs>
  <sodipodi:namedview
     id="base"
     pagecolor="#ffffff"
     bordercolor="#666666"
     borderopacity="1.0"
     inkscape:pageopacity="0.0"
     inkscape:pageshadow="2"
     inkscape:zoom="0.70710678"
     inkscape:cx="667.36889"
     inkscape:cy="510.7904"
     inkscape:document-units="mm"
     inkscape:current-layer="layer1"
     showgrid="false"
     inkscape:window-width="1920"
     inkscape:window-height="1017"
     inkscape:window-x="-8"
     inkscape:window-y="-8"
     inkscape:window-maximized="1"
     showguides="true">
    <inkscape:grid
       type="xygrid"
       id="grid1587" />
  </sodipodi:namedview>
  <metadata
     id="metadata5">
    <rdf:RDF>
      <cc:Work
         rdf:about="">
        <dc:format>image/svg+xml</dc:format>
        <dc:type
           rdf:resource="http://purl.org/dc/dcmitype/StillImage" />
        <dc:title></dc:title>
      </cc:Work>
    </rdf:RDF>
  </metadata>
  <g
     inkscape:label="Layer 1"
     inkscape:groupmode="layer"
     id="layer1"
     transform="translate(0,-87)"
     style="display:inline;opacity:1">
    <path
       style="display:inline;opacity:1;fill:#ffc099;fill-opacity:1;fill-rule:nonzero;stroke:none;stroke-width:0.2744419;stroke-miterlimit:4;stroke-dasharray:none;stroke-dashoffset:0;stroke-opacity:1"
       d="m 70.48211,158.90688 14.030664,0.2947 25.839226,1.84604 1.98634,21.73702 0.0141,7.27693 H 51.961277 Z"
       id="rect1019"
       inkscape:connector-curvature="0"
       sodipodi:nodetypes="ccccccc" />
    <path
       style="display:inline;opacity:1;fill:#6f4725;fill-opacity:1;fill-rule:nonzero;stroke:none;stroke-width:0.26458332;stroke-miterlimit:4;stroke-dasharray:none;stroke-dashoffset:0;stroke-opacity:1"
       d="m 174.70319,166.54567 9.17074,-15.31933 14.82888,-13.54319 7.94374,-7.53702 16.86907,-3.32809 3.17459,1.68858 29.24709,20.88042 13.69219,48.92338 -16.33802,6.36863 -70.13166,-13.75833 z"
       id="rect1023"
       inkscape:connector-curvature="0"
       sodipodi:nodetypes="ccccccccccc" />
  </g>
  <g
     inkscape:groupmode="layer"
     id="layer2"
     inkscape:label="Layer 2"
     style="display:inline">
    <path
       style="opacity:1;fill:#8d5524;fill-opacity:1;fill-rule:nonzero;stroke:none;stroke-width:0.26458332;stroke-miterlimit:4;stroke-dasharray:none;stroke-dashoffset:0;stroke-opacity:1"
       d="m 286.7856,176.59552 c -6.90547,-0.88506 -14.07562,-3.8249 -22.09325,-9.05848 -3.16422,-2.06546 -6.25848,-4.30854 -11.5548,-8.37625 -10.03137,-7.70435 -13.92573,-10.47619 -18.06335,-12.85679 -3.89093,-2.23865 -7.72408,-3.81719 -9.74724,-4.01403 -13.13731,-1.27821 -30.82585,-12.01405 -48.10185,-29.19484 -4.58258,-4.55732 -7.02717,-7.20879 -10.54472,-11.43705 l -2.35513,-2.830981 -7.01043,-3.556596 c -7.55203,-3.831362 -9.90061,-4.91024 -12.82426,-5.891135 l -1.8768,-0.629672 1.47642,-1.671846 c 1.91574,-2.169337 5.52415,-6.649881 7.04615,-8.749168 1.19197,-1.644097 1.20062,-1.651177 1.86659,-1.528352 0.66966,0.123502 2.97217,0.897591 8.05907,2.709407 6.94758,2.47454 10.85454,2.625172 13.13484,0.506413 l 0.50635,-0.470477 2.7677,2.74846 c 8.13833,8.081751 18.96906,14.646423 32.5148,19.707737 3.47603,1.29881 4.50517,1.51031 6.0995,1.25355 1.51195,-0.2435 2.71538,-0.87578 3.70007,-1.94403 1.34504,-1.459209 1.87783,-3.185202 1.62007,-5.248261 -0.11415,-0.913591 -0.2607,-1.186101 -1.26198,-2.346587 -1.46611,-1.699212 -4.5454,-4.481806 -8.23099,-7.437903 -1.6157,-1.295903 -2.91102,-2.382806 -2.87848,-2.415339 0.0325,-0.03254 1.0598,0.603681 2.28282,1.413817 6.68096,4.425503 12.27582,7.119572 16.81659,8.097615 1.70937,0.368186 4.83894,0.32049 6.08038,-0.09267 2.2252,-0.740558 3.68361,-2.093804 4.52563,-4.199297 0.3738,-0.934675 0.4227,-1.383536 0.42097,-3.863856 -0.002,-2.557621 -0.0473,-2.942 -0.514,-4.337175 -0.28161,-0.841965 -0.79883,-1.957024 -1.14936,-2.47791 l -0.63733,-0.947068 0.66066,-1.263861 0.66065,-1.263862 -0.0807,-2.33861 c -0.0723,-2.094161 -0.15503,-2.559058 -0.79171,-4.447735 -0.39104,-1.160024 -0.99384,-2.578852 -1.33955,-3.152955 -0.45906,-0.762344 -0.54289,-1.010949 -0.31086,-0.921912 0.17473,0.06705 0.79271,0.261906 1.37329,0.433009 1.03318,0.304496 1.0648,0.334264 1.48908,1.402448 0.23841,0.600244 0.5025,1.134012 0.58687,1.186148 0.0844,0.05214 -0.0982,0.59318 -0.40569,1.202312 -0.54843,1.086437 -0.69736,1.682597 -0.41875,1.676257 0.0772,-0.0016 0.34015,-0.464801 0.58439,-1.028988 0.24423,-0.564187 0.4968,-1.024753 0.56126,-1.023477 0.0645,0.0013 0.31924,0.316984 0.56619,0.701582 2.60914,4.063542 7.95621,8.057938 13.07698,9.768839 2.37038,0.79197 5.60324,1.204106 5.04189,0.642761 -0.0604,-0.0604 -0.769,-0.19099 -1.57466,-0.290193 -5.21858,-0.642585 -11.94196,-4.70245 -15.40163,-9.300164 -0.87913,-1.168305 -2.43347,-3.901266 -2.43347,-4.278696 0,-0.09408 0.65088,-0.04807 1.44994,0.102515 0.86859,0.163682 2.68763,0.279771 4.5369,0.289536 3.40004,0.01797 5.2552,-0.265705 7.42894,-1.135911 1.38471,-0.554337 3.4222,-1.980552 3.4222,-2.395493 0,-0.393359 -0.25416,-0.349927 -0.67259,0.114935 -2.59556,2.883612 -9.67942,3.866758 -16.44602,2.282489 -1.8502,-0.433186 -5.43885,-1.82445 -6.19635,-2.402229 -2.71404,-2.0701 -6.03621,-8.505491 -7.09931,-13.7521 -0.42306,-2.08784 -0.31905,-4.638275 0.21856,-5.359894 0.63824,-0.856692 1.23107,-0.961644 2.56906,-0.454822 0.63448,0.240337 1.78503,0.605965 2.55677,0.812501 2.03617,0.544933 6.45206,0.534585 11.13177,-0.02609 3.847,-0.460899 6.88837,-0.465272 7.8287,-0.01127 1.47515,0.712245 10.15713,13.157674 14.80889,21.228225 1.50809,2.616438 3.36054,6.353881 3.80552,7.677853 2.08849,6.214076 -0.56309,22.09579 -5.87929,35.214246 -0.31429,0.77556 -0.23134,1.3397 0.11583,0.78769 0.34086,-0.54197 1.68174,-4.16403 2.63211,-7.10998 0.88961,-2.757671 0.99407,-2.979723 1.29792,-2.759341 0.18177,0.131815 1.49622,1.093171 2.92102,2.136341 6.25534,4.57982 10.93087,6.87435 15.59791,7.65474 3.47681,0.58136 7.18148,0.0593 10.12576,-1.427 0.62301,-0.3145 1.17935,-0.52521 1.23632,-0.46826 0.11067,0.11069 -2.33739,68.50742 -2.49992,69.84534 l -0.0966,0.79513 -2.74809,-0.0237 c -1.51144,-0.013 -3.29531,-0.0939 -3.96415,-0.17959 z"
       id="path1002"
       inkscape:connector-curvature="0" />
    <path
       style="opacity:1;fill:#8d5524;fill-opacity:1;fill-rule:nonzero;stroke:none;stroke-width:1;stroke-miterlimit:4;stroke-dasharray:none;stroke-dashoffset:0;stroke-opacity:1"
       d="m 798.87927,385.57441 c -49.93068,-17.88052 -93.38811,-43.1893 -122.68302,-71.44824 -13.29672,-12.8265 -21.05034,-21.52057 -22.19893,-24.89149 -1.52625,-4.47932 -1.43117,-10.46059 0.25293,-15.9111 5.50694,-17.82287 27.07557,-35.09636 39.60911,-31.72143 2.62263,0.7062 5.06978,2.75051 15.52925,12.97289 14.56083,14.23076 25.17448,23.21531 45.93221,38.88199 47.68238,35.98779 54.1799,41.22961 68.79572,55.50028 10.53727,10.28845 10.72824,10.61951 10.63083,18.42963 -0.10877,8.72058 -5.82631,16.78376 -14.09499,19.87747 -6.23111,2.33136 -11.737,1.904 -21.77311,-1.69 z"
       id="path1004"
       inkscape:connector-curvature="0"
       transform="scale(0.26458333)" />
    <path
       style="opacity:1;fill:#8d5524;fill-opacity:1;fill-rule:nonzero;stroke:none;stroke-width:1;stroke-miterlimit:4;stroke-dasharray:none;stroke-dashoffset:0;stroke-opacity:1"
       d="m 860.9052,350.83361 c -7.3236,-1.65996 -16.80861,-5.0819 -25.38218,-9.15722 -18.96138,-9.013 -34.45171,-18.94249 -73.4133,-47.05881 -8.9449,-6.45502 -18.64994,-13.34326 -21.56676,-15.30721 -6.55637,-4.41453 -14.06405,-10.71989 -25.10229,-21.08226 -10.21439,-9.58898 -11.69505,-12.34226 -12.21271,-22.7095 -0.38164,-7.643 0.48627,-12.24599 3.42684,-18.1743 5.652,-11.39469 15.53263,-19.77862 28.58486,-24.25486 4.90477,-1.68208 6.73798,-1.9375 13.78858,-1.92115 6.93683,0.0161 8.90829,0.2919 13.41648,1.87708 9.65347,3.39438 19.74869,11.74461 23.7295,19.62777 1.06391,2.10685 4.02567,7.48991 6.58168,11.96236 24.86848,43.51412 50.91196,72.35558 71.53017,79.215 3.51892,1.17071 5.83824,1.46923 9.89949,1.2742 6.51388,-0.31282 10.81583,-2.24484 15.8699,-7.12722 l 3.57612,-3.45465 1.91434,2.28333 c 3.72432,4.44217 6.9245,16.22021 6.9245,25.48514 0,13.15873 -5.29795,22.65742 -15.2028,27.25709 -3.84423,1.7852 -5.07266,1.98439 -13.08148,2.12113 -5.6299,0.0961 -10.45154,-0.21461 -13.28094,-0.85592 z"
       id="path1006"
       inkscape:connector-curvature="0"
       transform="scale(0.26458333)" />
    <path
       style="opacity:1;fill:#8d5524;fill-opacity:1;fill-rule:nonzero;stroke:none;stroke-width:1;stroke-miterlimit:4;stroke-dasharray:none;stroke-dashoffset:0;stroke-opacity:1"
       d="m 865.70086,302.53945 c -21.82369,-7.30436 -48.81321,-37.79531 -74.41574,-84.06989 -5.24587,-9.4815 -7.14958,-12.23887 -10.98434,-15.90991 -13.6484,-13.0657 -15.65231,-15.88216 -17.17366,-24.13724 -1.79061,-9.7161 2.88612,-21.46648 12.65181,-31.78795 6.57239,-6.94643 14.28464,-11.26296 21.72336,-12.1585 1.53516,-0.18482 4.85948,-0.84903 7.38739,-1.47602 8.77928,-2.1775 18.45543,-0.13608 28.63782,6.04184 2.33346,1.41577 8.93515,6.13913 14.67042,10.49635 9.23913,7.01919 10.1822,7.92223 8.27339,7.92223 -2.54431,0 -6.31281,1.79148 -6.35987,3.02336 -0.0182,0.47615 -0.64674,-0.70605 -1.39677,-2.62711 -1.40239,-3.59195 -3.16502,-5.93658 -3.90595,-5.19565 -0.23085,0.23084 0.31623,1.80289 1.21573,3.49344 1.4741,2.77047 1.64134,4.05042 1.69517,12.97322 0.0454,7.52721 0.41607,11.33982 1.54679,15.90991 6.22595,25.16397 19.60192,47.44167 31.9908,53.2807 5.38021,2.53577 6.11218,3.30878 9.8418,10.3938 4.60452,8.74701 6.60628,16.55607 6.69761,26.12806 0.0735,7.70548 -0.0336,8.35226 -2.04372,12.3391 -2.77756,5.50896 -8.88413,12.04967 -13.38096,14.33225 -4.7636,2.41802 -11.31168,2.8218 -16.67108,1.02801 z"
       id="path1008"
       inkscape:connector-curvature="0"
       transform="scale(0.26458333)" />
    <path
       style="opacity:1;fill:#8d5524;fill-opacity:1;fill-rule:nonzero;stroke:none;stroke-width:0.26458332;stroke-miterlimit:4;stroke-dasharray:none;stroke-dashoffset:0;stroke-opacity:1"
       d="m 134.47156,83.073876 c -0.86597,-0.577122 -2.08661,-1.840669 -2.84025,-2.940098 -2.72569,-3.97625 -3.13282,-8.483568 -0.89979,-9.961324 2.2522,-1.490429 8.22459,-1.251894 11.91714,0.475967 1.11274,0.520687 2.86627,1.925735 2.86627,2.296655 0,0.470958 -9.99318,10.437085 -10.46541,10.437085 -0.0635,0 -0.32354,-0.138729 -0.57796,-0.308285 z"
       id="path1010"
       inkscape:connector-curvature="0" />
    <path
       style="opacity:1;fill:#8d5524;fill-opacity:1;fill-rule:nonzero;stroke:none;stroke-width:1;stroke-miterlimit:4;stroke-dasharray:none;stroke-dashoffset:0;stroke-opacity:1"
       d="m 767.40181,193.49019 c -3.53385,-1.71642 -8.25014,-3.11836 -12.45182,-3.70137 -1.11209,-0.15431 -2.05445,-0.31302 -2.09413,-0.3527 -0.0397,-0.0397 0.19405,-0.57165 0.51939,-1.18216 1.04865,-1.96782 4.15281,-4.77773 7.42673,-6.72273 0.6709,-0.39857 1.23722,-0.69417 1.25848,-0.65687 0.0213,0.0373 0.34234,0.98194 0.71352,2.09921 1.30503,3.92827 3.43977,7.53292 6.62256,11.18266 0.3995,0.45812 0.14431,0.37291 -1.99473,-0.66604 z"
       id="path1012"
       inkscape:connector-curvature="0"
       transform="scale(0.26458333)" />
  </g>
  <g
     inkscape:groupmode="layer"
     id="layer3"
     inkscape:label="Layer 3"
     style="display:inline">
    <path
       style="display:inline;opacity:1;fill:#ffd8c0;fill-opacity:1;fill-rule:nonzero;stroke:none;stroke-width:0.37417734;stroke-miterlimit:4;stroke-dasharray:none;stroke-dashoffset:0;stroke-opacity:1"
       d="m 37.155471,122.09926 c -0.0019,-0.0515 0.06978,-0.60921 0.158954,-1.23946 0.08917,-0.63026 0.384683,-2.79815 0.656685,-4.81753 0.832771,-6.18268 1.253088,-9.00875 1.826038,-12.2777 0.428826,-2.44664 1.248648,-6.473315 1.328232,-6.523798 0.04647,-0.02948 0.262689,-0.782751 0.6984,-2.433071 0.376425,-1.425774 0.547161,-1.968225 0.769284,-2.444128 0.444344,-0.952014 1.138147,-1.466133 2.318572,-1.718096 0.470625,-0.100457 0.987002,-0.163068 0.987002,-0.119676 0,0.01667 -0.212003,0.687001 -0.471114,1.489606 -2.646093,8.196353 -5.467004,18.438083 -7.989787,29.008093 -0.153496,0.64312 -0.280517,1.12721 -0.282266,1.07576 z"
       id="path925"
       inkscape:connector-curvature="0" />
    <path
       style="display:inline;opacity:1;fill:#ffd8c0;fill-opacity:1;fill-rule:nonzero;stroke:none;stroke-width:1.49670935;stroke-miterlimit:4;stroke-dasharray:none;stroke-dashoffset:0;stroke-opacity:1"
       d="m 21.511494,192.7247 -15.7367502,-15.7444 1.70756,-1.87089 c 8.9085802,-9.76066 13.5359602,-15.39875 17.2744202,-21.04747 5.3692,-8.11272 8.37447,-15.28518 9.7988,-23.38609 0.45934,-2.61248 3.28495,-13.98557 4.97354,-20.01848 3.13583,-11.203532 6.50519,-21.215643 9.8383,-29.234706 2.88496,-6.940902 3.71058,-8.255193 5.84094,-9.298213 1.65271,-0.809156 2.45426,-0.924642 7.80111,-1.123973 4.84456,-0.180608 6.47423,-0.379738 9.90379,-1.210165 6.28743,-1.52242 9.51318,-0.923126 11.27808,2.095296 l 0.32149,0.549826 -2.28592,1.476126 c -4.87266,3.146502 -9.30638,6.861434 -11.34413,9.505024 -1.01866,1.321517 -2.07356,3.110391 -2.07356,3.516286 0,0.534765 0.31803,0.394449 0.53834,-0.237514 0.32469,-0.931418 1.76511,-2.963566 3.20717,-4.524679 2.34889,-2.542813 7.27923,-6.378541 11.12391,-8.654222 3.7733,-2.233433 11.39365,-3.906978 14.96122,-3.285712 1.412986,0.24606 2.783796,0.865346 3.415446,1.542986 0.51895,0.556742 1.06653,1.843667 0.86362,2.029693 -0.0842,0.07721 -0.99501,0.815229 -2.02401,1.640054 -3.754636,3.009678 -8.832226,8.034952 -13.564666,13.424908 -3.81564,4.345779 -4.12803,4.733904 -3.91579,4.865076 0.11405,0.07048 0.27414,0.05551 0.35576,-0.03328 0.0816,-0.08879 0.96824,-1.129618 1.97025,-2.312953 7.42033,-8.763085 16.301506,-17.062858 20.299396,-18.970498 1.06478,-0.508074 1.41393,-0.580268 2.80633,-0.580268 1.45535,0 1.69028,0.05424 2.7694,0.639355 2.05744,1.11557 3.6376,3.189988 4.64342,6.095838 0.45461,1.313395 0.51789,1.771682 0.51663,3.741772 -0.002,2.572277 0.10387,2.209231 -2.72031,9.35863 l -1.71694,4.34644 -1.32898,0.120428 c -0.73094,0.06624 -1.60088,0.06605 -1.93319,-2.65e-4 -0.48258,-0.09655 -0.60421,-0.05968 -0.60421,0.183139 0,0.253278 0.22639,0.302932 1.3564,0.297493 4.89715,-0.02358 9.95489,-2.257783 15.95906,-7.049799 2.16928,-1.731336 10.59075,-9.911596 12.47765,-12.120261 3.18869,-3.732459 7.62207,-6.25896 10.99346,-6.264968 1.66695,-0.003 2.42962,0.190238 3.39685,0.860525 0.70151,0.486148 0.71786,0.523862 0.71786,1.655345 0,5.004776 -7.24561,15.064652 -20.66358,28.689506 -3.70405,3.76115 -4.25818,4.25055 -5.60781,4.9527 -5.0199,2.61164 -10.69947,8.61918 -16.66508,17.62741 -3.71844,5.61496 -6.33887,10.47096 -8.42872,15.61951 -1.51939,3.74315 -2.408806,5.64576 -4.054996,8.67429 -4.67968,8.60929 -10.7621,16.59829 -19.22819,25.25546 -9.51048,9.72512 -20.47489,18.76292 -39.11977,32.24586 l -2.35685,1.70434 z"
       id="path923"
       inkscape:connector-curvature="0" />
  </g>
  <g
     inkscape:groupmode="layer"
     id="layer4"
     inkscape:label="Layer 4"
     style="display:inline" />
</svg>
