<?xml version="1.0" encoding="UTF-8" standalone="no"?>
<!-- Created with Inkscape (http://www.inkscape.org/) -->

<svg
   xmlns:dc="http://purl.org/dc/elements/1.1/"
   xmlns:cc="http://creativecommons.org/ns#"
   xmlns:rdf="http://www.w3.org/1999/02/22-rdf-syntax-ns#"
   xmlns:svg="http://www.w3.org/2000/svg"
   xmlns="http://www.w3.org/2000/svg"
   xmlns:sodipodi="http://sodipodi.sourceforge.net/DTD/sodipodi-0.dtd"
   xmlns:inkscape="http://www.inkscape.org/namespaces/inkscape"
   width="297mm"
   height="210mm"
   viewBox="0 0 297 210"
   version="1.1"
   id="svg8"
   inkscape:version="0.92.4 (5da689c313, 2019-01-14)"
   sodipodi:docname="lightbulb.svg">
  <defs
     id="defs2" />
  <sodipodi:namedview
     id="base"
     pagecolor="#ffffff"
     bordercolor="#666666"
     borderopacity="1.0"
     inkscape:pageopacity="0.0"
     inkscape:pageshadow="2"
     inkscape:zoom="0.7071068"
     inkscape:cx="390.44582"
     inkscape:cy="356.11527"
     inkscape:document-units="mm"
     inkscape:current-layer="layer1"
     showgrid="true"
     inkscape:window-width="1920"
     inkscape:window-height="1017"
     inkscape:window-x="-8"
     inkscape:window-y="-8"
     inkscape:window-maximized="1">
    <inkscape:grid
       type="xygrid"
       id="grid1587" />
  </sodipodi:namedview>
  <metadata
     id="metadata5">
    <rdf:RDF>
      <cc:Work
         rdf:about="">
        <dc:format>image/svg+xml</dc:format>
        <dc:type
           rdf:resource="http://purl.org/dc/dcmitype/StillImage" />
        <dc:title></dc:title>
      </cc:Work>
    </rdf:RDF>
  </metadata>
  <g
     inkscape:label="Layer 1"
     inkscape:groupmode="layer"
     id="layer1"
     transform="translate(0,-87)"
     style="display:inline;opacity:1">
    <path
       style="fill:#ffcc00;fill-opacity:1;stroke:#000000;stroke-width:0.06580438;stroke-linecap:butt;stroke-linejoin:miter;stroke-miterlimit:4;stroke-dasharray:none;stroke-opacity:1"
       d="M 129.47871,242.46696 C 148.3005,216.15504 39.72582,115.45941 147.7617,112.20281 c 111.36008,3.2566 -0.53878,103.95223 18.28301,130.26415 0,0 0,0 -36.566,0 z"
       id="path1505"
       inkscape:connector-curvature="0"
       sodipodi:nodetypes="ccc" />
    <path
       style="opacity:1;fill:#e1e1e1;fill-opacity:1;fill-rule:nonzero;stroke:#541d1d;stroke-width:0.06362762;stroke-miterlimit:4;stroke-dasharray:none;stroke-dashoffset:0;stroke-opacity:1"
       d="m 134.13256,242.46721 v 13.39278 a 13.629141,13.39256 0 0 0 10.82567,13.09004 3.3241773,4.2445812 0 0 0 3.1359,2.84826 3.3241773,4.2445812 0 0 0 3.17874,-3.01492 13.629141,13.39256 0 0 0 10.11798,-12.92338 v -13.39278 h -13.62913 z"
       id="path1526"
       inkscape:connector-curvature="0" />
    <rect
       style="opacity:1;fill:#848484;fill-opacity:1;fill-rule:nonzero;stroke:#541d1d;stroke-width:0.03812129;stroke-miterlimit:4;stroke-dasharray:none;stroke-dashoffset:0;stroke-opacity:1"
       id="rect1533"
       width="27.258289"
       height="0.65132082"
       x="134.13257"
       y="245.07224" />
    <rect
       style="display:inline;opacity:1;fill:#848484;fill-opacity:1;fill-rule:nonzero;stroke:#541d1d;stroke-width:0.03812129;stroke-miterlimit:4;stroke-dasharray:none;stroke-dashoffset:0;stroke-opacity:1"
       id="rect1533-5"
       width="27.258289"
       height="0.65132082"
       x="134.13257"
       y="248.32884" />
    <rect
       style="display:inline;opacity:1;fill:#848484;fill-opacity:1;fill-rule:nonzero;stroke:#541d1d;stroke-width:0.03812129;stroke-miterlimit:4;stroke-dasharray:none;stroke-dashoffset:0;stroke-opacity:1"
       id="rect1533-4"
       width="27.258289"
       height="0.65132082"
       x="134.13257"
       y="251.58549" />
    <rect
       style="display:inline;opacity:1;fill:#848484;fill-opacity:1;fill-rule:nonzero;stroke:#541d1d;stroke-width:0.03812129;stroke-miterlimit:4;stroke-dasharray:none;stroke-dashoffset:0;stroke-opacity:1"
       id="rect1533-9"
       width="27.258289"
       height="0.65132082"
       x="134.13257"
       y="254.84203" />
  </g>
  <g
     inkscape:groupmode="layer"
     id="layer2"
     inkscape:label="Layer 2"
     style="display:none">
    <path
       style="fill:#ffe1dc;fill-opacity:1;stroke:#000000;stroke-width:0.26458332px;stroke-linecap:butt;stroke-linejoin:miter;stroke-opacity:1"
       d="m 254.80321,133.17634 c 0,-5.13113 -0.79801,-9.62224 -0.99219,-14.74107 -1.7246,-5.17376 -2.6993,-12.45398 -3.41951,-18.11332 -0.73196,-2.5111 -0.34015,-3.571935 -2.75214,-3.827014 -1.80346,-0.481773 -3.72155,-0.86949 -4.50619,-2.368258 1.53347,-19.168406 -24.84555,-19.744108 -27.6395,-10.571522 0.60014,3.635824 4.84579,2.853952 4.49002,8.339325 -9.05992,12.596769 -21.00508,10.029459 -33.83043,5.185137 -7.90654,0.343763 -10.4574,9.797182 -2.36235,12.378722 6.54489,2.27648 12.4115,2.7163 15.30804,9.92187 1.64011,18.86134 20.80594,20.05393 29.76562,34.30134 2.38615,2.36745 4.68534,4.85657 7.13441,7.20768 3.75059,3.60057 9.19123,6.25126 12.62849,9.68852 3.86093,3.86093 6.17678,9.16658 21.1167,10.37277 6.56139,-12.51296 -10.65623,-37.64226 -14.94097,-47.77418 z"
       id="path1380"
       inkscape:connector-curvature="0"
       sodipodi:nodetypes="cccccccccccsscc" />
  </g>
  <g
     inkscape:groupmode="layer"
     id="layer3"
     inkscape:label="Layer 3"
     style="display:inline" />
  <g
     inkscape:groupmode="layer"
     id="layer4"
     inkscape:label="Layer 4"
     style="display:inline" />
</svg>
