<?xml version="1.0" encoding="UTF-8" standalone="no"?>
<!-- Created with Inkscape (http://www.inkscape.org/) -->

<svg
   xmlns:dc="http://purl.org/dc/elements/1.1/"
   xmlns:cc="http://creativecommons.org/ns#"
   xmlns:rdf="http://www.w3.org/1999/02/22-rdf-syntax-ns#"
   xmlns:svg="http://www.w3.org/2000/svg"
   xmlns="http://www.w3.org/2000/svg"
   xmlns:sodipodi="http://sodipodi.sourceforge.net/DTD/sodipodi-0.dtd"
   xmlns:inkscape="http://www.inkscape.org/namespaces/inkscape"
   width="297mm"
   height="210mm"
   viewBox="0 0 297 210"
   version="1.1"
   id="svg8"
   inkscape:version="0.92.4 (5da689c313, 2019-01-14)"
   sodipodi:docname="megaphone.svg">
  <defs
     id="defs2" />
  <sodipodi:namedview
     id="base"
     pagecolor="#ffffff"
     bordercolor="#666666"
     borderopacity="1.0"
     inkscape:pageopacity="0.0"
     inkscape:pageshadow="2"
     inkscape:zoom="0.83281465"
     inkscape:cx="304.31227"
     inkscape:cy="184.68942"
     inkscape:document-units="mm"
     inkscape:current-layer="layer4"
     showgrid="true"
     inkscape:window-width="1920"
     inkscape:window-height="1017"
     inkscape:window-x="-8"
     inkscape:window-y="-8"
     inkscape:window-maximized="1">
    <inkscape:grid
       type="xygrid"
       id="grid1587" />
  </sodipodi:namedview>
  <metadata
     id="metadata5">
    <rdf:RDF>
      <cc:Work
         rdf:about="">
        <dc:format>image/svg+xml</dc:format>
        <dc:type
           rdf:resource="http://purl.org/dc/dcmitype/StillImage" />
        <dc:title />
      </cc:Work>
    </rdf:RDF>
  </metadata>
  <g
     inkscape:label="Layer 1"
     inkscape:groupmode="layer"
     id="layer1"
     transform="translate(0,-87)"
     style="display:inline;opacity:1" />
  <g
     inkscape:groupmode="layer"
     id="layer2"
     inkscape:label="Layer 2"
     style="display:inline" />
  <g
     inkscape:groupmode="layer"
     id="layer3"
     inkscape:label="Layer 3"
     style="display:inline" />
  <g
     inkscape:groupmode="layer"
     id="layer4"
     inkscape:label="Layer 4"
     style="display:inline">
    <g
       id="g10077">
      <path
         inkscape:connector-curvature="0"
         id="rect9889-0-5"
         d="m 75.628261,212.69112 c -0.26433,-0.0573 -0.511257,0.0434 -0.553607,0.22574 l -3.161712,13.60931 -0.28916,1.24467 -0.13042,0.56139 c -0.0423,0.1823 0.13637,0.37516 0.4007,0.43241 l 0.813994,0.1763 2.344528,0.50779 55.792416,12.0837 2.34456,0.50779 0.81399,0.1763 c 0.26434,0.0573 0.51127,-0.0434 0.55362,-0.22573 l 0.13042,-0.56139 0.28917,-1.24466 3.16175,-13.60932 c 0.0423,-0.1823 -0.13638,-0.37517 -0.40071,-0.43242 l -3.15857,-0.68409 c -0.26433,-0.0573 -0.51125,0.0434 -0.5536,0.22574 l -2.95487,12.71884 -54.838115,-11.87702 2.954825,-12.71884 c 0.0423,-0.18229 -0.13637,-0.37517 -0.400697,-0.43243 z"
         style="display:inline;opacity:1;fill:#efa007;fill-opacity:1;fill-rule:nonzero;stroke:none;stroke-width:0.70429009;stroke-miterlimit:4;stroke-dasharray:none;stroke-dashoffset:0;stroke-opacity:1"
         transform="translate(0,-87.000001)" />
      <path
         sodipodi:nodetypes="cccsscssccsscsscc"
         inkscape:connector-curvature="0"
         id="rect9908"
         d="m 187.61578,62.255772 c -0.15141,0.0037 -0.30306,0.01597 -0.45314,0.03802 L 33.081919,102.62415 c -1.200669,0.17533 -2.534365,0.27227 -2.534365,0.61059 v 5.32503 c 0,0.004 0.0024,0.009 0.0029,0.0141 -4.49e-4,0.004 -0.0029,0.009 -0.0029,0.0141 v 12.68922 c 0,0.33834 1.333696,0.43543 2.534365,0.61077 L 187.16264,154.8541 c 1.20069,0.17534 2.53368,-0.27243 2.53368,-0.61077 v -45.65525 c 0,-0.004 -6.1e-4,-0.009 -6.1e-4,-0.0141 4.3e-4,-0.004 6.1e-4,-0.009 6.1e-4,-0.0141 V 62.904389 c 0,-0.296043 -1.02096,-0.675696 -2.08054,-0.648558 z"
         style="display:inline;opacity:1;fill:#fc763a;fill-opacity:1;fill-rule:nonzero;stroke:none;stroke-width:1.73628378;stroke-miterlimit:4;stroke-dasharray:none;stroke-dashoffset:0;stroke-opacity:1" />
      <rect
         ry="2.1833363"
         y="55.278992"
         x="184.75389"
         height="106.6478"
         width="8.028718"
         id="rect9889-0"
         style="display:inline;opacity:1;fill:#efa007;fill-opacity:1;fill-rule:nonzero;stroke:none;stroke-width:2.47321796;stroke-miterlimit:4;stroke-dasharray:none;stroke-dashoffset:0;stroke-opacity:1" />
      <rect
         ry="0.46141937"
         y="101.01565"
         x="22.722443"
         height="22.538605"
         width="8.028718"
         id="rect9889"
         style="display:inline;opacity:1;fill:#efa007;fill-opacity:1;fill-rule:nonzero;stroke:none;stroke-width:1.13697255;stroke-miterlimit:4;stroke-dasharray:none;stroke-dashoffset:0;stroke-opacity:1" />
      <path
         id="rect9978"
         d="m 206.448,106.8125 h 40.14359 v 7.75198 H 206.448 Z"
         style="opacity:1;fill:#050505;fill-opacity:1;fill-rule:nonzero;stroke:none;stroke-width:1.9724077;stroke-miterlimit:4;stroke-dasharray:none;stroke-dashoffset:0;stroke-opacity:1" />
      <path
         id="rect9978-4"
         d="m 74.166748,204.81439 h 39.457802 v 7.89156 H 74.166748 Z"
         style="display:inline;opacity:1;fill:#050505;fill-opacity:1;fill-rule:nonzero;stroke:none;stroke-width:1.97301435;stroke-miterlimit:4;stroke-dasharray:none;stroke-dashoffset:0;stroke-opacity:1"
         transform="matrix(0.71939654,-0.69459961,0.71939654,0.69459961,0,0)" />
      <path
         id="rect9978-4-5"
         d="m 233.86543,45.377678 h 39.4578 v 7.89156 h -39.4578 z"
         style="display:inline;opacity:1;fill:#050505;fill-opacity:1;fill-rule:nonzero;stroke:none;stroke-width:1.97301435;stroke-miterlimit:4;stroke-dasharray:none;stroke-dashoffset:0;stroke-opacity:1"
         transform="matrix(0.71939654,0.69459961,0.71939654,-0.69459961,0,0)" />
    </g>
  </g>
</svg>
