<?xml version="1.0" encoding="UTF-8" standalone="no"?>
<!-- Created with Inkscape (http://www.inkscape.org/) -->

<svg
   xmlns:dc="http://purl.org/dc/elements/1.1/"
   xmlns:cc="http://creativecommons.org/ns#"
   xmlns:rdf="http://www.w3.org/1999/02/22-rdf-syntax-ns#"
   xmlns:svg="http://www.w3.org/2000/svg"
   xmlns="http://www.w3.org/2000/svg"
   xmlns:sodipodi="http://sodipodi.sourceforge.net/DTD/sodipodi-0.dtd"
   xmlns:inkscape="http://www.inkscape.org/namespaces/inkscape"
   width="115.50264mm"
   height="115.50264mm"
   viewBox="0 0 115.50264 115.50264"
   version="1.1"
   id="svg8"
   inkscape:version="0.92.4 (5da689c313, 2019-01-14)"
   sodipodi:docname="net_globe.svg">
  <defs
     id="defs2" />
  <sodipodi:namedview
     id="base"
     pagecolor="#ffffff"
     bordercolor="#666666"
     borderopacity="1.0"
     inkscape:pageopacity="0.0"
     inkscape:pageshadow="2"
     inkscape:zoom="0.70710678"
     inkscape:cx="-600.06569"
     inkscape:cy="105.40807"
     inkscape:document-units="mm"
     inkscape:current-layer="layer1"
     showgrid="true"
     inkscape:window-width="1920"
     inkscape:window-height="1017"
     inkscape:window-x="-8"
     inkscape:window-y="-8"
     inkscape:window-maximized="1">
    <inkscape:grid
       id="grid1587"
       type="xygrid"
       originx="-90.748677"
       originy="-47.24868" />
  </sodipodi:namedview>
  <metadata
     id="metadata5">
    <rdf:RDF>
      <cc:Work
         rdf:about="">
        <dc:format>image/svg+xml</dc:format>
        <dc:type
           rdf:resource="http://purl.org/dc/dcmitype/StillImage" />
        <dc:title />
      </cc:Work>
    </rdf:RDF>
  </metadata>
  <g
     inkscape:label="Layer 1"
     inkscape:groupmode="layer"
     id="layer1"
     transform="translate(-90.748677,-134.24868)"
     style="display:inline;opacity:1">
    <ellipse
       style="display:inline;opacity:1;fill:#ffffff;fill-opacity:1;fill-rule:nonzero;stroke:none;stroke-width:3.10515881;stroke-miterlimit:4;stroke-dasharray:none;stroke-dashoffset:0;stroke-opacity:1"
       id="path2090"
       cx="148.5"
       cy="192"
       rx="55.889339"
       ry="52.784378" />
  </g>
  <g
     inkscape:groupmode="layer"
     id="layer2"
     inkscape:label="Layer 2"
     style="display:inline"
     transform="translate(-90.748677,-47.248677)">
    <g
       id="g2009"
       inkscape:label="WireframeSphere"
       transform="matrix(2.0685041,0,0,2.0685041,148.5,105)"
       style="display:inline;stroke:#3459a8;stroke-opacity:1">
      <circle
         id="path2007"
         style="fill:none;stroke:#3459a8;stroke-width:0.26458332;stroke-opacity:1"
         cx="0"
         cy="0"
         r="26.458334" />
    </g>
    <g
       transform="matrix(2.0685041,0,0,2.0685041,148.5,105)"
       id="g1975"
       inkscape:label="Lines of Longitude"
       style="display:inline;stroke:#3459a8;stroke-opacity:1">
      <path
         id="path1961"
         sodipodi:type="arc"
         sodipodi:start="1.5707963"
         sodipodi:ry="26.458334"
         sodipodi:rx="0.001"
         sodipodi:open="true"
         sodipodi:end="4.712389"
         sodipodi:cy="0"
         sodipodi:cx="0"
         style="fill:none;stroke:#3459a8;stroke-width:0.26458332;stroke-opacity:1"
         d="m 0,26.458334 a 0.001,26.458334 0 0 1 -8.6602544e-4,-13.229167 0.001,26.458334 0 0 1 0,-26.458334 A 0.001,26.458334 0 0 1 0,-26.458334" />
      <path
         id="path1963"
         sodipodi:type="arc"
         sodipodi:start="1.5707963"
         sodipodi:ry="26.458334"
         sodipodi:rx="11.480841"
         sodipodi:open="true"
         sodipodi:end="4.712389"
         sodipodi:cy="0"
         sodipodi:cx="0"
         style="fill:none;stroke:#3459a8;stroke-width:0.26458332;stroke-opacity:1"
         d="M 3.0762794e-7,26.458334 A 11.480841,26.458334 0 0 1 -9.9426996,13.229167 a 11.480841,26.458334 0 0 1 -1e-7,-26.458334 A 11.480841,26.458334 0 0 1 2.2520025e-7,-26.458334" />
      <path
         id="path1965"
         sodipodi:type="arc"
         sodipodi:start="1.5707963"
         sodipodi:ry="26.458334"
         sodipodi:rx="20.686958"
         sodipodi:open="true"
         sodipodi:end="4.712389"
         sodipodi:cy="0"
         sodipodi:cx="0"
         style="fill:none;stroke:#3459a8;stroke-width:0.26458332;stroke-opacity:1"
         d="M 5.5430491e-7,26.458334 A 20.686958,26.458334 0 0 1 -17.915431,13.229167 a 20.686958,26.458334 0 0 1 0,-26.458334 A 20.686958,26.458334 0 0 1 4.057811e-7,-26.458334" />
      <path
         id="path1967"
         sodipodi:type="arc"
         sodipodi:start="1.5707963"
         sodipodi:ry="26.458334"
         sodipodi:rx="25.795967"
         sodipodi:open="true"
         sodipodi:end="4.712389"
         sodipodi:cy="0"
         sodipodi:cx="0"
         style="fill:none;stroke:#3459a8;stroke-width:0.26458332;stroke-opacity:1"
         d="M 6.9120027e-7,26.458334 A 25.795967,26.458334 0 0 1 -22.339963,13.229167 a 25.795967,26.458334 0 0 1 0,-26.458334 A 25.795967,26.458334 0 0 1 5.0599589e-7,-26.458334" />
      <path
         id="path1969"
         sodipodi:type="arc"
         sodipodi:start="4.712389"
         sodipodi:ry="26.458334"
         sodipodi:rx="25.795967"
         sodipodi:open="true"
         sodipodi:end="1.5707963"
         sodipodi:cy="0"
         sodipodi:cx="0"
         style="fill:none;stroke:#3459a8;stroke-width:0.26458332;stroke-opacity:1"
         d="M 5.0599589e-7,-26.458334 A 25.795967,26.458334 0 0 1 25.795967,-9.4979958e-8 25.795967,26.458334 0 0 1 6.9120029e-7,26.458334" />
      <path
         id="path1971"
         sodipodi:type="arc"
         sodipodi:start="4.712389"
         sodipodi:ry="26.458334"
         sodipodi:rx="20.686958"
         sodipodi:open="true"
         sodipodi:end="1.5707963"
         sodipodi:cy="0"
         sodipodi:cx="0"
         style="fill:none;stroke:#3459a8;stroke-width:0.26458332;stroke-opacity:1"
         d="M 4.057811e-7,-26.458334 A 20.686958,26.458334 0 0 1 20.686958,-9.4979958e-8 20.686958,26.458334 0 0 1 5.5430492e-7,26.458334" />
      <path
         id="path1973"
         sodipodi:type="arc"
         sodipodi:start="4.712389"
         sodipodi:ry="26.458334"
         sodipodi:rx="11.480841"
         sodipodi:open="true"
         sodipodi:end="1.5707963"
         sodipodi:cy="0"
         sodipodi:cx="0"
         style="fill:none;stroke:#3459a8;stroke-width:0.26458332;stroke-opacity:1"
         d="M 2.2520025e-7,-26.458334 A 11.480841,26.458334 0 0 1 11.480841,-9.4979958e-8 11.480841,26.458334 0 0 1 3.0762795e-7,26.458334" />
    </g>
    <g
       transform="matrix(2.0685041,0,0,2.0685041,148.5,105)"
       id="g2005"
       inkscape:label="Lines of Latitude"
       style="display:inline;stroke:#3459a8;stroke-opacity:1">
      <path
         id="path1977"
         sodipodi:type="arc"
         sodipodi:start="4.4408921e-16"
         sodipodi:ry="0.001"
         sodipodi:rx="5.5009966"
         sodipodi:open="true"
         sodipodi:end="3.1415927"
         sodipodi:cy="25.880156"
         sodipodi:cx="0"
         style="fill:none;stroke:#3459a8;stroke-width:0.26458332;stroke-opacity:1"
         d="m 5.5009966,25.880156 a 5.5009966,0.001 0 0 1 -2.7504984,8.66e-4 5.5009966,0.001 0 0 1 -5.5009966,0 5.5009966,0.001 0 0 1 -2.7504982,-8.66e-4" />
      <path
         id="path1979"
         sodipodi:type="arc"
         sodipodi:start="4.4408921e-16"
         sodipodi:ry="0.001"
         sodipodi:rx="10.761574"
         sodipodi:open="true"
         sodipodi:end="3.1415927"
         sodipodi:cy="24.170891"
         sodipodi:cx="0"
         style="fill:none;stroke:#3459a8;stroke-width:0.26458332;stroke-opacity:1"
         d="m 10.761574,24.170891 a 10.761574,0.001 0 0 1 -5.3807872,8.66e-4 10.761574,0.001 0 0 1 -10.761574,0 10.761574,0.001 0 0 1 -5.3807868,-8.66e-4" />
      <path
         id="path1981"
         sodipodi:type="arc"
         sodipodi:start="4.4408921e-16"
         sodipodi:ry="0.001"
         sodipodi:rx="15.551818"
         sodipodi:open="true"
         sodipodi:end="3.1415927"
         sodipodi:cy="21.405241"
         sodipodi:cx="0"
         style="fill:none;stroke:#3459a8;stroke-width:0.26458332;stroke-opacity:1"
         d="m 15.551818,21.405241 a 15.551818,0.001 0 0 1 -7.7759093,8.66e-4 15.551818,0.001 0 0 1 -15.5518181,0 15.551818,0.001 0 0 1 -7.7759086,-8.66e-4" />
      <path
         id="path1983"
         sodipodi:type="arc"
         sodipodi:start="4.4408921e-16"
         sodipodi:ry="0.001"
         sodipodi:rx="19.662373"
         sodipodi:open="true"
         sodipodi:end="3.1415927"
         sodipodi:cy="17.704081"
         sodipodi:cx="0"
         style="fill:none;stroke:#3459a8;stroke-width:0.26458332;stroke-opacity:1"
         d="m 19.662373,17.704081 a 19.662373,0.001 0 0 1 -9.831187,8.66e-4 19.662373,0.001 0 0 1 -19.6623728,0 19.662373,0.001 0 0 1 -9.8311862,-8.66e-4" />
      <path
         id="path1985"
         sodipodi:type="arc"
         sodipodi:start="0"
         sodipodi:ry="0.001"
         sodipodi:rx="22.913589"
         sodipodi:open="true"
         sodipodi:end="3.1415927"
         sodipodi:cy="13.229167"
         sodipodi:cx="0"
         style="fill:none;stroke:#3459a8;stroke-width:0.26458332;stroke-opacity:1"
         d="m 22.913589,13.229167 a 22.913589,0.001 0 0 1 -11.456795,8.66e-4 22.913589,0.001 0 0 1 -22.913589,0 22.913589,0.001 0 0 1 -11.456794,-8.66e-4" />
      <path
         id="path1987"
         sodipodi:type="arc"
         sodipodi:start="0"
         sodipodi:ry="0.001"
         sodipodi:rx="25.16337"
         sodipodi:open="true"
         sodipodi:end="3.1415927"
         sodipodi:cy="8.176075"
         sodipodi:cx="0"
         style="fill:none;stroke:#3459a8;stroke-width:0.26458332;stroke-opacity:1"
         d="m 25.16337,8.176075 a 25.16337,0.001 0 0 1 -12.581685,8.66e-4 25.16337,0.001 0 0 1 -25.163371,0 25.16337,0.001 0 0 1 -12.581684,-8.66e-4" />
      <path
         id="path1989"
         sodipodi:type="arc"
         sodipodi:start="0"
         sodipodi:ry="0.001"
         sodipodi:rx="26.313393"
         sodipodi:open="true"
         sodipodi:end="3.1415927"
         sodipodi:cy="2.7656488"
         sodipodi:cx="0"
         style="fill:none;stroke:#3459a8;stroke-width:0.26458332;stroke-opacity:1"
         d="m 26.313393,2.7656488 a 26.313393,0.001 0 0 1 -13.156697,8.661e-4 26.313393,0.001 0 0 1 -26.313393,0 26.313393,0.001 0 0 1 -13.156696,-8.661e-4" />
      <path
         id="path1991"
         sodipodi:type="arc"
         sodipodi:start="0"
         sodipodi:ry="0.001"
         sodipodi:rx="26.313393"
         sodipodi:open="true"
         sodipodi:end="3.1415927"
         sodipodi:cy="-2.7656488"
         sodipodi:cx="0"
         style="fill:none;stroke:#3459a8;stroke-width:0.26458332;stroke-opacity:1"
         d="m 26.313393,-2.7656488 a 26.313393,0.001 0 0 1 -13.156697,8.66e-4 26.313393,0.001 0 0 1 -26.313393,0 26.313393,0.001 0 0 1 -13.156696,-8.66e-4" />
      <path
         id="path1993"
         sodipodi:type="arc"
         sodipodi:start="0"
         sodipodi:ry="0.001"
         sodipodi:rx="25.16337"
         sodipodi:open="true"
         sodipodi:end="3.1415927"
         sodipodi:cy="-8.176075"
         sodipodi:cx="0"
         style="fill:none;stroke:#3459a8;stroke-width:0.26458332;stroke-opacity:1"
         d="m 25.16337,-8.176075 a 25.16337,0.001 0 0 1 -12.581685,8.66e-4 25.16337,0.001 0 0 1 -25.163371,0 25.16337,0.001 0 0 1 -12.581684,-8.66e-4" />
      <path
         id="path1995"
         sodipodi:type="arc"
         sodipodi:start="0"
         sodipodi:ry="0.001"
         sodipodi:rx="22.913589"
         sodipodi:open="true"
         sodipodi:end="3.1415927"
         sodipodi:cy="-13.229167"
         sodipodi:cx="0"
         style="fill:none;stroke:#3459a8;stroke-width:0.26458332;stroke-opacity:1"
         d="m 22.913589,-13.229167 a 22.913589,0.001 0 0 1 -11.456795,8.66e-4 22.913589,0.001 0 0 1 -22.913589,0 22.913589,0.001 0 0 1 -11.456794,-8.66e-4" />
      <path
         id="path1997"
         sodipodi:type="arc"
         sodipodi:start="0"
         sodipodi:ry="0.001"
         sodipodi:rx="19.662373"
         sodipodi:open="true"
         sodipodi:end="3.1415927"
         sodipodi:cy="-17.704081"
         sodipodi:cx="0"
         style="fill:none;stroke:#3459a8;stroke-width:0.26458332;stroke-opacity:1"
         d="m 19.662373,-17.704081 a 19.662373,0.001 0 0 1 -9.831187,8.66e-4 19.662373,0.001 0 0 1 -19.6623728,0 19.662373,0.001 0 0 1 -9.8311862,-8.66e-4" />
      <path
         id="path1999"
         sodipodi:type="arc"
         sodipodi:start="0"
         sodipodi:ry="0.001"
         sodipodi:rx="15.551818"
         sodipodi:open="true"
         sodipodi:end="3.1415927"
         sodipodi:cy="-21.405241"
         sodipodi:cx="0"
         style="fill:none;stroke:#3459a8;stroke-width:0.26458332;stroke-opacity:1"
         d="m 15.551818,-21.405241 a 15.551818,0.001 0 0 1 -7.7759093,8.66e-4 15.551818,0.001 0 0 1 -15.5518181,0 15.551818,0.001 0 0 1 -7.7759086,-8.66e-4" />
      <path
         id="path2001"
         sodipodi:type="arc"
         sodipodi:start="0"
         sodipodi:ry="0.001"
         sodipodi:rx="10.761574"
         sodipodi:open="true"
         sodipodi:end="3.1415927"
         sodipodi:cy="-24.170891"
         sodipodi:cx="0"
         style="fill:none;stroke:#3459a8;stroke-width:0.26458332;stroke-opacity:1"
         d="m 10.761574,-24.170891 a 10.761574,0.001 0 0 1 -5.3807872,8.66e-4 10.761574,0.001 0 0 1 -10.761574,0 10.761574,0.001 0 0 1 -5.3807868,-8.66e-4" />
      <path
         id="path2003"
         sodipodi:type="arc"
         sodipodi:start="0"
         sodipodi:ry="0.001"
         sodipodi:rx="5.5009966"
         sodipodi:open="true"
         sodipodi:end="3.1415927"
         sodipodi:cy="-25.880156"
         sodipodi:cx="0"
         style="fill:none;stroke:#3459a8;stroke-width:0.26458332;stroke-opacity:1"
         d="m 5.5009966,-25.880156 a 5.5009966,0.001 0 0 1 -2.7504984,8.66e-4 5.5009966,0.001 0 0 1 -5.5009966,0 5.5009966,0.001 0 0 1 -2.7504982,-8.66e-4" />
    </g>
  </g>
  <g
     inkscape:groupmode="layer"
     id="layer3"
     inkscape:label="Layer 3"
     style="display:inline"
     transform="translate(-90.748677,-47.248677)">
    <path
       style="opacity:1;fill:#3459a8;fill-opacity:1;fill-rule:nonzero;stroke:none;stroke-width:0.3039543;stroke-miterlimit:4;stroke-dasharray:none;stroke-dashoffset:0;stroke-opacity:1"
       d="M 148.5,47.248677 A 57.751322,57.751322 0 0 0 90.748677,105 57.751322,57.751322 0 0 0 148.5,162.75132 57.751322,57.751322 0 0 0 206.25132,105 57.751322,57.751322 0 0 0 148.5,47.248677 Z m 0,5.803035 A 51.948259,51.948259 0 0 1 200.44828,105 51.948259,51.948259 0 0 1 148.5,156.94828 51.948259,51.948259 0 0 1 96.551717,105 51.948259,51.948259 0 0 1 148.5,53.051712 Z"
       id="path5208"
       inkscape:connector-curvature="0" />
  </g>
  <g
     inkscape:groupmode="layer"
     id="layer4"
     inkscape:label="Layer 4"
     style="display:inline"
     transform="translate(-90.748677,-47.248677)" />
</svg>
