<?xml version="1.0" encoding="UTF-8" standalone="no"?>
<!-- Created with Inkscape (http://www.inkscape.org/) -->

<svg
   xmlns:dc="http://purl.org/dc/elements/1.1/"
   xmlns:cc="http://creativecommons.org/ns#"
   xmlns:rdf="http://www.w3.org/1999/02/22-rdf-syntax-ns#"
   xmlns:svg="http://www.w3.org/2000/svg"
   xmlns="http://www.w3.org/2000/svg"
   xmlns:sodipodi="http://sodipodi.sourceforge.net/DTD/sodipodi-0.dtd"
   xmlns:inkscape="http://www.inkscape.org/namespaces/inkscape"
   width="297mm"
   height="210mm"
   viewBox="0 0 297 210"
   version="1.1"
   id="svg8"
   inkscape:version="0.92.4 (5da689c313, 2019-01-14)"
   sodipodi:docname="paths.svg">
  <defs
     id="defs2" />
  <sodipodi:namedview
     id="base"
     pagecolor="#ffffff"
     bordercolor="#666666"
     borderopacity="1.0"
     inkscape:pageopacity="0.0"
     inkscape:pageshadow="2"
     inkscape:zoom="0.53420636"
     inkscape:cx="617.50528"
     inkscape:cy="376.74568"
     inkscape:document-units="mm"
     inkscape:current-layer="layer3"
     showgrid="false"
     inkscape:window-width="1920"
     inkscape:window-height="1017"
     inkscape:window-x="-8"
     inkscape:window-y="-8"
     inkscape:window-maximized="1">
    <inkscape:grid
       type="xygrid"
       id="grid1587" />
  </sodipodi:namedview>
  <metadata
     id="metadata5">
    <rdf:RDF>
      <cc:Work
         rdf:about="">
        <dc:format>image/svg+xml</dc:format>
        <dc:type
           rdf:resource="http://purl.org/dc/dcmitype/StillImage" />
        <dc:title />
      </cc:Work>
    </rdf:RDF>
  </metadata>
  <g
     inkscape:label="Layer 1"
     inkscape:groupmode="layer"
     id="layer1"
     transform="translate(0,-87)"
     style="display:inline;opacity:0.41700003" />
  <g
     inkscape:groupmode="layer"
     id="layer2"
     inkscape:label="Layer 2"
     style="display:inline;opacity:1">
    <path
       style="fill:none;stroke:#000000;stroke-width:0.02645833;stroke-linecap:butt;stroke-linejoin:miter;stroke-miterlimit:4;stroke-dasharray:none;stroke-opacity:1"
       d="m 0,215.29166 c 28.757959,-11.97809 82.815539,-17.52759 113.05004,-19.80065 13.34284,-1.00313 22.04599,-1.36816 21.88746,-1.36601"
       id="path959"
       inkscape:connector-curvature="0"
       sodipodi:nodetypes="csc" />
    <path
       style="fill:none;stroke:#000000;stroke-width:0.02645833;stroke-linecap:butt;stroke-linejoin:miter;stroke-miterlimit:4;stroke-dasharray:none;stroke-opacity:1"
       d="M -3.9687494,208.67708 C 6.487664,204.88901 21.203023,200.71618 31.75,202.0625 19.187561,195.3212 2.8820409,200.13616 -7.9375,206.03125"
       id="path961"
       inkscape:connector-curvature="0"
       sodipodi:nodetypes="ccc" />
    <path
       style="fill:none;stroke:#000000;stroke-width:0.02645833;stroke-linecap:butt;stroke-linejoin:miter;stroke-miterlimit:4;stroke-dasharray:none;stroke-opacity:1"
       d="m -7.6172411,196.21671 c 27.1205741,-4.31056 66.2619581,0.8428 94.5785211,-3.70807 16.74586,-2.6913 36.83263,-1.16616 51.94497,-3.67531"
       id="path963"
       inkscape:connector-curvature="0"
       sodipodi:nodetypes="csc" />
    <path
       style="fill:none;stroke:#000000;stroke-width:0.02645833;stroke-linecap:butt;stroke-linejoin:miter;stroke-miterlimit:4;stroke-dasharray:none;stroke-opacity:1"
       d="m 138.90625,188.83333 c 19.4071,-5.30129 19.84374,-25.13541 38.36458,-22.48958"
       id="path975"
       inkscape:connector-curvature="0"
       sodipodi:nodetypes="cc" />
    <path
       style="fill:none;stroke:#000000;stroke-width:0.02645833;stroke-linecap:butt;stroke-linejoin:miter;stroke-miterlimit:4;stroke-dasharray:none;stroke-opacity:1"
       d="m 133.18641,194.21255 c 60.85417,-2.64583 117.90156,2.46925 173.73025,26.37078"
       id="path977"
       inkscape:connector-curvature="0"
       sodipodi:nodetypes="cc" />
    <path
       style="fill:none;stroke:#000000;stroke-width:0.02645833;stroke-linecap:butt;stroke-linejoin:miter;stroke-miterlimit:4;stroke-dasharray:none;stroke-opacity:1"
       d="M 298.97916,202.0625 C 233.69977,180.18427 284.05367,143.5784 333.375,149.14583"
       id="path983"
       inkscape:connector-curvature="0" />
    <path
       style="fill:none;stroke:#000000;stroke-width:0.02645833;stroke-linecap:butt;stroke-linejoin:miter;stroke-miterlimit:4;stroke-dasharray:none;stroke-opacity:1"
       d="m 296.33333,149.14583 c -21.00911,-1.60834 -43.51092,15.43208 -55.5625,26.45834"
       id="path985"
       inkscape:connector-curvature="0" />
    <path
       style="fill:none;stroke:#000000;stroke-width:0.02645833;stroke-linecap:butt;stroke-linejoin:miter;stroke-miterlimit:4;stroke-dasharray:none;stroke-opacity:1"
       d="m 240.77083,175.60417 c -5.28533,3.13578 -19.49216,-1.10426 -25.13542,-5.29167"
       id="path987"
       inkscape:connector-curvature="0" />
    <path
       style="fill:none;stroke:#000000;stroke-width:0.02645833;stroke-linecap:butt;stroke-linejoin:miter;stroke-miterlimit:4;stroke-dasharray:none;stroke-opacity:1"
       d="M -7.9374999,64.479167 C 39.211734,100.13792 141.55208,139.88542 177.27083,166.34375"
       id="path993"
       inkscape:connector-curvature="0"
       sodipodi:nodetypes="cc" />
    <path
       style="fill:none;stroke:#000000;stroke-width:0.02645833;stroke-linecap:butt;stroke-linejoin:miter;stroke-miterlimit:4;stroke-dasharray:none;stroke-opacity:1"
       d="M 90.222917,32.99375 C 95.374913,61.974377 111.125,125.33333 140.22917,135.91667"
       id="path997"
       inkscape:connector-curvature="0"
       sodipodi:nodetypes="cc" />
    <path
       style="fill:none;stroke:#000000;stroke-width:0.02645833;stroke-linecap:butt;stroke-linejoin:miter;stroke-miterlimit:4;stroke-dasharray:none;stroke-opacity:1"
       d="M 100.54167,32.729167 C 97.895277,66.701674 186.53125,161.05208 215.63542,170.3125"
       id="path999"
       inkscape:connector-curvature="0"
       sodipodi:nodetypes="cc" />
    <path
       style="fill:none;stroke:#000000;stroke-width:0.02645833;stroke-linecap:butt;stroke-linejoin:miter;stroke-miterlimit:4;stroke-dasharray:none;stroke-opacity:1"
       d="m -0.79375,61.039583 c 43.663441,37.073837 92.075,51.064587 141.02292,74.877087"
       id="path1001"
       inkscape:connector-curvature="0"
       sodipodi:nodetypes="cc" />
    <path
       style="fill:none;stroke:#000000;stroke-width:0.02645833;stroke-linecap:butt;stroke-linejoin:miter;stroke-miterlimit:4;stroke-dasharray:none;stroke-opacity:1"
       d="M -16.635354,72.626997 C 11.706257,46.984587 54.036283,39.516773 90.222916,32.99375 c 4.009882,-0.613508 8.729596,-1.726671 12.170834,0.529167 74.61194,15.600242 143.1892,67.897193 214.83503,95.993593 20.18598,7.91607 42.00904,25.40802 63.77122,27.56682"
       id="path1007"
       inkscape:connector-curvature="0"
       sodipodi:nodetypes="cccsc" />
    <path
       style="fill:none;stroke:#000000;stroke-width:0.02645833;stroke-linecap:butt;stroke-linejoin:miter;stroke-miterlimit:4;stroke-dasharray:none;stroke-opacity:1"
       d="m 224.89583,84.322916 c 37.29429,-11.276147 72.97423,15.084862 109.91255,13.607328"
       id="path1009"
       inkscape:connector-curvature="0" />
    <path
       style="fill:none;stroke:#000000;stroke-width:0.02645833;stroke-linecap:butt;stroke-linejoin:miter;stroke-miterlimit:4;stroke-dasharray:none;stroke-opacity:1"
       d="m 283.10416,88.291666 c 4.58259,-9.955445 33.6589,-7.90194 42.33334,-10.583333"
       id="path1011"
       inkscape:connector-curvature="0"
       sodipodi:nodetypes="cc" />
    <path
       style="fill:none;stroke:#000000;stroke-width:0.02645833;stroke-linecap:butt;stroke-linejoin:miter;stroke-miterlimit:4;stroke-dasharray:none;stroke-opacity:1"
       d="m -6.6145832,195.44791 c 0.1561904,4.04155 1.8072475,7.16268 5.2916666,9.26042"
       id="path1019"
       inkscape:connector-curvature="0" />
    <path
       style="fill:none;stroke:#000000;stroke-width:0.02645833;stroke-linecap:butt;stroke-linejoin:miter;stroke-miterlimit:4;stroke-dasharray:none;stroke-opacity:1"
       d="m -5.2916667,204.70833 c 1.2603898,3.73541 7.7799176,12.44848 11.9062499,11.90625"
       id="path1021"
       inkscape:connector-curvature="0"
       sodipodi:nodetypes="cc" />
    <path
       style="fill:none;stroke:#000000;stroke-width:0.02645833;stroke-linecap:butt;stroke-linejoin:miter;stroke-miterlimit:4;stroke-dasharray:none;stroke-opacity:1"
       d="m 298.97916,202.0625 c 1.60917,3.87585 3.92817,17.42622 -1.32291,19.84375"
       id="path1023"
       inkscape:connector-curvature="0" />
    <path
       style="fill:none;stroke:#000000;stroke-width:0.02645833;stroke-linecap:butt;stroke-linejoin:miter;stroke-miterlimit:4;stroke-dasharray:none;stroke-opacity:1"
       d="m 296.33333,149.14583 c 2.44173,0.16642 4.7788,0.46208 5.29167,1.32292 0.46359,1.52086 1.97652,2.52654 2.64583,3.96875"
       id="path1025"
       inkscape:connector-curvature="0" />
    <path
       style="fill:none;stroke:#000000;stroke-width:0.02645833;stroke-linecap:butt;stroke-linejoin:miter;stroke-miterlimit:4;stroke-dasharray:none;stroke-opacity:1"
       d="M -6.6145833,195.97708 C -9.9908989,185.59103 -48.452899,63.560859 -13.229167,72.416666"
       id="path1029"
       inkscape:connector-curvature="0"
       sodipodi:nodetypes="cc" />
    <path
       style="fill:none;stroke:#000000;stroke-width:0.02645833;stroke-linecap:butt;stroke-linejoin:miter;stroke-miterlimit:4;stroke-dasharray:none;stroke-opacity:1"
       d="m 326.76041,149.14583 c 2.04957,-5.61316 0.32126,-15.5505 2.64584,-21.16666"
       id="path1031"
       inkscape:connector-curvature="0" />
    <path
       style="fill:none;stroke:#000000;stroke-width:0.02645833;stroke-linecap:butt;stroke-linejoin:miter;stroke-miterlimit:4;stroke-dasharray:none;stroke-opacity:1"
       d="m 298.97916,204.70833 c 15.4381,-26.04394 57.59601,-45.4389 82.02084,-63.5"
       id="path1033"
       inkscape:connector-curvature="0" />
    <path
       style="fill:none;stroke:#000000;stroke-width:0.02645833;stroke-linecap:butt;stroke-linejoin:miter;stroke-miterlimit:4;stroke-dasharray:none;stroke-opacity:1"
       d="M 6.6145833,216.61458 299.51543,220.53955"
       id="path1035"
       inkscape:connector-curvature="0"
       sodipodi:nodetypes="cc" />
  </g>
  <g
     inkscape:groupmode="layer"
     id="layer5"
     inkscape:label="sky">
    <path
       style="display:inline;opacity:1;fill:#00afab;fill-opacity:1;fill-rule:nonzero;stroke:none;stroke-width:0.02617238;stroke-miterlimit:4;stroke-dasharray:none;stroke-dashoffset:0;stroke-opacity:1"
       d="m 286.54365,98.415087 c -21.55162,-6.100941 -37.61817,-7.41145 -51.27666,-4.182505 -1.24057,0.293278 -2.83887,0.663135 -3.55177,0.821896 l -1.29619,0.288662 -10.62867,-5.721792 C 195.92623,76.774447 175.46687,66.736345 158.71243,59.654312 139.9849,51.73826 120.25276,45.233771 104.43031,41.760788 c -1.14064,-0.250364 -2.50127,-0.674287 -3.02363,-0.942047 -1.647818,-0.844658 -4.287907,-1.141397 -7.176416,-0.806609 -4.696048,0.544293 -25.721459,4.563659 -36.856431,7.045731 -21.209628,4.727795 -36.533491,9.756625 -51.3261557,16.843691 -7.2611118,3.478755 -16.3049373,9.084527 -22.0325183,13.656757 -3.125113,2.494729 -2.956756,2.438983 -2.769189,0.916926 0.312009,-2.53187 0.701572,-9.087448 1.089744,-18.338213 0.896012,-21.353397 2.208014,-31.708069 5.206185,-41.088616 6.1162572,-19.13628241 23.190503,-32.586001 50.152394,-39.506028 17.448174,-4.47824 37.479509,-6.337237 64.532507,-5.988906 14.72953,0.189658 25.33933,0.706038 41.99624,2.043963 18.01222,1.446787 33.38811,3.105047 76.8635,8.289582 34.45232,4.108514 49.02807,5.567078 65.19786,6.5242093 6.16433,0.3648822 22.06563,0.4604921 25.66932,0.1543422 l 2.4677,-0.2096408 3.21235,10.9111769 c 10.903,37.0335514 15.37926,56.1351084 17.245,73.5896314 0.49156,4.598654 0.4894,4.50077 0.0901,4.093851 -0.17108,-0.174396 -0.43356,-0.314437 -0.58327,-0.311205 -0.14971,0.0032 0.0147,0.230669 0.36555,0.505416 0.6221,0.487308 0.64033,0.604147 0.74435,4.771113 0.0586,2.349363 0.005,4.373298 -0.11923,4.497634 -0.44335,0.443641 -5.02686,1.050194 -13.96544,1.848116 -12.13177,1.082969 -16.89094,1.822816 -21.51661,3.34493 -3.81414,1.255071 -6.48788,2.996397 -8.29553,5.402604 l -0.51849,0.690144 z M -12.74439,74.669974 c -0.08812,-0.145328 -0.276873,-0.264233 -0.419452,-0.264233 -0.14258,0 -0.187139,0.118905 -0.09902,0.264233 0.08812,0.145332 0.276873,0.264236 0.419452,0.264236 0.14258,0 0.187139,-0.118904 0.09902,-0.264236 z"
       id="path1091"
       inkscape:connector-curvature="0" />
  </g>
  <g
     inkscape:groupmode="layer"
     id="layer3"
     inkscape:label="Layer 3"
     style="display:inline">
    <path
       style="fill:none;stroke:#000000;stroke-width:0.02645833;stroke-linecap:butt;stroke-linejoin:miter;stroke-miterlimit:4;stroke-dasharray:none;stroke-opacity:1"
       d="m 334.7417,97.930214 c 5.85558,0.68059 12.61946,0.473869 18.47705,-0.378131"
       id="path1049"
       inkscape:connector-curvature="0"
       sodipodi:nodetypes="cc" />
    <path
       style="opacity:1;fill:#133e00;fill-opacity:1;fill-rule:nonzero;stroke:none;stroke-width:0.01356453;stroke-miterlimit:4;stroke-dasharray:none;stroke-dashoffset:0;stroke-opacity:1"
       d="m 342.7646,103.20958 c -0.44264,-0.022 -1.69634,-0.11129 -2.78595,-0.1984 -1.08964,-0.0871 -3.73632,-0.18449 -5.8815,-0.21637 -4.05133,-0.0602 -5.59375,-0.17312 -9.34847,-0.6843 -6.994,-0.95218 -14.69901,-2.886027 -25.07369,-6.293125 -4.08652,-1.342026 -13.01838,-4.374933 -13.28632,-4.511506 -0.20222,-0.103057 -0.17804,-0.197592 0.25659,-1.003411 2.05285,-3.806097 7.228,-6.436544 15.75377,-8.007388 2.96154,-0.545654 5.76019,-0.898926 12.45023,-1.571588 8.26175,-0.830691 10.68351,-1.168191 12.65045,-1.762992 l 0.89373,-0.27026 0.0396,1.57202 0.0396,1.57202 0.0262,-1.586906 0.0262,-1.586902 0.65008,-0.157575 c 1.32168,-0.320372 2.94532,-0.455487 5.4878,-0.456675 l 2.60901,-0.0013 1.12474,1.523142 c 4.2949,5.816181 8.11959,12.705297 11.38793,20.512236 0.64564,1.54218 1.15004,2.83257 1.12091,2.86752 -0.16989,0.20389 -5.71677,0.38219 -8.14107,0.26168 z"
       id="path1061"
       inkscape:connector-curvature="0" />
    <path
       style="opacity:1;fill:#2b8700;fill-opacity:1;fill-rule:nonzero;stroke:none;stroke-width:0.00905084;stroke-miterlimit:4;stroke-dasharray:none;stroke-dashoffset:0;stroke-opacity:1"
       d="m 298.1076,202.69132 -0.26501,-0.77141 -0.6706,-0.22418 c -3.46398,-1.15797 -4.57068,-1.54108 -6.19076,-2.14305 -15.89566,-5.90633 -24.87564,-13.10086 -26.2012,-20.99173 -0.22511,-1.34005 -0.14756,-3.39228 0.17674,-4.67667 0.48792,-1.93231 1.31516,-3.66628 2.63156,-5.51593 1.02204,-1.43605 1.9752,-2.48692 3.61644,-3.98711 6.106,-5.5812 15.75576,-10.10762 27.71454,-13.00008 1.02111,-0.24698 1.86833,-0.4363 1.88273,-0.42071 0.0144,0.0156 0.0915,0.14653 0.17134,0.291 0.0798,0.14446 0.55269,0.73545 1.05076,1.31331 0.49807,0.57786 1.01161,1.21989 1.14119,1.42672 0.12958,0.20684 0.25525,0.35767 0.27926,0.3352 0.0837,-0.0783 -0.44088,-0.80599 -1.33314,-1.84947 -0.8239,-0.96351 -1.22663,-1.5139 -1.14938,-1.57078 0.0167,-0.0123 0.2829,-0.0705 0.59165,-0.12949 0.30875,-0.059 1.27713,-0.24375 2.15195,-0.41064 4.31347,-0.82292 9.17252,-1.41494 13.91287,-1.69515 2.30098,-0.13601 6.80383,-0.20939 8.42437,-0.13728 l 1.47292,0.0655 -0.0441,0.23159 -0.044,0.23159 0.10959,-0.24078 c 0.0602,-0.13243 0.17583,-0.24077 0.25684,-0.24077 0.80419,0 6.27163,0.40945 6.57645,0.49251 0.09,0.0245 0.16373,0.009 0.16373,-0.0347 0,-0.0923 -2.44373,-0.32092 -5.03281,-0.4708 -1.57881,-0.0914 -1.79785,-0.12181 -1.74811,-0.24275 0.12692,-0.30878 0.41373,-1.59454 0.54839,-2.45845 0.23578,-1.51249 0.33397,-2.90409 0.47823,-6.77837 0.0755,-2.02642 0.16215,-3.89194 0.19263,-4.14561 l 0.0554,-0.46121 1.37309,0.67134 c 2.37245,1.15996 6.43463,3.2068 11.61815,5.85413 11.9248,6.09024 16.4343,8.20675 22.87591,10.73677 1.08065,0.42443 1.96308,0.80245 1.96096,0.84005 -0.003,0.0376 -2.21254,1.35938 -4.91201,2.93727 -15.46487,9.0395 -17.45801,10.22502 -23.29309,13.85487 -7.36334,4.58053 -13.00732,8.38743 -18.15106,12.24298 -9.3665,7.02084 -16.44521,13.88539 -21.14109,20.50154 -0.47847,0.67417 -0.89616,1.25194 -0.92814,1.28394 -0.032,0.032 -0.17745,-0.28895 -0.3232,-0.71323 z"
       id="path1089"
       inkscape:connector-curvature="0" />
    <path
       style="display:inline;opacity:1;fill:#2b8700;fill-opacity:1;fill-rule:nonzero;stroke:none;stroke-width:0.01905841;stroke-miterlimit:4;stroke-dasharray:none;stroke-dashoffset:0;stroke-opacity:1"
       d="m 159.71266,218.37067 c -74.955879,-1.14152 -142.15707,-2.16405 -149.335978,-2.27232 -12.5945406,-0.18992 -13.0820256,-0.21146 -13.8922125,-0.61362 -1.1437962,-0.56776 -2.5371519,-1.66667 -2.3521163,-1.85506 0.44795,-0.45608 8.7122968,-3.52368 13.8244499,-5.13143 25.3780829,-7.98132 65.9251069,-14.38546 111.2756369,-17.57526 21.31847,-1.49948 44.4574,-1.72034 64.1405,-0.61226 42.10599,2.37041 78.95292,10.72776 113.47771,25.73817 2.52942,1.09972 3.37335,1.55189 3.37335,1.80742 0,0.18744 -0.22263,0.83406 -0.49475,1.43693 l -0.49475,1.09611 -1.61921,0.0284 c -0.89058,0.0156 -62.94675,-0.90556 -137.90263,-2.04708 z"
       id="path1119"
       inkscape:connector-curvature="0" />
    <path
       style="display:inline;opacity:1;fill:#2b8700;fill-opacity:1;fill-rule:nonzero;stroke:none;stroke-width:0.01107673;stroke-miterlimit:4;stroke-dasharray:none;stroke-dashoffset:0;stroke-opacity:1"
       d="m -13.338072,214.38605 c -0.850678,-1.87326 -1.980496,-4.84457 -2.072832,-5.45133 l -0.05646,-0.37104 1.73088,-1.04123 c 5.6485178,-3.0736 0.429907,-0.6197 7.2077782,-3.9506 7.6905416,-3.75731 14.7460595,-5.90869 22.1896318,-6.76613 1.84331,-0.21234 7.679256,-0.21082 9.323894,0.002 6.192496,0.80292 11.703563,2.75875 15.94241,5.65783 0.852996,0.58339 0.861291,0.59348 0.434792,0.52859 -2.3761,-0.36151 -7.35034,-0.45824 -10.386721,-0.20196 -11.326085,0.95589 -26.0488749,5.37951 -41.206443,12.38098 -1.141292,0.52717 -2.128838,0.95849 -2.194547,0.95849 -0.06571,0 -0.47628,-0.78571 -0.912381,-1.74603 z"
       id="path1123"
       inkscape:connector-curvature="0"
       sodipodi:nodetypes="cccccccscccscc" />
    <path
       style="display:inline;opacity:1;fill:#1f6300;fill-opacity:1;fill-rule:nonzero;stroke:none;stroke-width:0.01238208;stroke-miterlimit:4;stroke-dasharray:none;stroke-dashoffset:0;stroke-opacity:1"
       d="M 103.20195,86.27919 C 97.243347,83.70433 93.275997,81.69045 81.223777,75.1227 c -2.96241,-1.61434 -6.62586,-3.58885 -8.14099,-4.3878 -2.44441,-1.28899 -2.7486,-1.48286 -2.7001,-1.72086 0.03,-0.14753 0.0896,-0.68612 0.13229,-1.19688 0.10231,-1.22354 0.48628,-3.19587 0.81375,-4.17988 0.14436,-0.43382 0.23609,-0.81514 0.20386,-0.84737 -0.0775,-0.0775 -0.65772,1.80242 -0.83521,2.70602 -0.077,0.39181 -0.21494,1.35768 -0.30662,2.14639 -0.0917,0.7887 -0.19323,1.46052 -0.22564,1.49292 -0.0324,0.0324 -0.77526,-0.29984 -1.65079,-0.73832 -2.74606,-1.37527 -6.05806,-2.85491 -9.33066,-4.1685 -22.00939,-8.834386 -44.404674,34.422264 -78.479034,16.301163 -14.97266,-7.962614 -12.54587,-51.862822 -13.170056,-61.387184 0.046,-0.04131 0.72442,-0.246467 1.50759,-0.455893 11.78749,-3.152074 24.4613,-2.984283 40.4687796,0.535773 5.2369304,1.151602 9.6851504,2.320399 21.1939504,5.568826 16.45375,4.644165 23.15059,6.202672 31.32666,7.290416 4.05035,0.538859 6.38914,0.701231 11.82487,0.820947 2.72407,0.05999 5.84435,0.172715 6.93396,0.250492 1.9182,0.136919 7.41632,0.08519 8.80234,-0.08282 l 0.63019,-0.07639 1.00269,2.274614 c 5.0958,11.55979 8.54519,23.557346 13.273963,46.169076 0.61955,2.96241 1.15591,5.48372 1.19192,5.60289 0.0397,0.13143 0.003,0.21379 -0.0976,0.20933 -0.0897,-0.004 -1.16607,-0.44076 -2.39191,-0.97047 z"
       id="path1063-1"
       inkscape:connector-curvature="0"
       sodipodi:nodetypes="csccccscccscscssssccsccccccc" />
  </g>
  <g
     inkscape:groupmode="layer"
     id="layer4"
     inkscape:label="Layer 4"
     style="display:inline">
    <path
       style="display:inline;opacity:1;fill:#9b7653;fill-opacity:1;fill-rule:nonzero;stroke:none;stroke-width:0.09359679;stroke-miterlimit:4;stroke-dasharray:none;stroke-dashoffset:0;stroke-opacity:1"
       d="m 519.20387,507.86654 c -6.63724,-3.259 -15.11017,-8.39353 -20.00248,-12.12134 -9.96174,-7.59059 -26.58883,-24.39094 -35.29273,-35.66051 -48.12701,-62.31349 -90.32313,-173.92673 -117.81932,-311.64462 -2.51451,-12.59419 -9.41582,-22.85279 -9.26949,-22.99912 0.85262,-0.85262 25.63376,-4.5009 29.82141,-0.32909 10.11491,10.07668 0,0 12.95129,7.40042 44.35836,25.34653 51.07536,139.69613 136.34123,243.73699 102.05837,124.53094 228.65243,239.72855 291.1194,264.91179 4.21337,1.69859 9.32608,4.13968 11.36158,5.42464 19.50897,12.31547 49.80974,21.28387 71.91004,21.28387 13.29097,0 17.19485,-1.36017 25.78639,-8.98437 55.81523,-49.53082 111.70541,-81.30511 161.45451,-91.78886 11.0215,-2.32261 14.0187,-2.56555 31.8229,-2.57942 19.6719,-0.0154 25.0334,0.64489 29.0424,3.57639 1.0129,0.74062 1.5959,1.5922 1.2958,1.89242 -0.3003,0.30022 -5.7751,1.9837 -12.1662,3.74108 -60.99,16.77046 -104.9759,48.39164 -113.6528,81.70436 -1.6007,6.14574 -1.791,18.45387 -0.3804,24.60598 2.6587,11.5953 12.9986,26.81096 25.4199,37.40679 16.9504,14.45921 44.4517,29.52048 74.1851,40.62797 13.5783,5.07243 16.098,6.32163 17.1834,8.51917 0.997,2.01866 1.0364,3.09194 0.1822,4.96652 -0.9357,2.05375 -0.8982,2.23261 0.2654,1.26692 1.1352,-0.94218 1.5189,-0.3988 2.3677,3.35237 2.4301,10.74165 3.1912,17.40443 3.2907,28.81197 0.1411,16.16124 -0.7148,18.95471 -5.038,16.44272 -0.7722,-0.44866 -10.4594,-4.19121 -21.5272,-8.31677 C 977.93131,763.93932 840.80755,738.36195 676.97139,732.36978 643.16426,731.13331 536.83114,731.72742 507.09322,733.31892 295.68345,744.63309 113.22239,771.7836 18.952982,805.955 l -11.9214371,4.32136 -4.1469285,-4.04769 c -4.1657797,-4.06611 -14.3176204,-16.75093 -14.3176204,-17.89 0,-0.69166 27.104726,-9.44733 42.504408,-13.73024 27.175073,-7.55784 56.010867,-11.72033 76.707296,-11.0728 14.77893,0.4624 14.98647,0.008 2.24259,-4.90622 -15.639658,-6.03129 -21.627036,-6.98223 -43.768957,-6.95153 -18.218346,0.0253 -21.203101,0.26285 -31.529801,2.50984 -13.697884,2.98051 -26.9488058,6.99675 -37.7318243,11.43621 l -7.9557277,3.27543 -3.609587,-3.94924 c -1.985272,-2.17207 -4.408885,-5.51597 -5.385805,-7.4309 -2.165153,-4.24405 -4.76667,-14.97056 -3.842268,-15.84234 0.720399,-0.67939 19.9733768,-2.90781 40.448714,-4.68171 8.459122,-0.73287 47.903319,-1.18257 119.335906,-1.36055 125.013,-0.31148 149.30433,-1.21218 188.52944,-6.99043 30.63416,-4.5127 50.65548,-5.98004 107.70441,-7.89349 57.94087,-1.94338 84.00955,-4.08538 97.3957,-8.00278 8.24949,-2.41419 23.16691,-9.86739 31.76787,-15.87221 4.39551,-3.06877 16.46704,-14.44375 32.29089,-30.42765 26.96666,-27.23943 31.1832,-30.57803 44.45848,-35.2016 5.13753,-1.78933 8.08497,-2.12672 18.95006,-2.16923 7.07645,-0.0277 12.86775,-0.31362 12.86956,-0.63541"
       id="path1125"
       inkscape:connector-curvature="0"
       transform="scale(0.26458333)"
       sodipodi:nodetypes="csssssssccssccccccccsccccccssssccssscccccccsssssccsccc" />
    <path
       style="display:inline;opacity:1;fill:#2b8700;fill-opacity:1;fill-rule:nonzero;stroke:none;stroke-width:0.02571246;stroke-miterlimit:4;stroke-dasharray:none;stroke-dashoffset:0;stroke-opacity:1"
       d="m -6.8105193,192.20308 c -9.9373397,-30.52242 -17.8782347,-64.38025 -20.3876557,-86.92746 -0.657757,-5.909968 -0.655708,-18.802455 0.0035,-22.343385 5.438784,-7.761441 13.180484,-17.754801 21.059358,-20.180093 0.1042244,-0.0029 20.943532,-2.462179 22.701082,-1.227745 10.013912,7.03339 26.786176,2.011022 43.609404,10.941837 13.940981,7.400735 11.976367,9.310316 73.560261,57.972356 20.0238,15.8223 26.16518,22.78457 37.37235,29.30029 4.89501,2.84592 15.51046,5.67447 15.80476,6.13878 0.12814,0.20217 -0.20207,0.23371 -1.15546,0.11038 -1.83636,-0.23753 -5.46946,0.24347 -7.51805,0.99536 -3.45533,1.26818 -4.54623,2.13012 -12.18698,9.62898 -7.56801,7.42751 -8.83771,8.45082 -13.01939,10.49302 -5.25037,2.56411 -10.6289,3.25177 -30.20501,3.86187 -16.34133,0.50927 -20.77899,0.81093 -29.944628,2.03551 -13.63937,1.82228 -19.943494,2.0627 -52.431437,1.99952 -17.659265,-0.0344 -27.819234,0.0462 -31.1531196,0.24702 -4.7162469,0.28408 -11.6672072,0.9001 -13.7162531,1.21559 l -0.9572401,0.14738 z"
       id="path1067"
       inkscape:connector-curvature="0"
       sodipodi:nodetypes="csccssscccccsscccccc" />
    <path
       style="display:inline;opacity:1;fill:#2b8700;fill-opacity:1;fill-rule:nonzero;stroke:none;stroke-width:0.02628144;stroke-miterlimit:4;stroke-dasharray:none;stroke-dashoffset:0;stroke-opacity:1"
       d="m 137.50889,135.17803 c -5.40833,-2.48172 -15.25527,-6.76046 -30.76887,-13.36988 C 81.299197,110.96935 73.271942,107.37152 60.45408,101.06274 45.684848,93.793506 35.468163,88.028948 23.849726,80.409466 15.281559,74.790382 6.4594246,68.337081 0.25367048,63.149195 L -0.66360246,62.382373 2.1104129,60.775957 C 5.9821433,58.533859 14.165573,54.591228 19.207752,52.538767 36.928218,45.325493 49.025349,39.456799 81.947647,33.535015 c 5.228315,-0.940426 8.163375,-0.719009 8.27527,-0.541265 0.09354,0.148582 1.790818,2.71336 2.039739,4.100478 1.421482,7.9213 5.63324,22.903087 8.295904,31.938416 9.9573,33.788626 26.26454,55.923526 40.40503,67.154796 0.58,0.46067 0.93517,0.83279 0.78928,0.82694 -0.14588,-0.006 -2.05567,-0.83221 -4.24398,-1.83635 z"
       id="path1069"
       inkscape:connector-curvature="0"
       sodipodi:nodetypes="csssscsssccsccc" />
    <path
       style="display:inline;opacity:1;fill:#1f6300;fill-opacity:1;fill-rule:nonzero;stroke:none;stroke-width:0.01238208;stroke-miterlimit:4;stroke-dasharray:none;stroke-dashoffset:0;stroke-opacity:1"
       d="m 361.43746,152.04522 c -12.46625,-6.0324 -32.28023,-16.78817 -34.68762,-17.88227 -2.74605,-1.37527 -6.05806,-2.85491 -9.33066,-4.1685 -22.00939,-8.8344 -39.85183,-17.41 -73.9262,-35.531102 -14.97266,-7.962615 -17.79913,-9.486448 -17.72289,-9.554925 0.046,-0.04131 0.72442,-0.246467 1.50759,-0.455893 11.78749,-3.152074 24.4613,-2.984283 40.46878,0.535774 5.23693,1.151601 9.68516,2.320398 21.19395,5.568825 16.45375,4.644165 23.15059,6.202672 31.32667,7.290417 4.05034,0.538858 6.38913,0.70123 11.82486,0.820946 2.72407,0.05999 5.84435,0.172715 6.93396,0.250492 1.9182,0.136919 7.41632,0.08519 8.80234,-0.08282 l 0.63019,-0.07639 1.00269,2.274616 c 5.0958,11.55979 8.5452,23.55735 13.27396,46.16908 0.61955,2.96241 1.15591,5.48371 1.19192,5.60289 0.0397,0.13143 0.003,0.21379 -0.0976,0.20933 -0.0897,-0.004 -1.16607,-0.44076 -2.39191,-0.97047 z"
       id="path1063"
       inkscape:connector-curvature="0"
       sodipodi:nodetypes="cccscssssccsccccccc" />
    <path
       style="display:inline;opacity:1;fill:#1f6300;fill-opacity:1;fill-rule:nonzero;stroke:none;stroke-width:0.01238208;stroke-miterlimit:4;stroke-dasharray:none;stroke-dashoffset:0;stroke-opacity:1"
       d="m 246.51923,91.732606 c 16.6414,-3.263043 19.78891,-3.898818 19.73588,-3.986511 -0.032,-0.0529 -0.6214,-0.446529 -1.30979,-0.874709 -10.36091,-6.444533 -22.5355,-9.970568 -38.87472,-11.258993 -5.34546,-0.421519 -9.94133,-0.597167 -21.89737,-0.836893 -17.09318,-0.342735 -23.95378,-0.799603 -32.09273,-2.137159 -4.03194,-0.66261 -6.31683,-1.187569 -11.55234,-2.65418 -2.62373,-0.734984 -5.64188,-1.534764 -6.70699,-1.777297 -1.87509,-0.426969 -7.12042,-2.07576 -8.39763,-2.639672 l -0.58072,-0.256397 -1.62098,1.8846 c 31.37618,76.263105 45.99165,35.158685 103.29739,24.537211 z"
       id="path1063-9"
       inkscape:connector-curvature="0"
       sodipodi:nodetypes="cccssscccccc" />
    <path
       style="display:inline;opacity:1;fill:#2b8700;fill-opacity:1;fill-rule:nonzero;stroke:none;stroke-width:0.02595972;stroke-miterlimit:4;stroke-dasharray:none;stroke-dashoffset:0;stroke-opacity:1"
       d="m 236.91543,181.66158 c -5.55703,-0.71131 -13.81525,-3.49535 -17.10064,-5.76503 -0.3812,-0.26335 -1.84367,-0.93836 -3.24994,-1.50002 C 196.33572,166.31704 153.38987,126.37494 124.77956,89.030967 107.18668,66.067614 97.646759,47.808148 96.823406,35.522718 c -0.187904,-2.803847 -0.143799,-2.885806 1.190096,-2.211302 0.403215,0.203888 2.612358,0.785432 4.909228,1.292323 28.91131,6.380349 60.87521,18.770432 101.96515,39.524488 9.85518,4.977735 15.00949,7.635471 36.88418,19.018738 41.51867,21.605695 60.17091,30.464605 82.95659,39.400355 2.59897,1.01922 6.586,2.72375 8.86008,3.78785 l 4.1347,1.93472 -0.0102,2.46301 c -0.0137,3.44764 -0.39946,8.5758 -0.79121,10.5169 l -0.33023,1.63622 -1.86273,-0.16026 c -4.20202,-0.36155 -14.52567,0.50547 -21.15472,1.77664 -2.88281,0.5528 -3.32022,0.58312 -3.57422,0.24778 -0.53951,-0.71225 -2.1668,-1.15232 -5.27522,-1.42656 -16.14231,-1.42417 -35.99144,7.382 -57.12965,25.34587 -1.70382,1.44796 -3.16099,2.47166 -3.77441,2.65163 -1.08145,0.31728 -5.41708,0.53103 -6.90587,0.34046 z"
       id="path1065"
       inkscape:connector-curvature="0" />
  </g>
</svg>
