<?xml version="1.0" encoding="UTF-8" standalone="no"?>
<!-- Created with Inkscape (http://www.inkscape.org/) -->

<svg
   xmlns:dc="http://purl.org/dc/elements/1.1/"
   xmlns:cc="http://creativecommons.org/ns#"
   xmlns:rdf="http://www.w3.org/1999/02/22-rdf-syntax-ns#"
   xmlns:svg="http://www.w3.org/2000/svg"
   xmlns="http://www.w3.org/2000/svg"
   xmlns:sodipodi="http://sodipodi.sourceforge.net/DTD/sodipodi-0.dtd"
   xmlns:inkscape="http://www.inkscape.org/namespaces/inkscape"
   width="115.50265mm"
   height="115.50264mm"
   viewBox="0 0 115.50265 115.50264"
   version="1.1"
   id="svg8"
   inkscape:version="0.92.4 (5da689c313, 2019-01-14)"
   sodipodi:docname="percentage.svg">
  <defs
     id="defs2" />
  <sodipodi:namedview
     id="base"
     pagecolor="#ffffff"
     bordercolor="#666666"
     borderopacity="1.0"
     inkscape:pageopacity="0.0"
     inkscape:pageshadow="2"
     inkscape:zoom="1"
     inkscape:cx="102.43536"
     inkscape:cy="94.793447"
     inkscape:document-units="mm"
     inkscape:current-layer="layer3"
     showgrid="true"
     inkscape:window-width="1920"
     inkscape:window-height="1017"
     inkscape:window-x="-8"
     inkscape:window-y="-8"
     inkscape:window-maximized="1">
    <inkscape:grid
       type="xygrid"
       id="grid1587"
       originx="-90.748679"
       originy="-47.24868" />
  </sodipodi:namedview>
  <metadata
     id="metadata5">
    <rdf:RDF>
      <cc:Work
         rdf:about="">
        <dc:format>image/svg+xml</dc:format>
        <dc:type
           rdf:resource="http://purl.org/dc/dcmitype/StillImage" />
        <dc:title></dc:title>
      </cc:Work>
    </rdf:RDF>
  </metadata>
  <g
     inkscape:label="Layer 1"
     inkscape:groupmode="layer"
     id="layer1"
     transform="translate(-90.748675,-134.24868)"
     style="display:inline;opacity:1">
    <circle
       style="display:inline;opacity:1;fill:#ffffff;fill-opacity:1;fill-rule:nonzero;stroke:none;stroke-width:3.13248014;stroke-miterlimit:4;stroke-dasharray:none;stroke-dashoffset:0;stroke-opacity:1"
       id="path5239"
       cx="148.5"
       cy="192"
       r="54.191906" />
  </g>
  <g
     inkscape:groupmode="layer"
     id="layer2"
     inkscape:label="Layer 2"
     style="display:inline"
     transform="translate(-90.748675,-47.248677)" />
  <g
     inkscape:groupmode="layer"
     id="layer3"
     inkscape:label="Layer 3"
     style="display:inline"
     transform="translate(-90.748675,-47.248677)">
    <g
       aria-label="%"
       transform="matrix(0.84122829,0,0,0.84122829,-315.56884,-455.60271)"
       style="font-style:normal;font-weight:normal;font-size:96px;line-height:1.25;font-family:sans-serif;letter-spacing:0px;word-spacing:0px;fill:#000000;fill-opacity:1;stroke:none"
       id="flowRoot5193">
      <path
         d="m 541.4375,650.84738 q 0,10.5 -4.45313,15.60938 -4.40625,5.10937 -12.75,5.10937 -8.53125,0 -12.89062,-5.10937 -4.35938,-5.10938 -4.35938,-15.5625 0,-10.5 4.45313,-15.60938 4.45312,-5.10937 12.79687,-5.10937 8.48438,0 12.84375,5.15625 4.35938,5.15625 4.35938,15.51562 z m 32.39062,-19.35937 -36.5625,69.79687 h -7.73437 l 36.5625,-69.79687 z m 22.5,50.4375 q 0,10.5 -4.45312,15.60937 -4.45313,5.10938 -12.79688,5.10938 -8.48437,0 -12.84375,-5.15625 -4.35937,-5.15625 -4.35937,-15.51563 0,-10.5 4.40625,-15.60937 4.45312,-5.10938 12.79687,-5.10938 8.53125,0 12.89063,5.10938 4.35937,5.10937 4.35937,15.5625 z m -63.23437,-31.07813 q 0,-8.0625 -2.10938,-11.25 -2.0625,-3.1875 -6.75,-3.1875 -4.78125,0 -6.84375,3.1875 -2.0625,3.1875 -2.0625,11.29688 0,8.10937 2.0625,11.29687 2.0625,3.14063 6.84375,3.14063 4.6875,0 6.75,-3.14063 2.10938,-3.1875 2.10938,-11.34375 z m 54.89062,31.07813 q 0,-8.0625 -2.10937,-11.25 -2.0625,-3.1875 -6.75,-3.1875 -4.78125,0 -6.84375,3.1875 -2.0625,3.1875 -2.0625,11.29687 0,8.10938 2.0625,11.29688 2.0625,3.14062 6.84375,3.14062 4.6875,0 6.75,-3.14062 2.10937,-3.1875 2.10937,-11.34375 z"
         id="path5234"
         inkscape:connector-curvature="0" />
    </g>
    <path
       style="opacity:1;fill:#ff0000;fill-opacity:1;fill-rule:nonzero;stroke:none;stroke-width:0.3039543;stroke-miterlimit:4;stroke-dasharray:none;stroke-dashoffset:0;stroke-opacity:1"
       d="M 148.5,47.248677 A 57.751322,57.751322 0 0 0 90.748675,105 57.751322,57.751322 0 0 0 148.5,162.75132 57.751322,57.751322 0 0 0 206.25132,105 57.751322,57.751322 0 0 0 148.5,47.248677 Z m 0,5.803035 A 51.948259,51.948259 0 0 1 200.44828,105 51.948259,51.948259 0 0 1 148.5,156.94828 51.948259,51.948259 0 0 1 96.551715,105 51.948259,51.948259 0 0 1 148.5,53.051712 Z"
       id="path5208"
       inkscape:connector-curvature="0" />
  </g>
  <g
     inkscape:groupmode="layer"
     id="layer4"
     inkscape:label="Layer 4"
     style="display:inline"
     transform="translate(-90.748675,-47.248677)" />
</svg>
