<?xml version="1.0" encoding="UTF-8" standalone="no"?>
<!-- Created with Inkscape (http://www.inkscape.org/) -->

<svg
   xmlns:dc="http://purl.org/dc/elements/1.1/"
   xmlns:cc="http://creativecommons.org/ns#"
   xmlns:rdf="http://www.w3.org/1999/02/22-rdf-syntax-ns#"
   xmlns:svg="http://www.w3.org/2000/svg"
   xmlns="http://www.w3.org/2000/svg"
   xmlns:sodipodi="http://sodipodi.sourceforge.net/DTD/sodipodi-0.dtd"
   xmlns:inkscape="http://www.inkscape.org/namespaces/inkscape"
   width="297mm"
   height="210mm"
   viewBox="0 0 297 210"
   version="1.1"
   id="svg8"
   inkscape:version="0.92.4 (5da689c313, 2019-01-14)"
   sodipodi:docname="portugal_map.svg">
  <defs
     id="defs2">
    <inkscape:path-effect
       effect="skeletal"
       id="path-effect4959"
       is_visible="true"
       pattern="m 49.837743,140.89584 v 23.74225 h 1.452986 v -23.74225 z m 11.016424,0 v 30.21718 h 1.63895 v -30.21718 z m 11.202388,0 v 23.74225 h 1.452988 v -23.74225 z m 10.881292,0 v 40.78701 h 1.906733 v -40.78701 z m -44.435141,0.22343 v 40.78699 h 1.907976 v -40.78699 z"
       copytype="repeated_stretched"
       prop_scale="1"
       scale_y_rel="false"
       spacing="0"
       normal_offset="0"
       tang_offset="0"
       prop_units="false"
       vertical_pattern="false"
       fuse_tolerance="0" />
    <inkscape:path-effect
       effect="skeletal"
       id="path-effect4821"
       is_visible="true"
       pattern="M 0,0 H 1"
       copytype="repeated_stretched"
       prop_scale="1"
       scale_y_rel="false"
       spacing="0"
       normal_offset="0"
       tang_offset="0"
       prop_units="false"
       vertical_pattern="false"
       fuse_tolerance="0" />
    <inkscape:path-effect
       effect="skeletal"
       id="path-effect1032"
       is_visible="true"
       pattern="m 214,186.20126 c 0,0.33344 -0.003,0.66683 -0.009,1.00013 -0.006,0.33329 -0.0157,0.66649 -0.0282,0.99955 -0.0125,0.33305 -0.0281,0.66596 -0.0468,0.99867 -0.0187,0.33272 -0.0405,0.66523 -0.0653,0.99751 -0.0248,0.33228 -0.0528,0.66431 -0.0837,0.99605 -0.0309,0.33174 -0.065,0.66318 -0.10198,0.99429 -0.037,0.3311 -0.0771,0.66186 -0.12012,0.99223 -0.0431,0.33037 -0.0891,0.66035 -0.13815,0.98989 -0.049,0.32954 -0.10107,0.65864 -0.15605,0.98725 -0.055,0.32861 -0.11294,0.65673 -0.17383,0.98431 -0.0609,0.32758 -0.12473,0.65462 -0.19149,0.98108 -0.0668,0.32645 -0.13644,0.65232 -0.20902,0.97755 -0.0726,0.32523 -0.14807,0.64982 -0.22643,0.97373 -0.0784,0.3239 -0.15962,0.64712 -0.24373,0.96961 -0.0841,0.32248 -0.17108,0.64423 -0.26089,0.9652 -0.0898,0.32096 -0.18247,0.64115 -0.27794,0.96049 -0.0955,0.31935 -0.19377,0.63786 -0.29486,0.9555 -0.1011,0.31763 -0.20499,0.63437 -0.31167,0.95019 -0.10667,0.31582 -0.21613,0.6307 -0.32834,0.9446 -0.11222,0.31391 -0.22719,0.62683 -0.34491,0.93872 -0.11771,0.31189 -0.23816,0.62275 -0.36133,0.93254 -0.12317,0.30978 -0.24906,0.61848 -0.37765,0.92606 -0.12859,0.30757 -0.25988,0.61402 -0.39385,0.91928 -0.13396,0.30527 -0.2706,0.60936 -0.40991,0.91223 -0.1393,0.30286 -0.28126,0.6045 -0.42585,0.90486 -0.1446,0.30036 -0.29183,0.59944 -0.44168,0.8972 -0.14986,0.29776 -0.30232,0.59419 -0.45739,0.88925 -0.15506,0.29506 -0.31272,0.58875 -0.47296,0.88101 -0.16024,0.29226 -0.32305,0.5831 -0.48842,0.87247 -0.16537,0.28936 -0.3333,0.57726 -0.50376,0.86363 -0.17046,0.28637 -0.34346,0.57122 -0.51897,0.8545 -0.17552,0.28328 -0.35354,0.56498 -0.53407,0.84507 -0.18052,0.28009 -0.36354,0.55856 -0.54903,0.83535 -0.18549,0.2768 -0.37346,0.55193 -0.56388,0.82534 -0.19042,0.27341 -0.38329,0.5451 -0.5786,0.81503 -0.19531,0.26992 -0.39305,0.53808 -0.59321,0.80442 -0.20016,0.26634 -0.40273,0.53086 -0.60769,0.79352 -0.20496,0.26266 -0.41232,0.52345 -0.62204,0.78233 -0.20973,0.25887 -0.42183,0.51583 -0.63629,0.77083 -0.21445,0.255 -0.43126,0.50803 -0.65039,0.75905 -0.21914,0.25102 -0.44061,0.50003 -0.66439,0.74697 -0.22378,0.24695 -0.44988,0.49183 -0.67826,0.7346 -0.22839,0.24277 -0.45906,0.48342 -0.69201,0.72192 -0.14558,0.14905 -0.29205,0.29726 -0.4394,0.44461 -0.0884,0.0884 -0.17716,0.17653 -0.2662,0.26432 -0.23741,0.23408 -0.477,0.4659 -0.71871,0.69543 -0.24171,0.22953 -0.48555,0.45677 -0.73146,0.6817 -0.24591,0.22494 -0.49389,0.44757 -0.7439,0.66787 -0.25001,0.2203 -0.50205,0.43828 -0.75606,0.6539 -0.25401,0.21563 -0.51,0.42891 -0.76792,0.63983 -0.25791,0.21091 -0.51776,0.41945 -0.77948,0.62561 -0.26172,0.20616 -0.52532,0.40993 -0.79075,0.61129 -0.26543,0.20136 -0.53269,0.40031 -0.80173,0.59684 -0.26903,0.19652 -0.53985,0.39062 -0.8124,0.58226 -0.27255,0.19165 -0.54683,0.38085 -0.82279,0.56757 -0.27596,0.18673 -0.5536,0.37099 -0.83288,0.55276 -0.27927,0.18177 -0.56018,0.36105 -0.84267,0.53781 -0.28249,0.17677 -0.56656,0.35103 -0.85217,0.52276 -0.28561,0.17173 -0.57275,0.34092 -0.86138,0.50757 -0.28862,0.16665 -0.57873,0.33074 -0.87028,0.49227 -0.29155,0.16152 -0.58453,0.32047 -0.8789,0.47683 -0.29437,0.15637 -0.59013,0.31014 -0.88722,0.46129 -0.2971,0.15116 -0.59553,0.29971 -0.89525,0.44562 -0.29972,0.14591 -0.60072,0.2892 -0.90297,0.42982 -0.30225,0.14063 -0.60573,0.27861 -0.91041,0.41391 -0.30468,0.1353 -0.61054,0.26793 -0.91755,0.39787 -0.30701,0.12994 -0.61516,0.25718 -0.92439,0.38171 -0.30924,0.12453 -0.61958,0.24634 -0.93095,0.36542 -0.31137,0.11909 -0.62379,0.23543 -0.9372,0.34903 -0.31341,0.11359 -0.62781,0.22443 -0.94316,0.33249 -0.31535,0.10806 -0.63164,0.21335 -0.94883,0.31584 -0.31718,0.1025 -0.63526,0.2022 -0.95419,0.29908 -0.31893,0.0969 -0.6387,0.19095 -0.95927,0.28218 -0.32057,0.0912 -0.64194,0.17962 -0.96405,0.26516 -0.32212,0.0855 -0.64498,0.16822 -0.96854,0.24803 -0.32356,0.0798 -0.64782,0.15673 -0.97273,0.23077 -0.32491,0.074 -0.65046,0.14516 -0.97662,0.21338 -0.32616,0.0682 -0.65292,0.13352 -0.98023,0.19588 -0.32731,0.0624 -0.65516,0.12179 -0.98353,0.17826 -0.32836,0.0565 -0.65722,0.10997 -0.98654,0.1605 -0.32931,0.0505 -0.65908,0.0981 -0.98925,0.14263 -0.33018,0.0446 -0.66075,0.0861 -0.99168,0.12465 -0.33093,0.0385 -0.66222,0.074 -0.99381,0.10652 -0.33158,0.0325 -0.66348,0.0619 -0.99563,0.0883 -0.33215,0.0264 -0.66456,0.0497 -0.99717,0.0699 -0.33261,0.0202 -0.66543,0.0374 -0.99841,0.0514 -0.33298,0.014 -0.66612,0.025 -0.99936,0.0328 -0.33325,0.008 -0.6666,0.0125 -1.00001,0.0141 -0.0833,3.9e-4 -0.16666,5.9e-4 -0.24999,5.9e-4 -0.25011,0 -0.50019,-0.002 -0.75022,-0.005 -0.33334,-0.005 -0.6666,-0.0126 -0.99972,-0.0235 -0.33312,-0.011 -0.66611,-0.025 -0.99892,-0.0422 -0.33281,-0.0172 -0.66544,-0.0374 -0.99783,-0.0607 -0.33239,-0.0233 -0.66456,-0.0497 -0.99644,-0.0791 -0.33188,-0.0294 -0.66348,-0.0619 -0.99475,-0.0974 -0.33128,-0.0355 -0.66222,-0.074 -0.99278,-0.1156 -0.33057,-0.0416 -0.66075,-0.0861 -0.99051,-0.13365 -0.32975,-0.0476 -0.65908,-0.0981 -0.98793,-0.15159 -0.32885,-0.0535 -0.65723,-0.10998 -0.98507,-0.1694 -0.32785,-0.0594 -0.65517,-0.12179 -0.98192,-0.18708 -0.32674,-0.0653 -0.65291,-0.13352 -0.97846,-0.20466 -0.32554,-0.0711 -0.65046,-0.14516 -0.97471,-0.22209 -0.32424,-0.0769 -0.64782,-0.15674 -0.97067,-0.23941 -0.32285,-0.0827 -0.64497,-0.16823 -0.96633,-0.25662 -0.32135,-0.0884 -0.64193,-0.17963 -0.96169,-0.27369 -0.31977,-0.0941 -0.63871,-0.19095 -0.95677,-0.29064 -0.31807,-0.0997 -0.63527,-0.2022 -0.95155,-0.30748 -0.31628,-0.10528 -0.63164,-0.21335 -0.94603,-0.32419 -0.31439,-0.11083 -0.62781,-0.22443 -0.94022,-0.34077 -0.3124,-0.11635 -0.62379,-0.23543 -0.9341,-0.35724 -0.31032,-0.12182 -0.61957,-0.24635 -0.92771,-0.37359 -0.30813,-0.12724 -0.61515,-0.25718 -0.92101,-0.38981 -0.30585,-0.13262 -0.61054,-0.26793 -0.91401,-0.4059 -0.30348,-0.13797 -0.60574,-0.27861 -0.90673,-0.42188 -0.301,-0.14328 -0.60073,-0.2892 -0.89915,-0.43774 -0.29841,-0.14854 -0.59552,-0.29971 -0.89126,-0.45347 -0.29575,-0.15377 -0.59013,-0.31014 -0.8831,-0.46909 -0.29297,-0.15894 -0.58453,-0.32047 -0.87463,-0.48457 -0.2901,-0.16409 -0.57874,-0.33074 -0.86586,-0.49993 -0.28713,-0.1692 -0.57275,-0.34093 -0.85681,-0.51518 -0.28406,-0.17426 -0.56657,-0.35103 -0.84746,-0.53031 -0.2809,-0.17927 -0.56018,-0.36104 -0.83781,-0.5453 -0.27763,-0.18425 -0.5536,-0.37099 -0.82787,-0.56018 -0.27427,-0.18919 -0.54683,-0.38084 -0.81763,-0.57493 -0.27081,-0.1941 -0.53986,-0.39063 -0.8071,-0.58957 -0.26725,-0.19895 -0.53269,-0.40032 -0.79627,-0.60408 -0.26359,-0.20377 -0.52532,-0.40993 -0.78515,-0.61847 -0.25984,-0.20855 -0.51776,-0.41946 -0.77374,-0.63274 -0.25597,-0.21328 -0.51,-0.42891 -0.76202,-0.64688 -0.25202,-0.21797 -0.50205,-0.43828 -0.75002,-0.6609 -0.24797,-0.22263 -0.49389,-0.44757 -0.73771,-0.67481 -0.24383,-0.22724 -0.48555,-0.45677 -0.72512,-0.68858 -0.2096,-0.20281 -0.41755,-0.40735 -0.62383,-0.61363 -0.0295,-0.0295 -0.059,-0.059 -0.0884,-0.0886 -0.23521,-0.23632 -0.46816,-0.47483 -0.69883,-0.71548 -0.23067,-0.24064 -0.45906,-0.48342 -0.68514,-0.72829 -0.22609,-0.24487 -0.44988,-0.49183 -0.67134,-0.74083 -0.22146,-0.24899 -0.44061,-0.50002 -0.65741,-0.75304 -0.2168,-0.25303 -0.43125,-0.50804 -0.64335,-0.76499 -0.21209,-0.25695 -0.42183,-0.51583 -0.62918,-0.77661 -0.20735,-0.26078 -0.41231,-0.52345 -0.61488,-0.78797 -0.20256,-0.26451 -0.40272,-0.53086 -0.60046,-0.79901 -0.19773,-0.26814 -0.39305,-0.53808 -0.58592,-0.80976 -0.19287,-0.27168 -0.38329,-0.5451 -0.57125,-0.82022 -0.18796,-0.27512 -0.37346,-0.55193 -0.55647,-0.83038 -0.18301,-0.27846 -0.36354,-0.55856 -0.54156,-0.84026 -0.17802,-0.28169 -0.35354,-0.56498 -0.52653,-0.84982 -0.17299,-0.28484 -0.34346,-0.57122 -0.51138,-0.8591 -0.16792,-0.28789 -0.33329,-0.57726 -0.4961,-0.86809 -0.16281,-0.29083 -0.32305,-0.5831 -0.48071,-0.87678 -0.15765,-0.29367 -0.31272,-0.58874 -0.46518,-0.88516 -0.15247,-0.29643 -0.30232,-0.5942 -0.44955,-0.89327 -0.14723,-0.29907 -0.29183,-0.59945 -0.43378,-0.90107 -0.14195,-0.30163 -0.28126,-0.6045 -0.4179,-0.90858 -0.13663,-0.30408 -0.2706,-0.60936 -0.40189,-0.91579 -0.13128,-0.30644 -0.25987,-0.61402 -0.38575,-0.92272 -0.12589,-0.30869 -0.24906,-0.61848 -0.36951,-0.92933 -0.12045,-0.31085 -0.23816,-0.62276 -0.35313,-0.93567 -0.11497,-0.31291 -0.22719,-0.62682 -0.33664,-0.94169 -0.10945,-0.31488 -0.21613,-0.6307 -0.32002,-0.94744 -0.10389,-0.31674 -0.20498,-0.63438 -0.30327,-0.95288 -0.0983,-0.3185 -0.19377,-0.63786 -0.28642,-0.95803 -0.0926,-0.32017 -0.18246,-0.64115 -0.26942,-0.96289 -0.087,-0.32173 -0.17108,-0.64423 -0.25233,-0.96744 -0.0812,-0.32321 -0.15961,-0.64713 -0.23509,-0.97171 -0.0755,-0.32458 -0.14806,-0.64982 -0.21774,-0.97568 -0.0697,-0.32585 -0.13643,-0.65232 -0.20026,-0.97935 -0.0638,-0.32703 -0.12473,-0.65462 -0.18267,-0.98273 -0.0579,-0.32811 -0.11294,-0.65673 -0.16496,-0.98582 -0.052,-0.32908 -0.10106,-0.65863 -0.14711,-0.9886 -0.0461,-0.32997 -0.0891,-0.66035 -0.12915,-0.9911 -0.04,-0.33075 -0.0771,-0.66187 -0.11106,-0.9933 -0.034,-0.33144 -0.065,-0.66319 -0.0929,-0.99521 -0.0279,-0.33202 -0.0528,-0.6643 -0.0745,-0.99681 -0.0218,-0.33251 -0.0405,-0.66523 -0.0561,-0.99813 -0.0156,-0.3329 -0.0281,-0.66596 -0.0375,-0.99915 -0.009,-0.33319 -0.0157,-0.6665 -0.0188,-0.99987 -0.002,-0.16664 -0.002,-0.33329 -0.002,-0.49996 0,-0.16677 7.9e-4,-0.33354 0.002,-0.50028 0.003,-0.33338 0.009,-0.66669 0.0188,-0.99987 0.009,-0.33319 0.0219,-0.66626 0.0375,-0.99915 0.0156,-0.3329 0.0343,-0.66563 0.0561,-0.99813 0.0218,-0.33251 0.0466,-0.6648 0.0745,-0.99682 0.0279,-0.33202 0.0589,-0.66377 0.0929,-0.9952 0.034,-0.33143 0.071,-0.66255 0.11107,-0.9933 0.04,-0.33075 0.0831,-0.66113 0.12916,-0.9911 0.046,-0.32997 0.0951,-0.65952 0.14711,-0.9886 0.052,-0.32909 0.10702,-0.65771 0.16496,-0.98582 0.058,-0.32811 0.11885,-0.6557 0.18268,-0.98273 0.0638,-0.32703 0.13059,-0.6535 0.20027,-0.97935 0.0697,-0.32585 0.14226,-0.6511 0.21775,-0.97568 0.0755,-0.32458 0.15385,-0.6485 0.23509,-0.9717 0.0812,-0.32321 0.16536,-0.64571 0.25233,-0.96745 0.087,-0.32173 0.17678,-0.64271 0.26943,-0.96288 0.0927,-0.32017 0.18813,-0.63953 0.28642,-0.95803 0.0983,-0.3185 0.19939,-0.63614 0.30328,-0.95288 0.1039,-0.31673 0.21058,-0.63256 0.32003,-0.94743 0.10945,-0.31487 0.22167,-0.62879 0.33664,-0.9417 0.11497,-0.31291 0.23269,-0.62481 0.35314,-0.93566 0.12044,-0.31085 0.24362,-0.62064 0.36951,-0.92933 0.12588,-0.30869 0.25448,-0.61628 0.38576,-0.92271 0.13129,-0.30644 0.26526,-0.61172 0.4019,-0.91579 0.13664,-0.30408 0.27594,-0.60696 0.4179,-0.90858 0.14195,-0.30163 0.28655,-0.602 0.43378,-0.90107 0.14723,-0.29907 0.29709,-0.59684 0.44956,-0.89326 0.15246,-0.29643 0.30753,-0.5915 0.46519,-0.88517 0.15765,-0.29367 0.3179,-0.58595 0.48071,-0.87677 0.16281,-0.29083 0.32818,-0.58021 0.49611,-0.86809 0.16792,-0.28788 0.33838,-0.57426 0.51138,-0.8591 0.17299,-0.28483 0.34851,-0.56812 0.52653,-0.84982 0.17803,-0.28169 0.35855,-0.56179 0.54157,-0.84025 0.18301,-0.27845 0.36851,-0.55526 0.55647,-0.83038 0.18796,-0.27511 0.37839,-0.54854 0.57126,-0.82021 0.19287,-0.27168 0.38819,-0.54162 0.58592,-0.80976 0.19774,-0.26815 0.3979,-0.5345 0.60047,-0.79901 0.20257,-0.26451 0.40753,-0.52718 0.61488,-0.78796 0.20736,-0.26078 0.41709,-0.51967 0.62919,-0.77661 0.21209,-0.25695 0.42655,-0.51196 0.64335,-0.76498 0.21681,-0.25302 0.43595,-0.50405 0.65741,-0.75305 0.22147,-0.24899 0.44526,-0.49595 0.67135,-0.74081 0.22608,-0.24487 0.45447,-0.48765 0.68515,-0.7283 0.23067,-0.24064 0.46362,-0.47915 0.69883,-0.71547 0.0294,-0.0295 0.0588,-0.059 0.0882,-0.0884 0.20635,-0.20635 0.41438,-0.41098 0.62406,-0.61385 0.23958,-0.23181 0.4813,-0.46135 0.72512,-0.68858 0.24383,-0.22724 0.48975,-0.45218 0.73772,-0.6748 0.24798,-0.22262 0.498,-0.44293 0.75002,-0.6609 0.25203,-0.21797 0.50605,-0.4336 0.76203,-0.64688 0.25598,-0.21327 0.51391,-0.42419 0.77374,-0.63273 0.25983,-0.20854 0.52156,-0.4147 0.78515,-0.61846 0.26359,-0.20377 0.52903,-0.40513 0.79628,-0.60408 0.26725,-0.19895 0.5363,-0.39547 0.8071,-0.58956 0.27081,-0.19409 0.54337,-0.38574 0.81764,-0.57493 0.27426,-0.1892 0.55024,-0.37593 0.82787,-0.56018 0.27763,-0.18425 0.55692,-0.36603 0.83781,-0.5453 0.2809,-0.17927 0.5634,-0.35604 0.84746,-0.5303 0.28406,-0.17425 0.56968,-0.34598 0.85681,-0.51517 0.28713,-0.16919 0.57577,-0.33584 0.86587,-0.49993 0.2901,-0.16409 0.58166,-0.32562 0.87463,-0.48457 0.29298,-0.15895 0.58736,-0.31531 0.8831,-0.46908 0.29575,-0.15376 0.59285,-0.30492 0.89127,-0.45346 0.29842,-0.14854 0.59816,-0.29446 0.89915,-0.43773 0.301,-0.14328 0.60326,-0.28391 0.90673,-0.42188 0.30348,-0.13797 0.60817,-0.27328 0.91402,-0.4059 0.30585,-0.13263 0.61287,-0.26257 0.92101,-0.3898 0.30814,-0.12724 0.61739,-0.25177 0.92771,-0.37358 0.31032,-0.12181 0.6217,-0.2409 0.93411,-0.35724 0.3124,-0.11634 0.62582,-0.22994 0.94022,-0.34077 0.31439,-0.11083 0.62975,-0.2189 0.94603,-0.32418 0.31628,-0.10528 0.63348,-0.20778 0.95154,-0.30747 0.31807,-0.0997 0.63701,-0.19658 0.95678,-0.29064 0.31976,-0.0941 0.64034,-0.1853 0.96169,-0.27369 0.32136,-0.0884 0.64349,-0.17393 0.96634,-0.25661 0.32285,-0.0827 0.64642,-0.16248 0.97067,-0.23941 0.32424,-0.0769 0.64916,-0.15095 0.97471,-0.22208 0.32555,-0.0711 0.65172,-0.13935 0.97846,-0.20465 0.32675,-0.0653 0.65407,-0.12766 0.98192,-0.18708 0.32784,-0.0594 0.65622,-0.11589 0.98507,-0.16939 0.32885,-0.0535 0.65818,-0.10404 0.98793,-0.15158 0.32976,-0.0476 0.65995,-0.0921 0.99051,-0.13365 0.33056,-0.0416 0.6615,-0.0801 0.99278,-0.1156 0.33127,-0.0355 0.66287,-0.068 0.99475,-0.0974 0.33189,-0.0294 0.66405,-0.0558 0.99644,-0.0791 0.3324,-0.0233 0.66502,-0.0436 0.99783,-0.0607 0.33281,-0.0172 0.6658,-0.0312 0.99892,-0.0422 0.33313,-0.011 0.66638,-0.0188 0.99973,-0.0235 0.24992,-0.004 0.49989,-0.005 0.74989,-0.005 0.0834,0 0.16688,2e-4 0.25031,5.9e-4 0.33341,0.002 0.66677,0.006 1.00001,0.0141 0.33325,0.008 0.66638,0.0188 0.99936,0.0328 0.33298,0.0141 0.6658,0.0312 0.99841,0.0515 0.33262,0.0202 0.66502,0.0436 0.99717,0.0699 0.33215,0.0264 0.66405,0.0558 0.99564,0.0883 0.33159,0.0325 0.66287,0.068 0.9938,0.10653 0.33093,0.0385 0.66151,0.0801 0.99168,0.12465 0.33017,0.0445 0.65994,0.0921 0.98925,0.14264 0.32932,0.0505 0.65818,0.10404 0.98654,0.16051 0.32836,0.0565 0.65622,0.11589 0.98353,0.17826 0.32731,0.0624 0.65407,0.12767 0.98022,0.19589 0.32616,0.0682 0.65172,0.13935 0.97663,0.21339 0.3249,0.074 0.64916,0.15096 0.97272,0.23077 0.32356,0.0798 0.64643,0.16249 0.96854,0.24803 0.32211,0.0855 0.64348,0.17394 0.96405,0.26517 0.32057,0.0912 0.64034,0.1853 0.95927,0.28219 0.31893,0.0969 0.63701,0.19658 0.95419,0.29907 0.31719,0.1025 0.63348,0.20779 0.94883,0.31586 0.31534,0.10806 0.62975,0.2189 0.94316,0.33249 0.3134,0.1136 0.62582,0.22995 0.93719,0.34903 0.31138,0.11908 0.62171,0.2409 0.93095,0.36543 0.30923,0.12453 0.61738,0.25178 0.92439,0.38172 0.307,0.12993 0.61287,0.26257 0.91755,0.39787 0.30467,0.1353 0.60816,0.27328 0.9104,0.41391 0.30225,0.14063 0.60326,0.28392 0.90298,0.42983 0.29971,0.14592 0.59814,0.29446 0.89524,0.44562 0.29709,0.15116 0.59285,0.30493 0.88721,0.4613 0.29437,0.15636 0.58736,0.31532 0.8789,0.47684 0.29155,0.16153 0.58166,0.32562 0.87029,0.49227 0.28862,0.16665 0.57576,0.33585 0.86137,0.50758 0.28561,0.17173 0.56968,0.34599 0.85217,0.52276 0.28249,0.17677 0.56339,0.35605 0.84267,0.53782 0.27927,0.18177 0.55691,0.36603 0.83287,0.55276 0.27596,0.18673 0.55024,0.37593 0.82279,0.56757 0.27254,0.19165 0.54336,0.38575 0.8124,0.58227 0.26903,0.19653 0.53629,0.39548 0.80172,0.59685 0.26543,0.20136 0.52902,0.40513 0.79074,0.61129 0.26173,0.20616 0.52157,0.4147 0.77948,0.62562 0.25792,0.21091 0.51391,0.4242 0.76792,0.63982 0.25401,0.21563 0.50604,0.43361 0.75605,0.65391 0.25001,0.22031 0.49799,0.44294 0.7439,0.66788 0.24591,0.22493 0.48974,0.45218 0.73145,0.68171 0.24171,0.22953 0.4813,0.46134 0.71871,0.69542 0.089,0.0877 0.17762,0.17575 0.26597,0.2641 0.14743,0.14743 0.29397,0.29571 0.43963,0.44484 0.23294,0.2385 0.46362,0.47916 0.692,0.72193 0.22838,0.24277 0.45447,0.48765 0.67825,0.7346 0.22378,0.24694 0.44525,0.49595 0.66439,0.74697 0.21914,0.25102 0.43594,0.50406 0.65039,0.75906 0.21445,0.25499 0.42655,0.51196 0.63628,0.77083 0.20973,0.25888 0.41708,0.51968 0.62204,0.78233 0.20496,0.26266 0.40753,0.52719 0.60768,0.79353 0.20016,0.26634 0.3979,0.5345 0.59321,0.80442 0.1953,0.26993 0.38818,0.54162 0.5786,0.81503 0.19042,0.27342 0.37838,0.54855 0.56387,0.82534 0.18549,0.2768 0.36851,0.55527 0.54903,0.83536 0.18052,0.28009 0.35855,0.5618 0.53406,0.84508 0.17551,0.28328 0.3485,0.56813 0.51896,0.8545 0.17046,0.28637 0.33839,0.57427 0.50376,0.86363 0.16536,0.28937 0.32818,0.58021 0.48841,0.87247 0.16024,0.29227 0.3179,0.58595 0.47296,0.88101 0.15507,0.29506 0.30753,0.5915 0.45738,0.88926 0.14985,0.29776 0.29708,0.59684 0.44168,0.89721 0.14459,0.30036 0.28655,0.60199 0.42585,0.90486 0.1393,0.30286 0.27594,0.60695 0.4099,0.91222 0.13397,0.30527 0.26525,0.61172 0.39384,0.91929 0.12859,0.30758 0.25448,0.61628 0.37765,0.92606 0.12317,0.30979 0.24362,0.62065 0.36133,0.93254 0.11771,0.31189 0.23268,0.62482 0.3449,0.93872 0.11221,0.3139 0.22166,0.62879 0.32833,0.94461 0.10668,0.31581 0.21057,0.63256 0.31166,0.95019 0.1011,0.31764 0.19939,0.63615 0.29486,0.9555 0.0955,0.31935 0.18812,0.63953 0.27794,0.96049 0.0898,0.32097 0.17677,0.64272 0.26088,0.9652 0.0841,0.32249 0.16536,0.64571 0.24372,0.96962 0.0784,0.3239 0.15385,0.6485 0.22643,0.97373 0.0726,0.32523 0.14226,0.6511 0.20902,0.97755 0.0668,0.32646 0.13059,0.6535 0.19148,0.98108 0.0609,0.32758 0.11884,0.6557 0.17382,0.98431 0.055,0.32861 0.10701,0.65771 0.15604,0.98725 0.049,0.32954 0.0951,0.65952 0.13815,0.98989 0.043,0.33037 0.0831,0.66113 0.12012,0.99224 0.037,0.3311 0.071,0.66255 0.10197,0.99429 0.031,0.33173 0.0589,0.66377 0.0837,0.99604 0.0248,0.33228 0.0466,0.6648 0.0653,0.99751 0.0187,0.33272 0.0343,0.66562 0.0468,0.99868 0.0125,0.33305 0.0219,0.66625 0.0282,0.99955 0.006,0.33329 0.009,0.66669 0.009,1.00012"
       copytype="repeated"
       prop_scale="1"
       scale_y_rel="false"
       spacing="0"
       normal_offset="0"
       tang_offset="0"
       prop_units="false"
       vertical_pattern="false"
       fuse_tolerance="0" />
    <inkscape:perspective
       sodipodi:type="inkscape:persp3d"
       inkscape:vp_x="0 : 105 : 1"
       inkscape:vp_y="0 : 1000 : 0"
       inkscape:vp_z="297 : 105 : 1"
       inkscape:persp3d-origin="148.5 : 70 : 1"
       id="perspective871" />
  </defs>
  <sodipodi:namedview
     id="base"
     pagecolor="#ffffff"
     bordercolor="#666666"
     borderopacity="1.0"
     inkscape:pageopacity="0.0"
     inkscape:pageshadow="2"
     inkscape:zoom="0.5"
     inkscape:cx="-11.35981"
     inkscape:cy="501.67165"
     inkscape:document-units="mm"
     inkscape:current-layer="layer2"
     showgrid="true"
     inkscape:window-width="1920"
     inkscape:window-height="1017"
     inkscape:window-x="-8"
     inkscape:window-y="-8"
     inkscape:window-maximized="1">
    <inkscape:grid
       type="xygrid"
       id="grid1587" />
  </sodipodi:namedview>
  <metadata
     id="metadata5">
    <rdf:RDF>
      <cc:Work
         rdf:about="">
        <dc:format>image/svg+xml</dc:format>
        <dc:type
           rdf:resource="http://purl.org/dc/dcmitype/StillImage" />
        <dc:title />
      </cc:Work>
    </rdf:RDF>
  </metadata>
  <g
     inkscape:label="Layer 1"
     inkscape:groupmode="layer"
     id="layer1"
     transform="translate(0,-87)"
     style="display:inline;opacity:1">
    <path
       style="opacity:1;fill:#00633e;fill-opacity:1;fill-rule:nonzero;stroke:#000000;stroke-width:0.02645833;stroke-miterlimit:4;stroke-dasharray:none;stroke-dashoffset:0;stroke-opacity:1"
       d="m 139.3843,89.88166 c -0.14713,0 -0.6668,0.350656 -1.15497,0.77928 -1.04679,0.919088 -2.36832,1.333836 -4.25659,1.335836 -0.79756,8.59e-4 -1.52007,0.151164 -1.72857,0.359668 -0.19701,0.19701 -0.92132,0.442471 -1.60972,0.545703 -1.09221,0.163788 -1.29822,0.299089 -1.61696,1.061951 -0.2009,0.480816 -0.85402,1.266954 -1.45159,1.74718 -0.59758,0.480225 -1.08675,1.019155 -1.08675,1.197343 0,0.178187 -0.51731,0.902241 -1.1498,1.609204 -0.63248,0.706962 -1.28733,1.545595 -1.45521,1.863455 -0.33958,0.64289 -0.4143,5.32351 -0.093,5.82909 0.15887,0.25002 0.5265,0.23595 1.65003,-0.063 1.78052,-0.47383 1.84175,-0.47526 1.84175,-0.0367 0,0.35696 -1.06173,0.96893 -1.68155,0.96893 -0.18363,0 -0.53826,0.14909 -0.78807,0.33176 -0.42838,0.31321 -0.42551,0.47352 0.0532,2.80758 0.29117,1.41961 0.74531,2.79618 1.06505,3.22823 0.68922,0.93219 0.69227,1.04025 0.0284,1.04025 -0.32841,0 -0.5281,0.17566 -0.5271,0.46302 0.006,1.21472 0.57021,5.2238 0.7705,5.47305 0.12443,0.15484 0.30817,0.78052 0.40876,1.39061 0.2588,1.56965 0.75037,1.90531 1.72961,1.18132 0.91932,-0.67968 1.26137,-0.7079 1.87172,-0.15554 0.38805,0.35113 0.54594,0.36135 1.02887,0.0661 0.49438,-0.30218 0.61915,-0.28337 0.93328,0.14005 0.19946,0.2688 0.29844,0.65577 0.22014,0.85989 -0.10599,0.27626 0.10162,0.37104 0.81184,0.37104 h 0.95446 v 1.83451 c 0,1.00917 -0.12207,2.15619 -0.2713,2.54869 -0.38272,1.00663 -0.12657,1.55312 0.86455,1.84588 0.94507,0.27916 1.48505,1.30213 1.13016,2.14044 -0.115,0.27169 -0.18323,0.88097 -0.15193,1.35392 0.0475,0.71787 -0.0361,0.85989 -0.50488,0.85989 -0.30881,0 -0.85255,-0.29134 -1.20871,-0.6475 -0.62802,-0.62803 -0.65602,-0.63202 -0.92345,-0.13229 -0.28617,0.53472 -1.1704,0.69924 -1.43713,0.26768 -0.19489,-0.31534 -2.02148,-0.0494 -2.46031,0.35812 -0.18299,0.16994 -0.47458,1.28275 -0.64802,2.47272 -0.27853,1.91101 -0.26277,2.27349 0.13435,3.10627 0.57393,1.20361 0.56509,1.50503 -0.0796,2.70784 -0.76683,1.43074 -0.69928,1.92133 0.26459,1.92133 0.99111,0 1.0754,0.67645 0.13746,1.10381 -0.71715,0.32677 -1.1881,1.3241 -0.70177,1.48621 0.4246,0.14154 0.37136,0.8941 -0.11214,1.5844 -0.49349,0.70456 -1.09445,0.76483 -1.24747,0.12506 -0.12509,-0.52299 -0.10951,-0.55365 -0.85008,1.65364 -0.82328,2.45389 -1.1785,3.88585 -1.5999,6.44612 -0.23081,1.4023 -0.85036,4.06384 -1.37666,5.91437 -0.80195,2.81969 -0.90758,3.47317 -0.65164,4.0349 0.18022,0.39555 0.52464,0.67024 0.84026,0.67024 0.29416,0 0.75693,0.22208 1.02836,0.49351 0.35012,0.35013 0.61916,0.42289 0.92604,0.25115 0.34804,-0.19476 0.43254,-0.11622 0.43254,0.40049 0,0.95816 -0.67578,1.42464 -1.27641,0.88108 -0.73661,-0.66662 -1.50586,0.0355 -1.90635,1.73995 -0.18004,0.76628 -1.20238,4.10468 -2.27169,7.41867 -2.00573,6.21608 -2.47951,8.1548 -2.67581,10.94713 -0.0779,1.1085 -0.27345,1.79722 -0.61391,2.16266 -0.27478,0.29494 -0.7194,0.89769 -0.98805,1.33945 -0.26865,0.44176 -0.79224,1.04195 -1.16324,1.33377 -0.37099,0.29183 -0.82108,0.88521 -1.00046,1.31827 -0.27327,0.65978 -0.25802,0.88501 0.0961,1.39061 0.53807,0.76835 0.53988,1.44237 0.004,1.64796 -0.70967,0.27232 -0.90797,0.18503 -1.1746,-0.51624 l -0.25735,-0.67645 -1.33635,1.13947 c -1.13258,0.96612 -1.30997,1.24077 -1.16582,1.80144 0.608,2.36491 0.25708,5.00007 -1.12241,8.42791 -0.60219,1.49632 -0.71822,2.21583 -0.77722,4.82503 -0.0624,2.75896 -0.15532,3.27636 -0.92397,5.15937 -0.70953,1.73818 -0.85755,2.45703 -0.87385,4.2416 l -0.0196,2.14871 0.9493,-0.12713 c 0.5979,-0.0802 1.26962,0.0384 1.81591,0.32091 0.62348,0.32242 0.94804,0.36764 1.15445,0.16123 0.16037,-0.16036 1.25833,-0.2868 2.48719,-0.2868 2.19375,0 2.20142,-0.003 2.71766,-0.85163 0.28473,-0.4682 0.59595,-1.39094 0.69195,-2.05052 0.1941,-1.33379 0.81328,-3.10476 1.29759,-3.71243 0.17398,-0.21828 0.51316,-1.01672 0.75396,-1.77405 0.24079,-0.75733 0.7351,-1.69758 1.09813,-2.08928 0.36301,-0.39171 0.6599,-0.86068 0.6599,-1.04232 0,-0.18164 0.34521,-0.69991 0.7674,-1.15187 0.58674,-0.62811 0.99463,-0.82165 1.73064,-0.82165 1.18889,0 2.44473,-0.87721 2.93574,-2.05052 0.32753,-0.78266 1.18081,-1.21883 1.18081,-0.60358 0,0.53696 -1.09135,2.29144 -1.92805,3.10007 -0.69074,0.66758 -1.13711,0.86044 -2.14406,0.92604 -1.20028,0.0782 -1.29013,0.13709 -1.60196,1.048 -0.18172,0.53082 -0.5869,1.291 -0.90021,1.6893 -0.74007,0.94091 -0.78067,2.81093 -0.076,3.48713 0.7864,0.75458 1.09399,1.54359 1.09399,2.80499 0,1.03463 -0.0877,1.21212 -0.73071,1.47846 -0.40196,0.16651 -1.08657,0.59353 -1.52135,0.94878 l -0.79065,0.64596 0.82734,0.01 c 0.45513,0.005 0.97378,0.18582 1.15238,0.40101 0.26564,0.32008 0.18747,0.53751 -0.43046,1.19527 -0.61971,0.65963 -0.89336,0.77393 -1.52291,0.63717 -0.6745,-0.14652 -0.74168,-0.10707 -0.55758,0.32608 0.68041,1.60093 0.26299,2.79384 -0.54571,1.5596 -0.24142,-0.36844 -0.6675,-0.66973 -0.94671,-0.66973 -0.29719,0 -0.72855,-0.37451 -1.04025,-0.90279 -0.62697,-1.06263 -1.14217,-1.318 -1.87068,-0.9281 -0.36153,0.19348 -0.46997,0.42486 -0.34055,0.72656 1.22055,2.84546 1.8588,5.62844 1.19683,5.21932 -0.41504,-0.2565 -0.48762,0.49892 -0.077,0.80151 0.32658,0.24066 0.33673,0.44556 0.063,1.27485 -0.17935,0.5433 -0.27887,1.03474 -0.22117,1.09244 0.0577,0.0577 0.68356,-0.0692 1.39113,-0.28215 0.70756,-0.21295 1.54898,-0.38706 1.86965,-0.38706 0.56794,0 2.07415,-0.9874 3.19722,-2.09599 0.78272,-0.77263 1.93572,-0.6896 3.30574,0.23874 1.32633,0.89872 1.56115,0.9595 1.56115,0.40205 0,-0.2183 -0.1786,-0.39688 -0.39688,-0.39688 -0.21828,0 -0.39687,-0.10835 -0.39687,-0.24081 0,-0.38737 1.40034,-2.41597 1.55856,-2.25775 0.0792,0.0792 0.22787,1.11852 0.33021,2.30942 0.16987,1.97662 0.25766,2.22913 1.00511,2.89698 0.45035,0.40237 1.05484,0.73174 1.34358,0.73174 0.61988,0 0.71045,0.73914 0.11834,0.96635 -0.22377,0.0859 -0.90838,-0.0259 -1.52135,-0.24804 -2.86501,-1.03829 -3.04343,-0.87977 -2.43034,2.15387 0.62783,3.10658 0.58897,5.58342 -0.1416,9.03407 -0.35431,1.67349 -0.70703,3.1022 -0.78393,3.175 -0.0769,0.0728 -0.33596,0.66808 -0.57567,1.32292 -0.23972,0.65484 -0.50902,1.36909 -0.59842,1.5875 -0.10905,0.26653 0.0799,0.50477 0.57516,0.72398 1.12618,0.4985 1.49802,2.104 1.27124,5.48959 -0.17727,2.64636 -0.16479,2.74233 0.38603,2.91714 0.51029,0.16197 1.31516,1.53103 1.31516,2.23759 0,0.55637 -0.78933,0.24924 -1.15549,-0.44959 -0.37815,-0.72173 -0.37869,-0.72079 -0.55242,0.72761 -0.21334,1.77485 -0.21248,3.31135 0.004,5.50147 0.20161,2.0433 -0.22454,4.6441 -1.13378,6.91896 -0.37587,0.94043 -0.77242,2.54777 -0.8816,3.57187 -0.10919,1.02411 -0.44841,2.33395 -0.75344,2.91042 -0.30502,0.57647 -0.55449,1.28542 -0.55449,1.57561 0,0.29019 -0.43386,1.45249 -0.96428,2.58279 -0.78912,1.68159 -0.90448,2.12706 -0.63562,2.45101 0.28609,0.34471 0.45347,0.29816 1.29501,-0.3607 0.5316,-0.41621 1.4426,-0.89939 2.02468,-1.07332 2.28445,-0.68263 4.00442,-1.46582 4.7749,-2.17454 0.4435,-0.40795 1.00904,-0.74156 1.25677,-0.74156 0.24774,0 0.45062,-0.11906 0.45062,-0.26458 0,-0.48514 0.57685,-0.27237 0.71727,0.26458 0.1789,0.68411 0.53864,0.67026 1.1157,-0.0424 0.56851,-0.70209 1.0512,-0.46745 0.88005,0.42788 -0.16921,0.88516 0.89083,1.30433 2.72541,1.07745 1.12667,-0.13934 1.45258,-0.0747 2.06913,0.41031 0.61513,0.48387 0.8363,0.5279 1.38699,0.27699 1.6565,-0.75475 4.12793,-0.0953 6.29316,1.67897 0.68782,0.56362 1.42573,0.93327 1.86345,0.93327 0.39863,0 1.02733,0.23813 1.39733,0.52917 h 0.001 c 0.79628,0.62635 1.13017,0.66989 1.13017,0.14728 0,-0.50051 1.02316,-1.20561 1.74924,-1.20561 0.78595,0 3.1258,-1.61927 4.79041,-3.31505 0.75917,-0.77338 1.62766,-1.48498 1.9296,-1.58078 0.39481,-0.12517 0.50336,-0.31732 0.38757,-0.68213 -0.16971,-0.53471 0.12425,-0.67586 0.54932,-0.26406 0.13824,0.1339 0.8167,0.17776 1.50792,0.0977 1.16378,-0.13485 1.25677,-0.19988 1.25677,-0.88263 0,-0.40551 -0.12459,-0.77912 -0.27699,-0.82992 -0.16148,-0.0538 -0.33456,-1.40019 -0.41496,-3.2272 -0.0759,-1.72436 -0.24893,-3.42724 -0.38447,-3.78374 -0.13554,-0.35651 -0.247,-1.08693 -0.24753,-1.62316 -5.6e-4,-0.55094 -0.34531,-1.66504 -0.79272,-2.56212 -0.83807,-1.68035 -0.94146,-2.23726 -0.55397,-2.98018 0.67485,-1.29382 1.59342,-3.79474 1.8526,-5.04414 0.3837,-1.84971 0.63196,-2.27528 2.3058,-3.94911 1.56703,-1.56704 2.15365,-2.98479 2.40606,-5.81721 0.0809,-0.90813 0.30705,-1.7842 0.50281,-1.94666 0.19575,-0.16246 0.97813,-0.372 1.7384,-0.4656 1.19281,-0.14682 1.40357,-0.26069 1.53685,-0.83147 0.11261,-0.48225 0.35747,-0.68498 0.90382,-0.74828 0.41216,-0.0478 0.87767,0.0415 1.03456,0.19844 0.67125,0.67124 1.19022,0.30309 1.48054,-1.05058 0.15758,-0.73476 0.28628,-1.56129 0.28628,-1.83658 0,-0.27529 0.11907,-0.57414 0.26459,-0.66404 0.14552,-0.0899 0.26458,-0.52157 0.26458,-0.95912 0,-0.43754 0.12325,-1.02593 0.27389,-1.30741 0.40508,-0.75692 -0.29228,-0.66786 -1.17461,0.14986 -1.46597,1.35861 -2.79772,0.67314 -3.75739,-1.93374 -0.25137,-0.68281 -0.65739,-1.47939 -0.90228,-1.77043 -0.24488,-0.29104 -1.07082,-1.62669 -1.83554,-2.96778 -0.80772,-1.41649 -1.61351,-2.50907 -1.92236,-2.60707 -0.4528,-0.14372 -0.50456,-0.31161 -0.35037,-1.13327 0.0996,-0.53063 0.23616,-1.56011 0.30386,-2.28771 0.0677,-0.7276 0.31886,-1.84285 0.5581,-2.47789 0.23924,-0.63505 0.41529,-1.70661 0.39119,-2.38125 -0.0241,-0.67465 -0.0524,-1.52393 -0.063,-1.88774 -0.0411,-1.41488 0.33564,-2.38664 1.1007,-2.83858 0.41981,-0.24798 0.76327,-0.66327 0.76327,-0.92294 0,-0.25966 0.17441,-0.47181 0.38757,-0.47181 0.21316,0 0.51858,-0.24481 0.67851,-0.54364 0.15993,-0.29883 0.63723,-0.75416 1.06092,-1.01182 1.08325,-0.65876 2.17973,-2.3532 2.02985,-3.13728 -0.0772,-0.40391 0.25139,-1.35456 0.90382,-2.61534 1.26117,-2.43716 1.32972,-3.58142 0.29714,-4.94388 -0.46988,-0.62001 -0.86817,-0.905 -1.12448,-0.80409 -0.21828,0.0859 -0.72731,0.28814 -1.1312,0.44907 -1.14853,0.45761 -1.65654,-0.0232 -1.60403,-1.51826 0.0237,-0.67426 -0.0765,-1.22059 -0.22428,-1.22059 -0.14709,0 -0.66157,-0.18699 -1.14308,-0.41548 -0.96339,-0.45716 -1.35065,-1.22074 -1.53376,-3.02411 -0.0758,-0.74691 -0.48407,-1.78223 -1.09502,-2.77812 -0.80287,-1.30869 -0.94569,-1.75014 -0.81494,-2.51354 0.5002,-2.92033 0.52467,-2.75449 -0.47852,-3.23288 -0.50905,-0.24275 -1.00732,-0.69949 -1.10743,-1.01493 -0.10012,-0.31543 -0.87729,-1.28587 -1.72703,-2.15697 -0.85141,-0.87281 -1.62047,-1.92757 -1.71307,-2.34921 -0.0924,-0.42081 -0.27805,-0.83322 -0.41238,-0.91622 -0.13432,-0.083 -0.24443,-0.51017 -0.24443,-0.9493 v -0.7984 l 3.27112,0.18655 c 2.16242,0.12316 3.32791,0.0934 3.43958,-0.0873 0.10558,-0.17088 0.9493,-0.21943 2.25,-0.13023 1.14454,0.0784 2.63033,0.0598 3.3016,-0.0408 1.19672,-0.17947 1.22791,-0.2092 1.62264,-1.53841 0.22141,-0.74557 0.40256,-1.97762 0.40256,-2.73781 0,-1.1926 0.12755,-1.53414 0.92811,-2.49236 0.94086,-1.12613 1.05454,-1.41495 1.30121,-3.30522 0.51394,-3.93835 0.51198,-4.01647 -0.1297,-5.07205 -0.33888,-0.55747 -0.69077,-1.07286 -0.78187,-1.14566 -0.0911,-0.0728 -0.24241,-0.34066 -0.33641,-0.59531 -0.094,-0.25468 -0.39814,-0.46303 -0.67593,-0.46303 -0.82072,0 -1.16209,-0.68996 -1.3007,-2.62723 l -0.13074,-1.82521 1.15807,-1.13481 c 0.95189,-0.93304 1.31064,-1.12182 2.01797,-1.06092 0.73592,0.0634 0.86041,-0.0113 0.86041,-0.51625 0,-0.34613 0.44473,-1.01339 1.07487,-1.61282 l 1.07487,-1.02268 -0.81029,-1.41645 c -0.9578,-1.67406 -1.01031,-2.63974 -0.24184,-4.42608 l 0.56792,-1.32033 -0.61185,-0.82734 -0.61133,-0.82734 0.59221,-1.74047 c 0.51004,-1.49815 0.55244,-1.906 0.30386,-2.9285 -0.4052,-1.66694 -0.7644,-6.1967 -0.49971,-6.30297 0.32829,-0.1318 0.26638,-0.70456 -0.16692,-1.54409 -0.21262,-0.41198 -0.68711,-1.40365 -1.05471,-2.204 -0.36759,-0.80037 -0.92085,-1.90423 -1.22939,-2.45257 -0.72905,-1.2957 -0.34904,-1.90985 1.02216,-1.65261 1.55122,0.29101 3.19421,-1.39876 2.81792,-2.89801 -0.12296,-0.48992 0.0615,-0.97921 0.72399,-1.9203 0.48905,-0.69466 1.11616,-1.71143 1.39371,-2.2593 0.67629,-1.33496 0.99316,-1.5562 2.32544,-1.6247 0.80512,-0.0414 1.15766,-0.18288 1.21646,-0.48835 0.0456,-0.2365 0.34351,-0.46732 0.66198,-0.51263 0.31848,-0.0453 0.69661,-0.35005 0.84026,-0.67747 0.14364,-0.32742 0.40325,-0.59531 0.57722,-0.59531 0.17397,0 0.38706,-0.2227 0.47336,-0.49455 0.0863,-0.27185 0.3917,-0.70685 0.67903,-0.96686 0.28733,-0.26003 0.52245,-0.7281 0.52245,-1.04025 0,-0.67502 0.46792,-1.20251 1.0666,-1.20251 0.46483,0 0.65499,-0.33401 1.58078,-2.77813 0.33073,-0.87312 0.94172,-2.15499 1.35806,-2.8484 0.41634,-0.69341 0.75169,-1.34826 0.74569,-1.45521 -0.0193,-0.3321 -1.93788,-2.35419 -2.63447,-2.77658 -1.07858,-0.654 -2.56622,-0.8109 -3.23701,-0.34106 -1.45903,1.02194 -2.83089,0.14866 -3.36465,-2.1425 -0.26166,-1.1232 -0.24848,-1.56334 0.0739,-2.51355 0.21495,-0.63355 0.47316,-1.70069 0.57361,-2.37142 0.16541,-1.104623 0.12868,-1.233751 -0.39015,-1.369428 -0.52047,-0.136105 -0.5559,-0.263147 -0.38706,-1.389062 0.16961,-1.13105 0.14238,-1.226181 -0.31161,-1.092957 -2.41127,0.707583 -4.47394,0.368356 -4.76301,-0.783415 -0.18468,-0.735805 -0.62942,-0.843219 -0.62942,-0.151928 0,0.261938 -0.14267,0.619125 -0.3173,0.79375 -0.34571,0.345718 -3.43656,0.443822 -3.76101,0.119372 -0.10898,-0.108977 -0.89328,-0.157957 -1.74253,-0.109037 -1.31829,0.07594 -1.58502,0.01291 -1.82314,-0.432015 -0.36185,-0.676113 -1.11659,-0.961696 -1.39268,-0.526583 -0.11855,0.18683 -0.21818,0.697219 -0.22118,1.133781 -0.0129,1.857353 -0.47988,2.710085 -1.92908,3.523302 -0.75937,0.42611 -1.84989,0.8456 -2.42362,0.93224 -0.57372,0.0867 -1.1446,0.33839 -1.26814,0.55913 -0.37473,0.66962 -1.47906,0.39403 -1.77044,-0.44182 -0.30624,-0.87848 -0.40092,-0.88963 -1.73943,-0.20723 -1.49949,0.76449 -2.41209,0.7041 -2.63239,-0.17363 -0.11239,-0.44778 -0.0557,-0.77706 0.15606,-0.90796 0.22156,-0.13692 0.0725,-0.26756 -0.44752,-0.392219 -0.42898,-0.102824 -0.92654,-0.302157 -1.10536,-0.442867 -0.54501,-0.428881 -3.00809,0.314202 -3.85764,1.163756 -0.92765,0.92765 -1.44433,0.95632 -1.6614,0.0915 -0.0913,-0.3638 -0.3364,-0.661461 -0.54467,-0.661461 -0.39826,0 -2.47478,1.978841 -2.47478,2.358501 0,0.24219 -1.28523,0.55191 -2.29134,0.55191 -1.08256,0 -1.942,-0.74849 -1.942,-1.69136 0,-0.5094 -0.20705,-1.01456 -0.52916,-1.290364 -0.31398,-0.268834 -0.52917,-0.780087 -0.52917,-1.257805 0,-0.901274 1.0144,-3.06254 1.76113,-3.752225 0.26841,-0.247907 0.75859,-0.696741 1.08934,-0.997872 0.48623,-0.442675 0.54778,-0.647797 0.32143,-1.070736 -0.2147,-0.401172 -0.55545,-0.522965 -1.46141,-0.522965 -1.12881,0 -1.18132,-0.03424 -1.18132,-0.772046 0,-0.959545 -0.23756,-1.609204 -0.5886,-1.609204 z"
       id="path940"
       inkscape:connector-curvature="0" />
  </g>
  <g
     inkscape:groupmode="layer"
     id="layer2"
     inkscape:label="Layer 2"
     style="display:inline" />
  <g
     inkscape:groupmode="layer"
     id="layer3"
     inkscape:label="Layer 3"
     style="display:inline" />
  <g
     inkscape:groupmode="layer"
     id="layer4"
     inkscape:label="Layer 4"
     style="display:inline" />
</svg>
