<?xml version="1.0" encoding="UTF-8" standalone="no"?>
<!-- Created with Inkscape (http://www.inkscape.org/) -->

<svg
   xmlns:dc="http://purl.org/dc/elements/1.1/"
   xmlns:cc="http://creativecommons.org/ns#"
   xmlns:rdf="http://www.w3.org/1999/02/22-rdf-syntax-ns#"
   xmlns:svg="http://www.w3.org/2000/svg"
   xmlns="http://www.w3.org/2000/svg"
   xmlns:sodipodi="http://sodipodi.sourceforge.net/DTD/sodipodi-0.dtd"
   xmlns:inkscape="http://www.inkscape.org/namespaces/inkscape"
   width="297mm"
   height="210mm"
   viewBox="0 0 297 210"
   version="1.1"
   id="svg8"
   inkscape:version="0.92.4 (5da689c313, 2019-01-14)"
   sodipodi:docname="promise_hand.svg">
  <defs
     id="defs2" />
  <sodipodi:namedview
     id="base"
     pagecolor="#ffffff"
     bordercolor="#666666"
     borderopacity="1.0"
     inkscape:pageopacity="0.0"
     inkscape:pageshadow="2"
     inkscape:zoom="1"
     inkscape:cx="523.30607"
     inkscape:cy="441.23827"
     inkscape:document-units="mm"
     inkscape:current-layer="layer2"
     showgrid="false"
     inkscape:window-width="1920"
     inkscape:window-height="1017"
     inkscape:window-x="-8"
     inkscape:window-y="-8"
     inkscape:window-maximized="1"
     showguides="true">
    <inkscape:grid
       type="xygrid"
       id="grid1587" />
  </sodipodi:namedview>
  <metadata
     id="metadata5">
    <rdf:RDF>
      <cc:Work
         rdf:about="">
        <dc:format>image/svg+xml</dc:format>
        <dc:type
           rdf:resource="http://purl.org/dc/dcmitype/StillImage" />
        <dc:title />
      </cc:Work>
    </rdf:RDF>
  </metadata>
  <g
     inkscape:label="Layer 1"
     inkscape:groupmode="layer"
     id="layer1"
     transform="translate(0,-87)"
     style="display:inline;opacity:1" />
  <g
     inkscape:groupmode="layer"
     id="layer2"
     inkscape:label="Layer 2"
     style="display:inline">
    <path
       style="opacity:1;fill:#896d5b;fill-opacity:1;fill-rule:nonzero;stroke:none;stroke-width:1.81754589;stroke-miterlimit:4;stroke-dasharray:none;stroke-dashoffset:0;stroke-opacity:1"
       d="m 56.257371,64.445007 c 22.43847,-9.703006 29.673869,-13.534441 36.010595,-10.586076 0.432001,0.201003 1.770273,2.04788 4.156947,1.868242 3.952367,-0.297484 8.301417,1.512816 10.050937,2.060515 4.2645,1.335028 1.57063,1.221472 3.1422,2.656782 3.87773,3.541511 -1.44211,6.618586 4.35584,6.910954 1.27183,0.06413 2.19958,1.137624 2.29863,2.542908 l 0.43666,4.934148 -1.02209,15.779092 3.03283,14.006378 c 0.29814,1.37687 -1.02519,2.54291 -2.29863,2.54291 H 56.257371 c -1.273436,0 -2.298621,-1.13413 -2.298621,-2.54291 V 66.987915 c 0,-1.408771 1.129787,-2.037472 2.298621,-2.542908 z"
       id="rect1036"
       inkscape:connector-curvature="0"
       sodipodi:nodetypes="sssssssccssssss" />
    <rect
       style="opacity:1;fill:#ff0000;fill-opacity:0;fill-rule:nonzero;stroke:none;stroke-width:2.64583325;stroke-miterlimit:4;stroke-dasharray:none;stroke-dashoffset:0;stroke-opacity:1"
       id="rect1056"
       width="61.780209"
       height="55.165623"
       x="188.38333"
       y="62.759377"
       ry="3.5194609" />
    <rect
       style="opacity:1;fill:#ff0000;fill-opacity:0;fill-rule:nonzero;stroke:none;stroke-width:2.64583325;stroke-miterlimit:4;stroke-dasharray:none;stroke-dashoffset:0;stroke-opacity:1"
       id="rect1058"
       width="105.51801"
       height="40.59824"
       x="97.473198"
       y="20.666267"
       ry="3.5194609" />
    <path
       style="opacity:1;fill:#bc8e78;fill-opacity:1;fill-rule:nonzero;stroke:none;stroke-width:4.43279409;stroke-miterlimit:4;stroke-dasharray:none;stroke-dashoffset:0;stroke-opacity:1"
       d="m 196.51993,43.886978 33.37489,12.462789 23.92228,9.133416 0.90412,-34.598868 v 82.649745 h -84.01953 l 8.49414,-7.58175 -8.21351,-17.747034 5.53986,-19.167141 16.63143,-18.261509 z"
       id="rect1060"
       inkscape:connector-curvature="0"
       sodipodi:nodetypes="ccccccccccc" />
    <rect
       style="opacity:1;fill:#bc8e78;fill-opacity:1;fill-rule:nonzero;stroke:none;stroke-width:4.1610713;stroke-miterlimit:4;stroke-dasharray:none;stroke-dashoffset:0;stroke-opacity:1"
       id="rect830"
       width="10.781771"
       height="15.610416"
       x="240.04323"
       y="32.927605" />
    <rect
       style="display:inline;opacity:1;fill:#bc8e78;fill-opacity:1;fill-rule:nonzero;stroke:none;stroke-width:3.83545971;stroke-miterlimit:4;stroke-dasharray:none;stroke-dashoffset:0;stroke-opacity:1"
       id="rect830-2"
       width="15.038038"
       height="9.5090675"
       x="210.59181"
       y="39.823307" />
  </g>
  <g
     inkscape:groupmode="layer"
     id="layer3"
     inkscape:label="Layer 3"
     style="display:inline">
    <path
       style="display:inline;opacity:1;fill:#c3ab9f;fill-opacity:1;fill-rule:nonzero;stroke:none;stroke-width:10;stroke-miterlimit:4;stroke-dasharray:none;stroke-dashoffset:0;stroke-opacity:1"
       d="m 1046.633,782.86597 c -28.4403,-47.14723 -49.42788,-78.09275 -69.43097,-102.37378 -16.40348,-19.9116 -46.91728,-48.67602 -62.40826,-58.83035 -2.21398,-1.45126 -17.32153,-6.3527 -38.22625,-12.40199 -38.67421,-11.19131 -50.93026,-15.15138 -68.57272,-22.15661 -33.3524,-13.24313 -60.25751,-31.06232 -74.85881,-49.57883 -10.09528,-12.80225 -28.53623,-33.15458 -41.64914,-45.96602 -28.93177,-28.26663 -53.62477,-48.75051 -122.85384,-101.91237 -15.675,-12.03703 -31.73618,-24.45327 -35.69153,-27.59164 l -13.56653,-11.08113 11.69153,-10.33888 c 6.43035,-5.68639 16.01972,-14.51614 21.30972,-19.62167 l 9.61819,-9.28278 13.25681,10.72775 c 18.35885,14.85645 42.33955,28.19206 71.18362,41.12896 6.65028,2.98273 8.58991,3.48436 9.75,2.52157 0.79651,-0.66104 1.44819,-1.71778 1.44819,-2.34832 0,-0.63054 -4.14731,-4.06294 -9.21624,-7.62755 -20.15704,-14.17502 -38.94766,-36.24963 -44.53633,-52.31984 -3.22444,-9.27189 -2.93246,-22.62645 0.64552,-29.52446 6.2011,-11.95512 25.91686,-23.13683 40.79523,-23.13683 6.6566,0 17.87752,4.28927 39.54387,15.11591 18.84694,9.41778 35.04788,18.96081 67.76795,39.91814 29.97204,19.19721 42.47426,26.91304 55.58236,34.30298 12.73963,7.18221 17.57296,11.32691 20.82937,17.86168 5.28141,10.59841 2.56859,21.88864 -7.5437,31.39536 -8.10644,7.62098 -14.51081,9.7267 -27.86803,9.16282 -13.82182,-0.5835 -24.48006,-4.17563 -55.23081,-18.61439 -15.20855,-7.14104 -29.63779,-13.05858 -41.65384,-17.08254 -25.31707,-8.47825 -30.03663,-11.05618 -42.86535,-23.41405 -3.9875,-3.84115 -7.25,-6.39084 -7.25,-5.66599 0,1.9177 14.41228,15.79934 22.06679,21.25434 8.36724,5.96291 17.82432,10.95107 19.17711,10.115 0.57677,-0.35646 -0.47832,-1.46011 -2.34828,-2.45636 -13.87251,-7.39079 29.15361,8.11891 49.94617,18.00419 36.38418,17.29789 43.12734,19.48937 60.15821,19.55097 11.69635,0.0423 12.86505,-0.13386 18.17798,-2.73997 7.24627,-3.55448 15.99757,-12.84023 18.20401,-19.31576 0.8899,-2.61173 1.61801,-7.08095 1.61801,-9.93158 v -5.18297 l 5.94138,-0.53875 c 21.1497,-1.91779 36.3072,-23.76502 32.19399,-46.40274 -1.2197,-6.71277 -1.39833,-6.99382 -9.88674,-15.55498 -8.68256,-8.75698 -10.0071,-11.25913 -4.43473,-8.37755 11.05481,5.71667 35.08647,7.89852 42.88415,3.89348 4.57991,-2.35232 9.4963,-9.98649 12.33425,-19.15258 4.06295,-13.12265 2.28139,-17.12124 -14.54481,-32.64466 -9.16738,-8.4576 -30.79325,-31.52757 -30.15363,-32.16719 0.11096,-0.11096 2.91604,1.10099 6.23351,2.69323 9.0714,4.35385 16.71698,6.08648 29.43263,6.66999 18.74213,0.86007 39.07237,-3.58916 47.17619,-10.32439 2.3781,-1.97648 4.47381,-3.99366 4.65714,-4.48262 0.18334,-0.48896 -2.74166,-0.90002 -6.5,-0.91347 -8.39211,-0.03 -14.23234,-1.3173 -20.68864,-4.56012 -6.85193,-3.44153 -12.14793,-7.83306 -15.73667,-13.04912 l -3.04903,-4.43161 4.90914,-5.37138 c 7.58941,-8.30403 14.34248,-22.55786 19.20825,-40.54323 2.29928,-8.49883 2.3642,-9.0201 1.12336,-9.0201 -0.49514,0 -1.45849,2.3625 -2.14078,5.25 -2.01361,8.52181 -7.89906,24.80178 -11.24851,31.11496 -3.08358,5.81207 -11.0988,15.63505 -12.75766,15.63505 -0.47404,0 -1.92299,1.06111 -3.21991,2.35802 -1.29691,1.29691 -5.02986,3.41748 -8.29545,4.71237 -5.21672,2.06856 -7.63682,2.35891 -19.93743,2.39198 -9.81409,0.0264 -16.47771,-0.49694 -22.28685,-1.75027 -7.53856,-1.62646 -8.62051,-2.16825 -11.98206,-6.00001 -7.36655,-8.39699 -21.85731,-23.0666 -27.33007,-27.66741 l -5.59898,-4.70692 5.68069,-1.17333 c 12.47166,-2.57598 28.66026,-12.45106 48.51727,-29.59563 14.68566,-12.67963 28.2152,-22.323241 38.64085,-27.542505 l 9.79547,-4.903779 9.24155,2.532389 c 33.27297,9.117517 60.89236,26.506085 96.82032,60.955985 5.226,5.01099 12.587,11.04395 16.3578,13.40656 3.7708,2.36262 13.1823,9.1991 20.9145,15.19219 14.7666,11.44531 24.7123,17.7905 30.9795,19.76438 3.6235,1.14124 3.75,1.33731 3.75,5.81233 0,5.84037 -25.8954,603.13805 -26.2435,605.32645 -0.141,0.88703 -8.1315,-11.44208 -17.7565,-27.39803 z"
       id="path1018"
       inkscape:connector-curvature="0"
       sodipodi:nodetypes="ssssssssccsscsscscsssssssssssssccsssccscscsccssscssccsscssscsscscssscssscsccscscs"
       transform="scale(0.26458333)" />
    <path
       style="display:inline;opacity:1;fill:#9e7e69;fill-opacity:1;fill-rule:nonzero;stroke:none;stroke-width:10;stroke-miterlimit:4;stroke-dasharray:none;stroke-dashoffset:0;stroke-opacity:1"
       d="m 57.98588,687.6512 c 0.325136,-10.45 1.533798,-64.675 2.685914,-120.5 1.152117,-55.825 2.294819,-102.85 2.539338,-104.5 0.374091,-2.52435 1.671541,-3.70989 8.183229,-7.47739 17.701826,-10.24184 36.798969,-27.11602 45.948359,-40.59986 17.34582,-25.56324 21.6886,-50.30802 17.79323,-101.38429 -3.15189,-41.32757 -1.0985,-59.55881 8.26902,-73.4174 3.39663,-5.02508 4.79482,-6.0622 15.72804,-11.66638 16.02298,-8.2131 25.82738,-14.01563 59,-34.91795 32.59895,-20.54084 42.45597,-26.26832 57.0782,-33.16561 20.90755,-9.86205 40.5805,-14.86195 58.50036,-14.86793 8.98986,-0.003 9.85923,0.18272 14.14541,3.02177 14.95333,9.90467 21.53145,36.85049 14.21413,58.22504 -1.26105,3.68364 -2.11012,4.75351 -3.7821,4.76566 -8.31327,0.0604 -38.40893,8.93887 -56.57098,16.68889 -11.87718,5.06816 -30.61176,14.37261 -33.58502,16.67985 -3.99506,3.10015 0.6609,1.50343 9.72538,-3.33525 26.12283,-13.9445 59.98576,-25.6431 80.99747,-27.98211 16.03318,-1.78481 26.74266,1.76076 37.346,12.36411 11.14092,11.14091 14.96145,24.12063 9.63609,32.73725 -3.14533,5.08925 -8.39829,8.19023 -36.02728,21.26797 -28.82645,13.64454 -58.40694,29.38364 -57.61937,30.65794 0.31164,0.50424 2.45101,-0.14784 4.75416,-1.44907 18.01744,-10.17942 44.17142,-23.18278 56.4866,-28.08427 21.54538,-8.57514 40.70019,-10.99088 52.3752,-6.60538 10.54495,3.96101 18.32523,14.7039 20.7967,28.71575 1.91104,10.83453 -2.97638,26.57057 -11.14045,35.86893 -3.51256,4.00058 -24.54781,19.31068 -37.8305,27.53418 -6.77576,4.19497 -30.84276,16.5931 -35.5,18.28785 -0.55,0.20014 -0.73367,0.65432 -0.40816,1.0093 0.84418,0.92059 13.45581,-4.44984 24.60106,-10.4759 14.04483,-7.59382 29.88046,-18.34932 57.19199,-38.84457 38.09228,-28.58539 56.46849,-40.67832 80.61677,-53.05192 15.52224,-7.9536 24.46485,-10.4569 34.95136,-9.78392 12.29145,0.78882 18.53599,6.35336 18.54324,16.52398 0.0103,14.47893 -7.8967,24.71367 -43.49626,56.30082 -47.25347,41.92757 -83.6169,66.21821 -122.84135,82.05759 l -10.84135,4.37788 -11.15865,13.06811 c -6.13726,7.18746 -17.23365,20.45546 -24.65865,29.48444 -15.85375,19.27856 -37.62319,41.98689 -51,53.19959 -30.93611,25.93125 -70.43667,44.77931 -112.5,53.68044 -11.42346,2.41735 -19.79301,6.28074 -34.80993,16.06829 -26.80089,17.46797 -49.26884,39.0295 -88.092378,84.53847 -9.846271,11.54181 -18.562386,21.6601 -19.369145,22.4851 -1.289831,1.31899 -1.395499,-0.79275 -0.875677,-17.5 z"
       id="path1020"
       inkscape:connector-curvature="0"
       transform="scale(0.26458333)" />
    <path
       style="display:inline;opacity:1;fill:#9e7e69;fill-opacity:1;fill-rule:nonzero;stroke:none;stroke-width:10;stroke-miterlimit:4;stroke-dasharray:none;stroke-dashoffset:0;stroke-opacity:1"
       d="m 436.07628,278.27035 c -2.2312,-2.10696 -6.7312,-4.83983 -10,-6.07304 -5.30727,-2.00227 -7.17389,-2.18456 -17.44327,-1.70344 -6.325,0.29633 -12.85,0.81782 -14.5,1.15888 -2.67246,0.5524 -2.78164,0.4876 -1,-0.59355 8.76627,-5.31961 12.36982,-8.32783 14.51637,-12.11815 9.78135,-17.27162 -11.69188,-45.70013 -36.01422,-47.67937 l -7.50215,-0.61048 6.4553,-2.89821 c 4.25578,-1.9107 8.74513,-3.06205 13.17566,-3.37905 5.94794,-0.42558 7.44724,-0.13725 13.0447,2.50856 8.89697,4.20544 14.10349,9.22205 29.27585,28.20801 7.30464,9.14067 14.91678,17.86695 16.91588,19.39174 6.50602,4.96239 8.28754,11.77238 5.08489,19.43742 -1.70334,4.07665 -5.19665,8.24557 -6.87659,8.20652 -0.59163,-0.0138 -2.90121,-1.74888 -5.13242,-3.85584 z"
       id="path1028"
       inkscape:connector-curvature="0"
       transform="scale(0.26458333)" />
    <path
       style="display:inline;opacity:1;fill:#c3ab9f;fill-opacity:1;fill-rule:nonzero;stroke:none;stroke-width:2.64583325;stroke-miterlimit:4;stroke-dasharray:none;stroke-dashoffset:0;stroke-opacity:1"
       d="m 126.33533,80.737921 c -1.72588,-1.846615 -1.94597,-2.370172 -1.94597,-4.629002 0,-3.814281 1.15714,-6.173568 3.61855,-7.377822 1.27852,-0.62552 1.64339,-0.685649 3.36875,-0.555159 1.09872,0.0831 2.55114,0.404135 3.36079,0.742865 1.83119,0.766099 4.61706,2.59174 5.75188,3.769323 l 0.88642,0.919835 -1.68017,0.805413 c -2.24122,1.074353 -7.63445,4.180829 -10.14593,5.844 -1.11327,0.737243 -2.1111,1.340442 -2.2174,1.340442 -0.10629,0 -0.55491,-0.386953 -0.99692,-0.859895 z"
       id="path1026"
       inkscape:connector-curvature="0" />
    <path
       style="display:inline;opacity:1;fill:#c3ab9f;fill-opacity:1;fill-rule:nonzero;stroke:none;stroke-width:10;stroke-miterlimit:4;stroke-dasharray:none;stroke-dashoffset:0;stroke-opacity:1"
       d="m 830.96326,357.4012 c -2.91901,-6.20681 -10.32578,-12.32569 -24.95242,-20.6137 -7.63281,-4.32504 -29.62783,-17.88499 -48.87783,-30.13323 -39.90184,-25.38842 -56.55544,-35.18526 -74.86306,-44.03978 -7.07468,-3.42169 -12.27327,-6.41785 -11.55241,-6.65814 1.07961,-0.35987 1.07778,-0.99909 -0.0104,-3.62607 -1.96234,-4.73752 -0.92143,-12.97106 2.49859,-19.76357 6.21101,-12.3357 28.29885,-31.73773 41.32467,-36.2997 5.21572,-1.82669 5.60288,-1.83065 11.5,-0.11762 20.97296,6.09231 41.53819,17.11707 60.60256,32.48826 15.20294,12.2578 25.74202,22.52295 54.05972,52.65467 31.01674,33.00365 30.80627,32.68225 29.63269,45.24988 -1.86668,19.98983 -15.9478,34.58027 -33.39549,34.60342 -3.87877,0.005 -4.33917,-0.28377 -5.96667,-3.74442 z"
       id="path1022"
       inkscape:connector-curvature="0"
       transform="scale(0.26458333)" />
    <path
       style="display:inline;opacity:1;fill:#c3ab9f;fill-opacity:1;fill-rule:nonzero;stroke:none;stroke-width:10;stroke-miterlimit:4;stroke-dasharray:none;stroke-dashoffset:0;stroke-opacity:1"
       d="m 877.13301,296.13177 c -8.52158,-1.19443 -17.3427,-4.15712 -24.67421,-8.28716 -4.88332,-2.7509 -9.85697,-7.34982 -21.81136,-20.16801 -15.23198,-16.33261 -32.70738,-32.86553 -44.51443,-42.11368 -14.80699,-11.59792 -34.73963,-22.92794 -49.17505,-27.95186 -7.16027,-2.49196 -8.82495,-6.25217 -8.82495,-19.93399 0,-8.948 0.29996,-10.6367 2.79009,-15.70748 1.53455,-3.12488 4.43823,-7.12869 6.45263,-8.89736 8.91185,-7.82471 26.05679,-12.63184 41.26739,-11.57063 16.64754,1.16146 25.80598,5.90186 42.79296,22.14959 10.49871,10.04184 16.87824,17.19005 50.87048,57.00001 9.97226,11.67899 14.82577,16.60188 30.43966,30.87481 2.53727,2.31936 5.97495,6.60133 7.6393,9.51549 3.02315,5.29334 3.02471,5.30435 1.60913,11.37239 -2.57301,11.02949 -7.31343,19.63735 -12.19048,22.136 -3.54353,1.81545 -15.20142,2.62888 -22.67116,1.58188 z"
       id="path1024"
       inkscape:connector-curvature="0"
       transform="scale(0.26458333)" />
  </g>
  <g
     inkscape:groupmode="layer"
     id="layer4"
     inkscape:label="Layer 4"
     style="display:inline" />
</svg>
