<?xml version="1.0" encoding="UTF-8" standalone="no"?>
<!-- Created with Inkscape (http://www.inkscape.org/) -->

<svg
   xmlns:dc="http://purl.org/dc/elements/1.1/"
   xmlns:cc="http://creativecommons.org/ns#"
   xmlns:rdf="http://www.w3.org/1999/02/22-rdf-syntax-ns#"
   xmlns:svg="http://www.w3.org/2000/svg"
   xmlns="http://www.w3.org/2000/svg"
   xmlns:sodipodi="http://sodipodi.sourceforge.net/DTD/sodipodi-0.dtd"
   xmlns:inkscape="http://www.inkscape.org/namespaces/inkscape"
   width="297mm"
   height="210mm"
   viewBox="0 0 297 210"
   version="1.1"
   id="svg8"
   inkscape:version="0.92.4 (5da689c313, 2019-01-14)"
   sodipodi:docname="rock_variant_1.svg">
  <defs
     id="defs2" />
  <sodipodi:namedview
     id="base"
     pagecolor="#ffffff"
     bordercolor="#666666"
     borderopacity="1.0"
     inkscape:pageopacity="0.0"
     inkscape:pageshadow="2"
     inkscape:zoom="0.70710678"
     inkscape:cx="95.984161"
     inkscape:cy="500.80898"
     inkscape:document-units="mm"
     inkscape:current-layer="layer2"
     showgrid="true"
     inkscape:window-width="1920"
     inkscape:window-height="1017"
     inkscape:window-x="-8"
     inkscape:window-y="-8"
     inkscape:window-maximized="1">
    <inkscape:grid
       type="xygrid"
       id="grid1587" />
  </sodipodi:namedview>
  <metadata
     id="metadata5">
    <rdf:RDF>
      <cc:Work
         rdf:about="">
        <dc:format>image/svg+xml</dc:format>
        <dc:type
           rdf:resource="http://purl.org/dc/dcmitype/StillImage" />
        <dc:title />
      </cc:Work>
    </rdf:RDF>
  </metadata>
  <g
     inkscape:label="Layer 1"
     inkscape:groupmode="layer"
     id="layer1"
     transform="translate(0,-87)"
     style="display:inline;opacity:1" />
  <g
     inkscape:groupmode="layer"
     id="layer2"
     inkscape:label="Layer 2"
     style="display:inline">
    <path
       style="opacity:1;fill:#9c897b;fill-opacity:1;fill-rule:nonzero;stroke:none;stroke-width:0.01870887;stroke-miterlimit:4;stroke-dasharray:none;stroke-dashoffset:0;stroke-opacity:1"
       d="m 148.16611,129.48654 c -14.68264,-1.50499 -28.12514,-9.71753 -33.31213,-20.35165 -1.49339,-3.06168 -1.87372,-4.49114 -1.99524,-7.49921 -0.0844,-2.089974 -0.0412,-2.667374 0.30087,-4.022414 2.00778,-7.95243 9.8222,-13.5431 23.31346,-16.679156 2.42187,-0.562967 12.13948,-0.707704 16.93152,-0.252187 7.78282,0.739815 13.25239,2.131279 18.42823,4.688168 6.62217,3.27138 10.27318,7.463139 11.90389,13.666985 0.38434,1.462204 0.43958,2.104214 0.44163,5.132404 0.002,2.62005 -0.0784,3.83518 -0.3299,5.00037 -1.20015,5.56019 -3.1922,9.82497 -5.84169,12.50651 -1.30034,1.31607 -1.79764,1.66718 -3.79029,2.67613 -5.36514,2.71654 -10.43158,4.28547 -16.12754,4.99422 -1.93486,0.24075 -8.09174,0.32751 -9.92281,0.13983 z"
       id="path1439"
       inkscape:connector-curvature="0" />
  </g>
  <g
     inkscape:groupmode="layer"
     id="layer3"
     inkscape:label="Layer 3"
     style="display:inline" />
  <g
     inkscape:groupmode="layer"
     id="layer4"
     inkscape:label="Layer 4"
     style="display:inline" />
</svg>
