<?xml version="1.0" encoding="UTF-8" standalone="no"?>
<!-- Created with Inkscape (http://www.inkscape.org/) -->

<svg
   xmlns:dc="http://purl.org/dc/elements/1.1/"
   xmlns:cc="http://creativecommons.org/ns#"
   xmlns:rdf="http://www.w3.org/1999/02/22-rdf-syntax-ns#"
   xmlns:svg="http://www.w3.org/2000/svg"
   xmlns="http://www.w3.org/2000/svg"
   xmlns:sodipodi="http://sodipodi.sourceforge.net/DTD/sodipodi-0.dtd"
   xmlns:inkscape="http://www.inkscape.org/namespaces/inkscape"
   width="297mm"
   height="210mm"
   viewBox="0 0 297 210"
   version="1.1"
   id="svg8"
   inkscape:version="0.92.4 (5da689c313, 2019-01-14)"
   sodipodi:docname="rock_variant_2.svg">
  <defs
     id="defs2" />
  <sodipodi:namedview
     id="base"
     pagecolor="#ffffff"
     bordercolor="#666666"
     borderopacity="1.0"
     inkscape:pageopacity="0.0"
     inkscape:pageshadow="2"
     inkscape:zoom="0.70710678"
     inkscape:cx="-74.957839"
     inkscape:cy="485.35145"
     inkscape:document-units="mm"
     inkscape:current-layer="layer1"
     showgrid="true"
     inkscape:window-width="1920"
     inkscape:window-height="1017"
     inkscape:window-x="-8"
     inkscape:window-y="-8"
     inkscape:window-maximized="1">
    <inkscape:grid
       type="xygrid"
       id="grid1587" />
  </sodipodi:namedview>
  <metadata
     id="metadata5">
    <rdf:RDF>
      <cc:Work
         rdf:about="">
        <dc:format>image/svg+xml</dc:format>
        <dc:type
           rdf:resource="http://purl.org/dc/dcmitype/StillImage" />
        <dc:title />
      </cc:Work>
    </rdf:RDF>
  </metadata>
  <g
     inkscape:label="Layer 1"
     inkscape:groupmode="layer"
     id="layer1"
     transform="translate(0,-87)"
     style="display:inline;opacity:1" />
  <g
     inkscape:groupmode="layer"
     id="layer2"
     inkscape:label="Layer 2"
     style="display:inline">
    <path
       style="opacity:1;fill:#9c897b;fill-opacity:1;fill-rule:nonzero;stroke:none;stroke-width:0.00661458;stroke-miterlimit:4;stroke-dasharray:none;stroke-dashoffset:0;stroke-opacity:1"
       d="m 154.47662,120.67231 c -6.01972,-0.62494 -13.0523,-4.30203 -18.64414,-9.7484 -3.72139,-3.62457 -6.09883,-7.36006 -6.86644,-10.7887 -0.13288,-0.593491 -0.15345,-0.86022 -0.14996,-1.944607 0.004,-1.379913 0.0713,-1.757249 0.48963,-2.762065 0.63588,-1.527463 2.12394,-2.990927 3.99844,-3.932359 2.32202,-1.166188 5.49183,-1.896242 9.32632,-2.147983 1.38736,-0.09108 2.08644,-0.04583 3.78143,0.244771 3.4506,0.591598 7.3138,1.895325 10.4129,3.514069 2.75544,1.439238 4.96869,3.013964 6.81948,4.852056 1.54286,1.532263 2.54492,2.875328 3.32665,4.458728 1.3882,2.8118 1.5839,5.66211 0.59378,8.64832 -0.68226,2.05773 -2.17193,4.37024 -4.16171,6.46052 -1.65781,1.74154 -3.25927,2.61407 -5.55294,3.02545 -0.5754,0.1032 -2.78038,0.18176 -3.37344,0.1202 z"
       id="path1449"
       inkscape:connector-curvature="0" />
  </g>
  <g
     inkscape:groupmode="layer"
     id="layer3"
     inkscape:label="Layer 3"
     style="display:inline" />
  <g
     inkscape:groupmode="layer"
     id="layer4"
     inkscape:label="Layer 4"
     style="display:inline" />
</svg>
