<?xml version="1.0" encoding="UTF-8" standalone="no"?>
<!-- Created with Inkscape (http://www.inkscape.org/) -->

<svg
   xmlns:dc="http://purl.org/dc/elements/1.1/"
   xmlns:cc="http://creativecommons.org/ns#"
   xmlns:rdf="http://www.w3.org/1999/02/22-rdf-syntax-ns#"
   xmlns:svg="http://www.w3.org/2000/svg"
   xmlns="http://www.w3.org/2000/svg"
   xmlns:sodipodi="http://sodipodi.sourceforge.net/DTD/sodipodi-0.dtd"
   xmlns:inkscape="http://www.inkscape.org/namespaces/inkscape"
   width="297mm"
   height="210mm"
   viewBox="0 0 297 210"
   version="1.1"
   id="svg8"
   inkscape:version="0.92.4 (5da689c313, 2019-01-14)"
   sodipodi:docname="route.svg">
  <defs
     id="defs2">
    <inkscape:perspective
       sodipodi:type="inkscape:persp3d"
       inkscape:vp_x="0 : 105 : 1"
       inkscape:vp_y="0 : 1000 : 0"
       inkscape:vp_z="297 : 105 : 1"
       inkscape:persp3d-origin="148.5 : 70 : 1"
       id="perspective871" />
  </defs>
  <sodipodi:namedview
     id="base"
     pagecolor="#ffffff"
     bordercolor="#666666"
     borderopacity="1.0"
     inkscape:pageopacity="0.0"
     inkscape:pageshadow="2"
     inkscape:zoom="0.75548187"
     inkscape:cx="508.58331"
     inkscape:cy="220.65874"
     inkscape:document-units="mm"
     inkscape:current-layer="layer1"
     showgrid="true"
     inkscape:window-width="1920"
     inkscape:window-height="1017"
     inkscape:window-x="-8"
     inkscape:window-y="-8"
     inkscape:window-maximized="1">
    <inkscape:grid
       type="xygrid"
       id="grid1587" />
  </sodipodi:namedview>
  <metadata
     id="metadata5">
    <rdf:RDF>
      <cc:Work
         rdf:about="">
        <dc:format>image/svg+xml</dc:format>
        <dc:type
           rdf:resource="http://purl.org/dc/dcmitype/StillImage" />
        <dc:title></dc:title>
      </cc:Work>
    </rdf:RDF>
  </metadata>
  <g
     inkscape:label="Layer 1"
     inkscape:groupmode="layer"
     id="layer1"
     transform="translate(0,-87)"
     style="display:inline;opacity:1">
    <path
       style="opacity:1;fill:#727272;fill-opacity:1;fill-rule:nonzero;stroke:#541d1d;stroke-width:0.019;stroke-miterlimit:4;stroke-dasharray:none;stroke-dashoffset:0;stroke-opacity:1"
       d="M 119.39584,191.16667 -20.500015,300.47886 h 168.666705 0.66663 168.6667 L 177.60417,191.16667 h -29.10416 z"
       id="rect887"
       inkscape:connector-curvature="0" />
    <path
       style="opacity:1;fill:#ffcc00;fill-opacity:1;fill-rule:nonzero;stroke:#541d1d;stroke-width:0.03681563;stroke-miterlimit:4;stroke-dasharray:none;stroke-dashoffset:0;stroke-opacity:1"
       d="m 147.90208,191.16667 h 0.52917 l 1.39166,109.27291 h -2.64583 z"
       id="rect906"
       inkscape:connector-curvature="0"
       sodipodi:nodetypes="ccccc" />
  </g>
  <g
     inkscape:groupmode="layer"
     id="layer2"
     inkscape:label="Layer 2"
     style="display:none">
    <path
       style="fill:#ffe1dc;fill-opacity:1;stroke:#000000;stroke-width:0.26458332px;stroke-linecap:butt;stroke-linejoin:miter;stroke-opacity:1"
       d="m 254.80321,133.17634 c 0,-5.13113 -0.79801,-9.62224 -0.99219,-14.74107 -1.7246,-5.17376 -2.6993,-12.45398 -3.41951,-18.11332 -0.73196,-2.5111 -0.34015,-3.571935 -2.75214,-3.827014 -1.80346,-0.481773 -3.72155,-0.86949 -4.50619,-2.368258 1.53347,-19.168406 -24.84555,-19.744108 -27.6395,-10.571522 0.60014,3.635824 4.84579,2.853952 4.49002,8.339325 -9.05992,12.596769 -21.00508,10.029459 -33.83043,5.185137 -7.90654,0.343763 -10.4574,9.797182 -2.36235,12.378722 6.54489,2.27648 12.4115,2.7163 15.30804,9.92187 1.64011,18.86134 20.80594,20.05393 29.76562,34.30134 2.38615,2.36745 4.68534,4.85657 7.13441,7.20768 3.75059,3.60057 9.19123,6.25126 12.62849,9.68852 3.86093,3.86093 6.17678,9.16658 21.1167,10.37277 6.56139,-12.51296 -10.65623,-37.64226 -14.94097,-47.77418 z"
       id="path1380"
       inkscape:connector-curvature="0"
       sodipodi:nodetypes="cccccccccccsscc" />
  </g>
  <g
     inkscape:groupmode="layer"
     id="layer3"
     inkscape:label="Layer 3"
     style="display:inline" />
  <g
     inkscape:groupmode="layer"
     id="layer4"
     inkscape:label="Layer 4"
     style="display:inline" />
</svg>
