<?xml version="1.0" encoding="UTF-8" standalone="no"?>
<!-- Created with Inkscape (http://www.inkscape.org/) -->

<svg
   xmlns:dc="http://purl.org/dc/elements/1.1/"
   xmlns:cc="http://creativecommons.org/ns#"
   xmlns:rdf="http://www.w3.org/1999/02/22-rdf-syntax-ns#"
   xmlns:svg="http://www.w3.org/2000/svg"
   xmlns="http://www.w3.org/2000/svg"
   xmlns:sodipodi="http://sodipodi.sourceforge.net/DTD/sodipodi-0.dtd"
   xmlns:inkscape="http://www.inkscape.org/namespaces/inkscape"
   width="297.09348mm"
   height="239.2899mm"
   viewBox="0 0 297.09348 239.2899"
   version="1.1"
   id="svg8"
   inkscape:version="0.92.4 (5da689c313, 2019-01-14)"
   sodipodi:docname="Running.svg">
  <defs
     id="defs2" />
  <sodipodi:namedview
     id="base"
     pagecolor="#ffffff"
     bordercolor="#666666"
     borderopacity="1.0"
     inkscape:pageopacity="0.0"
     inkscape:pageshadow="2"
     inkscape:zoom="0.37774093"
     inkscape:cx="414.31439"
     inkscape:cy="162.82127"
     inkscape:document-units="mm"
     inkscape:current-layer="layer4"
     showgrid="false"
     inkscape:window-width="1920"
     inkscape:window-height="1017"
     inkscape:window-x="-8"
     inkscape:window-y="-8"
     inkscape:window-maximized="1">
    <inkscape:grid
       type="xygrid"
       id="grid1587"
       originx="-0.038757327"
       originy="0.29000518" />
  </sodipodi:namedview>
  <metadata
     id="metadata5">
    <rdf:RDF>
      <cc:Work
         rdf:about="">
        <dc:format>image/svg+xml</dc:format>
        <dc:type
           rdf:resource="http://purl.org/dc/dcmitype/StillImage" />
        <dc:title></dc:title>
      </cc:Work>
    </rdf:RDF>
  </metadata>
  <g
     inkscape:groupmode="layer"
     id="layer3"
     inkscape:label="Layer 3"
     style="display:inline;opacity:1"
     transform="translate(-0.03875733,28.999899)" />
  <g
     inkscape:groupmode="layer"
     id="layer4"
     inkscape:label="Layer 4"
     style="display:inline"
     transform="translate(-0.03875733,28.999899)">
    <path
       style="display:inline;opacity:1;fill:#ffca64;fill-opacity:1;fill-rule:nonzero;stroke:#363636;stroke-width:0.04495315;stroke-miterlimit:4;stroke-dasharray:none;stroke-dashoffset:0;stroke-opacity:0.04186048"
       d="m 111.72182,-28.780806 c -12.439056,-1.793193 -24.270976,8.880863 -26.427016,23.8408725 -1.92939,13.435121 4.63532,26.0097695 15.408496,29.5448715 l -1.227836,2.237441 -0.63651,2.689721 -17.98909,6.436025 -5.97527,13.975323 0.003,0.004 c -0.24203,1.12029 -0.23185,1.58677 0.47303,2.13886 0.70607,0.55173 1.18425,0.17644 2.19075,-0.0544 l 0.002,10e-4 4.9238,-14.143393 15.68243,-3.351997 -3.00133,26.11677 c 0,0 -9.20372,15.972245 -11.4988,22.894215 -10.2392,16.452927 -21.59527,22.705597 -21.59527,22.705597 l 6.9e-4,0.002 c -0.66757,0.4123 -0.86404,1.35095 -0.44754,2.14401 0.41657,0.79285 1.30034,1.16642 2.01919,0.84951 l 0.002,0.004 c 0,0 13.95246,-7.24801 24.14845,-24.323267 1.98732,-3.32817 5.68869,-14.427212 9.89555,-18.031082 1.80696,3.04068 12.372626,14.569082 11.491886,19.617562 0,0 -0.2529,3.92541 -1.84646,10.22895 -5.11761,20.242857 -6.67124,22.891337 -6.67124,22.891337 l 0.004,0.001 c -0.1899,0.76104 0.32702,1.5699 1.17845,1.84681 0.85238,0.27629 1.74469,-0.0755 2.03768,-0.80351 l 0.002,3.2e-4 c 0,0 -0.21984,-0.38535 5.36054,-19.12313 2.08158,-6.989127 4.87722,-15.749597 4.87722,-15.749597 1.59907,-3.97284 -11.0561,-20.606322 -13.79194,-25.154895 0.0427,-0.094 0,0 0,0 l 2.81363,-23.231761 8.19198,11.684361 18.04658,-1.82805 0.35553,-0.79671 c 0.31967,-0.71638 -0.80921,-1.35059 -0.80921,-1.35059 -1.03966,-0.0958 0,8e-5 -2.19074,0.034 l -12.4653,0.8489 -9.71074,-14.753707 1.05717,-3.532699 0.84909,-2.175563 c 11.59891,0.09175 21.86656,-10.23398 23.86496,-24.0007015 2.15626,-14.9594745 -6.17896,-28.5401145 -18.61766,-30.3333595 z"
       id="path7041"
       inkscape:connector-curvature="0"
       sodipodi:nodetypes="ccccccccccccccccccccsccscccccsccccccsccccccccc" />
    <path
       style="opacity:1;fill:#808080;fill-opacity:1;fill-rule:nonzero;stroke:none;stroke-width:11.86396694;stroke-miterlimit:4;stroke-dasharray:none;stroke-dashoffset:0;stroke-opacity:1"
       d="M 840.3418,122.66602 V 290.46875 H 600.08789 V 457.91211 H 322.11914 V 623.35547 H 0.14648438 V 794.79688 H 1122.373 V 623.35547 457.91211 294.10742 h 0.6465 v -171.4414 z"
       transform="scale(0.26458333)"
       id="rect2639"
       inkscape:connector-curvature="0" />
  </g>
</svg>
