<?xml version="1.0" encoding="UTF-8" standalone="no"?>
<!-- Created with Inkscape (http://www.inkscape.org/) -->

<svg
   xmlns:dc="http://purl.org/dc/elements/1.1/"
   xmlns:cc="http://creativecommons.org/ns#"
   xmlns:rdf="http://www.w3.org/1999/02/22-rdf-syntax-ns#"
   xmlns:svg="http://www.w3.org/2000/svg"
   xmlns="http://www.w3.org/2000/svg"
   xmlns:sodipodi="http://sodipodi.sourceforge.net/DTD/sodipodi-0.dtd"
   xmlns:inkscape="http://www.inkscape.org/namespaces/inkscape"
   width="297mm"
   height="210mm"
   viewBox="0 0 297 210"
   version="1.1"
   id="svg8"
   inkscape:version="0.92.4 (5da689c313, 2019-01-14)"
   sodipodi:docname="satisfaction-o-meter_base.svg">
  <defs
     id="defs2" />
  <sodipodi:namedview
     id="base"
     pagecolor="#ffffff"
     bordercolor="#666666"
     borderopacity="1.0"
     inkscape:pageopacity="0.0"
     inkscape:pageshadow="2"
     inkscape:zoom="0.50000003"
     inkscape:cx="752.56755"
     inkscape:cy="645.8682"
     inkscape:document-units="mm"
     inkscape:current-layer="layer3"
     showgrid="true"
     inkscape:window-width="1920"
     inkscape:window-height="1017"
     inkscape:window-x="-8"
     inkscape:window-y="-8"
     inkscape:window-maximized="1">
    <inkscape:grid
       type="xygrid"
       id="grid1587" />
  </sodipodi:namedview>
  <metadata
     id="metadata5">
    <rdf:RDF>
      <cc:Work
         rdf:about="">
        <dc:format>image/svg+xml</dc:format>
        <dc:type
           rdf:resource="http://purl.org/dc/dcmitype/StillImage" />
        <dc:title />
      </cc:Work>
    </rdf:RDF>
  </metadata>
  <g
     inkscape:label="Layer 1"
     inkscape:groupmode="layer"
     id="layer1"
     transform="translate(0,-87)"
     style="display:inline;opacity:1">
    <path
       style="opacity:1;fill:#916e00;fill-opacity:1;fill-rule:nonzero;stroke:none;stroke-width:0.01337713;stroke-miterlimit:4;stroke-dasharray:none;stroke-dashoffset:0;stroke-opacity:1"
       d="m 140.10476,199.8946 c -3.64353,-2.70788 -16.98779,-12.6247 -29.65388,-22.03739 -12.666095,-9.41269 -23.028359,-17.15055 -23.027253,-17.19525 0.0011,-0.0447 0.554412,-0.73611 1.229575,-1.53647 12.337318,-14.62518 29.738948,-24.37533 48.749688,-27.31449 4.80281,-0.74254 8.5383,-0.9824 13.92332,-0.89406 8.40186,0.13783 15.44157,1.31658 23.4781,3.93123 11.87496,3.86347 22.27396,10.1515 31.02186,18.75821 l 1.87175,1.84154 -27.16674,24.20488 c -14.94171,13.31267 -27.40346,24.40781 -27.69278,24.65585 l -0.52604,0.45098 -2.51748,-0.62936 c -1.38461,-0.34616 -2.55777,-0.62747 -2.60704,-0.62515 -0.0493,0.002 -0.12833,0.22868 -0.17572,0.50302 -0.0474,0.27434 -0.1304,0.56879 -0.18446,0.65433 -0.0646,0.10232 -2.36498,-1.52907 -6.7229,-4.76787 z"
       id="path2464"
       inkscape:connector-curvature="0" />
    <path
       style="opacity:1;fill:#600000;fill-opacity:1;fill-rule:nonzero;stroke:none;stroke-width:0.03839687;stroke-miterlimit:4;stroke-dasharray:none;stroke-dashoffset:0;stroke-opacity:1"
       d="m 73.895083,221.06458 c -1.542374,-6.77913 -2.067092,-17.77758 -1.174196,-24.61197 1.143044,-8.74907 3.721303,-16.92722 7.841512,-24.87298 2.658864,-5.12758 6.611674,-11.21245 7.220561,-11.11516 0.168678,0.0269 14.03512,9.94759 30.81431,22.04588 23.11112,16.66379 30.34467,22.06287 29.83556,22.26903 -0.56364,0.22824 -73.60792,18.24963 -73.969384,18.24963 -0.06678,0 -0.322544,-0.88399 -0.568363,-1.96443 z"
       id="path2466"
       inkscape:connector-curvature="0" />
    <path
       style="opacity:1;fill:#008108;fill-opacity:1;fill-rule:nonzero;stroke:none;stroke-width:0.03996082;stroke-miterlimit:4;stroke-dasharray:none;stroke-dashoffset:0;stroke-opacity:1"
       d="m 187.1456,213.65625 c -20.33171,-5.18304 -37.18131,-9.47684 -37.44355,-9.5418 -0.26225,-0.0649 12.2605,-11.46359 27.82831,-25.33027 27.68755,-24.66206 28.32258,-25.19674 29.10587,-24.50589 1.07536,0.94843 6.27499,8.0167 8.12158,11.04028 5.70299,9.338 9.74281,20.98128 11.15341,32.14567 1.00318,7.9397 -0.0622,25.88751 -1.52309,25.65887 -0.15166,-0.0237 -16.91081,-4.28383 -37.24253,-9.46686 z"
       id="path2468"
       inkscape:connector-curvature="0" />
  </g>
  <g
     inkscape:groupmode="layer"
     id="layer2"
     inkscape:label="Layer 2"
     style="display:inline" />
  <g
     inkscape:groupmode="layer"
     id="layer3"
     inkscape:label="Layer 3"
     style="display:inline">
    <ellipse
       style="display:inline;opacity:1;fill:#151515;fill-opacity:1;fill-rule:nonzero;stroke:#000000;stroke-width:0.07983714;stroke-miterlimit:4;stroke-dasharray:none;stroke-dashoffset:0;stroke-opacity:1"
       id="path4992-9"
       cx="147.46817"
       cy="114.52977"
       rx="7.9521399"
       ry="7.7215075" />
    <ellipse
       style="display:inline;opacity:1;fill:#cc3232;fill-opacity:1;fill-rule:nonzero;stroke:none;stroke-width:0.01645013;stroke-miterlimit:4;stroke-dasharray:none;stroke-dashoffset:0;stroke-opacity:1"
       id="path1566"
       cx="84.770889"
       cy="116.43287"
       rx="9.0475731"
       ry="10.692586" />
    <ellipse
       style="display:inline;opacity:1;fill:#2dc937;fill-opacity:1;fill-rule:nonzero;stroke:none;stroke-width:0.01645013;stroke-miterlimit:4;stroke-dasharray:none;stroke-dashoffset:0;stroke-opacity:1"
       id="path1566-6"
       cx="208.67654"
       cy="115.76032"
       rx="9.0475731"
       ry="10.692586" />
    <ellipse
       style="display:inline;opacity:1;fill:#e7b416;fill-opacity:1;fill-rule:nonzero;stroke:none;stroke-width:0.01645013;stroke-miterlimit:4;stroke-dasharray:none;stroke-dashoffset:0;stroke-opacity:1"
       id="path1566-6-9"
       cx="144.86644"
       cy="56.071487"
       rx="9.0475731"
       ry="10.692586" />
    <g
       style="display:inline;opacity:1"
       id="layer1-5"
       inkscape:label="Layer 1"
       transform="matrix(1.0253765,0,0,1.0253765,67.40005,96.293223)">
      <path
         inkscape:connector-curvature="0"
         id="path4407"
         d="M 13.81913,14.910507 A 1.3656896,2.6208426 0 0 0 12.454316,17.531601 1.3656896,2.6208426 0 0 0 13.81913,20.152694 1.3656896,2.6208426 0 0 0 15.162576,18 l -1.207232,-0.633431 1.16717,-0.611588 A 1.3656896,2.6208426 0 0 0 13.81913,14.910507 Z m 6.837424,0 A 1.3656896,2.6208426 0 0 0 19.29174,17.531601 1.3656896,2.6208426 0 0 0 20.656554,20.152694 1.3656896,2.6208426 0 0 0 22,18 l -1.207232,-0.633431 1.16717,-0.611588 a 1.3656896,2.6208426 0 0 0 -1.303384,-1.844474 z"
         style="opacity:1;fill:#14110d;fill-opacity:1;fill-rule:nonzero;stroke:#000000;stroke-width:0.13377701;stroke-miterlimit:4;stroke-dasharray:none;stroke-dashoffset:0;stroke-opacity:1" />
      <circle
         r="0"
         cy="16"
         cx="16"
         id="path1710-8"
         style="opacity:1;fill:#ffca64;fill-opacity:1;stroke:#2c2c2c;stroke-width:0.1;stroke-miterlimit:4;stroke-dasharray:none;stroke-opacity:1" />
      <circle
         r="0"
         cy="16"
         cx="16"
         id="path1710-87"
         style="opacity:1;fill:#ffca64;fill-opacity:1;stroke:#2c2c2c;stroke-width:0.1;stroke-miterlimit:4;stroke-dasharray:none;stroke-opacity:1" />
    </g>
    <g
       style="display:inline;opacity:1"
       id="layer1-5-5"
       inkscape:label="Layer 1"
       transform="matrix(1.0253765,0,0,1.0253765,191.59809,94.636434)">
      <path
         inkscape:connector-curvature="0"
         id="path4407-9"
         d="M 13.81913,14.910507 A 1.3656896,2.6208426 0 0 0 12.454316,17.531601 1.3656896,2.6208426 0 0 0 13.81913,20.152694 1.3656896,2.6208426 0 0 0 15.162576,18 l -1.207232,-0.633431 1.16717,-0.611588 A 1.3656896,2.6208426 0 0 0 13.81913,14.910507 Z m 6.837424,0 A 1.3656896,2.6208426 0 0 0 19.29174,17.531601 1.3656896,2.6208426 0 0 0 20.656554,20.152694 1.3656896,2.6208426 0 0 0 22,18 l -1.207232,-0.633431 1.16717,-0.611588 a 1.3656896,2.6208426 0 0 0 -1.303384,-1.844474 z"
         style="opacity:1;fill:#14110d;fill-opacity:1;fill-rule:nonzero;stroke:#000000;stroke-width:0.13377701;stroke-miterlimit:4;stroke-dasharray:none;stroke-dashoffset:0;stroke-opacity:1" />
      <circle
         r="0"
         cy="16"
         cx="16"
         id="path1710-8-3"
         style="opacity:1;fill:#ffca64;fill-opacity:1;stroke:#2c2c2c;stroke-width:0.1;stroke-miterlimit:4;stroke-dasharray:none;stroke-opacity:1" />
      <circle
         r="0"
         cy="16"
         cx="16"
         id="path1710-87-7"
         style="opacity:1;fill:#ffca64;fill-opacity:1;stroke:#2c2c2c;stroke-width:0.1;stroke-miterlimit:4;stroke-dasharray:none;stroke-opacity:1" />
    </g>
    <g
       style="display:inline;opacity:1"
       id="layer1-5-54"
       inkscape:label="Layer 1"
       transform="matrix(1.0253765,0,0,1.0253765,127.2534,35.973998)">
      <path
         inkscape:connector-curvature="0"
         id="path4407-3"
         d="M 13.81913,14.910507 A 1.3656896,2.6208426 0 0 0 12.454316,17.531601 1.3656896,2.6208426 0 0 0 13.81913,20.152694 1.3656896,2.6208426 0 0 0 15.162576,18 l -1.207232,-0.633431 1.16717,-0.611588 A 1.3656896,2.6208426 0 0 0 13.81913,14.910507 Z m 6.837424,0 A 1.3656896,2.6208426 0 0 0 19.29174,17.531601 1.3656896,2.6208426 0 0 0 20.656554,20.152694 1.3656896,2.6208426 0 0 0 22,18 l -1.207232,-0.633431 1.16717,-0.611588 a 1.3656896,2.6208426 0 0 0 -1.303384,-1.844474 z"
         style="opacity:1;fill:#14110d;fill-opacity:1;fill-rule:nonzero;stroke:#000000;stroke-width:0.13377701;stroke-miterlimit:4;stroke-dasharray:none;stroke-dashoffset:0;stroke-opacity:1" />
      <circle
         r="0"
         cy="16"
         cx="16"
         id="path1710-8-1"
         style="opacity:1;fill:#ffca64;fill-opacity:1;stroke:#2c2c2c;stroke-width:0.1;stroke-miterlimit:4;stroke-dasharray:none;stroke-opacity:1" />
      <circle
         r="0"
         cy="16"
         cx="16"
         id="path1710-87-4"
         style="opacity:1;fill:#ffca64;fill-opacity:1;stroke:#2c2c2c;stroke-width:0.1;stroke-miterlimit:4;stroke-dasharray:none;stroke-opacity:1" />
    </g>
    <g
       style="display:inline;opacity:1"
       id="layer1-2"
       inkscape:label="Layer 1"
       transform="matrix(0.87075592,0,0,0.87075592,194.48347,100.09221)">
      <path
         inkscape:connector-curvature="0"
         id="path7119"
         d="m 13.656554,22.910507 c 1.899773,1.31698 4.850078,1.074961 7,0"
         style="fill:none;stroke:#000000;stroke-width:1px;stroke-linecap:butt;stroke-linejoin:miter;stroke-opacity:1" />
      <circle
         r="0"
         cy="16"
         cx="16"
         id="path1710-8-17"
         style="opacity:1;fill:#ffca64;fill-opacity:1;stroke:#2c2c2c;stroke-width:0.1;stroke-miterlimit:4;stroke-dasharray:none;stroke-opacity:1" />
      <circle
         r="0"
         cy="16"
         cx="16"
         id="path1710-87-8"
         style="opacity:1;fill:#ffca64;fill-opacity:1;stroke:#2c2c2c;stroke-width:0.1;stroke-miterlimit:4;stroke-dasharray:none;stroke-opacity:1" />
    </g>
    <g
       style="display:inline;opacity:1"
       id="layer1-2-1"
       inkscape:label="Layer 1"
       transform="matrix(0.87075592,0,0,-0.87075592,68.220866,154.09546)">
      <path
         inkscape:connector-curvature="0"
         id="path7119-1"
         d="m 15.597714,37.409882 c 1.899773,1.31698 4.850078,1.074961 7,0"
         style="fill:none;stroke:#000000;stroke-width:1px;stroke-linecap:butt;stroke-linejoin:miter;stroke-opacity:1" />
      <circle
         r="0"
         cy="16"
         cx="16"
         id="path1710-8-17-7"
         style="opacity:1;fill:#ffca64;fill-opacity:1;stroke:#2c2c2c;stroke-width:0.1;stroke-miterlimit:4;stroke-dasharray:none;stroke-opacity:1" />
      <circle
         r="0"
         cy="16"
         cx="16"
         id="path1710-87-8-7"
         style="opacity:1;fill:#ffca64;fill-opacity:1;stroke:#2c2c2c;stroke-width:0.1;stroke-miterlimit:4;stroke-dasharray:none;stroke-opacity:1" />
    </g>
    <g
       style="display:inline;opacity:1"
       id="layer1-2-2"
       inkscape:label="Layer 1"
       transform="matrix(0.87075592,0,0,0.87075592,130.17985,41.061367)">
      <path
         inkscape:connector-curvature="0"
         id="path7119-2"
         d="m 13.656557,23.855096 c 3.221646,0 4.732989,0 7,0"
         style="fill:none;stroke:#000000;stroke-width:1px;stroke-linecap:butt;stroke-linejoin:miter;stroke-opacity:1"
         sodipodi:nodetypes="cc" />
      <circle
         r="0"
         cy="16"
         cx="16"
         id="path1710-8-17-8"
         style="opacity:1;fill:#ffca64;fill-opacity:1;stroke:#2c2c2c;stroke-width:0.1;stroke-miterlimit:4;stroke-dasharray:none;stroke-opacity:1" />
      <circle
         r="0"
         cy="16"
         cx="16"
         id="path1710-87-8-2"
         style="opacity:1;fill:#ffca64;fill-opacity:1;stroke:#2c2c2c;stroke-width:0.1;stroke-miterlimit:4;stroke-dasharray:none;stroke-opacity:1" />
    </g>
    <path
       style="display:inline;opacity:1;fill:#000000;fill-opacity:0.91627909;fill-rule:nonzero;stroke:none;stroke-width:0.49365944;stroke-miterlimit:4;stroke-dasharray:none;stroke-dashoffset:0;stroke-opacity:0.34883722"
       d="m 101.14527,115.50646 14.58342,-0.10486 c -0.002,-0.28517 -1e-4,-0.57047 0.006,-0.85579 l -14.5782,-0.32672 c -0.01,0.42825 -0.0135,0.8574 -0.0115,1.28737 z"
       id="path5081"
       inkscape:connector-curvature="0" />
    <path
       style="display:inline;opacity:1;fill:#000000;fill-opacity:0.91627909;fill-rule:nonzero;stroke:none;stroke-width:0.49365944;stroke-miterlimit:4;stroke-dasharray:none;stroke-dashoffset:0;stroke-opacity:0.34883722"
       d="m 102.09087,105.90946 18.21009,3.85335 c 0.0603,-0.27715 0.125,-0.55384 0.19402,-0.82991 l -18.09885,-4.4115 c -0.10864,0.46061 -0.21042,0.92335 -0.30526,1.38806 z"
       id="path5079"
       inkscape:connector-curvature="0" />
    <path
       style="display:inline;opacity:1;fill:#000000;fill-opacity:0.91627909;fill-rule:nonzero;stroke:none;stroke-width:0.49365944;stroke-miterlimit:4;stroke-dasharray:none;stroke-dashoffset:0;stroke-opacity:0.34883722"
       d="m 104.98206,96.703717 13.47074,5.883123 c 0.11642,-0.2658 0.23626,-0.53022 0.35948,-0.79314 l -13.32097,-6.229103 c -0.17472,0.37732 -0.34449,0.75706 -0.50925,1.13912 z"
       id="path5077"
       inkscape:connector-curvature="0" />
    <path
       style="display:inline;opacity:1;fill:#000000;fill-opacity:1;fill-rule:nonzero;stroke:none;stroke-width:0.49365944;stroke-miterlimit:4;stroke-dasharray:none;stroke-dashoffset:0;stroke-opacity:0.34883722"
       d="m 109.99069,88.172347 20.8201,14.324223 c 0.14812,-0.21785 0.29946,-0.43321 0.45388,-0.64581 L 110.94513,86.843007 c -0.32593,0.43769 -0.64412,0.88088 -0.95444,1.32934 z"
       id="path5075"
       inkscape:connector-curvature="0" />
    <path
       style="display:inline;opacity:1;fill:#000000;fill-opacity:0.91627909;fill-rule:nonzero;stroke:none;stroke-width:0.49365944;stroke-miterlimit:4;stroke-dasharray:none;stroke-dashoffset:0;stroke-opacity:0.34883722"
       d="m 102.43319,125.63582 24.56528,-6.29409 c -0.0729,-0.21189 -0.1395,-0.4265 -0.2,-0.64357 l -24.71655,5.22399 c 0.10625,0.57101 0.22329,1.14231 0.35128,1.71366"
       id="path5073"
       inkscape:connector-curvature="0" />
    <path
       style="display:inline;opacity:1;fill:#000000;fill-opacity:0.91627909;fill-rule:nonzero;stroke:none;stroke-width:0.49365944;stroke-miterlimit:4;stroke-dasharray:none;stroke-dashoffset:0;stroke-opacity:0.34883722"
       d="m 117.06098,80.046646 9.75985,10.902391 c 0.21423,-0.19243 0.43092,-0.38184 0.65,-0.56811 L 118.0177,79.225471 c -0.3229,0.269696 -0.64183,0.543456 -0.95672,0.821175 z"
       id="path5071"
       inkscape:connector-curvature="0" />
    <path
       style="display:inline;opacity:1;fill:#000000;fill-opacity:0.91627909;fill-rule:nonzero;stroke:none;stroke-width:0.49365944;stroke-miterlimit:4;stroke-dasharray:none;stroke-dashoffset:0;stroke-opacity:0.34883722"
       d="m 124.89382,74.456149 9.16164,16.139868 c 0.24162,-0.13695 0.48525,-0.26942 0.73081,-0.39725 l -8.61755,-16.441725 c -0.42948,0.226947 -0.85447,0.460025 -1.2749,0.699107 z"
       id="path5069"
       inkscape:connector-curvature="0" />
    <path
       style="display:inline;opacity:1;fill:#000000;fill-opacity:0.91627909;fill-rule:nonzero;stroke:none;stroke-width:0.49365944;stroke-miterlimit:4;stroke-dasharray:none;stroke-dashoffset:0;stroke-opacity:0.34883722"
       d="m 134.12844,70.439378 4.03662,14.160537 c 0.22819,-0.0636 0.45754,-0.12378 0.68793,-0.18075 0.0478,-0.0126 0.0956,-0.0251 0.1435,-0.0374 l -3.58148,-14.31203 c -0.0752,0.0167 -0.15046,0.03341 -0.22581,0.04996 -0.35569,0.10288 -0.70926,0.209519 -1.06068,0.319968 z"
       id="path5067"
       inkscape:connector-curvature="0" />
    <path
       style="display:inline;opacity:1;fill:#000000;fill-opacity:0.91627909;fill-rule:nonzero;stroke:none;stroke-width:0.49365944;stroke-miterlimit:4;stroke-dasharray:none;stroke-dashoffset:0;stroke-opacity:0.34883722"
       d="m 143.87963,68.996197 1.03697,25.04337 c 0.23528,-0.0127 0.47213,-0.0198 0.7103,-0.0214 l -0.0516,-25.052592 c -0.56386,3.1e-5 -1.12916,0.0102 -1.69565,0.03065 z"
       id="path5065"
       inkscape:connector-curvature="0" />
    <path
       style="display:inline;opacity:1;fill:#000000;fill-opacity:1;fill-rule:nonzero;stroke:none;stroke-width:0.49365944;stroke-miterlimit:4;stroke-dasharray:none;stroke-dashoffset:0;stroke-opacity:0.34883722"
       d="m 110.56732,87.305097 20.31953,15.007743 c 0.15357,-0.21151 0.3102,-0.4203 0.46974,-0.62615 L 111.56595,86.011555 c -0.34051,0.42554 -0.67343,0.856802 -0.99863,1.293542 z"
       id="path5063"
       inkscape:connector-curvature="0" />
    <path
       style="display:inline;opacity:1;fill:#000000;fill-opacity:0.91627909;fill-rule:nonzero;stroke:none;stroke-width:0.49365944;stroke-miterlimit:4;stroke-dasharray:none;stroke-dashoffset:0;stroke-opacity:0.34883722"
       d="m 155.43335,70.01298 -3.18074,14.279045 c 0.28084,0.0631 0.56101,0.12998 0.84042,0.20069 l 3.56769,-14.198457 c -0.40746,-0.09915 -0.81661,-0.192934 -1.22737,-0.281278 z"
       id="path5061"
       inkscape:connector-curvature="0" />
    <path
       style="display:inline;opacity:1;fill:#000000;fill-opacity:0.91627909;fill-rule:nonzero;stroke:none;stroke-width:0.49365944;stroke-miterlimit:4;stroke-dasharray:none;stroke-dashoffset:0;stroke-opacity:0.34883722"
       d="m 164.45747,72.934252 -7.60435,17.095355 c 0.26337,0.11822 0.52527,0.24024 0.78554,0.36598 l 8.09841,-16.875895 c -0.42345,-0.201445 -0.85004,-0.396612 -1.27961,-0.585438 z"
       id="path5059"
       inkscape:connector-curvature="0" />
    <path
       style="display:inline;opacity:1;fill:#000000;fill-opacity:0.91627909;fill-rule:nonzero;stroke:none;stroke-width:0.49365944;stroke-miterlimit:4;stroke-dasharray:none;stroke-dashoffset:0;stroke-opacity:0.34883722"
       d="m 172.80195,77.669441 -8.48626,12.013726 c 0.23736,0.16742 0.47255,0.3378 0.70546,0.51108 l 8.78761,-11.788572 c -0.33243,-0.249913 -0.66807,-0.495346 -1.00681,-0.736234 z"
       id="path5057"
       inkscape:connector-curvature="0" />
    <path
       style="display:inline;opacity:1;fill:#000000;fill-opacity:0.91627909;fill-rule:nonzero;stroke:none;stroke-width:0.49365944;stroke-miterlimit:4;stroke-dasharray:none;stroke-dashoffset:0;stroke-opacity:0.34883722"
       d="m 179.84778,83.820785 -18.22203,17.347345 c 0.17908,0.18221 0.35428,0.36684 0.52539,0.55373 l 18.80493,-16.676855 c -0.36265,-0.41504 -0.73216,-0.82317 -1.10829,-1.22422 z"
       id="path5055"
       inkscape:connector-curvature="0" />
    <path
       style="display:inline;opacity:1;fill:#000000;fill-opacity:0.91627909;fill-rule:nonzero;stroke:none;stroke-width:0.49365944;stroke-miterlimit:4;stroke-dasharray:none;stroke-dashoffset:0;stroke-opacity:0.34883722"
       d="m 145.57556,69.102785 0.0516,25.052582 c 0.23655,-0.002 0.47444,0.002 0.71347,0.0114 l 0.91779,-25.033807 c -0.5594,-0.0201 -1.12044,-0.0302 -1.68288,-0.03017 z"
       id="path5053"
       inkscape:connector-curvature="0" />
    <path
       style="display:inline;opacity:1;fill:#000000;fill-opacity:0.91627909;fill-rule:nonzero;stroke:none;stroke-width:0.49365944;stroke-miterlimit:4;stroke-dasharray:none;stroke-dashoffset:0;stroke-opacity:0.34883722"
       d="m 186.65016,93.154237 -12.76458,7.051403 c 0.13783,0.24974 0.27185,0.50147 0.40195,0.75514 l 12.97301,-6.669313 c -0.19864,-0.38261 -0.40214,-0.7617 -0.61038,-1.13723 z"
       id="path5051"
       inkscape:connector-curvature="0" />
    <path
       style="display:inline;opacity:1;fill:#000000;fill-opacity:0.91627909;fill-rule:nonzero;stroke:none;stroke-width:0.49365944;stroke-miterlimit:4;stroke-dasharray:none;stroke-dashoffset:0;stroke-opacity:0.34883722"
       d="m 190.52445,102.28582 -18.07926,4.98719 c 0.0334,0.13291 0.065,0.26629 0.0956,0.39993 0.0376,0.13186 0.0735,0.2642 0.10857,0.39672 l 18.24995,-4.32094 c -0.0511,-0.24623 -0.10417,-0.4925 -0.15925,-0.73878 -0.0701,-0.24235 -0.14191,-0.48374 -0.21557,-0.72412 z"
       id="path5049"
       inkscape:connector-curvature="0" />
    <path
       style="display:inline;opacity:1;fill:#000000;fill-opacity:0.91627909;fill-rule:nonzero;stroke:none;stroke-width:0.49365944;stroke-miterlimit:4;stroke-dasharray:none;stroke-dashoffset:0;stroke-opacity:0.34883722"
       d="m 191.8817,112.32761 -14.58171,0.39066 c 0.008,0.28497 0.0114,0.57014 0.0107,0.85538 l 14.58268,0.0446 c 0.002,-0.42939 -0.002,-0.85963 -0.0117,-1.29062 z"
       id="path5047"
       inkscape:connector-curvature="0" />
    <path
       style="display:inline;opacity:1;fill:#000000;fill-opacity:0.91627909;fill-rule:nonzero;stroke:none;stroke-width:0.49365944;stroke-miterlimit:4;stroke-dasharray:none;stroke-dashoffset:0;stroke-opacity:0.34883722"
       d="m 191.12728,121.84344 -24.66809,-4.69479 c -0.0507,0.24598 -0.10614,0.49214 -0.1663,0.73829 l 24.50739,5.57951 c 0.11838,-0.5383 0.22743,-1.07938 0.327,-1.62301 z"
       id="path5045"
       inkscape:connector-curvature="0" />
    <path
       style="display:inline;opacity:1;fill:#000000;fill-opacity:0.91627909;fill-rule:nonzero;stroke:none;stroke-width:0.49365944;stroke-miterlimit:4;stroke-dasharray:none;stroke-dashoffset:0;stroke-opacity:0.34883722"
       d="m 180.85306,85.136365 -18.80493,16.676845 c 0.17017,0.18576 0.33625,0.37377 0.49804,0.5639 L 181.9178,86.399185 c -0.34791,-0.42777 -0.7029,-0.84876 -1.06474,-1.26282 z"
       id="path5043"
       inkscape:connector-curvature="0" />
    <path
       style="display:inline;opacity:1;fill:#000000;fill-opacity:0.91627909;fill-rule:nonzero;stroke:none;stroke-width:0.49365944;stroke-miterlimit:4;stroke-dasharray:none;stroke-dashoffset:0;stroke-opacity:0.34883722"
       d="m 190.66603,123.43589 -24.50738,-5.57951 c -0.0599,0.2447 -0.12441,0.4894 -0.19349,0.73386 l 24.31857,6.44825 c 0.13667,-0.53128 0.26415,-1.06556 0.3823,-1.6026 z"
       id="path5033"
       inkscape:connector-curvature="0" />
    <path
       style="display:inline;opacity:1;fill:#000000;fill-opacity:0.91627909;fill-rule:nonzero;stroke:none;stroke-width:0.49365944;stroke-miterlimit:4;stroke-dasharray:none;stroke-dashoffset:0;stroke-opacity:0.34883722"
       d="M 102.81635,127.34599 127,120.04167 c -0.0522,-0.22106 -0.0975,-0.44299 -0.13607,-0.66556 l -24.56533,6.29397 c 0.16312,0.564 0.33579,1.12267 0.51778,1.67591 z"
       id="path5015"
       inkscape:connector-curvature="0" />
  </g>
  <g
     inkscape:groupmode="layer"
     id="layer4"
     inkscape:label="Layer 4"
     style="display:inline" />
</svg>
