<?xml version="1.0" encoding="UTF-8" standalone="no"?>
<!-- Created with Inkscape (http://www.inkscape.org/) -->

<svg
   xmlns:dc="http://purl.org/dc/elements/1.1/"
   xmlns:cc="http://creativecommons.org/ns#"
   xmlns:rdf="http://www.w3.org/1999/02/22-rdf-syntax-ns#"
   xmlns:svg="http://www.w3.org/2000/svg"
   xmlns="http://www.w3.org/2000/svg"
   xmlns:sodipodi="http://sodipodi.sourceforge.net/DTD/sodipodi-0.dtd"
   xmlns:inkscape="http://www.inkscape.org/namespaces/inkscape"
   width="297mm"
   height="210mm"
   viewBox="0 0 297 210"
   version="1.1"
   id="svg8"
   inkscape:version="0.92.4 (5da689c313, 2019-01-14)"
   sodipodi:docname="ship_bars.svg">
  <defs
     id="defs2" />
  <sodipodi:namedview
     id="base"
     pagecolor="#ffffff"
     bordercolor="#666666"
     borderopacity="1.0"
     inkscape:pageopacity="0.0"
     inkscape:pageshadow="2"
     inkscape:zoom="1.0684127"
     inkscape:cx="243.47461"
     inkscape:cy="574.34884"
     inkscape:document-units="mm"
     inkscape:current-layer="layer1"
     showgrid="true"
     inkscape:window-width="1920"
     inkscape:window-height="1017"
     inkscape:window-x="-8"
     inkscape:window-y="-8"
     inkscape:window-maximized="1">
    <inkscape:grid
       type="xygrid"
       id="grid1587" />
  </sodipodi:namedview>
  <metadata
     id="metadata5">
    <rdf:RDF>
      <cc:Work
         rdf:about="">
        <dc:format>image/svg+xml</dc:format>
        <dc:type
           rdf:resource="http://purl.org/dc/dcmitype/StillImage" />
        <dc:title />
      </cc:Work>
    </rdf:RDF>
  </metadata>
  <g
     inkscape:label="Layer 1"
     inkscape:groupmode="layer"
     id="layer1"
     transform="translate(0,-87)"
     style="display:inline;opacity:0.28800001" />
  <g
     inkscape:groupmode="layer"
     id="layer2"
     inkscape:label="Layer 2"
     style="display:inline" />
  <g
     inkscape:groupmode="layer"
     id="layer3"
     inkscape:label="Layer 3"
     style="display:inline">
    <path
       style="display:inline;fill:#424242;fill-opacity:1;stroke:#000000;stroke-width:0.1;stroke-linecap:butt;stroke-linejoin:miter;stroke-opacity:1;stroke-miterlimit:4;stroke-dasharray:none"
       d="M 561.25977 240.94531 C 557.66602 241.10156 554.05478 241.27155 550.42578 241.45898 C 546.79678 241.64642 543.14905 241.84984 539.48633 242.06836 C 495.53425 244.69065 449.20953 249.54793 401.83984 256.5625 C 397.89231 257.14706 393.93589 257.74686 389.97461 258.36133 C 362.24625 262.66256 334.19873 267.69604 306.09766 273.44531 C 302.08312 274.26666 298.06678 275.10259 294.05078 275.95312 C 165.53957 303.17023 36.672057 345.31004 -67.386719 400.89062 C -70.63857 402.62753 -73.867683 404.37752 -77.070312 406.14062 C -102.69079 420.24525 -126.71219 435.18958 -148.74023 450.94531 C -146.11101 449.3069 -143.45091 447.68212 -140.77539 446.06445 C -140.26827 445.75785 -139.76267 445.45039 -139.25391 445.14453 C -136.68635 443.6009 -134.09894 442.06571 -131.49023 440.54102 C -130.95186 440.22638 -130.40924 439.91344 -129.86914 439.59961 C -127.47752 438.20983 -125.06955 436.82714 -122.64453 435.45312 C -122.26022 435.2354 -121.87928 435.01616 -121.49414 434.79883 C -118.87904 433.32299 -116.24062 431.85801 -113.58789 430.40039 C -112.85365 429.99699 -112.11794 429.59536 -111.38086 429.19336 C -108.76838 427.76832 -106.14363 426.34896 -103.49609 424.94141 C -102.91741 424.6338 -102.33228 424.33021 -101.75195 424.02344 C -99.492212 422.82872 -97.217995 421.64106 -94.933594 420.45898 C -94.187796 420.07313 -93.445654 419.68529 -92.697266 419.30078 C -91.993015 418.93889 -91.278793 418.5814 -90.572266 418.2207 C -87.493258 416.64907 -84.394883 415.0881 -81.273438 413.53906 C -80.278368 413.04516 -79.276637 412.55411 -78.277344 412.0625 C -75.366499 410.63076 -72.438162 409.2092 -69.492188 407.79688 C -68.564402 407.352 -67.638232 406.90584 -66.707031 406.46289 C -63.292024 404.83877 -59.856388 403.22916 -56.396484 401.63086 C -55.994663 401.4452 -55.597727 401.25562 -55.195312 401.07031 C -47.082375 397.33508 -38.847002 393.67055 -30.503906 390.07617 C -30.057366 389.88375 -29.607324 389.69397 -29.160156 389.50195 C -25.486802 387.92492 -21.792842 386.36049 -18.078125 384.81055 C -17.437399 384.54316 -16.796223 384.27635 -16.154297 384.00977 C -12.286823 382.40395 -8.400087 380.81103 -4.4902344 379.23438 C -4.2510666 379.13791 -4.01276 379.04166 -3.7734375 378.94531 C 9.2663857 373.69632 22.534888 368.60886 35.996094 363.68164 C 36.230934 363.59568 36.466215 363.50969 36.701172 363.42383 C 41.114601 361.81101 45.546726 360.21521 50 358.63672 L 50 552.75781 L 60 552.75781 L 60 355.13281 C 70.518995 351.4877 81.137998 347.93577 91.841797 344.47852 C 107.83672 339.31226 124.0207 334.35572 140.33594 329.60547 C 140.45959 329.56947 140.58336 329.53403 140.70703 329.49805 C 151.56486 326.33922 162.48096 323.2711 173.43945 320.29492 C 178.94982 318.79838 184.47038 317.32559 190 315.875 L 190 462.75781 L 200 462.75781 L 200 313.28125 C 211.64296 310.29011 223.31698 307.39961 235.00391 304.60938 C 246.66681 301.82487 258.34337 299.13853 270.01172 296.55273 C 270.06634 296.54063 270.12116 296.52968 270.17578 296.51758 C 281.75275 293.95294 293.32063 291.48562 304.86523 289.11523 C 305.07822 289.07151 305.29094 289.02803 305.50391 288.98438 C 317.01914 286.62339 328.50991 284.35849 339.95508 282.18945 C 339.96997 282.18663 339.98511 282.18446 340 282.18164 L 340 417.75781 L 350 417.75781 L 350 280.30664 C 354.46323 279.48056 358.91845 278.6701 363.36523 277.87305 C 363.91591 277.77435 364.46522 277.67638 365.01562 277.57812 C 368.88349 276.88762 372.74404 276.2096 376.59766 275.54102 C 377.36173 275.40846 378.12519 275.27622 378.88867 275.14453 C 382.68239 274.4901 386.46791 273.84612 390.24609 273.21289 C 390.92414 273.09926 391.60373 272.98599 392.28125 272.87305 C 396.13715 272.23017 399.98238 271.59738 403.82031 270.97656 C 404.41335 270.88065 405.00898 270.78289 405.60156 270.6875 C 414.42616 269.26679 423.20091 267.90411 431.91602 266.59961 C 432.53904 266.50637 433.15884 266.41686 433.78125 266.32422 C 437.44467 265.77882 441.09874 265.24367 444.74023 264.71875 C 445.67311 264.5843 446.60378 264.45146 447.53516 264.31836 C 450.75566 263.85802 453.96595 263.40526 457.16797 262.96094 C 458.33946 262.79841 459.51076 262.63695 460.67969 262.47656 C 463.93574 262.02971 467.18052 261.59238 470.41602 261.16211 C 471.3719 261.03502 472.33113 260.90494 473.28516 260.7793 C 476.68421 260.33155 480.0666 259.89623 483.44141 259.4668 C 484.25103 259.3638 485.06681 259.25624 485.875 259.1543 C 489.95721 258.63924 494.02017 258.13669 498.06445 257.64844 C 499.06626 257.52752 500.0592 257.4142 501.05859 257.29492 C 503.97247 256.94708 506.88055 256.60344 509.77344 256.26953 C 511.28826 256.09472 512.79383 255.9249 514.30273 255.75391 C 516.9626 255.45242 519.61683 255.15489 522.25781 254.86523 C 523.50322 254.72867 524.74521 254.59488 525.98633 254.46094 C 528.76919 254.16056 531.54006 253.86727 534.30078 253.58008 C 535.58234 253.44678 536.86591 253.3121 538.14258 253.18164 C 540.99736 252.88988 543.83626 252.60767 546.66602 252.33008 C 547.65986 252.23259 548.6597 252.1309 549.65039 252.03516 C 553.5439 251.65885 557.41633 251.29472 561.25977 250.94531 C 565.10518 251.2949 568.97946 251.6606 572.875 252.03711 C 573.84343 252.1307 574.82153 252.22896 575.79297 252.32422 C 578.65759 252.60515 581.5316 252.89205 584.42188 253.1875 C 585.67153 253.31523 586.92731 253.44573 588.18164 253.57617 C 590.95458 253.86458 593.73792 254.15922 596.5332 254.46094 C 597.77432 254.59488 599.01631 254.72867 600.26172 254.86523 C 602.9027 255.15489 605.55694 255.45242 608.2168 255.75391 C 609.7257 255.9249 611.23127 256.09472 612.74609 256.26953 C 615.63899 256.60344 618.54706 256.94708 621.46094 257.29492 C 622.46034 257.4142 623.45327 257.52752 624.45508 257.64844 C 628.49936 258.13669 632.56232 258.63924 636.64453 259.1543 C 637.45272 259.25624 638.2685 259.3638 639.07812 259.4668 C 642.45293 259.89623 645.83532 260.33155 649.23438 260.7793 C 650.1884 260.90494 651.14764 261.03502 652.10352 261.16211 C 655.33901 261.59238 658.58379 262.02971 661.83984 262.47656 C 663.00878 262.63695 664.18007 262.79841 665.35156 262.96094 C 668.55358 263.40526 671.76387 263.85802 674.98438 264.31836 C 675.91575 264.45146 676.84642 264.5843 677.7793 264.71875 C 681.42079 265.24367 685.07486 265.77882 688.73828 266.32422 C 689.36069 266.41686 689.98049 266.50637 690.60352 266.59961 C 699.31862 267.90411 708.09337 269.26679 716.91797 270.6875 C 717.51055 270.78289 718.10618 270.88065 718.69922 270.97656 C 722.53716 271.59738 726.38238 272.23017 730.23828 272.87305 C 730.9158 272.98599 731.59539 273.09926 732.27344 273.21289 C 736.05162 273.84612 739.83714 274.4901 743.63086 275.14453 C 744.39434 275.27622 745.1578 275.40846 745.92188 275.54102 C 749.77549 276.2096 753.63604 276.88762 757.50391 277.57812 C 758.05431 277.67638 758.60362 277.77435 759.1543 277.87305 C 763.60109 278.6701 768.0563 279.48056 772.51953 280.30664 L 772.51953 417.75781 L 782.51953 417.75781 L 782.51953 282.18164 C 782.53448 282.18447 782.54951 282.18662 782.56445 282.18945 C 794.00962 284.35849 805.50039 286.62339 817.01562 288.98438 C 817.22859 289.02803 817.44131 289.07151 817.6543 289.11523 C 829.16056 291.47775 840.69199 293.93671 852.23047 296.49219 C 852.2995 296.50748 852.36847 296.52181 852.4375 296.53711 C 852.49225 296.54924 852.54681 296.56209 852.60156 296.57422 C 864.2393 299.15374 875.88336 301.83219 887.51562 304.60938 C 899.20255 307.39961 910.87656 310.29011 922.51953 313.28125 L 922.51953 462.75781 L 932.51953 462.75781 L 932.51953 315.875 C 938.04915 317.32559 943.56972 318.79838 949.08008 320.29492 C 960.03857 323.2711 970.95467 326.33922 981.8125 329.49805 C 981.87417 329.51599 981.93639 329.53284 981.99805 329.55078 C 982.05996 329.5688 982.12169 329.58745 982.18359 329.60547 C 998.49883 334.35572 1014.6828 339.31226 1030.6777 344.47852 C 1041.3815 347.93577 1052.0005 351.4877 1062.5195 355.13281 L 1062.5195 552.75781 L 1072.5195 552.75781 L 1072.5195 358.63672 C 1076.9728 360.21521 1081.4049 361.81101 1085.8184 363.42383 C 1086.0533 363.50969 1086.2886 363.59568 1086.5234 363.68164 C 1099.9846 368.60886 1113.2531 373.69631 1126.293 378.94531 C 1126.5323 379.04166 1126.7706 379.13791 1127.0098 379.23438 C 1130.9196 380.81103 1134.8064 382.40395 1138.6738 384.00977 C 1139.3158 384.27635 1139.9569 384.54316 1140.5977 384.81055 C 1144.3124 386.36049 1148.0063 387.92492 1151.6797 389.50195 C 1152.1269 389.69397 1152.5769 389.88375 1153.0234 390.07617 C 1161.3665 393.67055 1169.6019 397.33508 1177.7148 401.07031 C 1178.1173 401.25562 1178.5142 401.4452 1178.916 401.63086 C 1182.3852 403.23345 1185.8299 404.84801 1189.2539 406.47656 C 1190.1515 406.90356 1191.045 407.33294 1191.9395 407.76172 C 1194.935 409.1975 1197.9119 410.64376 1200.8711 412.09961 C 1201.8386 412.57567 1202.808 413.05109 1203.7715 413.5293 C 1206.9001 415.08179 1210.0058 416.64551 1213.0918 418.2207 C 1213.7983 418.5814 1214.5125 418.93889 1215.2168 419.30078 C 1215.9652 419.68529 1216.7073 420.07313 1217.4531 420.45898 C 1219.7375 421.64106 1222.0117 422.82872 1224.2715 424.02344 C 1224.8518 424.33021 1225.4369 424.6338 1226.0156 424.94141 C 1228.6632 426.34896 1231.2879 427.76832 1233.9004 429.19336 C 1234.6429 429.5983 1235.3835 430.0038 1236.123 430.41016 C 1238.743 431.84982 1241.3504 433.29646 1243.9336 434.75391 C 1244.4168 435.0265 1244.895 435.301 1245.377 435.57422 C 1247.7235 436.90473 1250.0539 438.2426 1252.3691 439.58789 C 1252.9158 439.90552 1253.4649 440.22256 1254.0098 440.54102 C 1256.6185 442.06571 1259.2059 443.6009 1261.7734 445.14453 C 1262.2822 445.45039 1262.7878 445.75785 1263.2949 446.06445 C 1265.9704 447.68212 1268.6305 449.3069 1271.2598 450.94531 C 1268.5062 448.97581 1265.7213 447.01824 1262.9062 445.07422 C 1223.4949 417.85761 1178.1315 393.14355 1128.9219 371.05469 C 1125.4069 369.47692 1121.8737 367.91225 1118.3203 366.36133 C 1001.0575 315.18062 863.26587 278.63881 732.54297 258.36133 C 728.58169 257.74686 724.62722 257.14706 720.67969 256.5625 C 716.73151 255.97785 712.79226 255.4101 708.85938 254.85547 C 704.92713 254.30092 701.00331 253.76078 697.08789 253.23633 C 689.25704 252.18742 681.46137 251.19947 673.70703 250.27148 C 646.56684 247.02354 619.93268 244.51814 594.06836 242.77148 C 582.98365 242.02292 572.04102 241.41406 561.25977 240.94531 z "
       transform="scale(0.26458333)"
       id="path1825-9" />
  </g>
  <g
     inkscape:groupmode="layer"
     id="layer4"
     inkscape:label="Layer 4"
     style="display:inline" />
</svg>
