<?xml version="1.0" encoding="UTF-8" standalone="no"?>
<!-- Created with Inkscape (http://www.inkscape.org/) -->

<svg
   xmlns:dc="http://purl.org/dc/elements/1.1/"
   xmlns:cc="http://creativecommons.org/ns#"
   xmlns:rdf="http://www.w3.org/1999/02/22-rdf-syntax-ns#"
   xmlns:svg="http://www.w3.org/2000/svg"
   xmlns="http://www.w3.org/2000/svg"
   xmlns:sodipodi="http://sodipodi.sourceforge.net/DTD/sodipodi-0.dtd"
   xmlns:inkscape="http://www.inkscape.org/namespaces/inkscape"
   width="110.02856mm"
   height="129.95193mm"
   viewBox="0 0 110.02856 129.95193"
   version="1.1"
   id="svg8"
   inkscape:version="0.92.4 (5da689c313, 2019-01-14)"
   sodipodi:docname="sickness.svg">
  <defs
     id="defs2" />
  <sodipodi:namedview
     id="base"
     pagecolor="#ffffff"
     bordercolor="#666666"
     borderopacity="1.0"
     inkscape:pageopacity="0.0"
     inkscape:pageshadow="2"
     inkscape:zoom="1"
     inkscape:cx="132.94563"
     inkscape:cy="303.39598"
     inkscape:document-units="mm"
     inkscape:current-layer="layer3"
     showgrid="false"
     inkscape:window-width="1920"
     inkscape:window-height="1017"
     inkscape:window-x="-8"
     inkscape:window-y="-8"
     inkscape:window-maximized="1">
    <inkscape:grid
       type="xygrid"
       id="grid1587"
       originx="-93.451109"
       originy="-40.024031" />
  </sodipodi:namedview>
  <metadata
     id="metadata5">
    <rdf:RDF>
      <cc:Work
         rdf:about="">
        <dc:format>image/svg+xml</dc:format>
        <dc:type
           rdf:resource="http://purl.org/dc/dcmitype/StillImage" />
        <dc:title />
      </cc:Work>
    </rdf:RDF>
  </metadata>
  <g
     inkscape:label="Layer 1"
     inkscape:groupmode="layer"
     id="layer1"
     transform="translate(-93.451105,-127.02403)"
     style="display:inline;opacity:1" />
  <g
     inkscape:groupmode="layer"
     id="layer2"
     inkscape:label="Layer 2"
     style="display:inline"
     transform="translate(-93.451105,-40.024033)" />
  <g
     inkscape:groupmode="layer"
     id="layer3"
     inkscape:label="Layer 3"
     style="display:inline"
     transform="translate(-93.451105,-40.024033)">
    <ellipse
       style="display:inline;opacity:1;fill:#ffca64;fill-opacity:1;fill-rule:nonzero;stroke:none;stroke-width:0.09996301;stroke-miterlimit:4;stroke-dasharray:none;stroke-dashoffset:0;stroke-opacity:1"
       id="path1566"
       cx="148.5"
       cy="105"
       rx="54.979664"
       ry="64.975967" />
    <g
       style="display:inline;opacity:1"
       id="layer1-5"
       inkscape:label="Layer 1"
       transform="matrix(6.2309369,0,0,6.2309369,42.942083,-17.383206)">
      <path
         inkscape:connector-curvature="0"
         id="path4407"
         d="M 13.81913,14.910507 A 1.3656896,2.6208426 0 0 0 12.454316,17.531601 1.3656896,2.6208426 0 0 0 13.81913,20.152694 1.3656896,2.6208426 0 0 0 15.162576,18 l -1.207232,-0.633431 1.16717,-0.611588 A 1.3656896,2.6208426 0 0 0 13.81913,14.910507 Z m 6.837424,0 A 1.3656896,2.6208426 0 0 0 19.29174,17.531601 1.3656896,2.6208426 0 0 0 20.656554,20.152694 1.3656896,2.6208426 0 0 0 22,18 l -1.207232,-0.633431 1.16717,-0.611588 a 1.3656896,2.6208426 0 0 0 -1.303384,-1.844474 z"
         style="opacity:1;fill:#14110d;fill-opacity:1;fill-rule:nonzero;stroke:#000000;stroke-width:0.13377701;stroke-miterlimit:4;stroke-dasharray:none;stroke-dashoffset:0;stroke-opacity:1" />
      <circle
         r="0"
         cy="16"
         cx="16"
         id="path1710-8"
         style="opacity:1;fill:#ffca64;fill-opacity:1;stroke:#2c2c2c;stroke-width:0.1;stroke-miterlimit:4;stroke-dasharray:none;stroke-opacity:1" />
      <circle
         r="0"
         cy="16"
         cx="16"
         id="path1710-87"
         style="opacity:1;fill:#ffca64;fill-opacity:1;stroke:#2c2c2c;stroke-width:0.1;stroke-miterlimit:4;stroke-dasharray:none;stroke-opacity:1" />
    </g>
    <path
       style="display:inline;opacity:1;fill:#ffffff;fill-opacity:1;fill-rule:nonzero;stroke:none;stroke-width:0.09996301;stroke-miterlimit:4;stroke-dasharray:none;stroke-dashoffset:0;stroke-opacity:1"
       d="m 93.453532,104.03838 c -0.007,0.15294 0.004,0.34683 -0.0021,0.49982 0.01217,1.87774 -0.0048,3.74521 0.144926,5.61466 l 42.107512,21.78471 2.44378,-4.69377 z"
       id="path1566-0"
       inkscape:connector-curvature="0"
       sodipodi:nodetypes="cccccc" />
    <path
       style="display:inline;opacity:1;fill:#ffffff;fill-opacity:1;fill-rule:nonzero;stroke:none;stroke-width:0.09996301;stroke-miterlimit:4;stroke-dasharray:none;stroke-dashoffset:0;stroke-opacity:1"
       d="m 203.42449,106.80591 c 0.007,0.15293 0.0135,0.3059 0.0196,0.45889 -0.0122,1.87774 -0.17488,3.27073 -0.32456,5.14018 l -42.50944,22.03026 -2.44378,-4.69377 z"
       id="path1566-0-9"
       inkscape:connector-curvature="0"
       sodipodi:nodetypes="cccccc" />
    <path
       style="display:inline;opacity:1;fill:#ffffff;fill-opacity:1;fill-rule:nonzero;stroke:none;stroke-width:0.08634447;stroke-miterlimit:4;stroke-dasharray:none;stroke-dashoffset:0;stroke-opacity:1"
       d="m 193.09622,143.05394 c -0.0656,0.10319 -0.2144,0.28891 -0.28086,0.39183 -0.8165,1.27939 -1.17761,2.12629 -2.18761,3.30529 l -48.45492,-0.54651 0.0465,-3.94804 z"
       id="path1566-0-9-9"
       inkscape:connector-curvature="0"
       sodipodi:nodetypes="cccccc" />
    <path
       style="display:inline;opacity:1;fill:#ffffff;fill-opacity:1;fill-rule:nonzero;stroke:none;stroke-width:0.08634448;stroke-miterlimit:4;stroke-dasharray:none;stroke-dashoffset:0;stroke-opacity:1"
       d="m 103.70673,142.67841 c 0.0656,0.10319 0.13172,0.20623 0.19818,0.30915 0.74367,1.24089 1.38431,2.21724 2.27029,3.44585 l 48.25648,-0.50517 -0.0465,-3.94804 z"
       id="path1566-0-9-9-5"
       inkscape:connector-curvature="0"
       sodipodi:nodetypes="cccccc" />
  </g>
  <g
     inkscape:groupmode="layer"
     id="layer4"
     inkscape:label="Layer 4"
     style="display:inline"
     transform="translate(-93.451105,-40.024033)">
    <rect
       style="display:inline;opacity:1;fill:#0a978e;fill-opacity:1;fill-rule:nonzero;stroke:none;stroke-width:0.27188429;stroke-miterlimit:4;stroke-dasharray:none;stroke-dashoffset:0;stroke-opacity:1"
       id="rect969"
       width="52.916679"
       height="26.458332"
       x="124.35415"
       y="120.04166" />
  </g>
</svg>
