<?xml version="1.0" encoding="UTF-8" standalone="no"?>
<!-- Created with Inkscape (http://www.inkscape.org/) -->

<svg
   xmlns:dc="http://purl.org/dc/elements/1.1/"
   xmlns:cc="http://creativecommons.org/ns#"
   xmlns:rdf="http://www.w3.org/1999/02/22-rdf-syntax-ns#"
   xmlns:svg="http://www.w3.org/2000/svg"
   xmlns="http://www.w3.org/2000/svg"
   xmlns:sodipodi="http://sodipodi.sourceforge.net/DTD/sodipodi-0.dtd"
   xmlns:inkscape="http://www.inkscape.org/namespaces/inkscape"
   width="297mm"
   height="210mm"
   viewBox="0 0 297 210"
   version="1.1"
   id="svg8"
   inkscape:version="0.92.4 (5da689c313, 2019-01-14)"
   sodipodi:docname="Steering_wheel.svg">
  <defs
     id="defs2" />
  <sodipodi:namedview
     id="base"
     pagecolor="#ffffff"
     bordercolor="#666666"
     borderopacity="1.0"
     inkscape:pageopacity="0.0"
     inkscape:pageshadow="2"
     inkscape:zoom="1.0684127"
     inkscape:cx="747.28681"
     inkscape:cy="310.37437"
     inkscape:document-units="mm"
     inkscape:current-layer="layer3"
     showgrid="true"
     inkscape:window-width="1920"
     inkscape:window-height="1017"
     inkscape:window-x="-8"
     inkscape:window-y="-8"
     inkscape:window-maximized="1">
    <inkscape:grid
       type="xygrid"
       id="grid1587" />
  </sodipodi:namedview>
  <metadata
     id="metadata5">
    <rdf:RDF>
      <cc:Work
         rdf:about="">
        <dc:format>image/svg+xml</dc:format>
        <dc:type
           rdf:resource="http://purl.org/dc/dcmitype/StillImage" />
        <dc:title></dc:title>
      </cc:Work>
    </rdf:RDF>
  </metadata>
  <g
     inkscape:label="Layer 1"
     inkscape:groupmode="layer"
     id="layer1"
     transform="translate(0,-87)"
     style="display:inline;opacity:0.288" />
  <g
     inkscape:groupmode="layer"
     id="layer2"
     inkscape:label="Layer 2"
     style="display:none">
    <path
       style="fill:#ffe1dc;fill-opacity:1;stroke:#000000;stroke-width:0.26458332px;stroke-linecap:butt;stroke-linejoin:miter;stroke-opacity:1"
       d="m 254.80321,133.17634 c 0,-5.13113 -0.79801,-9.62224 -0.99219,-14.74107 -1.7246,-5.17376 -2.6993,-12.45398 -3.41951,-18.11332 -0.73196,-2.5111 -0.34015,-3.571935 -2.75214,-3.827014 -1.80346,-0.481773 -3.72155,-0.86949 -4.50619,-2.368258 1.53347,-19.168406 -24.84555,-19.744108 -27.6395,-10.571522 0.60014,3.635824 4.84579,2.853952 4.49002,8.339325 -9.05992,12.596769 -21.00508,10.029459 -33.83043,5.185137 -7.90654,0.343763 -10.4574,9.797182 -2.36235,12.378722 6.54489,2.27648 12.4115,2.7163 15.30804,9.92187 1.64011,18.86134 20.80594,20.05393 29.76562,34.30134 2.38615,2.36745 4.68534,4.85657 7.13441,7.20768 3.75059,3.60057 9.19123,6.25126 12.62849,9.68852 3.86093,3.86093 6.17678,9.16658 21.1167,10.37277 6.56139,-12.51296 -10.65623,-37.64226 -14.94097,-47.77418 z"
       id="path1380"
       inkscape:connector-curvature="0"
       sodipodi:nodetypes="cccccccccccsscc" />
  </g>
  <g
     inkscape:groupmode="layer"
     id="layer3"
     inkscape:label="Layer 3"
     style="display:inline">
    <path
       style="display:inline;fill:#8f6d39;fill-opacity:1;stroke:#000000;stroke-width:0.09999999;stroke-linecap:butt;stroke-linejoin:miter;stroke-miterlimit:4;stroke-dasharray:none;stroke-opacity:1"
       d="M 561.25977 11.359375 C 532.82181 28.292164 553.48574 137.61191 549.85742 178.25781 A 219.16289 219.1629 0 0 0 414.73242 234.19922 C 383.41858 207.99901 320.75048 116.13256 288.67578 124.26562 C 280.54176 156.34414 372.43057 219.02268 398.60742 250.34375 A 219.16289 219.1629 0 0 0 342.5 385.45898 C 301.72725 389.01857 192.67856 368.44918 175.76758 396.84961 C 192.70095 425.28762 302.02255 404.62372 342.66797 408.26758 A 219.16289 219.1629 0 0 0 398.59766 543.36719 C 372.40806 574.69228 280.54233 637.35926 288.67578 669.43359 C 320.75357 677.56789 383.43147 585.68125 414.74219 559.49219 A 219.16289 219.1629 0 0 0 549.86914 615.61133 C 553.4286 656.3843 532.85942 765.43085 561.25977 782.3418 C 589.69816 765.40819 569.03316 656.0855 572.67773 615.44141 A 219.16289 219.1629 0 0 0 707.77539 559.51172 C 739.09984 585.69916 801.76876 677.56721 833.84375 669.43359 C 841.97816 637.35546 750.09033 574.67758 723.90234 543.36719 A 219.16289 219.1629 0 0 0 780.01953 408.25586 C 820.79147 404.68021 929.84129 425.25039 946.75195 396.84961 C 929.81916 368.41164 820.49941 389.07558 779.85352 385.44727 A 219.16289 219.1629 0 0 0 723.91211 250.32227 C 750.11246 219.00839 841.97682 156.34223 833.84375 124.26758 C 801.76524 116.13355 739.08669 208.02043 707.76562 234.19727 A 219.16289 219.1629 0 0 0 572.66602 178.0918 C 569.09036 137.31987 589.66056 28.270033 561.25977 11.359375 z M 548.8125 207.21094 L 548.8125 340.27148 A 56.063463 58.083768 0 0 0 530.41211 348.40039 L 435.43555 253.42383 A 188.93353 188.93353 0 0 1 548.8125 207.21094 z M 573.74023 207.5625 A 188.93353 188.93353 0 0 1 685.25 255.20703 L 592.0918 348.37695 A 56.063463 58.083768 0 0 0 573.73438 340.29688 L 573.74023 207.5625 z M 417.70312 270.94531 L 513.42578 366.6582 A 56.063463 58.083768 0 0 0 506.57031 384.40234 L 370.94336 384.40234 A 188.93353 188.93353 0 0 1 417.70312 270.94531 z M 702.66406 273.04883 A 188.93353 188.93353 0 0 1 747.83789 384.40234 L 615.98047 384.40234 A 56.063463 58.083768 0 0 0 609.06445 366.64844 L 702.66406 273.04883 z M 615.94336 409.32422 L 747.5625 409.33203 A 188.93353 188.93353 0 0 1 701.73242 519.7207 L 609.08008 427.06836 A 56.063463 58.083768 0 0 0 615.94336 409.32422 z M 506.54492 409.32617 A 56.063463 58.083768 0 0 0 513.43945 427.0293 L 418.76172 521.69727 A 188.93353 188.93353 0 0 1 370.87109 409.33203 L 506.54492 409.32617 z M 530.40625 445.30664 A 56.063463 58.083768 0 0 0 548.8125 453.41016 L 548.8125 584.18164 A 188.93353 188.93353 0 0 1 436.47656 539.23633 L 530.40625 445.30664 z M 592.08398 445.31641 L 684.08594 537.32617 A 188.93353 188.93353 0 0 1 573.74023 584.10547 L 573.73633 453.42188 A 56.063463 58.083768 0 0 0 592.08398 445.31641 z "
       transform="scale(0.26458333)"
       id="path1594-4" />
  </g>
  <g
     inkscape:groupmode="layer"
     id="layer4"
     inkscape:label="Layer 4"
     style="display:inline" />
</svg>
