<?xml version="1.0" encoding="UTF-8" standalone="no"?>
<!-- Created with Inkscape (http://www.inkscape.org/) -->

<svg
   xmlns:dc="http://purl.org/dc/elements/1.1/"
   xmlns:cc="http://creativecommons.org/ns#"
   xmlns:rdf="http://www.w3.org/1999/02/22-rdf-syntax-ns#"
   xmlns:svg="http://www.w3.org/2000/svg"
   xmlns="http://www.w3.org/2000/svg"
   xmlns:sodipodi="http://sodipodi.sourceforge.net/DTD/sodipodi-0.dtd"
   xmlns:inkscape="http://www.inkscape.org/namespaces/inkscape"
   width="81.368111mm"
   height="142.01405mm"
   viewBox="0 0 81.368111 142.01405"
   version="1.1"
   id="svg8"
   inkscape:version="0.92.4 (5da689c313, 2019-01-14)"
   sodipodi:docname="sweat.svg">
  <defs
     id="defs2" />
  <sodipodi:namedview
     id="base"
     pagecolor="#ffffff"
     bordercolor="#666666"
     borderopacity="1.0"
     inkscape:pageopacity="0.0"
     inkscape:pageshadow="2"
     inkscape:zoom="1"
     inkscape:cx="-186.94056"
     inkscape:cy="268.08227"
     inkscape:document-units="mm"
     inkscape:current-layer="layer2"
     showgrid="false"
     inkscape:window-width="1920"
     inkscape:window-height="1017"
     inkscape:window-x="-8"
     inkscape:window-y="-8"
     inkscape:window-maximized="1">
    <inkscape:grid
       type="xygrid"
       id="grid1587"
       originx="-107.82042"
       originy="-34.014425" />
  </sodipodi:namedview>
  <metadata
     id="metadata5">
    <rdf:RDF>
      <cc:Work
         rdf:about="">
        <dc:format>image/svg+xml</dc:format>
        <dc:type
           rdf:resource="http://purl.org/dc/dcmitype/StillImage" />
        <dc:title />
      </cc:Work>
    </rdf:RDF>
  </metadata>
  <g
     inkscape:label="Layer 1"
     inkscape:groupmode="layer"
     id="layer1"
     transform="translate(-107.82042,-120.97152)"
     style="display:inline;opacity:1" />
  <g
     inkscape:groupmode="layer"
     id="layer2"
     inkscape:label="Layer 2"
     style="display:inline"
     transform="translate(-107.82042,-33.97152)">
    <path
       style="opacity:1;fill:#0076ff;fill-opacity:1;fill-rule:nonzero;stroke:none;stroke-width:2.11666656;stroke-miterlimit:4;stroke-dasharray:none;stroke-dashoffset:0;stroke-opacity:1"
       d="m 142.52224,175.83721 c -0.36381,-0.0548 -2.03068,-0.28289 -3.70417,-0.50697 -15.87278,-2.12531 -25.93011,-8.69371 -29.54769,-19.29746 -1.90486,-5.58344 -1.9342,-13.81897 -0.0801,-22.48958 2.48795,-11.63495 7.04936,-23.24115 19.18525,-48.815624 6.71129,-14.142987 8.58815,-18.181076 10.76035,-23.151041 4.9179,-11.252155 7.68802,-19.296592 9.06543,-26.326042 0.38717,-1.975911 0.37055,-2.005679 1.32987,2.38125 2.03832,9.321115 5.84691,18.748208 17.53045,43.391667 14.69545,30.99629 18.81611,41.5642 21.40709,54.90104 0.65197,3.35595 0.71963,4.2638 0.71981,9.65729 1.8e-4,5.56478 -0.0442,6.11729 -0.67991,8.4697 -1.31705,4.87344 -3.39206,8.46608 -6.7103,11.61808 -5.55927,5.28077 -13.63052,8.44804 -25.33283,9.94096 -2.82684,0.36063 -12.05635,0.51071 -13.94322,0.22673 z"
       id="path857"
       inkscape:connector-curvature="0" />
    <path
       style="opacity:1;fill:#ffffff;fill-opacity:1;fill-rule:nonzero;stroke:none;stroke-width:7.99999952;stroke-miterlimit:4;stroke-dasharray:none;stroke-dashoffset:0;stroke-opacity:1"
       d="m 644.85938,563.60547 a 22.5,30 0 0 0 -8.68165,2.83984 22.5,30 0 0 0 -12.36132,33.68946 22.5,30 0 0 0 8.29101,17.23046 22.5,30 0 0 0 0.40235,0.40821 22.5,30 0 0 0 0.96289,0.89648 22.5,30 0 0 0 22.16992,2.29688 22.5,30 0 0 0 12.35937,-33.68946 22.5,30 0 0 0 -8.29101,-17.23046 22.5,30 0 0 0 -0.40235,-0.40821 22.5,30 0 0 0 -0.96289,-0.89648 22.5,30 0 0 0 -13.48632,-5.13672 z"
       transform="scale(0.26458333)"
       id="path859"
       inkscape:connector-curvature="0" />
  </g>
  <g
     inkscape:groupmode="layer"
     id="layer3"
     inkscape:label="Layer 3"
     style="display:inline"
     transform="translate(-107.82042,-33.97152)" />
  <g
     inkscape:groupmode="layer"
     id="layer4"
     inkscape:label="Layer 4"
     style="display:inline"
     transform="translate(-107.82042,-33.97152)" />
</svg>
