<?xml version="1.0" encoding="UTF-8" standalone="no"?>
<!-- Created with Inkscape (http://www.inkscape.org/) -->

<svg
   xmlns:dc="http://purl.org/dc/elements/1.1/"
   xmlns:cc="http://creativecommons.org/ns#"
   xmlns:rdf="http://www.w3.org/1999/02/22-rdf-syntax-ns#"
   xmlns:svg="http://www.w3.org/2000/svg"
   xmlns="http://www.w3.org/2000/svg"
   xmlns:sodipodi="http://sodipodi.sourceforge.net/DTD/sodipodi-0.dtd"
   xmlns:inkscape="http://www.inkscape.org/namespaces/inkscape"
   width="297mm"
   height="210mm"
   viewBox="0 0 297 210"
   version="1.1"
   id="SVGRoot"
   inkscape:version="0.92.4 (5da689c313, 2019-01-14)"
   sodipodi:docname="Tree.svg">
  <defs
     id="defs943" />
  <sodipodi:namedview
     id="base"
     pagecolor="#ffffff"
     bordercolor="#666666"
     borderopacity="1.0"
     inkscape:pageopacity="0.0"
     inkscape:pageshadow="2"
     inkscape:zoom="0.7"
     inkscape:cx="431.99912"
     inkscape:cy="406.40703"
     inkscape:document-units="mm"
     inkscape:current-layer="layer1"
     showgrid="true"
     inkscape:window-width="1920"
     inkscape:window-height="1017"
     inkscape:window-x="-8"
     inkscape:window-y="-8"
     inkscape:window-maximized="1">
    <inkscape:grid
       type="xygrid"
       id="grid1499" />
  </sodipodi:namedview>
  <metadata
     id="metadata946">
    <rdf:RDF>
      <cc:Work
         rdf:about="">
        <dc:format>image/svg+xml</dc:format>
        <dc:type
           rdf:resource="http://purl.org/dc/dcmitype/StillImage" />
        <dc:title />
      </cc:Work>
    </rdf:RDF>
  </metadata>
  <g
     inkscape:label="Layer 1"
     inkscape:groupmode="layer"
     id="layer1"
     style="display:inline" />
  <g
     inkscape:groupmode="layer"
     id="layer2"
     inkscape:label="Layer 2"
     style="display:inline">
    <path
       style="fill:#00033a;fill-opacity:1;stroke:#021742;stroke-width:0.26458332px;stroke-linecap:butt;stroke-linejoin:miter;stroke-opacity:1"
       d="M 240.77083,104.16667 C 240.44159,92.006633 229.70774,98.137291 224.5064,92.93595 224.07712,92.506667 252.63278,76.223317 254.70786,71.554389 260.42794,58.684204 238.51947,28.978436 245.35342,27.989456 263.99141,25.292248 309.83905,17.151869 293.6875,-8.2812452 287.53306,5.4322723 268.09235,8.468202 254,-16.218745 255.50733,32.28707 240.80985,1.2624793 230.92087,21.040449 224.78262,33.316949 249.38793,47.82254 236.8008,64.605381 202.33602,110.55841 138.05897,47.891392 93.927083,51.250005 97.781167,34.545603 71.963517,-24.678597 23.8125,-43.999995 -51.223742,18.804304 -4.4155629,188.57401 -7.9375,225.875 39.534316,193.6266 50.289867,172.40497 54.428572,154.81548 73.671085,73.034799 151.67203,117.96421 211.66666,98.875005"
       id="path1528"
       inkscape:connector-curvature="0"
       sodipodi:nodetypes="ccssccsscccsc" />
    <path
       style="fill:#00033a;fill-opacity:1;stroke:#021742;stroke-width:0.26458332px;stroke-linecap:butt;stroke-linejoin:miter;stroke-opacity:1"
       d="m 211.66666,98.875005 c 38.24013,2.098565 23.23344,42.369645 27.78126,71.437505 6.50787,-9.75849 11.81612,-20.7754 6.61458,-42.33334 14.78783,-2.85168 15.02531,12.53399 15.875,23.8125 12.18988,-22.01977 5.50313,-46.44505 -21.16667,-47.625"
       id="path1532"
       inkscape:connector-curvature="0"
       sodipodi:nodetypes="ccccc" />
  </g>
</svg>
