<?xml version="1.0" encoding="UTF-8" standalone="no"?>
<!-- Created with Inkscape (http://www.inkscape.org/) -->

<svg
   xmlns:dc="http://purl.org/dc/elements/1.1/"
   xmlns:cc="http://creativecommons.org/ns#"
   xmlns:rdf="http://www.w3.org/1999/02/22-rdf-syntax-ns#"
   xmlns:svg="http://www.w3.org/2000/svg"
   xmlns="http://www.w3.org/2000/svg"
   xmlns:sodipodi="http://sodipodi.sourceforge.net/DTD/sodipodi-0.dtd"
   xmlns:inkscape="http://www.inkscape.org/namespaces/inkscape"
   width="32px"
   height="32px"
   viewBox="0 0 32 32"
   version="1.1"
   id="SVGRoot"
   sodipodi:docname="blonde_hair_front_C.svg"
   inkscape:version="0.92.4 (5da689c313, 2019-01-14)">
  <defs
     id="defs863" />
  <sodipodi:namedview
     id="base"
     pagecolor="#ffffff"
     bordercolor="#666666"
     borderopacity="1.0"
     inkscape:pageopacity="0.0"
     inkscape:pageshadow="2"
     inkscape:zoom="22.627417"
     inkscape:cx="13.438194"
     inkscape:cy="15.994284"
     inkscape:document-units="px"
     inkscape:current-layer="layer1"
     showgrid="true"
     inkscape:window-width="1920"
     inkscape:window-height="1017"
     inkscape:window-x="-8"
     inkscape:window-y="-8"
     inkscape:window-maximized="1"
     inkscape:grid-bbox="true">
    <inkscape:grid
       type="xygrid"
       id="grid1706" />
  </sodipodi:namedview>
  <metadata
     id="metadata866">
    <rdf:RDF>
      <cc:Work
         rdf:about="">
        <dc:format>image/svg+xml</dc:format>
        <dc:type
           rdf:resource="http://purl.org/dc/dcmitype/StillImage" />
        <dc:title></dc:title>
      </cc:Work>
    </rdf:RDF>
  </metadata>
  <g
     inkscape:label="Layer 1"
     inkscape:groupmode="layer"
     id="layer1">
    <path
       style="fill:#434343;fill-opacity:1;stroke:#000000;stroke-width:0.07390068;stroke-linecap:butt;stroke-linejoin:miter;stroke-miterlimit:4;stroke-dasharray:none;stroke-opacity:1"
       d="m 2.9041285,16 c 0.6292051,-2.582941 2.9710149,-5.724989 5.5685667,-7.6040529 8.7137728,-6.3035259 15.6681738,0.243669 9.8452158,7.3111369 -0.84979,1.03141 -2.522728,1.985777 -3.845995,2.240181 C 10.915213,18.631058 7.7727489,17.028804 4.3773887,17.016587 4.0841135,17.015533 2.9938351,17.567675 2.7969604,17.391607 2.4501239,17.081424 2.7171817,16.427596 2.9041285,16"
       id="path869"
       inkscape:connector-curvature="0" />
    <path
       style="fill:#434343;fill-opacity:1;stroke:#000000;stroke-width:0.07390068;stroke-linecap:butt;stroke-linejoin:miter;stroke-miterlimit:4;stroke-dasharray:none;stroke-opacity:1"
       d="m 1.9028827,19.551543 c 0.629205,-2.582941 2.9710146,-5.72499 5.5685669,-7.604053 8.7137714,-6.303526 15.6681724,0.243669 9.8452144,7.311136 -0.84979,1.03141 -2.522727,1.985777 -3.845994,2.240181 C 9.9139671,22.1826 6.7715027,20.580346 3.3761429,20.56813 3.0828673,20.567075 1.9925894,21.119219 1.795715,20.943149 1.4488777,20.632966 1.7159362,19.979139 1.9028827,19.551543"
       id="path869-0"
       inkscape:connector-curvature="0" />
    <path
       style="fill:#434343;fill-opacity:1;stroke:#000000;stroke-width:0.07390068;stroke-linecap:butt;stroke-linejoin:miter;stroke-miterlimit:4;stroke-dasharray:none;stroke-opacity:1"
       d="m 2,23 c 0.629206,-2.582941 2.971015,-5.724989 5.568567,-7.604053 8.713773,-6.303525 15.668174,0.243669 9.845216,7.311137 -0.84979,1.03141 -2.522728,1.985777 -3.845995,2.240181 C 10.011085,25.631058 6.868621,24.028804 3.473261,24.016587 3.179986,24.015487 2.089707,24.567675 1.892832,24.391607 1.545996,24.081424 1.813054,23.427596 2,23"
       id="path869-8"
       inkscape:connector-curvature="0" />
    <path
       style="fill:#434343;fill-opacity:1;stroke:#000000;stroke-width:0.07390068;stroke-linecap:butt;stroke-linejoin:miter;stroke-miterlimit:4;stroke-dasharray:none;stroke-opacity:1"
       d="M 30,16 C 29.370794,13.417059 27.028985,10.275011 24.431433,8.395947 15.71766,2.0924215 8.763259,8.639616 14.586217,15.707084 c 0.84979,1.03141 2.522728,1.985777 3.845995,2.240181 3.556703,0.683793 6.699167,-0.918461 10.094527,-0.930678 0.293276,-0.0011 1.383554,0.551088 1.580429,0.37502 C 30.454004,17.081424 30.186946,16.427596 30,16"
       id="path869-9"
       inkscape:connector-curvature="0" />
    <path
       style="fill:#434343;fill-opacity:1;stroke:#000000;stroke-width:0.07390068;stroke-linecap:butt;stroke-linejoin:miter;stroke-miterlimit:4;stroke-dasharray:none;stroke-opacity:1"
       d="m 31.001245,19.551543 c -0.629205,-2.582941 -2.971014,-5.72499 -5.568567,-7.604053 -8.713771,-6.3035257 -15.668172,0.243669 -9.845214,7.311136 0.84979,1.03141 2.522727,1.985777 3.845994,2.240181 3.556703,0.683793 6.699167,-0.918461 10.094527,-0.930677 0.293276,-0.0011 1.383554,0.551089 1.580428,0.375019 0.346837,-0.310183 0.07978,-0.96401 -0.107168,-1.391606"
       id="path869-0-3"
       inkscape:connector-curvature="0" />
    <path
       style="fill:#434343;fill-opacity:1;stroke:#000000;stroke-width:0.07390068;stroke-linecap:butt;stroke-linejoin:miter;stroke-miterlimit:4;stroke-dasharray:none;stroke-opacity:1"
       d="m 30.904128,23 c -0.629206,-2.582941 -2.971015,-5.724989 -5.568567,-7.604053 -8.713773,-6.303525 -15.668174,0.243669 -9.845216,7.311137 0.84979,1.03141 2.522728,1.985777 3.845995,2.240181 3.556703,0.683793 6.699167,-0.918461 10.094527,-0.930678 0.293275,-0.0011 1.383554,0.551088 1.580429,0.37502 C 31.358132,24.081424 31.091074,23.427596 30.904128,23"
       id="path869-8-9"
       inkscape:connector-curvature="0" />
  </g>
</svg>
