<?xml version="1.0" encoding="UTF-8" standalone="no"?>
<!-- Created with Inkscape (http://www.inkscape.org/) -->

<svg
   xmlns:dc="http://purl.org/dc/elements/1.1/"
   xmlns:cc="http://creativecommons.org/ns#"
   xmlns:rdf="http://www.w3.org/1999/02/22-rdf-syntax-ns#"
   xmlns:svg="http://www.w3.org/2000/svg"
   xmlns="http://www.w3.org/2000/svg"
   xmlns:sodipodi="http://sodipodi.sourceforge.net/DTD/sodipodi-0.dtd"
   xmlns:inkscape="http://www.inkscape.org/namespaces/inkscape"
   width="32px"
   height="32px"
   viewBox="0 0 32 32"
   version="1.1"
   id="SVGRoot"
   sodipodi:docname="blonde_hair_front_multi.svg"
   inkscape:version="0.92.4 (5da689c313, 2019-01-14)">
  <defs
     id="defs863" />
  <sodipodi:namedview
     id="base"
     pagecolor="#ffffff"
     bordercolor="#666666"
     borderopacity="1.0"
     inkscape:pageopacity="0.0"
     inkscape:pageshadow="2"
     inkscape:zoom="22.627417"
     inkscape:cx="13.438194"
     inkscape:cy="15.994284"
     inkscape:document-units="px"
     inkscape:current-layer="layer1"
     showgrid="true"
     inkscape:window-width="1920"
     inkscape:window-height="1017"
     inkscape:window-x="-8"
     inkscape:window-y="-8"
     inkscape:window-maximized="1"
     inkscape:grid-bbox="true">
    <inkscape:grid
       type="xygrid"
       id="grid1706" />
  </sodipodi:namedview>
  <metadata
     id="metadata866">
    <rdf:RDF>
      <cc:Work
         rdf:about="">
        <dc:format>image/svg+xml</dc:format>
        <dc:type
           rdf:resource="http://purl.org/dc/dcmitype/StillImage" />
        <dc:title></dc:title>
      </cc:Work>
    </rdf:RDF>
  </metadata>
  <g
     inkscape:label="Layer 1"
     inkscape:groupmode="layer"
     id="layer1">
    <path
       style="opacity:1;fill:#fffe7e;fill-opacity:1;stroke:#ffdb5d;stroke-width:0.1;stroke-miterlimit:4;stroke-dasharray:none;stroke-dashoffset:0;stroke-opacity:1"
       d="m 16.964102,12 c -0.07307,3.742212 -3.06129,3.48723 -4.964102,5.451434 -3.716113,2.916094 -4.0000001,4 -9.0000001,5 -1.5094308,-0.64912 -1.0062298,-1.898694 -1,-3 0,-2 0.1929519,-5.939639 1.9999999,-9.451434 C 5.8898768,6.8002718 8.389806,6.1680983 11,6 c 6.174415,-0.8590747 5.912543,2.677491 5.964102,6 z"
       id="path5016"
       inkscape:connector-curvature="0"
       sodipodi:nodetypes="ccccccc" />
    <path
       style="opacity:1;fill:#fffe7e;fill-opacity:1;stroke:#ffdb5d;stroke-width:0.1;stroke-miterlimit:4;stroke-dasharray:none;stroke-dashoffset:0;stroke-opacity:1"
       d="m 14,6 c -3.742212,0.07307 -3.48723,3.06129 -5.451434,4.964102 -2.9160939,3.716113 -3.9999999,4 -4.9999999,9 0.64912,1.509431 1.898694,1.00623 2.9999998,1 2.0000001,0 5.9396391,-0.192952 9.4514341,-2 3.199729,-1.889877 3.831902,-4.389806 4.000001,-7 C 20.859075,5.789687 17.322509,6.051559 14,6 Z"
       id="path5016-3"
       inkscape:connector-curvature="0"
       sodipodi:nodetypes="ccccccc" />
    <path
       style="opacity:1;fill:#fffe7e;fill-opacity:1;stroke:#ffdb5d;stroke-width:0.1;stroke-miterlimit:4;stroke-dasharray:none;stroke-dashoffset:0;stroke-opacity:1"
       d="m 14.584464,12.035898 c 0.07307,3.742212 3.06129,3.48723 4.964102,5.451434 3.716113,2.916094 4,4 9,5 1.509431,-0.64912 1.00623,-1.898694 1,-3 0,-2 -0.192952,-5.939639 -2,-9.451434 -1.889877,-3.1997282 -4.389806,-3.8319017 -7,-4 -6.174415,-0.8590747 -5.912543,2.677491 -5.964102,6 z"
       id="path5016-8"
       inkscape:connector-curvature="0"
       sodipodi:nodetypes="ccccccc" />
    <path
       style="opacity:1;fill:#fffe7e;fill-opacity:1;stroke:#ffdb5d;stroke-width:0.1;stroke-miterlimit:4;stroke-dasharray:none;stroke-dashoffset:0;stroke-opacity:1"
       d="M 17.548566,6.035898 C 21.290778,6.108968 21.035796,9.097188 23,11 c 2.916094,3.716113 4,4 5,9 -0.64912,1.509431 -1.898694,1.00623 -3,1 -2,0 -5.939639,-0.192952 -9.451434,-2 -3.199729,-1.889877 -3.831902,-4.389806 -4.000001,-7 -0.859074,-6.174415 2.677492,-5.912543 6.000001,-5.964102 z"
       id="path5016-3-9"
       inkscape:connector-curvature="0"
       sodipodi:nodetypes="ccccccc" />
  </g>
</svg>
